<?xml version="1.0" encoding="UTF-8"?>
<svg xmlns="http://www.w3.org/2000/svg" viewBox="0 0 283.46 283.46">
  <defs>
    <style>
      .cls-1 {
        letter-spacing: 0em;
      }

      .cls-2 {
        letter-spacing: .02em;
      }

      .cls-3 {
        letter-spacing: 0em;
      }

      .cls-4 {
        letter-spacing: .02em;
      }

      .cls-5, .cls-6 {
        fill: #bad53c;
      }

      .cls-6 {
        font-family: URWDIN-Regular, 'URW DIN';
        font-size: 9.63px;
      }

      .cls-7 {
        letter-spacing: .01em;
      }

      .cls-8 {
        letter-spacing: 0em;
      }

      .cls-9 {
        letter-spacing: 0em;
      }

      .cls-10 {
        letter-spacing: 0em;
      }

      .cls-11 {
        letter-spacing: .03em;
      }

      .cls-12 {
        letter-spacing: 0em;
      }

      .cls-13 {
        fill: #231f20;
      }
    </style>
  </defs>
  <g id="Layer_2" data-name="Layer 2">
    <rect class="cls-13" x="-14.18" y="-14.18" width="311.81" height="311.81"/>
  </g>
  <g id="Layer_1" data-name="Layer 1">
    <g>
      <g>
        <path class="cls-5" d="M102.73,151.82h0s0-.03,0-.04v-.1c0-.51-.04-.81-.28-1.09,.65,.97-.35,1.57-.5,1.66-.05,.02-.09,.04-.14,.07l-20.11,10.76-.23,.12c-.88,.47-2.03,.47-2.91,0l-.23-.12-10.99-5.89c-1.77-.95-2.84-2.56-2.84-4.28s-1.07-3.33-2.84-4.28l-2.93-1.57c-1.57-.84-1.25-1.64-1.25-1.64-.13,.27-.22,.55-.23,.85,0,.02,0,.04,0,.06v11.19c0,1.01,.63,1.96,1.67,2.52l19.42,10.4c1.02,.55,2.35,.55,3.37,0l19.63-10.51c.88-.47,1.41-1.26,1.41-2.12v-5.17s0-.83,0-.83Z"/>
        <path class="cls-5" d="M58.91,146.18l19.42,10.4c1.02,.55,2.35,.55,3.37,0l19.63-10.51c.88-.47,1.41-1.26,1.41-2.12v-5.17s0-.83,0-.83h0s0-.03,0-.04v-.1c0-.51-.04-.81-.28-1.09,.65,.97-.35,1.57-.5,1.66-.05,.02-.09,.04-.14,.07l-20.11,10.76-.23,.12c-.88,.47-2.03,.47-2.91,0l-.23-.12-10.99-5.89c-1.77-.95-2.84-2.56-2.84-4.28s-1.07-3.33-2.84-4.28l-2.93-1.57c-1.57-.84-1.25-1.64-1.25-1.64-.13,.27-.22,.55-.23,.85,0,.02,0,.04,0,.06v11.19c0,1.01,.63,1.96,1.67,2.52Z"/>
        <path class="cls-5" d="M58.43,123.41c-.7,.35-1.19,1.08-1.19,1.92,0,.01,0,.03,0,.04,0,0,0,.02,0,.03v4.7c0,.85,.53,1.64,1.4,2.11l19.66,10.53s.02,0,.03,.01c1.03,.54,2.34,.54,3.37,0,.01,0,.02,0,.04-.01l19.6-10.49c.87-.47,1.4-1.26,1.4-2.11v-4.69s0-.02,0-.03c0-.01,0-.03,0-.04,0-.84-.49-1.56-1.19-1.92l-19.6-10.51c-1.24-.66-2.73-.66-3.96,0l-19.55,10.47Z"/>
      </g>
      <g>
        <g>
          <polygon class="cls-5" points="117.64 127.88 123.56 127.88 123.56 129.33 119.22 129.33 119.22 134.47 123.05 134.47 123.05 135.83 119.22 135.83 119.22 141.16 123.62 141.16 123.62 142.61 117.64 142.61 117.64 127.88"/>
          <path class="cls-5" d="M139.12,131.06c0-.53-.21-1.85-1.73-1.85-1.66,0-1.81,1.43-1.81,2.23v7.94c0,.53,.23,1.92,1.71,1.92,.82,0,1.83-.36,1.83-2.06v-.46h1.6v.55c0,2.11-.97,3.52-3.49,3.52-2.95,0-3.22-2.4-3.22-3.24v-8.72c0-1.66,1.16-3.2,3.31-3.2,1.83,0,3.35,.88,3.35,3.22v.95h-1.54v-.78Z"/>
          <polygon class="cls-5" points="152.84 127.88 152.84 135.71 156.82 127.88 158.42 127.88 155.41 133.75 159.03 142.61 157.32 142.61 154.44 135.27 152.84 138.38 152.84 142.61 151.26 142.61 151.26 127.88 152.84 127.88"/>
          <polygon class="cls-5" points="169.41 127.88 175.32 127.88 175.32 129.33 170.99 129.33 170.99 134.47 174.82 134.47 174.82 135.83 170.99 135.83 170.99 141.16 175.39 141.16 175.39 142.61 169.41 142.61 169.41 127.88"/>
          <path class="cls-5" d="M188.82,127.88c1.6,0,3.89,.23,3.89,3.49v1.16c0,1.62-.67,2.72-2.02,3.14l2.36,6.95h-1.64l-2.17-6.63h-1.79v6.63h-1.58v-14.74h2.95Zm-1.37,6.74h1.56c1.16,0,2.13-.67,2.13-1.98v-1.39c0-1.83-1.41-2-2.21-2h-1.47v5.37Z"/>
          <polygon class="cls-5" points="205.26 127.88 205.26 141.16 209.91 141.16 209.91 142.61 203.68 142.61 203.68 127.88 205.26 127.88"/>
          <polygon class="cls-5" points="220.18 127.88 226.1 127.88 226.1 129.33 221.76 129.33 221.76 134.47 225.59 134.47 225.59 135.83 221.76 135.83 221.76 141.16 226.16 141.16 226.16 142.61 220.18 142.61 220.18 127.88"/>
        </g>
        <text class="cls-6" transform="translate(116.57 155.75)"><tspan x="0" y="0">E</tspan><tspan class="cls-10" x="5.57" y="0">-M</tspan><tspan class="cls-12" x="18.13" y="0">O</tspan><tspan class="cls-11" x="24.72" y="0">T</tspan><tspan class="cls-9" x="30.29" y="0">ION </tspan><tspan class="cls-4" x="48.7" y="0">T</tspan><tspan class="cls-3" x="54.27" y="0">E</tspan><tspan class="cls-1" x="59.83" y="0">C</tspan><tspan class="cls-10" x="65.95" y="0">H</tspan><tspan class="cls-8" x="72.57" y="0">N</tspan><tspan class="cls-10" x="79.55" y="0">O</tspan><tspan class="cls-2" x="86.12" y="0">L</tspan><tspan class="cls-10" x="91.43" y="0">O</tspan><tspan class="cls-7" x="98" y="0">G</tspan><tspan class="cls-10" x="104.51" y="0">Y</tspan></text>
      </g>
    </g>
  </g>
</svg>