<?xml version="1.0" encoding="UTF-8"?>
<svg xmlns="http://www.w3.org/2000/svg" viewBox="0 0 283.46 283.46">
  <defs>
    <style>
      .cls-1 {
        fill: #bad53c;
      }

      .cls-2 {
        fill: #231f20;
      }
    </style>
  </defs>
  <g id="Layer_2" data-name="Layer 2">
    <rect class="cls-2" x="-14.18" y="-14.18" width="311.81" height="311.81"/>
  </g>
  <g id="Layer_1" data-name="Layer 1">
    <g>
      <g>
        <polygon class="cls-1" points="117.64 134.36 123.56 134.36 123.56 135.81 119.22 135.81 119.22 140.95 123.05 140.95 123.05 142.32 119.22 142.32 119.22 147.65 123.62 147.65 123.62 149.1 117.64 149.1 117.64 134.36"/>
        <path class="cls-1" d="M139.12,137.54c0-.53-.21-1.85-1.73-1.85-1.66,0-1.81,1.43-1.81,2.23v7.94c0,.53,.23,1.92,1.71,1.92,.82,0,1.83-.36,1.83-2.06v-.46h1.6v.55c0,2.11-.97,3.52-3.49,3.52-2.95,0-3.22-2.4-3.22-3.24v-8.72c0-1.66,1.16-3.2,3.31-3.2,1.83,0,3.35,.88,3.35,3.22v.95h-1.54v-.78Z"/>
        <polygon class="cls-1" points="152.84 134.36 152.84 142.19 156.82 134.36 158.42 134.36 155.41 140.24 159.03 149.1 157.32 149.1 154.44 141.75 152.84 144.87 152.84 149.1 151.26 149.1 151.26 134.36 152.84 134.36"/>
        <polygon class="cls-1" points="169.41 134.36 175.32 134.36 175.32 135.81 170.99 135.81 170.99 140.95 174.82 140.95 174.82 142.32 170.99 142.32 170.99 147.65 175.39 147.65 175.39 149.1 169.41 149.1 169.41 134.36"/>
        <path class="cls-1" d="M188.82,134.36c1.6,0,3.89,.23,3.89,3.49v1.16c0,1.62-.67,2.72-2.02,3.14l2.36,6.95h-1.64l-2.17-6.63h-1.79v6.63h-1.58v-14.74h2.95Zm-1.37,6.74h1.56c1.16,0,2.13-.67,2.13-1.98v-1.39c0-1.83-1.41-2-2.21-2h-1.47v5.37Z"/>
        <polygon class="cls-1" points="205.26 134.36 205.26 147.65 209.91 147.65 209.91 149.1 203.68 149.1 203.68 134.36 205.26 134.36"/>
        <polygon class="cls-1" points="220.18 134.36 226.1 134.36 226.1 135.81 221.76 135.81 221.76 140.95 225.59 140.95 225.59 142.32 221.76 142.32 221.76 147.65 226.16 147.65 226.16 149.1 220.18 149.1 220.18 134.36"/>
      </g>
      <g>
        <path class="cls-1" d="M102.73,151.82h0s0-.03,0-.04v-.1c0-.51-.04-.81-.28-1.09,.65,.97-.35,1.57-.5,1.66-.05,.02-.09,.04-.14,.07l-20.11,10.76-.23,.12c-.88,.47-2.03,.47-2.91,0l-.23-.12-10.99-5.89c-1.77-.95-2.84-2.56-2.84-4.28s-1.07-3.33-2.84-4.28l-2.93-1.57c-1.57-.84-1.25-1.64-1.25-1.64-.13,.27-.22,.55-.23,.85,0,.02,0,.04,0,.06v11.19c0,1.01,.63,1.96,1.67,2.52l19.42,10.4c1.02,.55,2.35,.55,3.37,0l19.63-10.51c.88-.47,1.41-1.26,1.41-2.12v-5.17s0-.83,0-.83Z"/>
        <path class="cls-1" d="M58.91,146.18l19.42,10.4c1.02,.55,2.35,.55,3.37,0l19.63-10.51c.88-.47,1.41-1.26,1.41-2.12v-5.17s0-.83,0-.83h0s0-.03,0-.04v-.1c0-.51-.04-.81-.28-1.09,.65,.97-.35,1.57-.5,1.66-.05,.02-.09,.04-.14,.07l-20.11,10.76-.23,.12c-.88,.47-2.03,.47-2.91,0l-.23-.12-10.99-5.89c-1.77-.95-2.84-2.56-2.84-4.28s-1.07-3.33-2.84-4.28l-2.93-1.57c-1.57-.84-1.25-1.64-1.25-1.64-.13,.27-.22,.55-.23,.85,0,.02,0,.04,0,.06v11.19c0,1.01,.63,1.96,1.67,2.52Z"/>
        <path class="cls-1" d="M58.43,123.41c-.7,.35-1.19,1.08-1.19,1.92,0,.01,0,.03,0,.04,0,0,0,.02,0,.03v4.7c0,.85,.53,1.64,1.4,2.11l19.66,10.53s.02,0,.03,.01c1.03,.54,2.34,.54,3.37,0,.01,0,.02,0,.04-.01l19.6-10.49c.87-.47,1.4-1.26,1.4-2.11v-4.69s0-.02,0-.03c0-.01,0-.03,0-.04,0-.84-.49-1.56-1.19-1.92l-19.6-10.51c-1.24-.66-2.73-.66-3.96,0l-19.55,10.47Z"/>
      </g>
    </g>
  </g>
</svg>