<?xml version="1.0" encoding="UTF-8"?>
<svg xmlns="http://www.w3.org/2000/svg" xmlns:xlink="http://www.w3.org/1999/xlink" viewBox="0 0 283.46 283.46">
  <defs>
    <style>
      .cls-1 {
        fill: url(#linear-gradient-2);
      }

      .cls-2, .cls-3 {
        fill: #fff;
      }

      .cls-4 {
        letter-spacing: 0em;
      }

      .cls-5 {
        fill: url(#linear-gradient-6);
      }

      .cls-6 {
        letter-spacing: .02em;
      }

      .cls-7 {
        letter-spacing: 0em;
      }

      .cls-8 {
        letter-spacing: .02em;
      }

      .cls-9 {
        fill: #bad53c;
      }

      .cls-10 {
        letter-spacing: .01em;
      }

      .cls-11 {
        letter-spacing: 0em;
      }

      .cls-12 {
        letter-spacing: 0em;
      }

      .cls-13 {
        letter-spacing: 0em;
      }

      .cls-14 {
        fill: url(#linear-gradient-5);
      }

      .cls-15 {
        fill: url(#linear-gradient-7);
      }

      .cls-3 {
        font-family: URWDIN-Regular, 'URW DIN';
        font-size: 9.63px;
      }

      .cls-16 {
        fill: url(#linear-gradient-3);
      }

      .cls-17 {
        fill: #c7db5d;
      }

      .cls-18 {
        fill: url(#linear-gradient);
      }

      .cls-19 {
        letter-spacing: .03em;
      }

      .cls-20 {
        letter-spacing: 0em;
      }

      .cls-21 {
        fill: #231f20;
      }

      .cls-22 {
        fill: url(#linear-gradient-4);
      }
    </style>
    <linearGradient id="linear-gradient" x1="75.12" y1="134.83" x2="84.98" y2="161.94" gradientUnits="userSpaceOnUse">
      <stop offset="0" stop-color="#171516"/>
      <stop offset=".09" stop-color="#1a1819"/>
      <stop offset=".18" stop-color="#252425"/>
      <stop offset=".26" stop-color="#383738"/>
      <stop offset=".35" stop-color="#525253"/>
      <stop offset=".41" stop-color="#6b6d6e"/>
      <stop offset=".5" stop-color="#838586"/>
      <stop offset=".61" stop-color="#9b9d9f"/>
      <stop offset=".73" stop-color="#adafb1"/>
      <stop offset=".85" stop-color="#b7b9bb"/>
      <stop offset="1" stop-color="#bbbdbf"/>
    </linearGradient>
    <linearGradient id="linear-gradient-2" x1="100.18" y1="154.69" x2="59.49" y2="139.88" gradientUnits="userSpaceOnUse">
      <stop offset="0" stop-color="#929497"/>
      <stop offset=".04" stop-color="#838487"/>
      <stop offset=".15" stop-color="#656567"/>
      <stop offset=".27" stop-color="#4d4b4d"/>
      <stop offset=".39" stop-color="#3a3739"/>
      <stop offset=".54" stop-color="#2d292a"/>
      <stop offset=".71" stop-color="#252122"/>
      <stop offset="1" stop-color="#231f20"/>
    </linearGradient>
    <linearGradient id="linear-gradient-3" x1="57.24" y1="158.13" x2="102.74" y2="158.13" gradientUnits="userSpaceOnUse">
      <stop offset="0" stop-color="#b9d537"/>
      <stop offset=".27" stop-color="#b7d337"/>
      <stop offset=".36" stop-color="#b2cc37"/>
      <stop offset=".43" stop-color="#a9c039"/>
      <stop offset=".48" stop-color="#9db13b"/>
      <stop offset=".65" stop-color="#a2b439"/>
      <stop offset=".85" stop-color="#b0be36"/>
      <stop offset="1" stop-color="#c1ca33"/>
    </linearGradient>
    <linearGradient id="linear-gradient-4" y1="120.98" x2="84.98" y2="148.09" xlink:href="#linear-gradient"/>
    <linearGradient id="linear-gradient-5" x1="100.18" y1="140.84" x2="59.49" y2="126.03" xlink:href="#linear-gradient-2"/>
    <linearGradient id="linear-gradient-6" y1="144.28" y2="144.28" xlink:href="#linear-gradient-3"/>
    <linearGradient id="linear-gradient-7" x1="57.24" y1="131.95" x2="102.74" y2="131.95" xlink:href="#linear-gradient-3"/>
  </defs>
  <g id="Layer_2" data-name="Layer 2">
    <rect class="cls-21" x="-14.18" y="-14.18" width="311.81" height="311.81"/>
  </g>
  <g id="Layer_1" data-name="Layer 1">
    <g>
      <g>
        <g>
          <polygon class="cls-2" points="117.64 127.88 123.56 127.88 123.56 129.33 119.22 129.33 119.22 134.47 123.05 134.47 123.05 135.83 119.22 135.83 119.22 141.16 123.62 141.16 123.62 142.61 117.64 142.61 117.64 127.88"/>
          <path class="cls-2" d="M139.12,131.06c0-.53-.21-1.85-1.73-1.85-1.66,0-1.81,1.43-1.81,2.23v7.94c0,.53,.23,1.92,1.71,1.92,.82,0,1.83-.36,1.83-2.06v-.46h1.6v.55c0,2.11-.97,3.52-3.49,3.52-2.95,0-3.22-2.4-3.22-3.24v-8.72c0-1.66,1.16-3.2,3.31-3.2,1.83,0,3.35,.88,3.35,3.22v.95h-1.54v-.78Z"/>
          <polygon class="cls-2" points="152.84 127.88 152.84 135.71 156.82 127.88 158.42 127.88 155.41 133.75 159.03 142.61 157.32 142.61 154.44 135.27 152.84 138.38 152.84 142.61 151.26 142.61 151.26 127.88 152.84 127.88"/>
          <polygon class="cls-2" points="169.41 127.88 175.32 127.88 175.32 129.33 170.99 129.33 170.99 134.47 174.82 134.47 174.82 135.83 170.99 135.83 170.99 141.16 175.39 141.16 175.39 142.61 169.41 142.61 169.41 127.88"/>
          <path class="cls-2" d="M188.82,127.88c1.6,0,3.89,.23,3.89,3.49v1.16c0,1.62-.67,2.72-2.02,3.14l2.36,6.95h-1.64l-2.17-6.63h-1.79v6.63h-1.58v-14.74h2.95Zm-1.37,6.74h1.56c1.16,0,2.13-.67,2.13-1.98v-1.39c0-1.83-1.41-2-2.21-2h-1.47v5.37Z"/>
          <polygon class="cls-2" points="205.26 127.88 205.26 141.16 209.91 141.16 209.91 142.61 203.68 142.61 203.68 127.88 205.26 127.88"/>
          <polygon class="cls-2" points="220.18 127.88 226.1 127.88 226.1 129.33 221.76 129.33 221.76 134.47 225.59 134.47 225.59 135.83 221.76 135.83 221.76 141.16 226.16 141.16 226.16 142.61 220.18 142.61 220.18 127.88"/>
        </g>
        <text class="cls-3" transform="translate(116.57 155.75)"><tspan x="0" y="0">E</tspan><tspan class="cls-13" x="5.57" y="0">-M</tspan><tspan class="cls-20" x="18.13" y="0">O</tspan><tspan class="cls-19" x="24.72" y="0">T</tspan><tspan class="cls-12" x="30.29" y="0">ION </tspan><tspan class="cls-8" x="48.7" y="0">T</tspan><tspan class="cls-7" x="54.27" y="0">E</tspan><tspan class="cls-4" x="59.83" y="0">C</tspan><tspan class="cls-13" x="65.95" y="0">H</tspan><tspan class="cls-11" x="72.57" y="0">N</tspan><tspan class="cls-13" x="79.55" y="0">O</tspan><tspan class="cls-6" x="86.12" y="0">L</tspan><tspan class="cls-13" x="91.43" y="0">O</tspan><tspan class="cls-10" x="98" y="0">G</tspan><tspan class="cls-13" x="104.51" y="0">Y</tspan></text>
      </g>
      <g>
        <path class="cls-18" d="M57.47,145.41s-.02,.05-.03,.14c-.02,.26,.1,.87,1.28,1.5l2.93,1.57c.21,.11,.41,.24,.6,.37,.11,.08,.22,.17,.32,.25,.06,.05,.13,.1,.19,.15,.15,.13,.28,.26,.41,.4,.01,.01,.02,.02,.04,.04,.14,.15,.26,.3,.38,.46,0,0,0,0,0,0,0,0,0,0,0,0,.11,.15,.21,.3,.3,.46,0,.01,.01,.02,.02,.04,.09,.16,.17,.32,.24,.48,0,0,0,0,0,.01,.21,.52,.34,1.06,.34,1.62,0,1.72,1.07,3.33,2.84,4.28l3.84,2.05h0s7.15,3.83,7.15,3.83l.23,.12c.88,.47,2.03,.47,2.91,0l.22-.12h.01s.47-.26,.47-.26l19.64-10.51c.05-.02,.09-.05,.14-.07,.11-.06,.7-.42,.72-1,0-.19-.05-.41-.22-.65,0,0,0,0,0,0,0,0,0,0,0,0-.17-.22-.43-.42-.86-.67l-9.85-5.27c-.79-.43-1.44-.99-1.92-1.63-.59-.79-.92-1.7-.92-2.65s-.32-1.82-.89-2.6c-.48-.66-1.13-1.24-1.94-1.67l-4.4-2.36s-.02,0-.03-.01c-.52-.27-1.1-.4-1.69-.4s-1.19,.14-1.71,.42l-19.6,10.49c-.54,.29-.93,.72-1.16,1.19h0s0,0,0,0Zm20.86,11.74s0,0,0,0c0,0,0,0-.01,0,0,0,.01,0,.02,0Z"/>
        <path class="cls-1" d="M57.47,145.41s-.02,.05-.03,.14c-.02,.26,.1,.87,1.28,1.5l2.93,1.57c.21,.11,.41,.24,.6,.37,.11,.08,.21,.16,.31,.24,.07,.05,.14,.1,.2,.16,.14,.12,.28,.26,.4,.39,.01,.01,.03,.03,.04,.04,.13,.14,.26,.3,.37,.45,0,0,0,.01,.01,.02,0,0,0,0,0,0,.46,.62,.75,1.32,.85,2.06,.13,.27,.28,.53,.47,.78,.49,.66,1.16,1.25,1.98,1.69l11.31,6.06,.24,.13c.91,.49,2.09,.49,2.99,0l.24-.13,20.18-10.8c-.09-.06-.16-.11-.26-.17l-9.85-5.27c-.79-.43-1.44-.99-1.92-1.63-.59-.79-.92-1.7-.92-2.65s-.32-1.82-.89-2.6c-.48-.66-1.13-1.24-1.94-1.67l-4.4-2.36s-.02,0-.03-.01c-.52-.27-1.1-.4-1.69-.4s-1.19,.14-1.71,.42l-19.6,10.49h0c-.54,.29-.93,.72-1.16,1.19h0s0,0,0,0Zm20.74,9.38s0,0,0,0c0,0,0,0,0,0,0,0,0,0,.01,0Z"/>
        <path class="cls-16" d="M57.24,146.26s0,.04,0,.06v11.19c0,1.01,.63,1.96,1.67,2.52l19.42,10.4c1.02,.55,2.35,.55,3.37,0l19.63-10.51c.88-.47,1.41-1.26,1.41-2.12v-5.17s0-.83,0-.83h0s0-.03,0-.04v-.1c0-.51-.04-.81-.28-1.09,.65,.97-.35,1.57-.5,1.66-.05,.02-.09,.04-.14,.07l-20.11,10.76-.23,.12c-.88,.47-2.03,.47-2.91,0l-.23-.12-10.99-5.89c-1.77-.95-2.84-2.56-2.84-4.28s-1.07-3.33-2.84-4.28l-2.93-1.57c-1.57-.84-1.25-1.64-1.25-1.64-.13,.27-.22,.55-.23,.85"/>
        <path class="cls-22" d="M57.47,131.56s-.02,.05-.03,.14c-.02,.26,.1,.87,1.28,1.5l2.93,1.57c.21,.11,.41,.24,.6,.37,.11,.08,.22,.17,.32,.25,.06,.05,.13,.1,.19,.15,.15,.13,.28,.26,.41,.4,.01,.01,.02,.02,.04,.04,.14,.15,.26,.3,.38,.46,0,0,0,0,0,0,0,0,0,0,0,0,.11,.15,.21,.3,.3,.46,0,.01,.01,.02,.02,.04,.09,.16,.17,.32,.24,.48,0,0,0,0,0,.01,.21,.52,.34,1.06,.34,1.62,0,1.72,1.07,3.33,2.84,4.28l3.84,2.05h0s7.15,3.83,7.15,3.83l.23,.12c.88,.47,2.03,.47,2.91,0l.22-.12h.01s.47-.26,.47-.26l19.64-10.51c.05-.02,.09-.05,.14-.07,.11-.06,.7-.42,.72-1,0-.19-.05-.41-.22-.65,0,0,0,0,0,0,0,0,0,0,0,0-.17-.22-.43-.42-.86-.67l-9.85-5.27c-.79-.43-1.44-.99-1.92-1.63-.59-.79-.92-1.7-.92-2.65s-.32-1.82-.89-2.6c-.48-.66-1.13-1.24-1.94-1.67l-4.4-2.36s-.02,0-.03-.01c-.52-.27-1.1-.4-1.69-.4s-1.19,.14-1.71,.42l-19.6,10.49c-.54,.29-.93,.72-1.16,1.19h0s0,0,0,0Zm20.86,11.74s0,0,0,0c0,0,0,0-.01,0,0,0,.01,0,.02,0Z"/>
        <path class="cls-14" d="M57.47,131.56s-.02,.05-.03,.14c-.02,.26,.1,.87,1.28,1.5l2.93,1.57c.21,.11,.41,.24,.6,.37,.11,.08,.21,.16,.31,.24,.07,.05,.14,.1,.2,.16,.14,.12,.28,.26,.4,.39,.01,.01,.03,.03,.04,.04,.13,.14,.26,.3,.37,.45,0,0,0,.01,.01,.02,0,0,0,0,0,0,.46,.62,.75,1.32,.85,2.06,.13,.27,.28,.53,.47,.78,.49,.66,1.16,1.25,1.98,1.69l11.31,6.06,.24,.13c.91,.49,2.09,.49,2.99,0l.24-.13,20.18-10.8c-.09-.06-.16-.11-.26-.17l-9.85-5.27c-.79-.43-1.44-.99-1.92-1.63-.59-.79-.92-1.7-.92-2.65s-.32-1.82-.89-2.6c-.48-.66-1.13-1.24-1.94-1.67l-4.4-2.36s-.02,0-.03-.01c-.52-.27-1.1-.4-1.69-.4s-1.19,.14-1.71,.42l-19.6,10.49h0c-.54,.29-.93,.72-1.16,1.19h0s0,0,0,0Zm20.74,9.38s0,0,0,0c0,0,0,0,0,0,0,0,0,0,.01,0Z"/>
        <path class="cls-5" d="M57.24,132.41s0,.04,0,.06v11.19c0,1.01,.63,1.96,1.67,2.52l19.42,10.4c1.02,.55,2.35,.55,3.37,0l19.63-10.51c.88-.47,1.41-1.26,1.41-2.12v-5.17s0-.83,0-.83h0s0-.03,0-.04v-.1c0-.51-.04-.81-.28-1.09,.65,.97-.35,1.57-.5,1.66-.05,.02-.09,.04-.14,.07l-20.11,10.76-.23,.12c-.88,.47-2.03,.47-2.91,0l-.23-.12-10.99-5.89c-1.77-.95-2.84-2.56-2.84-4.28s-1.07-3.33-2.84-4.28l-2.93-1.57c-1.57-.84-1.25-1.64-1.25-1.64-.13,.27-.22,.55-.23,.85"/>
        <path class="cls-15" d="M97.13,121.08l-.61-.33h0s.61,.33,.61,.33Zm5.61,4.29c0-.84-.49-1.56-1.19-1.92l-.16-.09c.17,.09,.32,.2,.46,.31,.26,.22,.39,.54,.39,.85s-.13,.63-.39,.85c-.15,.13-.32,.24-.5,.34l-2.24,1.2h0s-15.95,8.54-15.95,8.54h0s-1.15,.61-1.15,.61c-1.24,.66-2.73,.66-3.96,0l-19.4-10.39c-.19-.1-.35-.21-.5-.34-.52-.44-.52-1.26,0-1.7h0s.11-.07,.16-.11c.05-.04,.1-.07,.15-.1,.04-.03,.08-.06,.12-.08l-.14,.07c-.7,.35-1.19,1.08-1.19,1.92,0,.01,0,.03,0,.04,0,0,0,.02,0,.03v4.7c0,.85,.53,1.64,1.4,2.11l19.66,10.53s.02,0,.03,.01c1.03,.54,2.34,.54,3.37,0,.01,0,.02,0,.04-.01l19.6-10.49c.87-.47,1.4-1.26,1.4-2.11v-4.69s0-.02,0-.03c0-.01,0-.03,0-.04Z"/>
        <path class="cls-17" d="M101.34,123.33l-19.4-10.39c-1.24-.66-2.73-.66-3.96,0l-19.34,10.35c-.19,.1-.35,.21-.5,.34-.52,.44-.52,1.26,0,1.7,.15,.13,.32,.24,.5,.34l19.4,10.39c1.24,.66,2.73,.66,3.96,0l19.34-10.35c.19-.1,.35-.21,.5-.34,.52-.44,.52-1.26,0-1.7-.15-.13-.32-.24-.5-.34"/>
        <path class="cls-9" d="M99.09,122.74l-17.59-9.42c-.93-.5-2.15-.5-3.08,0l-17.54,9.38c-.35,.19-.62,.43-.83,.71-.16,.21-.16,.49,0,.7,.2,.28,.48,.53,.83,.71l17.59,9.42c.93,.5,2.14,.5,3.08,0l17.54-9.38c.34-.18,.62-.43,.82-.71,.16-.22,.16-.51,0-.72-.2-.28-.48-.52-.82-.7"/>
      </g>
    </g>
  </g>
</svg>