<?xml version="1.0" encoding="UTF-8"?>
<svg xmlns="http://www.w3.org/2000/svg" xmlns:xlink="http://www.w3.org/1999/xlink" viewBox="0 0 283.46 283.46">
  <defs>
    <style>
      .cls-1 {
        fill: url(#linear-gradient-2);
      }

      .cls-2 {
        fill: #fff;
      }

      .cls-3 {
        letter-spacing: 0em;
      }

      .cls-4 {
        fill: url(#linear-gradient-6);
      }

      .cls-5 {
        font-family: URWDIN-Regular, 'URW DIN';
        font-size: 9.63px;
      }

      .cls-5, .cls-6 {
        fill: #231f20;
      }

      .cls-7 {
        letter-spacing: .02em;
      }

      .cls-8 {
        letter-spacing: 0em;
      }

      .cls-9 {
        letter-spacing: .02em;
      }

      .cls-10 {
        fill: #bad53c;
      }

      .cls-11 {
        letter-spacing: .01em;
      }

      .cls-12 {
        letter-spacing: 0em;
      }

      .cls-13 {
        letter-spacing: 0em;
      }

      .cls-14 {
        letter-spacing: 0em;
      }

      .cls-15 {
        fill: url(#linear-gradient-5);
      }

      .cls-16 {
        fill: url(#linear-gradient-7);
      }

      .cls-17 {
        fill: url(#linear-gradient-3);
      }

      .cls-18 {
        fill: #c7db5d;
      }

      .cls-19 {
        fill: url(#linear-gradient);
      }

      .cls-20 {
        letter-spacing: .03em;
      }

      .cls-21 {
        letter-spacing: 0em;
      }

      .cls-22 {
        fill: url(#linear-gradient-4);
      }
    </style>
    <linearGradient id="linear-gradient" x1="136.86" y1="111.75" x2="146.73" y2="138.86" gradientUnits="userSpaceOnUse">
      <stop offset="0" stop-color="#d0d3d2"/>
      <stop offset=".41" stop-color="#d0d3d2"/>
      <stop offset=".41" stop-color="#d0d3d2"/>
      <stop offset=".43" stop-color="#d2d5d3"/>
      <stop offset=".6" stop-color="#e4e4e3"/>
      <stop offset=".79" stop-color="#eeedec"/>
      <stop offset="1" stop-color="#f2f1ef"/>
    </linearGradient>
    <linearGradient id="linear-gradient-2" x1="161.92" y1="131.61" x2="121.23" y2="116.8" gradientUnits="userSpaceOnUse">
      <stop offset="0" stop-color="#fff"/>
      <stop offset="1" stop-color="#15191a"/>
    </linearGradient>
    <linearGradient id="linear-gradient-3" x1="118.98" y1="135.05" x2="164.48" y2="135.05" gradientUnits="userSpaceOnUse">
      <stop offset="0" stop-color="#b9d537"/>
      <stop offset=".27" stop-color="#b7d337"/>
      <stop offset=".36" stop-color="#b2cc37"/>
      <stop offset=".43" stop-color="#a9c039"/>
      <stop offset=".48" stop-color="#9db13b"/>
      <stop offset=".65" stop-color="#a2b439"/>
      <stop offset=".85" stop-color="#b0be36"/>
      <stop offset="1" stop-color="#c1ca33"/>
    </linearGradient>
    <linearGradient id="linear-gradient-4" y1="97.89" x2="146.73" y2="125.01" xlink:href="#linear-gradient"/>
    <linearGradient id="linear-gradient-5" x1="161.92" y1="117.75" x2="121.23" y2="102.94" xlink:href="#linear-gradient-2"/>
    <linearGradient id="linear-gradient-6" y1="121.19" y2="121.19" xlink:href="#linear-gradient-3"/>
    <linearGradient id="linear-gradient-7" x1="118.98" y1="108.86" x2="164.48" y2="108.86" xlink:href="#linear-gradient-3"/>
  </defs>
  <g id="Layer_2" data-name="Layer 2">
    <rect class="cls-2" x="-14.18" y="-14.18" width="311.81" height="311.81"/>
  </g>
  <g id="Layer_1" data-name="Layer 1">
    <g>
      <g>
        <path class="cls-19" d="M119.22,122.33s-.02,.05-.03,.14c-.02,.26,.1,.87,1.28,1.5l2.93,1.57c.21,.11,.41,.24,.6,.37,.11,.08,.22,.17,.32,.25,.06,.05,.13,.1,.19,.15,.15,.13,.28,.26,.41,.4,.01,.01,.02,.02,.04,.04,.14,.15,.26,.3,.38,.46,0,0,0,0,0,0,0,0,0,0,0,0,.11,.15,.21,.3,.3,.46,0,.01,.01,.02,.02,.04,.09,.16,.17,.32,.24,.48,0,0,0,0,0,.01,.21,.52,.34,1.06,.34,1.62,0,1.72,1.07,3.33,2.84,4.28l3.84,2.05h0s7.15,3.83,7.15,3.83l.23,.12c.88,.47,2.03,.47,2.91,0l.22-.12h.01s.47-.26,.47-.26l19.64-10.51c.05-.02,.09-.05,.14-.07,.11-.06,.7-.42,.72-1,0-.19-.05-.41-.22-.65,0,0,0,0,0,0,0,0,0,0,0,0-.17-.22-.43-.42-.86-.67l-9.85-5.27c-.79-.43-1.44-.99-1.92-1.63-.59-.79-.92-1.7-.92-2.65s-.32-1.82-.89-2.6c-.48-.66-1.13-1.24-1.94-1.67l-4.4-2.36s-.02,0-.03-.01c-.52-.27-1.1-.4-1.69-.4s-1.19,.14-1.71,.42l-19.6,10.49c-.54,.29-.93,.72-1.16,1.19h0s0,0,0,0Zm20.86,11.74s0,0,0,0c0,0,0,0-.01,0,0,0,.01,0,.02,0Z"/>
        <path class="cls-1" d="M119.22,122.33s-.02,.05-.03,.14c-.02,.26,.1,.87,1.28,1.5l2.93,1.57c.21,.11,.41,.24,.6,.37,.11,.08,.21,.16,.31,.24,.07,.05,.14,.1,.2,.16,.14,.12,.28,.26,.4,.39,.01,.01,.03,.03,.04,.04,.13,.14,.26,.3,.37,.45,0,0,0,.01,.01,.02,0,0,0,0,0,0,.46,.62,.75,1.32,.85,2.06,.13,.27,.28,.53,.47,.78,.49,.66,1.16,1.25,1.98,1.69l11.31,6.06,.24,.13c.91,.49,2.09,.49,2.99,0l.24-.13,20.18-10.8c-.09-.06-.16-.11-.26-.17l-9.85-5.27c-.79-.43-1.44-.99-1.92-1.63-.59-.79-.92-1.7-.92-2.65s-.32-1.82-.89-2.6c-.48-.66-1.13-1.24-1.94-1.67l-4.4-2.36s-.02,0-.03-.01c-.52-.27-1.1-.4-1.69-.4s-1.19,.14-1.71,.42l-19.6,10.49h0c-.54,.29-.93,.72-1.16,1.19h0s0,0,0,0Zm20.74,9.38s0,0,0,0c0,0,0,0,0,0,0,0,0,0,.01,0Z"/>
        <path class="cls-17" d="M118.99,123.18s0,.04,0,.06v11.19c0,1.01,.63,1.96,1.67,2.52l19.42,10.4c1.02,.55,2.35,.55,3.37,0l19.63-10.51c.88-.47,1.41-1.26,1.41-2.12v-5.17s0-.83,0-.83h0s0-.03,0-.04v-.1c0-.51-.04-.81-.28-1.09,.65,.97-.35,1.57-.5,1.66-.05,.02-.09,.04-.14,.07l-20.11,10.76-.23,.12c-.88,.47-2.03,.47-2.91,0l-.23-.12-10.99-5.89c-1.77-.95-2.84-2.56-2.84-4.28s-1.07-3.33-2.84-4.28l-2.93-1.57c-1.57-.84-1.25-1.64-1.25-1.64-.13,.27-.22,.55-.23,.85"/>
        <path class="cls-22" d="M119.22,108.48s-.02,.05-.03,.14c-.02,.26,.1,.87,1.28,1.5l2.93,1.57c.21,.11,.41,.24,.6,.37,.11,.08,.22,.17,.32,.25,.06,.05,.13,.1,.19,.15,.15,.13,.28,.26,.41,.4,.01,.01,.02,.02,.04,.04,.14,.15,.26,.3,.38,.46,0,0,0,0,0,0,0,0,0,0,0,0,.11,.15,.21,.3,.3,.46,0,.01,.01,.02,.02,.04,.09,.16,.17,.32,.24,.48,0,0,0,0,0,.01,.21,.52,.34,1.06,.34,1.62,0,1.72,1.07,3.33,2.84,4.28l3.84,2.05h0s7.15,3.83,7.15,3.83l.23,.12c.88,.47,2.03,.47,2.91,0l.22-.12h.01s.47-.26,.47-.26l19.64-10.51c.05-.02,.09-.05,.14-.07,.11-.06,.7-.42,.72-1,0-.19-.05-.41-.22-.65,0,0,0,0,0,0,0,0,0,0,0,0-.17-.22-.43-.42-.86-.67l-9.85-5.27c-.79-.43-1.44-.99-1.92-1.63-.59-.79-.92-1.7-.92-2.65s-.32-1.82-.89-2.6c-.48-.66-1.13-1.24-1.94-1.67l-4.4-2.36s-.02,0-.03-.01c-.52-.27-1.1-.4-1.69-.4s-1.19,.14-1.71,.42l-19.6,10.49c-.54,.29-.93,.72-1.16,1.19h0s0,0,0,0Zm20.86,11.74s0,0,0,0c0,0,0,0-.01,0,0,0,.01,0,.02,0Z"/>
        <path class="cls-15" d="M119.22,108.48s-.02,.05-.03,.14c-.02,.26,.1,.87,1.28,1.5l2.93,1.57c.21,.11,.41,.24,.6,.37,.11,.08,.21,.16,.31,.24,.07,.05,.14,.1,.2,.16,.14,.12,.28,.26,.4,.39,.01,.01,.03,.03,.04,.04,.13,.14,.26,.3,.37,.45,0,0,0,.01,.01,.02,0,0,0,0,0,0,.46,.62,.75,1.32,.85,2.06,.13,.27,.28,.53,.47,.78,.49,.66,1.16,1.25,1.98,1.69l11.31,6.06,.24,.13c.91,.49,2.09,.49,2.99,0l.24-.13,20.18-10.8c-.09-.06-.16-.11-.26-.17l-9.85-5.27c-.79-.43-1.44-.99-1.92-1.63-.59-.79-.92-1.7-.92-2.65s-.32-1.82-.89-2.6c-.48-.66-1.13-1.24-1.94-1.67l-4.4-2.36s-.02,0-.03-.01c-.52-.27-1.1-.4-1.69-.4s-1.19,.14-1.71,.42l-19.6,10.49h0c-.54,.29-.93,.72-1.16,1.19h0s0,0,0,0Zm20.74,9.38s0,0,0,0c0,0,0,0,0,0,0,0,0,0,.01,0Z"/>
        <path class="cls-4" d="M118.99,109.33s0,.04,0,.06v11.19c0,1.01,.63,1.96,1.67,2.52l19.42,10.4c1.02,.55,2.35,.55,3.37,0l19.63-10.51c.88-.47,1.41-1.26,1.41-2.12v-5.17s0-.83,0-.83h0s0-.03,0-.04v-.1c0-.51-.04-.81-.28-1.09,.65,.97-.35,1.57-.5,1.66-.05,.02-.09,.04-.14,.07l-20.11,10.76-.23,.12c-.88,.47-2.03,.47-2.91,0l-.23-.12-10.99-5.89c-1.77-.95-2.84-2.56-2.84-4.28s-1.07-3.33-2.84-4.28l-2.93-1.57c-1.57-.84-1.25-1.64-1.25-1.64-.13,.27-.22,.55-.23,.85"/>
        <path class="cls-16" d="M158.87,97.99l-.61-.33h0s.61,.33,.61,.33Zm5.61,4.29c0-.84-.49-1.56-1.19-1.92l-.16-.09c.17,.09,.32,.2,.46,.31,.26,.22,.39,.54,.39,.85s-.13,.63-.39,.85c-.15,.13-.32,.24-.5,.34l-2.24,1.2h0s-15.95,8.54-15.95,8.54h0s-1.15,.61-1.15,.61c-1.24,.66-2.73,.66-3.96,0l-19.4-10.39c-.19-.1-.35-.21-.5-.34-.52-.44-.52-1.26,0-1.7h0s.11-.07,.16-.11c.05-.04,.1-.07,.15-.1,.04-.03,.08-.06,.12-.08l-.14,.07c-.7,.35-1.19,1.08-1.19,1.92,0,.01,0,.03,0,.04,0,0,0,.02,0,.03v4.7c0,.85,.53,1.64,1.4,2.11l19.66,10.53s.02,0,.03,.01c1.03,.54,2.34,.54,3.37,0,.01,0,.02,0,.04-.01l19.6-10.49c.87-.47,1.4-1.26,1.4-2.11v-4.69s0-.02,0-.03c0-.01,0-.03,0-.04Z"/>
        <path class="cls-18" d="M163.08,100.25l-19.4-10.39c-1.24-.66-2.73-.66-3.96,0l-19.34,10.35c-.19,.1-.35,.21-.5,.34-.52,.44-.52,1.26,0,1.7,.15,.13,.32,.24,.5,.34l19.4,10.39c1.24,.66,2.73,.66,3.96,0l19.34-10.35c.19-.1,.35-.21,.5-.34,.52-.44,.52-1.26,0-1.7-.15-.13-.32-.24-.5-.34"/>
        <path class="cls-10" d="M160.83,99.66l-17.59-9.42c-.93-.5-2.15-.5-3.08,0l-17.54,9.38c-.35,.19-.62,.43-.83,.71-.16,.21-.16,.49,0,.7,.2,.28,.48,.53,.83,.71l17.59,9.42c.93,.5,2.14,.5,3.08,0l17.54-9.38c.34-.18,.62-.43,.82-.71,.16-.22,.16-.51,0-.72-.2-.28-.48-.52-.82-.7"/>
      </g>
      <g>
        <g>
          <polygon class="cls-6" points="87.47 162.66 93.39 162.66 93.39 164.12 89.05 164.12 89.05 169.25 92.88 169.25 92.88 170.62 89.05 170.62 89.05 175.95 93.45 175.95 93.45 177.4 87.47 177.4 87.47 162.66"/>
          <path class="cls-6" d="M108.94,165.84c0-.53-.21-1.85-1.73-1.85-1.66,0-1.81,1.43-1.81,2.23v7.94c0,.53,.23,1.92,1.71,1.92,.82,0,1.83-.36,1.83-2.06v-.46h1.6v.55c0,2.11-.97,3.52-3.49,3.52-2.95,0-3.22-2.4-3.22-3.24v-8.72c0-1.66,1.16-3.2,3.31-3.2,1.83,0,3.35,.88,3.35,3.22v.95h-1.54v-.78Z"/>
          <polygon class="cls-6" points="122.67 162.66 122.67 170.5 126.65 162.66 128.25 162.66 125.24 168.54 128.86 177.4 127.15 177.4 124.27 170.05 122.67 173.17 122.67 177.4 121.09 177.4 121.09 162.66 122.67 162.66"/>
          <polygon class="cls-6" points="139.23 162.66 145.15 162.66 145.15 164.12 140.81 164.12 140.81 169.25 144.65 169.25 144.65 170.62 140.81 170.62 140.81 175.95 145.21 175.95 145.21 177.4 139.23 177.4 139.23 162.66"/>
          <path class="cls-6" d="M158.64,162.66c1.6,0,3.89,.23,3.89,3.49v1.16c0,1.62-.67,2.72-2.02,3.14l2.36,6.95h-1.64l-2.17-6.63h-1.79v6.63h-1.58v-14.74h2.95Zm-1.37,6.74h1.56c1.16,0,2.13-.67,2.13-1.98v-1.39c0-1.83-1.41-2-2.21-2h-1.47v5.37Z"/>
          <polygon class="cls-6" points="175.08 162.66 175.08 175.95 179.74 175.95 179.74 177.4 173.51 177.4 173.51 162.66 175.08 162.66"/>
          <polygon class="cls-6" points="190.01 162.66 195.93 162.66 195.93 164.12 191.59 164.12 191.59 169.25 195.42 169.25 195.42 170.62 191.59 170.62 191.59 175.95 195.99 175.95 195.99 177.4 190.01 177.4 190.01 162.66"/>
        </g>
        <text class="cls-5" transform="translate(86.47 190.54)"><tspan x="0" y="0">E</tspan><tspan class="cls-14" x="5.57" y="0">-M</tspan><tspan class="cls-21" x="18.13" y="0">O</tspan><tspan class="cls-20" x="24.72" y="0">T</tspan><tspan class="cls-13" x="30.29" y="0">ION </tspan><tspan class="cls-9" x="48.7" y="0">T</tspan><tspan class="cls-8" x="54.27" y="0">E</tspan><tspan class="cls-3" x="59.83" y="0">C</tspan><tspan class="cls-14" x="65.95" y="0">H</tspan><tspan class="cls-12" x="72.57" y="0">N</tspan><tspan class="cls-14" x="79.55" y="0">O</tspan><tspan class="cls-7" x="86.12" y="0">L</tspan><tspan class="cls-14" x="91.43" y="0">O</tspan><tspan class="cls-11" x="98" y="0">G</tspan><tspan class="cls-14" x="104.51" y="0">Y</tspan></text>
      </g>
    </g>
  </g>
</svg>