<?xml version="1.0" encoding="utf-8"?>
<!-- Generator: Adobe Illustrator 26.0.0, SVG Export Plug-In . SVG Version: 6.00 Build 0)  -->
<svg version="1.1" id="Réteg_1" xmlns="http://www.w3.org/2000/svg" xmlns:xlink="http://www.w3.org/1999/xlink" x="0px" y="0px"
	 viewBox="0 0 200 75" style="enable-background:new 0 0 200 75;" xml:space="preserve">
<style type="text/css">
	.st0{fill:#FFFFFF;}
	.st1{font-family:'URWDIN-Regular';}
	.st2{font-size:9.63px;}
</style>
<g id="Layer_1">
	<g>
		<g>
			<path class="st0" d="M61,47.6L61,47.6C61,47.6,61,47.6,61,47.6v-0.1c0-0.5,0-0.8-0.3-1.1c0.7,1-0.3,1.6-0.5,1.7
				c-0.1,0-0.1,0-0.1,0.1L40,58.9L39.7,59c-0.9,0.5-2,0.5-2.9,0l-0.2-0.1l-11-5.9c-1.8-0.9-2.8-2.6-2.8-4.3s-1.1-3.3-2.8-4.3
				L17,42.8c-1.6-0.8-1.2-1.6-1.2-1.6c-0.1,0.3-0.2,0.6-0.2,0.9c0,0,0,0,0,0.1v11.2c0,1,0.6,2,1.7,2.5l19.4,10.4
				c1,0.6,2.3,0.6,3.4,0l19.6-10.5c0.9-0.5,1.4-1.3,1.4-2.1v-5.2L61,47.6L61,47.6z"/>
			<path class="st0" d="M17.2,41.9l19.4,10.4c1,0.6,2.3,0.6,3.4,0l19.6-10.5c0.9-0.5,1.4-1.3,1.4-2.1v-5.2v-0.8l0,0c0,0,0,0,0,0
				v-0.1c0-0.5,0-0.8-0.3-1.1c0.7,1-0.3,1.6-0.5,1.7c-0.1,0-0.1,0-0.1,0.1L40,45l-0.2,0.1c-0.9,0.5-2,0.5-2.9,0L36.6,45l-11-5.9
				c-1.8-0.9-2.8-2.6-2.8-4.3s-1.1-3.3-2.8-4.3L17,29c-1.6-0.8-1.2-1.6-1.2-1.6c-0.1,0.3-0.2,0.6-0.2,0.9c0,0,0,0,0,0.1v11.2
				C15.5,40.4,16.2,41.4,17.2,41.9L17.2,41.9z"/>
			<path class="st0" d="M16.7,19.2c-0.7,0.3-1.2,1.1-1.2,1.9c0,0,0,0,0,0c0,0,0,0,0,0v4.7c0,0.9,0.5,1.6,1.4,2.1l19.7,10.5
				c0,0,0,0,0,0c1,0.5,2.3,0.5,3.4,0c0,0,0,0,0,0L59.6,28c0.9-0.5,1.4-1.3,1.4-2.1v-4.7c0,0,0,0,0,0s0,0,0,0c0-0.8-0.5-1.6-1.2-1.9
				L40.2,8.7c-1.2-0.7-2.7-0.7-4,0L16.7,19.2L16.7,19.2z"/>
		</g>
		<g>
			<g>
				<polygon class="st0" points="75.9,23.7 81.8,23.7 81.8,25.1 77.5,25.1 77.5,30.2 81.3,30.2 81.3,31.6 77.5,31.6 77.5,36.9 
					81.9,36.9 81.9,38.4 75.9,38.4 				"/>
				<path class="st0" d="M97.4,26.8c0-0.5-0.2-1.9-1.7-1.9c-1.7,0-1.8,1.4-1.8,2.2v7.9c0,0.5,0.2,1.9,1.7,1.9c0.8,0,1.8-0.4,1.8-2.1
					v-0.5H99v0.6c0,2.1-1,3.5-3.5,3.5c-2.9,0-3.2-2.4-3.2-3.2v-8.7c0-1.7,1.2-3.2,3.3-3.2c1.8,0,3.4,0.9,3.4,3.2v0.9h-1.5L97.4,26.8
					L97.4,26.8z"/>
				<polygon class="st0" points="111.1,23.7 111.1,31.5 115.1,23.7 116.7,23.7 113.7,29.5 117.3,38.4 115.6,38.4 112.7,31 
					111.1,34.2 111.1,38.4 109.5,38.4 109.5,23.7 				"/>
				<polygon class="st0" points="127.7,23.7 133.6,23.7 133.6,25.1 129.3,25.1 129.3,30.2 133.1,30.2 133.1,31.6 129.3,31.6 
					129.3,36.9 133.7,36.9 133.7,38.4 127.7,38.4 				"/>
				<path class="st0" d="M147.1,23.7c1.6,0,3.9,0.2,3.9,3.5v1.2c0,1.6-0.7,2.7-2,3.1l2.4,6.9h-1.6l-2.2-6.6h-1.8v6.6h-1.6V23.7
					H147.1z M145.7,30.4h1.6c1.2,0,2.1-0.7,2.1-2V27c0-1.8-1.4-2-2.2-2h-1.5L145.7,30.4L145.7,30.4z"/>
				<polygon class="st0" points="163.5,23.7 163.5,36.9 168.2,36.9 168.2,38.4 161.9,38.4 161.9,23.7 				"/>
				<polygon class="st0" points="178.4,23.7 184.4,23.7 184.4,25.1 180,25.1 180,30.2 183.9,30.2 183.9,31.6 180,31.6 180,36.9 
					184.4,36.9 184.4,38.4 178.4,38.4 				"/>
			</g>
			<text transform="matrix(1 0 0 1 74.84 51.52)" class="st0 st1 st2">E</text>
			<text transform="matrix(1 0 0 1 80.41 51.52)" class="st0 st1 st2">-M</text>
			<text transform="matrix(1 0 0 1 92.97 51.52)" class="st0 st1 st2">O</text>
			<text transform="matrix(1 0 0 1 99.56 51.52)" class="st0 st1 st2">T</text>
			<text transform="matrix(1 0 0 1 105.13 51.52)" class="st0 st1 st2">ION </text>
			<text transform="matrix(1 0 0 1 123.54 51.52)" class="st0 st1 st2">T</text>
			<text transform="matrix(1 0 0 1 129.11 51.52)" class="st0 st1 st2">E</text>
			<text transform="matrix(1 0 0 1 134.67 51.52)" class="st0 st1 st2">C</text>
			<text transform="matrix(1 0 0 1 140.79 51.52)" class="st0 st1 st2">H</text>
			<text transform="matrix(1 0 0 1 147.41 51.52)" class="st0 st1 st2">N</text>
			<text transform="matrix(1 0 0 1 154.39 51.52)" class="st0 st1 st2">O</text>
			<text transform="matrix(1 0 0 1 160.96 51.52)" class="st0 st1 st2">L</text>
			<text transform="matrix(1 0 0 1 166.27 51.52)" class="st0 st1 st2">O</text>
			<text transform="matrix(1 0 0 1 172.8401 51.52)" class="st0 st1 st2">G</text>
			<text transform="matrix(1 0 0 1 179.35 51.52)" class="st0 st1 st2">Y</text>
		</g>
	</g>
</g>
</svg>
