<?xml version="1.0" encoding="UTF-8"?>
<svg xmlns="http://www.w3.org/2000/svg" viewBox="0 0 283.46 283.46">
  <defs>
    <style>
      .cls-1 {
        fill: #fff;
      }

      .cls-2 {
        fill: #231f20;
      }
    </style>
  </defs>
  <g id="Layer_2" data-name="Layer 2">
    <rect class="cls-2" x="-14.18" y="-14.18" width="311.81" height="311.81"/>
  </g>
  <g id="Layer_1" data-name="Layer 1">
    <g>
      <path class="cls-1" d="M164.47,136.99h0s0-.03,0-.04v-.1c0-.51-.04-.81-.28-1.09,.65,.97-.35,1.57-.5,1.66-.05,.02-.09,.04-.14,.07l-20.11,10.76-.23,.12c-.88,.47-2.03,.47-2.91,0l-.23-.12-10.99-5.89c-1.77-.95-2.84-2.56-2.84-4.28s-1.07-3.33-2.84-4.28l-2.93-1.57c-1.57-.84-1.25-1.64-1.25-1.64-.13,.27-.22,.55-.23,.85,0,.02,0,.04,0,.06v11.19c0,1.01,.63,1.96,1.67,2.52l19.42,10.4c1.02,.55,2.35,.55,3.37,0l19.63-10.51c.88-.47,1.41-1.26,1.41-2.12v-5.17s0-.83,0-.83Z"/>
      <path class="cls-1" d="M120.65,131.34l19.42,10.4c1.02,.55,2.35,.55,3.37,0l19.63-10.51c.88-.47,1.41-1.26,1.41-2.12v-5.17s0-.83,0-.83h0s0-.03,0-.04v-.1c0-.51-.04-.81-.28-1.09,.65,.97-.35,1.57-.5,1.66-.05,.02-.09,.04-.14,.07l-20.11,10.76-.23,.12c-.88,.47-2.03,.47-2.91,0l-.23-.12-10.99-5.89c-1.77-.95-2.84-2.56-2.84-4.28s-1.07-3.33-2.84-4.28l-2.93-1.57c-1.57-.84-1.25-1.64-1.25-1.64-.13,.27-.22,.55-.23,.85,0,.02,0,.04,0,.06v11.19c0,1.01,.63,1.96,1.67,2.52Z"/>
      <path class="cls-1" d="M120.17,108.57c-.7,.35-1.19,1.08-1.19,1.92,0,.01,0,.03,0,.04,0,0,0,.02,0,.03v4.7c0,.85,.53,1.64,1.4,2.11l19.66,10.53s.02,0,.03,.01c1.03,.54,2.34,.54,3.37,0,.01,0,.02,0,.04-.01l19.6-10.49c.87-.47,1.4-1.26,1.4-2.11v-4.69s0-.02,0-.03c0-.01,0-.03,0-.04,0-.84-.49-1.56-1.19-1.92l-19.6-10.51c-1.24-.66-2.73-.66-3.96,0l-19.55,10.47Z"/>
      <g>
        <polygon class="cls-1" points="87.47 170.91 93.39 170.91 93.39 172.36 89.05 172.36 89.05 177.5 92.88 177.5 92.88 178.87 89.05 178.87 89.05 184.19 93.45 184.19 93.45 185.65 87.47 185.65 87.47 170.91"/>
        <path class="cls-1" d="M108.94,174.09c0-.53-.21-1.85-1.73-1.85-1.66,0-1.81,1.43-1.81,2.23v7.94c0,.53,.23,1.92,1.71,1.92,.82,0,1.83-.36,1.83-2.06v-.46h1.6v.55c0,2.11-.97,3.52-3.49,3.52-2.95,0-3.22-2.4-3.22-3.24v-8.72c0-1.66,1.16-3.2,3.31-3.2,1.83,0,3.35,.88,3.35,3.22v.95h-1.54v-.78Z"/>
        <polygon class="cls-1" points="122.67 170.91 122.67 178.74 126.65 170.91 128.25 170.91 125.24 176.78 128.86 185.65 127.15 185.65 124.27 178.3 122.67 181.41 122.67 185.65 121.09 185.65 121.09 170.91 122.67 170.91"/>
        <polygon class="cls-1" points="139.23 170.91 145.15 170.91 145.15 172.36 140.81 172.36 140.81 177.5 144.65 177.5 144.65 178.87 140.81 178.87 140.81 184.19 145.21 184.19 145.21 185.65 139.23 185.65 139.23 170.91"/>
        <path class="cls-1" d="M158.64,170.91c1.6,0,3.89,.23,3.89,3.49v1.16c0,1.62-.67,2.72-2.02,3.14l2.36,6.95h-1.64l-2.17-6.63h-1.79v6.63h-1.58v-14.74h2.95Zm-1.37,6.74h1.56c1.16,0,2.13-.67,2.13-1.98v-1.39c0-1.83-1.41-2-2.21-2h-1.47v5.37Z"/>
        <polygon class="cls-1" points="175.08 170.91 175.08 184.19 179.74 184.19 179.74 185.65 173.51 185.65 173.51 170.91 175.08 170.91"/>
        <polygon class="cls-1" points="190.01 170.91 195.93 170.91 195.93 172.36 191.59 172.36 191.59 177.5 195.42 177.5 195.42 178.87 191.59 178.87 191.59 184.19 195.99 184.19 195.99 185.65 190.01 185.65 190.01 170.91"/>
      </g>
    </g>
  </g>
</svg>