<?xml version="1.0" encoding="utf-8"?>
<!-- Generator: Adobe Illustrator 26.0.0, SVG Export Plug-In . SVG Version: 6.00 Build 0)  -->
<svg version="1.1" id="Réteg_1" xmlns="http://www.w3.org/2000/svg" xmlns:xlink="http://www.w3.org/1999/xlink" x="0px" y="0px"
	 viewBox="0 0 200 75" style="enable-background:new 0 0 200 75;" xml:space="preserve">
<style type="text/css">
	.st0{fill:#231F20;}
	.st1{fill:url(#SVGID_1_);}
	.st2{fill:url(#SVGID_00000093875938055810468460000010142615137443047578_);}
	.st3{fill:url(#SVGID_00000060711672970724690440000017256824899568999085_);}
	.st4{fill:url(#SVGID_00000026162607253847065180000006536617630086025902_);}
	.st5{fill:url(#SVGID_00000081641464160543640200000013313526697454433922_);}
	.st6{fill:url(#SVGID_00000099642930897636998010000003436852782836146328_);}
	.st7{fill:url(#SVGID_00000003094012826096858950000006407428397029138334_);}
	.st8{fill:#C7DB5D;}
	.st9{fill:#BAD53C;}
</style>
<g id="Layer_1">
	<g>
		<g>
			<polygon class="st0" points="75.9,30.1 81.8,30.1 81.8,31.6 77.5,31.6 77.5,36.7 81.3,36.7 81.3,38.1 77.5,38.1 77.5,43.4 
				81.9,43.4 81.9,44.9 75.9,44.9 			"/>
			<path class="st0" d="M97.4,33.3c0-0.5-0.2-1.9-1.7-1.9c-1.7,0-1.8,1.4-1.8,2.2v7.9c0,0.5,0.2,1.9,1.7,1.9c0.8,0,1.8-0.4,1.8-2.1
				V41H99v0.6c0,2.1-1,3.5-3.5,3.5c-2.9,0-3.2-2.4-3.2-3.2v-8.7c0-1.7,1.2-3.2,3.3-3.2c1.8,0,3.4,0.9,3.4,3.2v0.9h-1.5L97.4,33.3
				L97.4,33.3z"/>
			<polygon class="st0" points="111.1,30.1 111.1,38 115.1,30.1 116.7,30.1 113.7,36 117.3,44.9 115.6,44.9 112.7,37.5 111.1,40.6 
				111.1,44.9 109.5,44.9 109.5,30.1 			"/>
			<polygon class="st0" points="127.7,30.1 133.6,30.1 133.6,31.6 129.3,31.6 129.3,36.7 133.1,36.7 133.1,38.1 129.3,38.1 
				129.3,43.4 133.7,43.4 133.7,44.9 127.7,44.9 			"/>
			<path class="st0" d="M147.1,30.1c1.6,0,3.9,0.2,3.9,3.5v1.2c0,1.6-0.7,2.7-2,3.1l2.4,6.9h-1.6l-2.2-6.6h-1.8v6.6h-1.6V30.1H147.1
				z M145.7,36.9h1.6c1.2,0,2.1-0.7,2.1-2v-1.4c0-1.8-1.4-2-2.2-2h-1.5L145.7,36.9L145.7,36.9z"/>
			<polygon class="st0" points="163.5,30.1 163.5,43.4 168.2,43.4 168.2,44.9 161.9,44.9 161.9,30.1 			"/>
			<polygon class="st0" points="178.4,30.1 184.4,30.1 184.4,31.6 180,31.6 180,36.7 183.9,36.7 183.9,38.1 180,38.1 180,43.4 
				184.4,43.4 184.4,44.9 178.4,44.9 			"/>
		</g>
		<g>
			
				<linearGradient id="SVGID_1_" gradientUnits="userSpaceOnUse" x1="33.3856" y1="46.9446" x2="43.2443" y2="19.838" gradientTransform="matrix(1 0 0 -1 0 77.54)">
				<stop  offset="0" style="stop-color:#D0D3D2"/>
				<stop  offset="0.41" style="stop-color:#D0D3D2"/>
				<stop  offset="0.41" style="stop-color:#D0D3D2"/>
				<stop  offset="0.43" style="stop-color:#D2D5D3"/>
				<stop  offset="0.6" style="stop-color:#E4E4E3"/>
				<stop  offset="0.79" style="stop-color:#EEEDEC"/>
				<stop  offset="1" style="stop-color:#F2F1EF"/>
			</linearGradient>
			<path class="st1" d="M15.7,41.2c0,0,0,0.1,0,0.1c0,0.3,0.1,0.9,1.3,1.5l2.9,1.6c0.2,0.1,0.4,0.2,0.6,0.4c0.1,0.1,0.2,0.2,0.3,0.2
				c0.1,0.1,0.1,0.1,0.2,0.1c0.2,0.1,0.3,0.3,0.4,0.4c0,0,0,0,0,0c0.1,0.1,0.3,0.3,0.4,0.5l0,0l0,0c0.1,0.1,0.2,0.3,0.3,0.5
				c0,0,0,0,0,0c0.1,0.2,0.2,0.3,0.2,0.5c0,0,0,0,0,0c0.2,0.5,0.3,1.1,0.3,1.6c0,1.7,1.1,3.3,2.8,4.3l3.8,2.1l0,0l7.2,3.8l0.2,0.1
				c0.9,0.5,2,0.5,2.9,0l0.2-0.1h0l0.5-0.3l19.6-10.5c0.1,0,0.1-0.1,0.1-0.1c0.1-0.1,0.7-0.4,0.7-1c0-0.2-0.1-0.4-0.2-0.6l0,0l0,0
				c-0.2-0.2-0.4-0.4-0.9-0.7L50,40.4c-0.8-0.4-1.4-1-1.9-1.6c-0.6-0.8-0.9-1.7-0.9-2.6s-0.3-1.8-0.9-2.6c-0.5-0.7-1.1-1.2-1.9-1.7
				l-4.4-2.4c0,0,0,0,0,0c-0.5-0.3-1.1-0.4-1.7-0.4s-1.2,0.1-1.7,0.4L16.9,40C16.4,40.3,16,40.7,15.7,41.2L15.7,41.2
				C15.7,41.2,15.7,41.2,15.7,41.2z M36.6,52.9L36.6,52.9C36.6,52.9,36.6,52.9,36.6,52.9C36.6,52.9,36.6,52.9,36.6,52.9L36.6,52.9z"
				/>
			
				<linearGradient id="SVGID_00000083085422886663720870000009267196087000125070_" gradientUnits="userSpaceOnUse" x1="58.431" y1="27.0769" x2="17.7504" y2="41.8835" gradientTransform="matrix(1 0 0 -1 0 77.54)">
				<stop  offset="0" style="stop-color:#FFFFFF"/>
				<stop  offset="1" style="stop-color:#15191A"/>
			</linearGradient>
			<path style="fill:url(#SVGID_00000083085422886663720870000009267196087000125070_);" d="M15.7,41.2c0,0,0,0.1,0,0.1
				c0,0.3,0.1,0.9,1.3,1.5l2.9,1.6c0.2,0.1,0.4,0.2,0.6,0.4c0.1,0.1,0.2,0.2,0.3,0.2c0.1,0.1,0.1,0.1,0.2,0.2
				c0.1,0.1,0.3,0.3,0.4,0.4c0,0,0,0,0,0c0.1,0.1,0.3,0.3,0.4,0.4c0,0,0,0,0,0l0,0c0.5,0.6,0.8,1.3,0.8,2.1c0.1,0.3,0.3,0.5,0.5,0.8
				c0.5,0.7,1.2,1.2,2,1.7l11.3,6.1l0.2,0.1c0.9,0.5,2.1,0.5,3,0l0.2-0.1l20.2-10.8c-0.1-0.1-0.2-0.1-0.3-0.2L50,40.4
				c-0.8-0.4-1.4-1-1.9-1.6c-0.6-0.8-0.9-1.7-0.9-2.6s-0.3-1.8-0.9-2.6c-0.5-0.7-1.1-1.2-1.9-1.7l-4.4-2.4c0,0,0,0,0,0
				c-0.5-0.3-1.1-0.4-1.7-0.4s-1.2,0.1-1.7,0.4L16.9,40l0,0C16.4,40.3,16,40.7,15.7,41.2L15.7,41.2L15.7,41.2L15.7,41.2z M36.5,50.6
				L36.5,50.6L36.5,50.6C36.5,50.6,36.5,50.6,36.5,50.6L36.5,50.6z"/>
			
				<linearGradient id="SVGID_00000130646077283101568930000000365362376526908847_" gradientUnits="userSpaceOnUse" x1="15.51" y1="23.6488" x2="61.01" y2="23.6488" gradientTransform="matrix(1 0 0 -1 0 77.54)">
				<stop  offset="0" style="stop-color:#B9D537"/>
				<stop  offset="0.27" style="stop-color:#B7D337"/>
				<stop  offset="0.36" style="stop-color:#B2CC37"/>
				<stop  offset="0.43" style="stop-color:#A9C039"/>
				<stop  offset="0.48" style="stop-color:#9DB13B"/>
				<stop  offset="0.65" style="stop-color:#A2B439"/>
				<stop  offset="0.85" style="stop-color:#B0BE36"/>
				<stop  offset="1" style="stop-color:#C1CA33"/>
			</linearGradient>
			<path style="fill:url(#SVGID_00000130646077283101568930000000365362376526908847_);" d="M15.5,42C15.5,42,15.5,42.1,15.5,42
				v11.2c0,1,0.6,2,1.7,2.5l19.4,10.4c1,0.6,2.3,0.6,3.4,0l19.6-10.5c0.9-0.5,1.4-1.3,1.4-2.1v-5.2v-0.8l0,0c0,0,0,0,0,0v-0.1
				c0-0.5,0-0.8-0.3-1.1c0.7,1-0.3,1.6-0.5,1.7c-0.1,0-0.1,0-0.1,0.1L40,58.8L39.8,59c-0.9,0.5-2,0.5-2.9,0l-0.2-0.1l-11-5.9
				c-1.8-0.9-2.8-2.6-2.8-4.3s-1.1-3.3-2.8-4.3L17,42.8c-1.6-0.8-1.2-1.6-1.2-1.6C15.6,41.4,15.5,41.7,15.5,42"/>
			
				<linearGradient id="SVGID_00000096754849881879085620000002831363181397562284_" gradientUnits="userSpaceOnUse" x1="33.3856" y1="60.7946" x2="43.2443" y2="33.6881" gradientTransform="matrix(1 0 0 -1 0 77.54)">
				<stop  offset="0" style="stop-color:#D0D3D2"/>
				<stop  offset="0.41" style="stop-color:#D0D3D2"/>
				<stop  offset="0.41" style="stop-color:#D0D3D2"/>
				<stop  offset="0.43" style="stop-color:#D2D5D3"/>
				<stop  offset="0.6" style="stop-color:#E4E4E3"/>
				<stop  offset="0.79" style="stop-color:#EEEDEC"/>
				<stop  offset="1" style="stop-color:#F2F1EF"/>
			</linearGradient>
			<path style="fill:url(#SVGID_00000096754849881879085620000002831363181397562284_);" d="M15.7,27.3c0,0,0,0.1,0,0.1
				c0,0.3,0.1,0.9,1.3,1.5l2.9,1.6c0.2,0.1,0.4,0.2,0.6,0.4c0.1,0.1,0.2,0.2,0.3,0.2c0.1,0.1,0.1,0.1,0.2,0.1
				c0.2,0.1,0.3,0.3,0.4,0.4c0,0,0,0,0,0c0.1,0.1,0.3,0.3,0.4,0.5l0,0l0,0c0.1,0.1,0.2,0.3,0.3,0.5c0,0,0,0,0,0
				c0.1,0.2,0.2,0.3,0.2,0.5c0,0,0,0,0,0c0.2,0.5,0.3,1.1,0.3,1.6c0,1.7,1.1,3.3,2.8,4.3l3.8,2.1l0,0l7.2,3.8l0.2,0.1
				c0.9,0.5,2,0.5,2.9,0L40,45h0l0.5-0.3l19.6-10.5c0.1,0,0.1-0.1,0.1-0.1c0.1-0.1,0.7-0.4,0.7-1c0-0.2-0.1-0.4-0.2-0.6l0,0l0,0
				c-0.2-0.2-0.4-0.4-0.9-0.7L50,26.5c-0.8-0.4-1.4-1-1.9-1.6c-0.6-0.8-0.9-1.7-0.9-2.7s-0.3-1.8-0.9-2.6c-0.5-0.7-1.1-1.2-1.9-1.7
				l-4.4-2.4c0,0,0,0,0,0c-0.5-0.3-1.1-0.4-1.7-0.4s-1.2,0.1-1.7,0.4L16.9,26.1C16.4,26.4,16,26.9,15.7,27.3L15.7,27.3L15.7,27.3
				L15.7,27.3z M36.6,39.1L36.6,39.1C36.6,39.1,36.6,39.1,36.6,39.1C36.6,39.1,36.6,39.1,36.6,39.1L36.6,39.1z"/>
			
				<linearGradient id="SVGID_00000116202042462169662860000006078146455920897170_" gradientUnits="userSpaceOnUse" x1="58.431" y1="40.9269" x2="17.7504" y2="55.7335" gradientTransform="matrix(1 0 0 -1 0 77.54)">
				<stop  offset="0" style="stop-color:#FFFFFF"/>
				<stop  offset="1" style="stop-color:#15191A"/>
			</linearGradient>
			<path style="fill:url(#SVGID_00000116202042462169662860000006078146455920897170_);" d="M15.7,27.3c0,0,0,0.1,0,0.1
				c0,0.3,0.1,0.9,1.3,1.5l2.9,1.6c0.2,0.1,0.4,0.2,0.6,0.4c0.1,0.1,0.2,0.2,0.3,0.2c0.1,0.1,0.1,0.1,0.2,0.2
				c0.1,0.1,0.3,0.3,0.4,0.4c0,0,0,0,0,0c0.1,0.1,0.3,0.3,0.4,0.4c0,0,0,0,0,0l0,0c0.5,0.6,0.8,1.3,0.8,2.1c0.1,0.3,0.3,0.5,0.5,0.8
				c0.5,0.7,1.2,1.2,2,1.7l11.3,6.1l0.2,0.1c0.9,0.5,2.1,0.5,3,0l0.2-0.1L60.1,32c-0.1-0.1-0.2-0.1-0.3-0.2L50,26.6
				c-0.8-0.4-1.4-1-1.9-1.6c-0.6-0.8-0.9-1.7-0.9-2.7s-0.3-1.8-0.9-2.6c-0.5-0.7-1.1-1.2-1.9-1.7l-4.4-2.4c0,0,0,0,0,0
				c-0.5-0.3-1.1-0.4-1.7-0.4s-1.2,0.1-1.7,0.4L16.9,26.1l0,0C16.4,26.4,16,26.9,15.7,27.3L15.7,27.3L15.7,27.3L15.7,27.3z
				 M36.5,36.7L36.5,36.7L36.5,36.7C36.5,36.7,36.5,36.7,36.5,36.7L36.5,36.7z"/>
			
				<linearGradient id="SVGID_00000150068704280703038230000005319354976727647365_" gradientUnits="userSpaceOnUse" x1="15.51" y1="37.4987" x2="61.01" y2="37.4987" gradientTransform="matrix(1 0 0 -1 0 77.54)">
				<stop  offset="0" style="stop-color:#B9D537"/>
				<stop  offset="0.27" style="stop-color:#B7D337"/>
				<stop  offset="0.36" style="stop-color:#B2CC37"/>
				<stop  offset="0.43" style="stop-color:#A9C039"/>
				<stop  offset="0.48" style="stop-color:#9DB13B"/>
				<stop  offset="0.65" style="stop-color:#A2B439"/>
				<stop  offset="0.85" style="stop-color:#B0BE36"/>
				<stop  offset="1" style="stop-color:#C1CA33"/>
			</linearGradient>
			<path style="fill:url(#SVGID_00000150068704280703038230000005319354976727647365_);" d="M15.5,28.2
				C15.5,28.2,15.5,28.2,15.5,28.2v11.2c0,1,0.6,2,1.7,2.5l19.4,10.4c1,0.6,2.3,0.6,3.4,0l19.6-10.5c0.9-0.5,1.4-1.3,1.4-2.1v-5.2
				v-0.8l0,0c0,0,0,0,0,0v-0.1c0-0.5,0-0.8-0.3-1.1c0.7,1-0.3,1.6-0.5,1.7c-0.1,0-0.1,0-0.1,0.1L40,45l-0.2,0.1
				c-0.9,0.5-2,0.5-2.9,0L36.6,45l-11-5.9c-1.8-0.9-2.8-2.6-2.8-4.3s-1.1-3.3-2.8-4.3L17,29c-1.6-0.8-1.2-1.6-1.2-1.6
				C15.6,27.6,15.5,27.9,15.5,28.2"/>
			
				<linearGradient id="SVGID_00000124872958897616671280000011302913910676862865_" gradientUnits="userSpaceOnUse" x1="15.52" y1="49.8175" x2="61.02" y2="49.8175" gradientTransform="matrix(1 0 0 -1 0 77.54)">
				<stop  offset="0" style="stop-color:#B9D537"/>
				<stop  offset="0.27" style="stop-color:#B7D337"/>
				<stop  offset="0.36" style="stop-color:#B2CC37"/>
				<stop  offset="0.43" style="stop-color:#A9C039"/>
				<stop  offset="0.48" style="stop-color:#9DB13B"/>
				<stop  offset="0.65" style="stop-color:#A2B439"/>
				<stop  offset="0.85" style="stop-color:#B0BE36"/>
				<stop  offset="1" style="stop-color:#C1CA33"/>
			</linearGradient>
			<path style="fill:url(#SVGID_00000124872958897616671280000011302913910676862865_);" d="M55.4,16.9l-0.6-0.3l0,0L55.4,16.9z
				 M61,21.1c0-0.8-0.5-1.6-1.2-1.9l-0.2-0.1c0.2,0.1,0.3,0.2,0.5,0.3c0.3,0.2,0.4,0.5,0.4,0.8s-0.1,0.6-0.4,0.8
				c-0.2,0.1-0.3,0.2-0.5,0.3l-2.2,1.2l0,0l-15.9,8.5l0,0l-1.2,0.6c-1.2,0.7-2.7,0.7-4,0L16.9,21.4c-0.2-0.1-0.3-0.2-0.5-0.3
				c-0.5-0.4-0.5-1.3,0-1.7l0,0c0,0,0.1-0.1,0.2-0.1s0.1-0.1,0.2-0.1c0,0,0.1-0.1,0.1-0.1l-0.1,0.1c-0.7,0.3-1.2,1.1-1.2,1.9
				c0,0,0,0,0,0c0,0,0,0,0,0v4.7c0,0.9,0.5,1.6,1.4,2.1l19.7,10.5c0,0,0,0,0,0c1,0.5,2.3,0.5,3.4,0c0,0,0,0,0,0L59.6,28
				c0.9-0.5,1.4-1.3,1.4-2.1L61,21.1C61,21.2,61,21.2,61,21.1C61,21.2,61,21.2,61,21.1L61,21.1z"/>
			<path class="st8" d="M59.6,19.1L40.2,8.7c-1.2-0.7-2.7-0.7-4,0L16.9,19.1c-0.2,0.1-0.3,0.2-0.5,0.3c-0.5,0.4-0.5,1.3,0,1.7
				c0.2,0.1,0.3,0.2,0.5,0.3l19.4,10.4c1.2,0.7,2.7,0.7,4,0l19.3-10.3c0.2-0.1,0.3-0.2,0.5-0.3c0.5-0.4,0.5-1.3,0-1.7
				C60,19.3,59.8,19.2,59.6,19.1"/>
			<path class="st9" d="M57.4,18.5L39.8,9.1c-0.9-0.5-2.2-0.5-3.1,0l-17.5,9.4c-0.3,0.2-0.6,0.4-0.8,0.7c-0.2,0.2-0.2,0.5,0,0.7
				c0.2,0.3,0.5,0.5,0.8,0.7L36.7,30c0.9,0.5,2.1,0.5,3.1,0l17.5-9.4c0.3-0.2,0.6-0.4,0.8-0.7c0.2-0.2,0.2-0.5,0-0.7
				C58,18.9,57.7,18.7,57.4,18.5"/>
		</g>
	</g>
</g>
</svg>
