<?xml version="1.0" encoding="utf-8"?>
<!-- Generator: Adobe Illustrator 26.0.0, SVG Export Plug-In . SVG Version: 6.00 Build 0)  -->
<svg version="1.1" id="Réteg_1" xmlns="http://www.w3.org/2000/svg" xmlns:xlink="http://www.w3.org/1999/xlink" x="0px" y="0px"
	 viewBox="0 0 512 512" style="enable-background:new 0 0 512 512;" xml:space="preserve">
<style type="text/css">
	.st0{fill:#6C6C6C;}
</style>
<path class="st0" d="M197.4,6.5C102.3,27.6,27.6,102.3,6.5,197.4c-41.4,186.8,121.3,349.5,308.1,308.1
	c95.1-21.1,169.8-95.8,190.9-190.9C547,127.8,384.2-34.9,197.4,6.5z M462.3,283c-11.8,93.5-85.9,167.5-179.3,179.3
	C146.9,479.4,32.6,365.1,49.7,229C61.5,135.5,135.5,61.5,229,49.7C365.1,32.6,479.4,146.9,462.3,283z"/>
<g>
	<path class="st0" d="M432.7,110c0-2,0-3.5,0-5.1c0-26.4,0-52.7,0-79.1c0-6.8,1.5-13.4,6.3-18.3c6.2-6.4,14.1-8.9,22.9-6.6
		c9,2.3,14.7,8.1,16.8,17.3c0.5,2.4,0.8,4.9,0.8,7.4c0.1,35.2,0,70.5,0,105.7c0,6.7-1.6,13-6.1,18.1c-4.9,5.6-11.7,7.7-18.9,7.7
		c-35.7,0.1-71.5,0.2-107.2,0c-8.8-0.1-16.7-2.9-21.4-11.4c-4.9-8.9-4.4-17.6,1.1-25.8c5-7.5,12.8-9.6,21.2-9.7
		c26.5-0.1,53-0.1,79.5-0.1C429.2,110,430.7,110,432.7,110z"/>
</g>
<path class="st0" d="M216.6,131.2c-0.1-11.5,11.5-22.6,25.6-21.6c12.7,0.8,22.3,11.7,22.3,24.4l-0.9,109.2l108,0.3
	c15.8-0.2,26,8.5,26,22.8c0,14.8-9.9,24.1-23.7,24l-132.5-0.4c-16.3,0-24.8-10.3-24.8-23.6L216.6,131.2L216.6,131.2z"/>
</svg>
