<?xml version="1.0" encoding="utf-8"?>
<!-- Generator: Adobe Illustrator 26.0.0, SVG Export Plug-In . SVG Version: 6.00 Build 0)  -->
<svg version="1.1" id="Réteg_1" xmlns="http://www.w3.org/2000/svg" xmlns:xlink="http://www.w3.org/1999/xlink" x="0px" y="0px"
	 viewBox="0 0 512 512" style="enable-background:new 0 0 512 512;" xml:space="preserve">
<style type="text/css">
	.st0{fill:#6C6C6C;}
</style>
<path class="st0" d="M6.5,314.6c21.1,95.1,95.8,169.8,190.9,190.9c186.8,41.4,349.5-121.3,308.1-308.1
	C484.4,102.3,409.7,27.6,314.6,6.5C127.8-35-34.9,127.8,6.5,314.6z M283,49.7c93.5,11.8,167.5,85.9,179.3,179.3
	c17.1,136.1-97.2,250.4-233.3,233.3C135.5,450.5,61.5,376.5,49.7,283C32.6,146.9,146.9,32.6,283,49.7z"/>
<g>
	<path class="st0" d="M110,79.3c-2,0-3.5,0-5.1,0c-26.4,0-52.7,0-79.1,0c-6.8,0-13.4-1.5-18.3-6.3c-6.4-6.2-8.9-14.1-6.6-22.9
		c2.3-9,8.1-14.7,17.3-16.8c2.4-0.5,4.9-0.8,7.4-0.8c35.2-0.1,70.5,0,105.7,0c6.7,0,13,1.6,18.1,6.1c5.6,4.9,7.7,11.7,7.7,18.9
		c0.1,35.7,0.2,71.5,0,107.2c-0.1,8.8-2.9,16.7-11.4,21.4c-8.9,4.9-17.6,4.4-25.8-1.1c-7.5-5-9.6-12.8-9.7-21.2
		c-0.1-26.5-0.1-53-0.1-79.5C110,82.8,110,81.3,110,79.3z"/>
</g>
<path class="st0" d="M131.2,295.5c-11.5,0.1-22.6-11.5-21.6-25.6c0.8-12.7,11.7-22.3,24.4-22.3l109.2,0.9l0.3-108
	c-0.2-15.8,8.5-26,22.8-26c14.8,0,24.1,9.9,24,23.7l-0.4,132.5c0,16.3-10.3,24.8-23.6,24.8H131.2L131.2,295.5z"/>
</svg>
