<?xml version="1.0" encoding="utf-8"?>
<!-- Generator: Adobe Illustrator 26.0.0, SVG Export Plug-In . SVG Version: 6.00 Build 0)  -->
<svg version="1.1" id="Réteg_1" xmlns="http://www.w3.org/2000/svg" xmlns:xlink="http://www.w3.org/1999/xlink" x="0px" y="0px"
	 viewBox="0 0 512 512" style="enable-background:new 0 0 512 512;" xml:space="preserve">
<style type="text/css">
	.st0{fill:#6C6C6C;}
</style>
<path class="st0" d="M505.5,197.4C484.4,102.3,409.7,27.6,314.6,6.5C127.8-34.9-34.9,127.8,6.5,314.6
	c21.1,95.1,95.8,169.8,190.9,190.9C384.2,547,546.9,384.2,505.5,197.4z M229,462.3C135.5,450.5,61.5,376.4,49.7,283
	C32.6,146.9,146.9,32.6,283,49.7c93.5,11.8,167.5,85.8,179.3,179.3C479.4,365.1,365.1,479.4,229,462.3z"/>
<g>
	<path class="st0" d="M402,432.7c2,0,3.5,0,5.1,0c26.4,0,52.7,0,79.1,0c6.8,0,13.4,1.5,18.3,6.3c6.4,6.2,8.9,14.1,6.6,22.9
		c-2.3,9-8.1,14.7-17.3,16.8c-2.4,0.5-4.9,0.8-7.4,0.8c-35.2,0.1-70.5,0-105.7,0c-6.7,0-13-1.6-18.1-6.1c-5.6-4.9-7.7-11.7-7.7-18.9
		c-0.1-35.7-0.2-71.5,0-107.2c0.1-8.8,2.9-16.7,11.4-21.4c8.9-4.9,17.6-4.4,25.8,1.1c7.5,5,9.6,12.8,9.7,21.2
		c0.1,26.5,0.1,53,0.1,79.5C402,429.2,402,430.7,402,432.7z"/>
</g>
<path class="st0" d="M380.8,216.5c11.5-0.1,22.6,11.5,21.6,25.6c-0.8,12.7-11.7,22.3-24.4,22.3l-109.2-0.9l-0.3,108
	c0.2,15.8-8.5,26-22.8,26c-14.8,0-24.1-9.9-24-23.7l0.4-132.5c0-16.3,10.3-24.8,23.6-24.8L380.8,216.5L380.8,216.5z"/>
</svg>
