<?xml version="1.0" encoding="utf-8"?>
<!-- Generator: Adobe Illustrator 26.0.0, SVG Export Plug-In . SVG Version: 6.00 Build 0)  -->
<svg version="1.1" id="Réteg_1" xmlns="http://www.w3.org/2000/svg" xmlns:xlink="http://www.w3.org/1999/xlink" x="0px" y="0px"
	 viewBox="0 0 50 62" style="enable-background:new 0 0 50 62;" xml:space="preserve">
<style type="text/css">
	.st0{fill:url(#SVGID_1_);}
	.st1{fill:url(#SVGID_00000022535533782199071900000005074159470422642873_);}
	.st2{fill:url(#SVGID_00000021076937896467739900000006112857059688704399_);}
	.st3{fill:url(#SVGID_00000109022108430458092400000005503400465249983403_);}
	.st4{fill:url(#SVGID_00000078731599863135825540000013915128511811270023_);}
	.st5{fill:url(#SVGID_00000065048049794893268660000008743966422958031289_);}
	.st6{fill:url(#SVGID_00000044868710925358861100000004847302502695313031_);}
	.st7{fill:url(#SVGID_00000092457641305398634430000007964925804996736394_);}
	.st8{fill:#C7DB5D;}
	.st9{fill:#BAD53C;}
</style>
<g>
	
		<linearGradient id="SVGID_1_" gradientUnits="userSpaceOnUse" x1="20.9672" y1="1026.6997" x2="30.8196" y2="1053.7889" gradientTransform="matrix(1 0 0 1 0 -1002.46)">
		<stop  offset="0" style="stop-color:#D0D3D2"/>
		<stop  offset="0.41" style="stop-color:#D0D3D2"/>
		<stop  offset="0.41" style="stop-color:#D0D3D2"/>
		<stop  offset="0.43" style="stop-color:#D2D5D3"/>
		<stop  offset="0.6" style="stop-color:#E4E4E3"/>
		<stop  offset="0.79" style="stop-color:#EEEDEC"/>
		<stop  offset="1" style="stop-color:#F2F1EF"/>
	</linearGradient>
	<path class="st0" d="M3.4,34.8L3.4,34.8c0,0.4,0.1,1,1.3,1.6L7.6,38c0.2,0.1,0.4,0.2,0.6,0.4c0.1,0.1,0.2,0.2,0.3,0.2
		c0.1,0.1,0.1,0.1,0.2,0.1C8.9,38.8,9,39,9.1,39.1l0,0c0.1,0.1,0.3,0.3,0.4,0.5l0,0l0,0c0.1,0.1,0.2,0.3,0.3,0.5l0,0
		c0.1,0.2,0.2,0.3,0.2,0.5l0,0c0.2,0.5,0.3,1.1,0.3,1.6c0,1.7,1.1,3.3,2.8,4.3l3.8,2.1l0,0l7.2,3.8l0.2,0.1c0.9,0.4,2,0.4,2.9,0
		l0.2-0.1l0,0l0.5-0.3l19.7-10.4c0.1-0.1,0.2-0.1,0.2-0.1c0.1-0.1,0.6-0.4,0.6-1c0-0.2-0.1-0.4-0.2-0.6l0,0l0,0
		c-0.2-0.2-0.4-0.4-0.9-0.7L37.7,34c-0.8-0.4-1.4-1-1.9-1.6c-0.6-0.8-0.9-1.7-0.9-2.6S34.6,28,34,27.2c-0.5-0.7-1.1-1.2-1.9-1.7
		l-4.4-2.4l0,0c-0.5-0.3-1.1-0.4-1.7-0.4s-1.2,0.1-1.7,0.4L4.6,33.6C4.1,33.9,3.7,34.3,3.4,34.8L3.4,34.8L3.4,34.8z M24.3,46.5
		L24.3,46.5L24.3,46.5L24.3,46.5L24.3,46.5z"/>
	
		<linearGradient id="SVGID_00000074434393378030791220000013394005243763063705_" gradientUnits="userSpaceOnUse" x1="45.928" y1="1046.4314" x2="5.2474" y2="1031.6248" gradientTransform="matrix(1 0 0 1 0 -1002.46)">
		<stop  offset="0" style="stop-color:#FFFFFF"/>
		<stop  offset="1" style="stop-color:#15191A"/>
	</linearGradient>
	<path style="fill:url(#SVGID_00000074434393378030791220000013394005243763063705_);" d="M3.2,34.7L3.2,34.7c0,0.4,0.1,1,1.3,1.6
		l2.9,1.6C7.6,38,7.8,38.1,8,38.3c0.1,0.1,0.2,0.2,0.3,0.2c0.1,0.1,0.1,0.1,0.2,0.2c0.1,0.1,0.3,0.3,0.4,0.4l0,0
		c0.1,0.1,0.3,0.3,0.4,0.4l0,0l0,0c0.5,0.6,0.8,1.3,0.8,2.1c0.1,0.3,0.3,0.5,0.5,0.8c0.5,0.7,1.2,1.2,2,1.7l11.3,6.1l0.2,0.1
		c0.9,0.5,2.1,0.5,3,0l0.2-0.1l20.2-10.8c-0.1-0.1-0.2-0.1-0.3-0.2l-9.7-5.3c-0.8-0.4-1.4-1-1.9-1.6c-0.6-0.8-0.9-1.7-0.9-2.6
		s-0.3-1.8-0.9-2.6c-0.5-0.7-1.1-1.2-1.9-1.7L27.5,23l0,0c-0.5-0.3-1.1-0.4-1.7-0.4s-1.2,0.1-1.7,0.4L4.4,33.5l0,0
		C3.9,33.8,3.5,34.2,3.2,34.7L3.2,34.7L3.2,34.7L3.2,34.7z M24,44.1L24,44.1L24,44.1L24,44.1L24,44.1z"/>
	
		<linearGradient id="SVGID_00000155841478989467808150000002260856165419718079_" gradientUnits="userSpaceOnUse" x1="3" y1="1049.835" x2="48.5" y2="1049.835" gradientTransform="matrix(1 0 0 1 0 -1002.46)">
		<stop  offset="0" style="stop-color:#B9D537"/>
		<stop  offset="0.27" style="stop-color:#B7D337"/>
		<stop  offset="0.36" style="stop-color:#B2CC37"/>
		<stop  offset="0.43" style="stop-color:#A9C039"/>
		<stop  offset="0.48" style="stop-color:#9DB13B"/>
		<stop  offset="0.65" style="stop-color:#A2B439"/>
		<stop  offset="0.85" style="stop-color:#B0BE36"/>
		<stop  offset="1" style="stop-color:#C1CA33"/>
	</linearGradient>
	<path style="fill:url(#SVGID_00000155841478989467808150000002260856165419718079_);" d="M3,35.5C3,35.5,3,35.6,3,35.5v11.2
		c0,1,0.6,2,1.7,2.5l19.4,10.4c1,0.6,2.3,0.6,3.4,0l19.6-10.5c0.9-0.5,1.4-1.3,1.4-2.1v-5.2V41l0,0l0,0v-0.1c0-0.5-0.1-0.8-0.4-1.1
		c0.7,1-0.3,1.7-0.5,1.8c0,0,0.1-0.1,0,0L27.5,52.3l-0.2,0.1c-0.9,0.5-2,0.6-2.9,0.1l-0.2-0.1l-11-5.9c-1.8-0.9-2.8-2.6-2.8-4.3
		s-1.1-3.3-2.8-4.3l-3.1-1.6c-1.6-0.8-1.2-1.6-1.2-1.6C3.1,34.9,3,35.2,3,35.5"/>
	
		<linearGradient id="SVGID_00000049204773657416501680000007394113606950021053_" gradientUnits="userSpaceOnUse" x1="20.94" y1="10.3028" x2="30.8234" y2="37.4772">
		<stop  offset="0" style="stop-color:#D0D3D2"/>
		<stop  offset="0.41" style="stop-color:#D0D3D2"/>
		<stop  offset="0.41" style="stop-color:#D0D3D2"/>
		<stop  offset="0.43" style="stop-color:#D2D5D3"/>
		<stop  offset="0.6" style="stop-color:#E4E4E3"/>
		<stop  offset="0.79" style="stop-color:#EEEDEC"/>
		<stop  offset="1" style="stop-color:#F2F1EF"/>
	</linearGradient>
	<path style="fill:url(#SVGID_00000049204773657416501680000007394113606950021053_);" d="M3.3,20.9V21c0,0.3,0.1,0.9,1.3,1.5
		l2.9,1.6c0.2,0.1,0.4,0.2,0.6,0.4c0.1,0.1,0.2,0.2,0.3,0.2c0.1,0.1,0.1,0.1,0.2,0.1c0.2,0.1,0.3,0.3,0.4,0.4l0,0
		c0.1,0.1,0.3,0.3,0.4,0.5l0,0l0,0c0.1,0.1,0.2,0.3,0.3,0.5l0,0c0.1,0.2,0.2,0.3,0.2,0.5l0,0c0.2,0.5,0.3,1.1,0.3,1.6
		c0,1.7,1.1,3.3,2.8,4.3l3.8,2.1l0,0l7.2,3.8l0.2,0.1c0.9,0.5,2.1,0.7,3,0.2l0.4-0.2l0,0l0.5-0.3l19.6-10.5c0.1,0,0.1-0.1,0.1-0.1
		c0.1-0.1,0.6-0.4,0.6-1c0-0.3-0.1-0.4-0.2-0.6l0,0l0.1,0.1c-0.2-0.2-0.4-0.5-0.9-0.8l-9.8-5.3c-0.8-0.4-1.4-1-1.9-1.6
		c-0.6-0.8-0.9-1.7-0.9-2.7s-0.3-1.8-0.9-2.6c-0.5-0.7-1.1-1.2-1.9-1.7l-4.4-2.4l0,0c-0.5-0.3-1.1-0.4-1.7-0.4s-1.2,0.1-1.7,0.4
		L4.5,19.7C4,20,3.6,20.5,3.3,20.9L3.3,20.9L3.3,20.9L3.3,20.9z"/>
	
		<linearGradient id="SVGID_00000129912408757765316890000018285844081375396519_" gradientUnits="userSpaceOnUse" x1="24.1" y1="1035.0599" x2="24.1" y2="1035.0599" gradientTransform="matrix(1 0 0 1 0 -1002.46)">
		<stop  offset="0" style="stop-color:#D0D3D2"/>
		<stop  offset="0.41" style="stop-color:#D0D3D2"/>
		<stop  offset="0.41" style="stop-color:#D0D3D2"/>
		<stop  offset="0.43" style="stop-color:#D2D5D3"/>
		<stop  offset="0.6" style="stop-color:#E4E4E3"/>
		<stop  offset="0.79" style="stop-color:#EEEDEC"/>
		<stop  offset="1" style="stop-color:#F2F1EF"/>
	</linearGradient>
	<rect x="24.1" y="32.6" style="fill:url(#SVGID_00000129912408757765316890000018285844081375396519_);" width="0" height="0"/>
	
		<linearGradient id="SVGID_00000140014169075323976560000015676141837005739141_" gradientUnits="userSpaceOnUse" x1="45.9352" y1="1032.5339" x2="5.2185" y2="1017.7142" gradientTransform="matrix(1 0 0 1 0 -1002.46)">
		<stop  offset="0" style="stop-color:#FFFFFF"/>
		<stop  offset="1" style="stop-color:#15191A"/>
	</linearGradient>
	<path style="fill:url(#SVGID_00000140014169075323976560000015676141837005739141_);" d="M3.2,20.8v0.1c0,0.3,0.1,0.9,1.3,1.5
		L7.4,24c0.2,0.1,0.4,0.2,0.6,0.4c0.1,0.1,0.2,0.2,0.3,0.2c0.1,0.1,0.1,0.1,0.2,0.2s0.3,0.3,0.4,0.4l0,0c0.1,0.1,0.3,0.3,0.4,0.4
		l0,0l0,0c0.5,0.6,0.8,1.3,0.8,2.1c0.1,0.3,0.3,0.5,0.5,0.8c0.5,0.7,1.2,1.2,2,1.7l11.3,6.1l0.2,0.1c0.9,0.5,2.1,0.5,3,0l0.2-0.1
		l20.3-10.8c-0.1-0.1-0.2-0.1-0.3-0.2l-9.8-5.2c-0.8-0.4-1.4-1-1.9-1.6c-0.6-0.8-0.9-1.7-0.9-2.7s-0.3-1.8-0.9-2.6
		c-0.5-0.7-1.1-1.2-1.9-1.7l-4.4-2.4l0,0c-0.5-0.3-1.1-0.4-1.7-0.4s-1.2,0.1-1.7,0.4L4.4,19.6l0,0C3.9,19.9,3.5,20.4,3.2,20.8
		L3.2,20.8L3.2,20.8L3.2,20.8z M24,30.2L24,30.2L24,30.2L24,30.2L24,30.2z"/>
	
		<linearGradient id="SVGID_00000120518015565683507610000005725128396090056381_" gradientUnits="userSpaceOnUse" x1="3" y1="1036.035" x2="48.5" y2="1036.035" gradientTransform="matrix(1 0 0 1 0 -1002.46)">
		<stop  offset="0" style="stop-color:#B9D537"/>
		<stop  offset="0.27" style="stop-color:#B7D337"/>
		<stop  offset="0.36" style="stop-color:#B2CC37"/>
		<stop  offset="0.43" style="stop-color:#A9C039"/>
		<stop  offset="0.48" style="stop-color:#9DB13B"/>
		<stop  offset="0.65" style="stop-color:#A2B439"/>
		<stop  offset="0.85" style="stop-color:#B0BE36"/>
		<stop  offset="1" style="stop-color:#C1CA33"/>
	</linearGradient>
	<path style="fill:url(#SVGID_00000120518015565683507610000005725128396090056381_);" d="M3,21.7L3,21.7v11.2c0,1,0.6,2,1.7,2.5
		l19.4,10.4c1,0.6,2.3,0.6,3.4,0l19.6-10.5c0.9-0.5,1.4-1.3,1.4-2.1V28v-0.8l0,0l0,0v-0.1c0-0.5,0-0.8-0.3-1.1
		c0.7,1-0.3,1.6-0.5,1.7c-0.1,0.1,0,0-0.1,0.1l-20,10.7l-0.2,0.1c-0.9,0.5-2,0.5-2.9,0l-0.3-0.1l-11-5.9c-1.8-0.9-2.8-2.6-2.8-4.3
		S9.2,25,7.5,24l-3-1.5c-1.6-0.8-1.2-1.6-1.2-1.6C3.1,21.1,3,21.4,3,21.7"/>
	
		<linearGradient id="SVGID_00000091710824071668121110000001819155880360403903_" gradientUnits="userSpaceOnUse" x1="3.02" y1="1023.6475" x2="48.52" y2="1023.6475" gradientTransform="matrix(1 0 0 1 0 -1002.46)">
		<stop  offset="0" style="stop-color:#B9D537"/>
		<stop  offset="0.27" style="stop-color:#B7D337"/>
		<stop  offset="0.36" style="stop-color:#B2CC37"/>
		<stop  offset="0.43" style="stop-color:#A9C039"/>
		<stop  offset="0.48" style="stop-color:#9DB13B"/>
		<stop  offset="0.65" style="stop-color:#A2B439"/>
		<stop  offset="0.85" style="stop-color:#B0BE36"/>
		<stop  offset="1" style="stop-color:#C1CA33"/>
	</linearGradient>
	<path style="fill:url(#SVGID_00000091710824071668121110000001819155880360403903_);" d="M42.9,10.4l-0.6-0.3l0,0L42.9,10.4z
		 M48.5,14.6c0-0.8-0.5-1.6-1.2-1.9l-0.2-0.1c0.2,0.1,0.3,0.2,0.5,0.3c0.3,0.2,0.4,0.5,0.4,0.8s-0.1,0.6-0.4,0.8
		c-0.2,0.1-0.3,0.2-0.5,0.3L44.9,16l0,0L29,24.5l0,0l-1.2,0.6c-1.2,0.7-2.7,0.7-4,0L4.4,14.9c-0.2-0.1-0.3-0.2-0.5-0.3
		c-0.5-0.4-0.5-1.3,0-1.7l0,0c0,0,0.1-0.1,0.2-0.1s0.1-0.1,0.2-0.1l0.1-0.1l-0.1,0.1c-0.7,0.3-1.2,1.1-1.2,1.9l0,0l0,0v4.7
		c0,0.9,0.5,1.6,1.4,2.1l19.7,10.5l0,0c1,0.5,2.3,0.5,3.4,0l0,0l19.5-10.4c0.9-0.5,1.4-1.3,1.4-2.1V14.6
		C48.5,14.7,48.5,14.7,48.5,14.6C48.5,14.7,48.5,14.7,48.5,14.6L48.5,14.6z"/>
	<path class="st8" d="M47.1,12.6L27.7,2.2c-1.2-0.7-2.7-0.7-4,0L4.4,12.6c-0.2,0.1-0.3,0.2-0.5,0.3c-0.5,0.4-0.5,1.3,0,1.7
		c0.2,0.1,0.3,0.2,0.5,0.3l19.4,10.4c1.2,0.7,2.7,0.7,4,0L47.1,15c0.2-0.1,0.3-0.2,0.5-0.3c0.5-0.4,0.5-1.3,0-1.7
		C47.5,12.8,47.3,12.7,47.1,12.6"/>
	<path class="st9" d="M44.9,12L27.3,2.6c-0.9-0.5-2.2-0.5-3.1,0L6.7,12c-0.3,0.2-0.6,0.4-0.8,0.7c-0.2,0.2-0.2,0.5,0,0.7
		c0.2,0.3,0.5,0.5,0.8,0.7l17.5,9.4c0.9,0.5,2.1,0.5,3.1,0l17.5-9.4c0.3-0.2,0.6-0.4,0.8-0.7c0.2-0.2,0.2-0.5,0-0.7
		C45.5,12.4,45.2,12.2,44.9,12"/>
</g>
</svg>
