<?xml version="1.0" encoding="utf-8"?>
<!-- Generator: Adobe Illustrator 24.2.3, SVG Export Plug-In . SVG Version: 6.00 Build 0)  -->
<svg version="1.1" id="Layer_1" xmlns="http://www.w3.org/2000/svg" xmlns:xlink="http://www.w3.org/1999/xlink" x="0px" y="0px"
	 viewBox="0 0 225 78" style="enable-background:new 0 0 225 78;" xml:space="preserve">
<style type="text/css">
	.st0{clip-path:url(#SVGID_2_);fill:url(#SVGID_3_);}
	.st1{clip-path:url(#SVGID_6_);fill:url(#SVGID_7_);}
	.st2{clip-path:url(#SVGID_9_);fill:url(#SVGID_10_);}
	.st3{clip-path:url(#SVGID_13_);fill:url(#SVGID_14_);}
	.st4{clip-path:url(#SVGID_16_);fill:url(#SVGID_17_);}
	.st5{clip-path:url(#SVGID_19_);}
	.st6{clip-path:url(#SVGID_21_);fill:url(#SVGID_22_);}
	.st7{clip-path:url(#SVGID_25_);fill:url(#SVGID_26_);}
	.st8{fill:#C7DB59;}
	.st9{fill:#B9D43D;}
</style>
<g>
	<g>
		<polygon points="80.9,16.7 88.7,16.7 88.7,18.6 83,18.6 83,25.4 88,25.4 88,27.2 83,27.2 83,34.3 88.8,34.3 88.8,36.2 80.9,36.2 
					"/>
		<path d="M109.3,20.9c0-0.7-0.3-2.4-2.3-2.4c-2.2,0-2.4,1.9-2.4,3v10.5c0,0.7,0.3,2.5,2.3,2.5c1.1,0,2.4-0.5,2.4-2.7v-0.6h2.1v0.7
			c0,2.8-1.3,4.6-4.6,4.6c-3.9,0-4.3-3.2-4.3-4.3V20.7c0-2.2,1.5-4.2,4.4-4.2c2.4,0,4.4,1.2,4.4,4.3V22h-2V20.9z"/>
		<polygon points="127.4,16.7 127.4,27.1 132.7,16.7 134.8,16.7 130.8,24.5 135.6,36.2 133.4,36.2 129.5,26.5 127.4,30.6 
			127.4,36.2 125.3,36.2 125.3,16.7 		"/>
		<polygon points="149.3,16.7 157.2,16.7 157.2,18.6 151.4,18.6 151.4,25.4 156.5,25.4 156.5,27.2 151.4,27.2 151.4,34.3 
			157.2,34.3 157.2,36.2 149.3,36.2 		"/>
		<path d="M175,16.7c2.1,0,5.1,0.3,5.1,4.6v1.5c0,2.1-0.9,3.6-2.7,4.1l3.1,9.2h-2.2l-2.9-8.8h-2.4v8.8h-2.1V16.7H175z M173.2,25.6
			h2.1c1.5,0,2.8-0.9,2.8-2.6v-1.8c0-2.4-1.9-2.6-2.9-2.6h-1.9V25.6z"/>
		<polygon points="196.8,16.7 196.8,34.3 202.9,34.3 202.9,36.2 194.7,36.2 194.7,16.7 		"/>
		<polygon points="216.5,16.7 224.3,16.7 224.3,18.6 218.6,18.6 218.6,25.4 223.6,25.4 223.6,27.2 218.6,27.2 218.6,34.3 
			224.4,34.3 224.4,36.2 216.5,36.2 		"/>
	</g>
	<g>
		<g>
			<defs>
				<path id="SVGID_1_" d="M28.9,59.4C28.9,59.4,28.9,59.4,28.9,59.4C28.9,59.4,28.9,59.4,28.9,59.4C28.9,59.4,28.9,59.4,28.9,59.4
					 M28.8,59.4C28.8,59.4,28.8,59.4,28.8,59.4C28.8,59.4,28.8,59.4,28.8,59.4 M28.8,28.4L2.8,42.3c-0.7,0.4-1.2,0.9-1.5,1.6
					c0,0-0.4,1.1,1.7,2.2l3.9,2.1c1.1,0.6,1.9,1.3,2.6,2.2c0.8,1,1.2,2.2,1.2,3.5c0,1.3,0.4,2.4,1.2,3.5c0.6,0.9,1.5,1.6,2.5,2.2
					l14.5,7.8l0.3,0.2c1.2,0.6,2.7,0.6,3.8,0l0.3-0.2L59.9,53c0.1,0,0.1-0.1,0.2-0.1c0.2-0.1,1.5-0.9,0.7-2.2
					c-0.2-0.3-0.6-0.6-1.1-0.9l-13-7c-1-0.6-1.9-1.3-2.5-2.2c-0.8-1-1.2-2.2-1.2-3.5c0-1.2-0.4-2.4-1.2-3.4
					c-0.6-0.9-1.5-1.6-2.6-2.2l-5.8-3.1c0,0,0,0,0,0c-0.7-0.4-1.5-0.5-2.2-0.5C30.3,27.9,29.5,28,28.8,28.4"/>
			</defs>
			<clipPath id="SVGID_2_">
				<use xlink:href="#SVGID_1_"  style="overflow:visible;"/>
			</clipPath>
			
				<linearGradient id="SVGID_3_" gradientUnits="userSpaceOnUse" x1="-303.2449" y1="267.8389" x2="-302.2992" y2="267.8389" gradientTransform="matrix(16.5941 35.5863 35.5863 -16.5941 -4475.9487 15266.8467)">
				<stop  offset="0" style="stop-color:#D0D2D1"/>
				<stop  offset="0.4051" style="stop-color:#D0D2D1"/>
				<stop  offset="0.4134" style="stop-color:#D0D2D1"/>
				<stop  offset="0.4165" style="stop-color:#D0D2D1"/>
				<stop  offset="0.5932" style="stop-color:#E2E2E1"/>
				<stop  offset="0.7813" style="stop-color:#EDECEB"/>
				<stop  offset="1" style="stop-color:#F0EFEE"/>
			</linearGradient>
			<polygon class="st0" points="50.8,4.6 77,60.8 11.7,91.3 -14.5,35 			"/>
		</g>
		<g>
			<defs>
				<path id="SVGID_4_" d="M1,45C1,45,1,45,1,45l0,2v4.3v8.6c0,1.3,0.8,2.6,2.2,3.3L28.9,77c1.4,0.7,3.1,0.7,4.5,0l26-13.9
					c1.2-0.6,1.9-1.7,1.9-2.8l0-6.8l0-1.1l0,0c0,0,0,0,0-0.1v-0.1c0-0.7-0.1-1.1-0.4-1.4c0.9,1.3-0.5,2.1-0.7,2.2
					c-0.1,0-0.1,0.1-0.2,0.1L33.4,67.2L33,67.4c-1.2,0.6-2.7,0.6-3.8,0l-0.3-0.2l-14.5-7.8c-2.3-1.3-3.8-3.4-3.8-5.7
					c0-2.3-1.4-4.4-3.8-5.7L3,46c-2.1-1.1-1.7-2.2-1.7-2.2C1.1,44.2,1,44.6,1,45"/>
			</defs>
			<linearGradient id="SVGID_5_" gradientUnits="userSpaceOnUse" x1="1.1123" y1="60.687" x2="60.6982" y2="60.687">
				<stop  offset="0" style="stop-color:#B9D53D"/>
				<stop  offset="0.2654" style="stop-color:#B7D33D"/>
				<stop  offset="0.3609" style="stop-color:#B2CC3C"/>
				<stop  offset="0.4288" style="stop-color:#A8C13B"/>
				<stop  offset="0.4832" style="stop-color:#9BB039"/>
				<stop  offset="0.6438" style="stop-color:#A0B338"/>
				<stop  offset="0.8346" style="stop-color:#AEBD36"/>
				<stop  offset="1" style="stop-color:#C1CA33"/>
			</linearGradient>
			<use xlink:href="#SVGID_4_"  style="overflow:visible;fill:url(#SVGID_5_);"/>
			<clipPath id="SVGID_6_">
				<use xlink:href="#SVGID_4_"  style="overflow:visible;"/>
			</clipPath>
			
				<linearGradient id="SVGID_7_" gradientUnits="userSpaceOnUse" x1="-308.7077" y1="271.1798" x2="-307.762" y2="271.1798" gradientTransform="matrix(63.6271 0 0 -63.6271 19643.1641 17315.1504)">
				<stop  offset="0" style="stop-color:#B9D53D"/>
				<stop  offset="0.2654" style="stop-color:#B7D33D"/>
				<stop  offset="0.3609" style="stop-color:#B2CC3C"/>
				<stop  offset="0.4288" style="stop-color:#A8C13B"/>
				<stop  offset="0.4832" style="stop-color:#9BB039"/>
				<stop  offset="0.6438" style="stop-color:#A0B338"/>
				<stop  offset="0.8346" style="stop-color:#AEBD36"/>
				<stop  offset="1" style="stop-color:#C1CA33"/>
			</linearGradient>
			<rect x="0.9" y="43.9" class="st1" width="60.8" height="33.8"/>
		</g>
		<g>
			<defs>
				<path id="SVGID_8_" d="M59.7,49.8l-13-7c-1.1-0.6-1.9-1.3-2.5-2.2c-0.8-1-1.2-2.2-1.2-3.5c0-1.2-0.4-2.4-1.2-3.4
					c-0.6-0.9-1.5-1.6-2.6-2.2l-5.8-3.1c0,0,0,0,0,0c-1.4-0.7-3.1-0.7-4.5,0L2.8,42.3c-0.2,0.1-0.3,0.3-0.5,0.4
					c-0.4,0.3-0.8,0.7-1,1.2c0,0-0.4,1.1,1.7,2.2l3.9,2.1c1.1,0.6,1.9,1.3,2.6,2.2c0.2,0.3,0.4,0.6,0.6,0.9c0.3,0.6,0.5,1.2,0.6,1.8
					c0.2,0.4,0.4,0.7,0.6,1c0.7,0.9,1.5,1.6,2.6,2.2l15,8l0.3,0.2c1.2,0.6,2.8,0.6,4,0l0.3-0.2L60,50.1C59.9,50,59.8,49.9,59.7,49.8
					 M28.7,56.3C28.7,56.3,28.7,56.3,28.7,56.3C28.7,56.3,28.7,56.3,28.7,56.3C28.7,56.3,28.7,56.3,28.7,56.3 M28.9,59.4
					C28.9,59.4,28.9,59.4,28.9,59.4C28.9,59.4,28.9,59.4,28.9,59.4C28.9,59.4,28.9,59.4,28.9,59.4"/>
			</defs>
			<clipPath id="SVGID_9_">
				<use xlink:href="#SVGID_8_"  style="overflow:visible;"/>
			</clipPath>
			
				<linearGradient id="SVGID_10_" gradientUnits="userSpaceOnUse" x1="-305.0787" y1="278.557" x2="-304.1331" y2="278.557" gradientTransform="matrix(-49.3833 -28.5114 -28.5114 49.3833 -7069.5352 -22394.1719)">
				<stop  offset="0" style="stop-color:#FFFFFF"/>
				<stop  offset="1" style="stop-color:#121617"/>
			</linearGradient>
			<polygon class="st2" points="45.2,90.7 -15.3,55.8 15.7,2.1 76.2,37 			"/>
		</g>
		<g>
			<defs>
				<path id="SVGID_11_" d="M1,26.8C1,26.8,1,26.9,1,26.8l0,2v4.3v8.6C1,43,1.8,44.3,3.2,45l25.7,13.8c1.4,0.7,3.1,0.7,4.5,0
					l26-13.9c1.2-0.6,1.9-1.7,1.9-2.8l0-6.8l0-1.1l0,0c0,0,0,0,0-0.1V34c0-0.7-0.1-1.1-0.4-1.4c0.9,1.3-0.5,2.1-0.7,2.2
					c-0.1,0-0.1,0.1-0.2,0.1L33.4,49L33,49.2c-1.2,0.6-2.7,0.6-3.8,0L28.9,49l-14.5-7.8c-2.3-1.3-3.8-3.4-3.8-5.7s-1.4-4.4-3.8-5.7
					L3,27.8c-2.1-1.1-1.7-2.2-1.7-2.2C1.1,26,1,26.4,1,26.8"/>
			</defs>
			<linearGradient id="SVGID_12_" gradientUnits="userSpaceOnUse" x1="1.1123" y1="42.491" x2="60.6982" y2="42.491">
				<stop  offset="0" style="stop-color:#B9D53D"/>
				<stop  offset="0.2654" style="stop-color:#B7D33D"/>
				<stop  offset="0.3609" style="stop-color:#B2CC3C"/>
				<stop  offset="0.4288" style="stop-color:#A8C13B"/>
				<stop  offset="0.4832" style="stop-color:#9BB039"/>
				<stop  offset="0.6438" style="stop-color:#A0B338"/>
				<stop  offset="0.8346" style="stop-color:#AEBD36"/>
				<stop  offset="1" style="stop-color:#C1CA33"/>
			</linearGradient>
			<use xlink:href="#SVGID_11_"  style="overflow:visible;fill:url(#SVGID_12_);"/>
			<clipPath id="SVGID_13_">
				<use xlink:href="#SVGID_11_"  style="overflow:visible;"/>
			</clipPath>
			
				<linearGradient id="SVGID_14_" gradientUnits="userSpaceOnUse" x1="-308.7077" y1="271.1634" x2="-307.762" y2="271.1634" gradientTransform="matrix(63.6271 0 0 -63.6271 19643.1641 17295.9102)">
				<stop  offset="0" style="stop-color:#B9D53D"/>
				<stop  offset="0.2654" style="stop-color:#B7D33D"/>
				<stop  offset="0.3609" style="stop-color:#B2CC3C"/>
				<stop  offset="0.4288" style="stop-color:#A8C13B"/>
				<stop  offset="0.4832" style="stop-color:#9BB039"/>
				<stop  offset="0.6438" style="stop-color:#A0B338"/>
				<stop  offset="0.8346" style="stop-color:#AEBD36"/>
				<stop  offset="1" style="stop-color:#C1CA33"/>
			</linearGradient>
			<rect x="0.9" y="25.7" class="st3" width="60.8" height="33.8"/>
		</g>
		<g>
			<defs>
				<path id="SVGID_15_" d="M28.9,41.2C28.9,41.2,28.9,41.2,28.9,41.2C28.9,41.2,28.9,41.2,28.9,41.2C28.9,41.2,28.9,41.2,28.9,41.2
					 M28.8,41.2C28.8,41.2,28.8,41.2,28.8,41.2C28.8,41.2,28.8,41.2,28.8,41.2 M28.8,10.2L2.8,24.1c-0.7,0.4-1.2,0.9-1.5,1.6
					c0,0-0.4,1.1,1.7,2.2l3.9,2.1c1.1,0.6,1.9,1.3,2.6,2.2c0.8,1,1.2,2.2,1.2,3.5c0,1.3,0.4,2.4,1.2,3.5c0.6,0.9,1.5,1.6,2.5,2.2
					L28.9,49l0.3,0.2c1.2,0.6,2.7,0.6,3.8,0l0.3-0.2l26.6-14.2c0.1,0,0.1-0.1,0.2-0.1c0.2-0.1,1.5-0.9,0.7-2.2
					c-0.2-0.3-0.6-0.6-1.1-0.9l-13-7c-1-0.6-1.9-1.3-2.5-2.2c-0.8-1-1.2-2.2-1.2-3.5c0-1.2-0.4-2.4-1.2-3.4
					c-0.6-0.9-1.5-1.6-2.6-2.2l-5.8-3.1c0,0,0,0,0,0c-0.7-0.4-1.5-0.5-2.2-0.5C30.3,9.7,29.5,9.9,28.8,10.2"/>
			</defs>
			<clipPath id="SVGID_16_">
				<use xlink:href="#SVGID_15_"  style="overflow:visible;"/>
			</clipPath>
			
				<linearGradient id="SVGID_17_" gradientUnits="userSpaceOnUse" x1="-303.6648" y1="268.0346" x2="-302.7191" y2="268.0346" gradientTransform="matrix(16.5941 35.5863 35.5863 -16.5941 -4475.9487 15266.8467)">
				<stop  offset="0" style="stop-color:#D0D2D1"/>
				<stop  offset="0.4051" style="stop-color:#D0D2D1"/>
				<stop  offset="0.4134" style="stop-color:#D0D2D1"/>
				<stop  offset="0.4165" style="stop-color:#D0D2D1"/>
				<stop  offset="0.5932" style="stop-color:#E2E2E1"/>
				<stop  offset="0.7813" style="stop-color:#EDECEB"/>
				<stop  offset="1" style="stop-color:#F0EFEE"/>
			</linearGradient>
			<polygon class="st4" points="50.8,-13.6 77,42.6 11.7,73.1 -14.5,16.8 			"/>
		</g>
		<g>
			<defs>
				<rect id="SVGID_18_" x="1.3" y="9.7" width="58.7" height="37.1"/>
			</defs>
			<clipPath id="SVGID_19_">
				<use xlink:href="#SVGID_18_"  style="overflow:visible;"/>
			</clipPath>
			<g class="st5">
				<defs>
					<path id="SVGID_20_" d="M59.7,31.6l-13-7c-1.1-0.6-1.9-1.3-2.5-2.2c-0.8-1-1.2-2.2-1.2-3.5c0-1.2-0.4-2.4-1.2-3.4
						c-0.6-0.9-1.5-1.6-2.6-2.2l-5.8-3.1c0,0,0,0,0,0c-1.4-0.7-3.1-0.7-4.5,0L2.8,24.1c-0.2,0.1-0.3,0.3-0.5,0.4
						c-0.4,0.3-0.8,0.7-1,1.2c0,0-0.4,1.1,1.7,2.2l3.9,2.1c1.1,0.6,1.9,1.3,2.6,2.2c0.2,0.3,0.4,0.6,0.6,0.9
						c0.3,0.6,0.5,1.2,0.6,1.8c0.2,0.4,0.4,0.7,0.6,1c0.7,0.9,1.5,1.6,2.6,2.2l15,8l0.3,0.2c1.2,0.6,2.8,0.6,4,0l0.3-0.2L60,31.9
						C59.9,31.8,59.8,31.7,59.7,31.6 M28.7,38.1C28.7,38.1,28.7,38.1,28.7,38.1C28.7,38.1,28.7,38.1,28.7,38.1
						C28.7,38.1,28.7,38.1,28.7,38.1 M28.9,41.2C28.9,41.2,28.9,41.2,28.9,41.2C28.9,41.2,28.9,41.2,28.9,41.2
						C28.9,41.2,28.9,41.2,28.9,41.2"/>
				</defs>
				<clipPath id="SVGID_21_">
					<use xlink:href="#SVGID_20_"  style="overflow:visible;"/>
				</clipPath>
				
					<linearGradient id="SVGID_22_" gradientUnits="userSpaceOnUse" x1="-304.9192" y1="278.2806" x2="-303.9735" y2="278.2806" gradientTransform="matrix(-49.3833 -28.5114 -28.5114 49.3833 -7069.5352 -22394.1719)">
					<stop  offset="0" style="stop-color:#FFFFFF"/>
					<stop  offset="1" style="stop-color:#121617"/>
				</linearGradient>
				<polygon class="st6" points="45.2,72.5 -15.3,37.6 15.7,-16.1 76.2,18.9 				"/>
			</g>
		</g>
		<g>
			<defs>
				<path id="SVGID_23_" d="M1,17.7v6.2c0,1.1,0.7,2.2,1.8,2.8l26,13.9c0,0,0,0,0,0c1.4,0.7,3.1,0.7,4.5,0c0,0,0,0,0,0l25.9-13.9
					c1.2-0.6,1.9-1.7,1.9-2.8v-6.2c0-0.4-0.1-0.8-0.3-1.2c-0.3,0.6-0.8,1.2-1.5,1.6L33.4,32c0,0,0,0,0,0c-1.4,0.7-2.9,0.3-4.2-0.4
					c0,0-0.3-0.4-0.4-0.4L3.4,18c-0.7-0.4-1.7-0.8-2-1.5C1.1,16.9,1,17.3,1,17.7"/>
			</defs>
			<linearGradient id="SVGID_24_" gradientUnits="userSpaceOnUse" x1="1" y1="28.8371" x2="61.172" y2="28.8371">
				<stop  offset="0" style="stop-color:#B9D53D"/>
				<stop  offset="0.2654" style="stop-color:#B7D33D"/>
				<stop  offset="0.3609" style="stop-color:#B2CC3C"/>
				<stop  offset="0.4288" style="stop-color:#A8C13B"/>
				<stop  offset="0.4832" style="stop-color:#9BB039"/>
				<stop  offset="0.6438" style="stop-color:#A0B338"/>
				<stop  offset="0.8346" style="stop-color:#AEBD36"/>
				<stop  offset="1" style="stop-color:#C1CA33"/>
			</linearGradient>
			<use xlink:href="#SVGID_23_"  style="overflow:visible;fill:url(#SVGID_24_);"/>
			<clipPath id="SVGID_25_">
				<use xlink:href="#SVGID_23_"  style="overflow:visible;"/>
			</clipPath>
			
				<linearGradient id="SVGID_26_" gradientUnits="userSpaceOnUse" x1="-308.7077" y1="271.1511" x2="-307.762" y2="271.1511" gradientTransform="matrix(63.6271 0 0 -63.6271 19643.1641 17281.4727)">
				<stop  offset="0" style="stop-color:#B9D53D"/>
				<stop  offset="0.2654" style="stop-color:#B7D33D"/>
				<stop  offset="0.3609" style="stop-color:#B2CC3C"/>
				<stop  offset="0.4288" style="stop-color:#A8C13B"/>
				<stop  offset="0.4832" style="stop-color:#9BB039"/>
				<stop  offset="0.6438" style="stop-color:#A0B338"/>
				<stop  offset="0.8346" style="stop-color:#AEBD36"/>
				<stop  offset="1" style="stop-color:#C1CA33"/>
			</linearGradient>
			<rect x="1" y="16.5" class="st7" width="60.2" height="24.9"/>
		</g>
		<g>
			<g>
				<path class="st8" d="M59.3,15L33.3,1c-1.4-0.7-3.2-0.7-4.6,0L2.8,14.9c-0.7,0.4-1.2,0.9-1.5,1.6c0.3,0.6,0.8,1.2,1.5,1.6
					l26,13.9c1.4,0.7,3.2,0.7,4.6,0l25.9-13.9c0.7-0.4,1.2-0.9,1.5-1.6C60.6,15.9,60,15.4,59.3,15"/>
				<path class="st9" d="M56.3,13.9L33.1,1.5c-1.2-0.7-2.8-0.7-4.1,0L5.8,13.9c-0.6,0.3-1.1,0.8-1.4,1.4c0.3,0.6,0.7,1.1,1.4,1.4
					l23.3,12.5c1.2,0.7,2.8,0.7,4.1,0l23.2-12.4c0.6-0.3,1.1-0.8,1.4-1.4C57.4,14.8,57,14.3,56.3,13.9"/>
			</g>
		</g>
	</g>
	<g>
		<path d="M86.5,51.5h-0.7v-4.9L84,50.5h-0.6l-1.8-3.9v4.9H81v-6.5h0.7l2.1,4.6l2.1-4.6h0.7V51.5z"/>
		<path d="M93.2,51.5h-4v-6.5h4v0.6h-3.3V48h2.8v0.6h-2.8v2.3h3.3V51.5z"/>
		<path d="M99.8,49.7c-0.1,0.6-0.4,1.1-0.8,1.4c-0.4,0.3-0.9,0.5-1.5,0.5c-0.7,0-1.2-0.2-1.7-0.7c-0.3-0.3-0.5-0.6-0.5-1
			c0-0.3-0.1-0.8-0.1-1.6c0-0.8,0-1.3,0.1-1.6c0.1-0.4,0.3-0.7,0.5-1c0.4-0.4,1-0.7,1.7-0.7c0.6,0,1.1,0.2,1.5,0.5
			c0.4,0.3,0.7,0.8,0.8,1.4h-0.7c-0.1-0.4-0.3-0.7-0.5-1c-0.3-0.2-0.6-0.4-1-0.4c-0.4,0-0.8,0.2-1.1,0.5c-0.2,0.2-0.3,0.5-0.4,0.8
			c0,0.3-0.1,0.8-0.1,1.5s0,1.2,0.1,1.5c0.1,0.3,0.2,0.6,0.4,0.8c0.3,0.3,0.7,0.5,1.1,0.5c0.4,0,0.7-0.1,1-0.4
			c0.3-0.2,0.5-0.6,0.5-1H99.8z"/>
		<path d="M106.6,51.5h-0.7v-3h-3.1v3h-0.7v-6.5h0.7V48h3.1v-2.9h0.7V51.5z"/>
		<path d="M114.2,51.5h-0.7l-0.5-1.5h-2.8l-0.5,1.5h-0.7l2.4-6.5h0.6L114.2,51.5z M112.7,49.5l-1.2-3.4l-1.2,3.4H112.7z"/>
		<path d="M119.5,45.7h-1.9v5.8H117v-5.8h-1.9v-0.6h4.4V45.7z"/>
		<path d="M126.3,51.5h-0.8l-1.5-2.9h-1.6v2.9h-0.7v-6.5h2.5c0.6,0,1,0.2,1.4,0.5s0.5,0.8,0.5,1.3c0,0.5-0.1,0.8-0.4,1.1
			c-0.3,0.3-0.6,0.5-1,0.6L126.3,51.5z M125.5,46.9c0-0.4-0.1-0.7-0.4-0.9c-0.2-0.2-0.5-0.3-0.9-0.3h-1.7v2.4h1.7
			c0.4,0,0.7-0.1,0.9-0.3C125.4,47.6,125.5,47.3,125.5,46.9z"/>
		<path d="M133,48.3c0,0.8,0,1.3-0.1,1.6c-0.1,0.4-0.3,0.7-0.5,1c-0.4,0.4-1,0.7-1.7,0.7s-1.2-0.2-1.7-0.7c-0.3-0.3-0.5-0.6-0.5-1
			c0-0.3-0.1-0.8-0.1-1.6c0-0.8,0-1.3,0.1-1.6c0.1-0.4,0.3-0.7,0.5-1c0.4-0.4,1-0.7,1.7-0.7s1.2,0.2,1.7,0.7c0.3,0.3,0.5,0.6,0.5,1
			C133,47,133,47.5,133,48.3z M132.3,48.3c0-0.7,0-1.2-0.1-1.5c-0.1-0.3-0.2-0.6-0.4-0.8c-0.3-0.3-0.7-0.5-1.1-0.5
			c-0.4,0-0.8,0.2-1.1,0.5c-0.2,0.2-0.3,0.5-0.4,0.8c0,0.3-0.1,0.7-0.1,1.5s0,1.2,0.1,1.5c0.1,0.3,0.2,0.6,0.4,0.8
			c0.3,0.3,0.7,0.5,1.1,0.5c0.4,0,0.8-0.2,1.1-0.5c0.2-0.2,0.3-0.5,0.4-0.8C132.3,49.5,132.3,49,132.3,48.3z"/>
		<path d="M140.3,51.5h-0.7l-3.4-5.2v5.2h-0.7v-6.5h0.7l3.4,5.2v-5.2h0.7V51.5z"/>
		<path d="M143.8,51.5h-0.7v-6.5h0.7V51.5z"/>
		<path d="M150.8,49.7c-0.1,0.6-0.4,1.1-0.8,1.4c-0.4,0.3-0.9,0.5-1.5,0.5c-0.7,0-1.2-0.2-1.7-0.7c-0.3-0.3-0.5-0.6-0.5-1
			c0-0.3-0.1-0.8-0.1-1.6c0-0.8,0-1.3,0.1-1.6c0.1-0.4,0.3-0.7,0.5-1c0.4-0.4,1-0.7,1.7-0.7c0.6,0,1.1,0.2,1.5,0.5
			c0.4,0.3,0.7,0.8,0.8,1.4h-0.7c-0.1-0.4-0.3-0.7-0.5-1c-0.3-0.2-0.6-0.4-1-0.4c-0.4,0-0.8,0.2-1.1,0.5c-0.2,0.2-0.3,0.5-0.4,0.8
			c0,0.3-0.1,0.8-0.1,1.5s0,1.2,0.1,1.5c0.1,0.3,0.2,0.6,0.4,0.8c0.3,0.3,0.7,0.5,1.1,0.5c0.4,0,0.7-0.1,1-0.4
			c0.3-0.2,0.5-0.6,0.5-1H150.8z"/>
		<path d="M161.4,49.7c-0.1,0.6-0.4,1.1-0.8,1.4c-0.4,0.3-0.9,0.5-1.5,0.5c-0.7,0-1.2-0.2-1.7-0.7c-0.3-0.3-0.5-0.6-0.5-1
			c0-0.3-0.1-0.8-0.1-1.6c0-0.8,0-1.3,0.1-1.6c0.1-0.4,0.3-0.7,0.5-1c0.4-0.4,1-0.7,1.7-0.7c0.6,0,1.1,0.2,1.5,0.5
			c0.4,0.3,0.7,0.8,0.8,1.4h-0.7c-0.1-0.4-0.3-0.7-0.5-1c-0.3-0.2-0.6-0.4-1-0.4c-0.4,0-0.8,0.2-1.1,0.5c-0.2,0.2-0.3,0.5-0.4,0.8
			c0,0.3-0.1,0.8-0.1,1.5s0,1.2,0.1,1.5c0.1,0.3,0.2,0.6,0.4,0.8c0.3,0.3,0.7,0.5,1.1,0.5c0.4,0,0.7-0.1,1-0.4
			c0.3-0.2,0.5-0.6,0.5-1H161.4z"/>
		<path d="M168.3,48.3c0,0.8,0,1.3-0.1,1.6c-0.1,0.4-0.3,0.7-0.5,1c-0.4,0.4-1,0.7-1.7,0.7s-1.2-0.2-1.7-0.7c-0.3-0.3-0.5-0.6-0.5-1
			c0-0.3-0.1-0.8-0.1-1.6c0-0.8,0-1.3,0.1-1.6c0.1-0.4,0.3-0.7,0.5-1c0.4-0.4,1-0.7,1.7-0.7s1.2,0.2,1.7,0.7c0.3,0.3,0.5,0.6,0.5,1
			C168.3,47,168.3,47.5,168.3,48.3z M167.6,48.3c0-0.7,0-1.2-0.1-1.5c-0.1-0.3-0.2-0.6-0.4-0.8c-0.3-0.3-0.7-0.5-1.1-0.5
			c-0.4,0-0.8,0.2-1.1,0.5c-0.2,0.2-0.3,0.5-0.4,0.8c0,0.3-0.1,0.7-0.1,1.5s0,1.2,0.1,1.5c0.1,0.3,0.2,0.6,0.4,0.8
			c0.3,0.3,0.7,0.5,1.1,0.5c0.4,0,0.8-0.2,1.1-0.5c0.2-0.2,0.3-0.5,0.4-0.8C167.6,49.5,167.6,49,167.6,48.3z"/>
		<path d="M176.4,51.5h-0.7v-4.9l-1.8,3.9h-0.6l-1.8-3.9v4.9h-0.7v-6.5h0.7l2.1,4.6l2.1-4.6h0.7V51.5z"/>
		<path d="M183.7,47c0,0.6-0.2,1-0.6,1.4c-0.4,0.3-0.9,0.5-1.4,0.5h-1.7v2.7h-0.7v-6.5h2.4c0.6,0,1.1,0.2,1.4,0.5
			C183.5,45.9,183.7,46.4,183.7,47z M183,47c0-0.4-0.1-0.7-0.4-1c-0.2-0.2-0.6-0.3-1-0.3h-1.7v2.6h1.7c0.4,0,0.8-0.1,1-0.3
			C182.8,47.7,183,47.4,183,47z"/>
		<path d="M190.5,48.3c0,0.8,0,1.3-0.1,1.6c-0.1,0.4-0.3,0.7-0.5,1c-0.4,0.4-1,0.7-1.7,0.7s-1.2-0.2-1.7-0.7c-0.3-0.3-0.5-0.6-0.5-1
			c0-0.3-0.1-0.8-0.1-1.6c0-0.8,0-1.3,0.1-1.6c0.1-0.4,0.3-0.7,0.5-1c0.4-0.4,1-0.7,1.7-0.7s1.2,0.2,1.7,0.7c0.3,0.3,0.5,0.6,0.5,1
			C190.4,47,190.5,47.5,190.5,48.3z M189.8,48.3c0-0.7,0-1.2-0.1-1.5c-0.1-0.3-0.2-0.6-0.4-0.8c-0.3-0.3-0.7-0.5-1.1-0.5
			c-0.4,0-0.8,0.2-1.1,0.5c-0.2,0.2-0.3,0.5-0.4,0.8c0,0.3-0.1,0.7-0.1,1.5s0,1.2,0.1,1.5c0.1,0.3,0.2,0.6,0.4,0.8
			c0.3,0.3,0.7,0.5,1.1,0.5c0.4,0,0.8-0.2,1.1-0.5c0.2-0.2,0.3-0.5,0.4-0.8C189.7,49.5,189.8,49,189.8,48.3z"/>
		<path d="M197.9,51.5h-0.7l-3.4-5.2v5.2h-0.7v-6.5h0.7l3.4,5.2v-5.2h0.7V51.5z"/>
		<path d="M204.7,51.5h-4v-6.5h4v0.6h-3.3V48h2.8v0.6h-2.8v2.3h3.3V51.5z"/>
		<path d="M211.9,51.5h-0.7l-3.4-5.2v5.2h-0.7v-6.5h0.7l3.4,5.2v-5.2h0.7V51.5z"/>
		<path d="M218.7,45.7h-1.9v5.8h-0.7v-5.8h-1.9v-0.6h4.4V45.7z"/>
		<path d="M225,49.8c0,0.6-0.2,1-0.6,1.3c-0.4,0.3-0.9,0.5-1.6,0.5c-0.9,0-1.6-0.3-2.2-0.9l0.5-0.5c0.5,0.5,1.1,0.7,1.8,0.7
			c0.5,0,0.8-0.1,1.1-0.3s0.4-0.5,0.4-0.9c0-0.4-0.1-0.6-0.3-0.8c-0.2-0.1-0.4-0.2-0.8-0.3l-0.8-0.1c-1.1-0.2-1.7-0.7-1.7-1.7
			c0-0.6,0.2-1,0.6-1.3c0.4-0.3,0.9-0.5,1.5-0.5c0.8,0,1.4,0.2,1.9,0.7l-0.4,0.4c-0.4-0.4-0.9-0.6-1.5-0.6c-0.4,0-0.8,0.1-1,0.3
			c-0.2,0.2-0.4,0.5-0.4,0.9c0,0.3,0.1,0.6,0.3,0.7c0.2,0.2,0.5,0.3,0.9,0.3l0.7,0.1c0.5,0.1,0.9,0.2,1.2,0.5
			C224.8,48.8,225,49.2,225,49.8z"/>
		<path d="M85,55.5h-3.3v2.4h2.8v0.6h-2.8v2.9H81v-6.5h4V55.5z"/>
		<path d="M91.3,58.1c0,0.8,0,1.3-0.1,1.6c-0.1,0.4-0.3,0.7-0.5,1c-0.4,0.4-1,0.7-1.7,0.7s-1.2-0.2-1.7-0.7c-0.3-0.3-0.5-0.6-0.5-1
			c0-0.3-0.1-0.8-0.1-1.6c0-0.8,0-1.3,0.1-1.6c0.1-0.4,0.3-0.7,0.5-1c0.4-0.4,1-0.7,1.7-0.7s1.2,0.2,1.7,0.7c0.3,0.3,0.5,0.6,0.5,1
			C91.3,56.8,91.3,57.3,91.3,58.1z M90.7,58.1c0-0.7,0-1.2-0.1-1.5c-0.1-0.3-0.2-0.6-0.4-0.8c-0.3-0.3-0.7-0.5-1.1-0.5
			c-0.4,0-0.8,0.2-1.1,0.5c-0.2,0.2-0.3,0.5-0.4,0.8c0,0.3-0.1,0.7-0.1,1.5c0,0.7,0,1.2,0.1,1.5c0.1,0.3,0.2,0.6,0.4,0.8
			c0.3,0.3,0.7,0.5,1.1,0.5c0.4,0,0.8-0.2,1.1-0.5c0.2-0.2,0.3-0.5,0.4-0.8C90.6,59.3,90.7,58.8,90.7,58.1z"/>
		<path d="M98.3,61.4h-0.8L96,58.5h-1.6v2.9h-0.7v-6.5h2.5c0.6,0,1,0.2,1.4,0.5c0.4,0.3,0.5,0.8,0.5,1.3c0,0.5-0.1,0.8-0.4,1.1
			s-0.6,0.5-1,0.6L98.3,61.4z M97.5,56.7c0-0.4-0.1-0.7-0.4-0.9c-0.2-0.2-0.5-0.3-0.9-0.3h-1.7v2.4h1.7c0.4,0,0.7-0.1,0.9-0.3
			S97.5,57.1,97.5,56.7z"/>
		<path d="M109.4,61.4h-0.7v-4.9l-1.8,3.9h-0.6l-1.8-3.9v4.9h-0.7v-6.5h0.7l2.1,4.6l2.1-4.6h0.7V61.4z"/>
		<path d="M116.4,58.1c0,0.8,0,1.3-0.1,1.6c-0.1,0.4-0.3,0.7-0.5,1c-0.4,0.4-1,0.7-1.7,0.7s-1.2-0.2-1.7-0.7c-0.3-0.3-0.5-0.6-0.5-1
			c0-0.3-0.1-0.8-0.1-1.6c0-0.8,0-1.3,0.1-1.6c0.1-0.4,0.3-0.7,0.5-1c0.4-0.4,1-0.7,1.7-0.7s1.2,0.2,1.7,0.7c0.3,0.3,0.5,0.6,0.5,1
			C116.3,56.8,116.4,57.3,116.4,58.1z M115.7,58.1c0-0.7,0-1.2-0.1-1.5c-0.1-0.3-0.2-0.6-0.4-0.8c-0.3-0.3-0.7-0.5-1.1-0.5
			c-0.4,0-0.8,0.2-1.1,0.5c-0.2,0.2-0.3,0.5-0.4,0.8c0,0.3-0.1,0.7-0.1,1.5c0,0.7,0,1.2,0.1,1.5c0.1,0.3,0.2,0.6,0.4,0.8
			c0.3,0.3,0.7,0.5,1.1,0.5c0.4,0,0.8-0.2,1.1-0.5c0.2-0.2,0.3-0.5,0.4-0.8C115.6,59.3,115.7,58.8,115.7,58.1z"/>
		<path d="M123.3,59.6c0,0.6-0.2,1-0.5,1.3c-0.3,0.3-0.8,0.5-1.4,0.5h-2.5v-6.5h2.4c0.6,0,1,0.2,1.4,0.5s0.5,0.7,0.5,1.3
			c0,0.3-0.1,0.6-0.3,0.9c-0.2,0.3-0.4,0.4-0.7,0.5C122.9,58.3,123.3,58.8,123.3,59.6z M122.5,56.6c0-0.4-0.1-0.6-0.3-0.8
			c-0.2-0.2-0.5-0.3-0.9-0.3h-1.7v2.2h1.7c0.4,0,0.7-0.1,0.9-0.3C122.4,57.3,122.5,57,122.5,56.6z M122.6,59.6
			c0-0.4-0.1-0.7-0.3-0.9s-0.5-0.3-0.9-0.3h-1.8v2.4h1.8c0.4,0,0.7-0.1,0.9-0.3C122.5,60.2,122.6,59.9,122.6,59.6z"/>
		<path d="M126.4,61.4h-0.7v-6.5h0.7V61.4z"/>
		<path d="M133,61.4h-4v-6.5h0.7v5.8h3.3V61.4z"/>
		<path d="M135.9,61.4h-0.7v-6.5h0.7V61.4z"/>
		<path d="M142.5,55.5h-1.9v5.8h-0.7v-5.8h-1.9v-0.6h4.4V55.5z"/>
		<path d="M148.8,54.9l-1.9,3.8v2.7h-0.7v-2.7l-1.9-3.8h0.7l1.5,3.1l1.5-3.1H148.8z"/>
		<path d="M159.3,61.4h-0.7l-0.5-1.5h-2.8l-0.5,1.5h-0.7l2.4-6.5h0.6L159.3,61.4z M157.8,59.3l-1.2-3.4l-1.2,3.4H157.8z"/>
		<path d="M166.2,61.4h-0.7l-3.4-5.2v5.2h-0.7v-6.5h0.7l3.4,5.2v-5.2h0.7V61.4z"/>
		<path d="M173.3,58.1c0,0.7,0,1.2-0.1,1.4c-0.1,0.6-0.3,1-0.6,1.3c-0.4,0.4-0.9,0.6-1.6,0.6h-2.2v-6.5h2.2c0.7,0,1.2,0.2,1.6,0.6
			c0.3,0.3,0.5,0.7,0.6,1.2C173.3,57,173.3,57.4,173.3,58.1z M172.6,58.1c0-0.6,0-0.9,0-1.2c-0.1-0.4-0.2-0.7-0.4-0.9
			c-0.3-0.3-0.7-0.5-1.3-0.5h-1.4v5.2h1.4c0.5,0,1-0.2,1.3-0.5c0.2-0.2,0.3-0.5,0.4-1C172.6,59.1,172.6,58.6,172.6,58.1z"/>
		<path d="M184,59.5c-0.1,0.6-0.4,1.1-0.8,1.4c-0.4,0.3-0.9,0.5-1.5,0.5c-0.7,0-1.2-0.2-1.7-0.7c-0.3-0.3-0.5-0.6-0.5-1
			c0-0.3-0.1-0.8-0.1-1.6c0-0.8,0-1.3,0.1-1.6c0.1-0.4,0.3-0.7,0.5-1c0.4-0.4,1-0.7,1.7-0.7c0.6,0,1.1,0.2,1.5,0.5
			c0.4,0.3,0.7,0.8,0.8,1.4h-0.7c-0.1-0.4-0.3-0.7-0.5-1c-0.3-0.2-0.6-0.4-1-0.4c-0.4,0-0.8,0.2-1.1,0.5c-0.2,0.2-0.3,0.5-0.4,0.8
			c0,0.3-0.1,0.8-0.1,1.5c0,0.7,0,1.2,0.1,1.5c0.1,0.3,0.2,0.6,0.4,0.8c0.3,0.3,0.7,0.5,1.1,0.5c0.4,0,0.7-0.1,1-0.4
			c0.3-0.2,0.5-0.6,0.5-1H184z"/>
		<path d="M190.7,58.1c0,0.8,0,1.3-0.1,1.6c-0.1,0.4-0.3,0.7-0.5,1c-0.4,0.4-1,0.7-1.7,0.7s-1.2-0.2-1.7-0.7c-0.3-0.3-0.5-0.6-0.5-1
			c0-0.3-0.1-0.8-0.1-1.6c0-0.8,0-1.3,0.1-1.6c0.1-0.4,0.3-0.7,0.5-1c0.4-0.4,1-0.7,1.7-0.7s1.2,0.2,1.7,0.7c0.3,0.3,0.5,0.6,0.5,1
			C190.7,56.8,190.7,57.3,190.7,58.1z M190,58.1c0-0.7,0-1.2-0.1-1.5c-0.1-0.3-0.2-0.6-0.4-0.8c-0.3-0.3-0.7-0.5-1.1-0.5
			c-0.4,0-0.8,0.2-1.1,0.5c-0.2,0.2-0.3,0.5-0.4,0.8c0,0.3-0.1,0.7-0.1,1.5c0,0.7,0,1.2,0.1,1.5c0.1,0.3,0.2,0.6,0.4,0.8
			c0.3,0.3,0.7,0.5,1.1,0.5c0.4,0,0.8-0.2,1.1-0.5c0.2-0.2,0.3-0.5,0.4-0.8C190,59.3,190,58.8,190,58.1z"/>
		<path d="M198.7,61.4H198v-4.9l-1.8,3.9h-0.6l-1.8-3.9v4.9h-0.7v-6.5h0.7l2.1,4.6l2.1-4.6h0.7V61.4z"/>
		<path d="M205.4,55.5H202v2.4h2.8v0.6H202v2.9h-0.7v-6.5h4V55.5z"/>
		<path d="M211.7,58.1c0,0.8,0,1.3-0.1,1.6c-0.1,0.4-0.3,0.7-0.5,1c-0.4,0.4-1,0.7-1.7,0.7s-1.2-0.2-1.7-0.7c-0.3-0.3-0.5-0.6-0.5-1
			c0-0.3-0.1-0.8-0.1-1.6c0-0.8,0-1.3,0.1-1.6c0.1-0.4,0.3-0.7,0.5-1c0.4-0.4,1-0.7,1.7-0.7s1.2,0.2,1.7,0.7c0.3,0.3,0.5,0.6,0.5,1
			C211.7,56.8,211.7,57.3,211.7,58.1z M211,58.1c0-0.7,0-1.2-0.1-1.5c-0.1-0.3-0.2-0.6-0.4-0.8c-0.3-0.3-0.7-0.5-1.1-0.5
			c-0.4,0-0.8,0.2-1.1,0.5c-0.2,0.2-0.3,0.5-0.4,0.8c0,0.3-0.1,0.7-0.1,1.5c0,0.7,0,1.2,0.1,1.5c0.1,0.3,0.2,0.6,0.4,0.8
			c0.3,0.3,0.7,0.5,1.1,0.5c0.4,0,0.8-0.2,1.1-0.5c0.2-0.2,0.3-0.5,0.4-0.8C211,59.3,211,58.8,211,58.1z"/>
		<path d="M218.7,61.4h-0.8l-1.5-2.9h-1.6v2.9h-0.7v-6.5h2.5c0.6,0,1,0.2,1.4,0.5c0.4,0.3,0.5,0.8,0.5,1.3c0,0.5-0.1,0.8-0.4,1.1
			s-0.6,0.5-1,0.6L218.7,61.4z M217.9,56.7c0-0.4-0.1-0.7-0.4-0.9c-0.2-0.2-0.5-0.3-0.9-0.3h-1.7v2.4h1.7c0.4,0,0.7-0.1,0.9-0.3
			C217.8,57.4,217.9,57.1,217.9,56.7z"/>
		<path d="M224.9,55.5H223v5.8h-0.7v-5.8h-1.9v-0.6h4.4V55.5z"/>
	</g>
</g>
</svg>
