<?xml version="1.0" encoding="utf-8"?>
<!-- Generator: Adobe Illustrator 26.0.0, SVG Export Plug-In . SVG Version: 6.00 Build 0)  -->
<svg version="1.1" id="Réteg_1" xmlns="http://www.w3.org/2000/svg" xmlns:xlink="http://www.w3.org/1999/xlink" x="0px" y="0px"
	 viewBox="0 0 45.5 58.5" style="enable-background:new 0 0 45.5 58.5;" xml:space="preserve">
<style type="text/css">
	.st0{fill:#F0F0F0;}
</style>
<path class="st0" d="M0,17.1c0-2.1,0-2.7,0-4.8c0-0.5,0.6-1.3,1.2-1.6c6.5-3.4,13-6.8,19.5-10.2c1.3-0.7,2.7-0.6,4.1,0.1
	C31.3,4.1,37.6,7.4,44,10.7c1.1,0.6,1.6,1.3,1.5,2.5c-0.1,1.4,0,2.6,0,4c0,1.1-0.4,1.8-1.4,2.3c-6.5,3.4-13,6.7-19.4,10.1
	c-1.2,0.6-2.4,0.7-3.7,0C14.7,26.2,8.7,23.6,2.6,20c-0.6-0.3-1.1-0.7-1.7-1.4C0.4,18,0,17.3,0,17.1L0,17.1z"/>
<path class="st0" d="M0,18.5c0.4,0.7,0.9,1.6,1.4,1.9c0.6,0.5,1.4,0.8,2.1,1.2c2.4,1.1,4,2.8,4.1,5.6c0.1,1.6,1.2,2.7,2.6,3.5
	c3.7,2,7.3,4,11.1,5.9c0.8,0.4,2.2,0.5,2.9,0.2c7.1-3.7,14.1-7.5,21.3-11.2c0,2.2,0.1,4.4-0.1,6.5c0,0.6-0.7,1.3-1.2,1.6
	c-6.5,3.6-13.1,7.1-19.7,10.4C23.6,44.6,22,44.5,21,44c-6.4-3.3-12.7-6.8-19.1-10C0.6,33,0,32,0,30.5c0-3.3,0-6.6,0-9.8
	c0-0.6,0-1.4,0-2C0,19.5,0,18.5,0,18.5z"/>
<path class="st0" d="M0,32.8c0.4,0.7,0.9,1.6,1.4,1.9c0.6,0.5,1.4,0.8,2.1,1.2c2.4,1.1,4,2.8,4.1,5.6c0.1,1.6,1.2,2.7,2.6,3.5
	c3.7,2,7.3,4,11.1,5.9c0.8,0.4,2.2,0.5,2.9,0.2c7.1-3.7,14.1-7.5,21.3-11.2c0,2.2,0.1,4.4-0.1,6.5c0,0.6-0.7,1.3-1.2,1.6
	c-6.5,3.6-13.1,7.1-19.7,10.4c-0.9,0.5-2.5,0.4-3.5-0.1c-6.4-3.3-12.7-6.8-19.1-10C0.6,47.2,0,46.2,0,44.8c0-3.3,0-6.6,0-9.8
	c0-0.6,0-1.4,0-2C0,33.7,0,32.8,0,32.8z"/>
</svg>
