<?xml version="1.0" encoding="utf-8"?>
<!-- Generator: Adobe Illustrator 26.0.0, SVG Export Plug-In . SVG Version: 6.00 Build 0)  -->
<svg version="1.1" id="Réteg_1" xmlns="http://www.w3.org/2000/svg" xmlns:xlink="http://www.w3.org/1999/xlink" x="0px" y="0px"
	 viewBox="0 0 45.5 58.5" style="enable-background:new 0 0 45.5 58.5;" xml:space="preserve">
<style type="text/css">
	.st0{fill:#EBEBEB;}
</style>
<path class="st0" d="M0.3,19c-0.1-2.2-0.2-4.3-0.2-6.5c0-0.5,0.6-1.3,1.2-1.6c6.5-3.5,13-7,19.5-10.5c1.3-0.7,2.7-0.6,4.1,0.1
	C31.3,4,37.6,7.4,44,10.8c1.1,0.6,1.6,1.3,1.5,2.6c-0.1,1.4,0,2.7,0,4.1c0,1.1-0.4,1.9-1.4,2.4c-6.5,3.5-13,6.9-19.4,10.4
	c-1.2,0.6-2.4,0.7-3.7,0c-6.5-3.5-13-7-19.5-10.5C1.1,19.6,0.7,19.3,0.3,19L0.3,19z"/>
<path class="st0" d="M0.4,19c0.3,0.5,0.5,1.2,1,1.5c0.6,0.5,1.4,0.8,2.1,1.2c2.4,1.1,4,2.8,4.1,5.6c0.1,1.6,1.2,2.7,2.6,3.5
	c3.7,2,7.3,4,11.1,5.9c0.8,0.4,2.2,0.5,2.9,0.2c7.1-3.7,14.1-7.5,21.3-11.3c0,2.2,0.1,4.4-0.1,6.5c0,0.6-0.7,1.3-1.2,1.6
	c-6.5,3.6-13.1,7.1-19.7,10.5c-0.9,0.5-2.5,0.4-3.5-0.1c-6.4-3.3-12.7-6.8-19.1-10.1C0.6,33.2,0,32.2,0,30.7c0-3.3,0-6.6,0-9.9
	C0,20.2,0.2,19.6,0.4,19C0.3,19,0.4,19,0.4,19z"/>
<path class="st0" d="M0.1,33.6c1.3,0.8,2.6,1.6,4,2.3c2,1,3.2,2.5,3.3,4.9c0.1,1.8,1.2,3,2.7,3.9c3.7,2,7.3,4,11.1,5.9
	c0.8,0.4,2.2,0.5,2.9,0.1c7-3.6,13.8-7.3,20.7-11c0.2-0.1,0.3-0.2,0.6-0.5c0,2.3,0.1,4.5-0.1,6.6c0,0.6-0.8,1.4-1.4,1.8
	c-6.5,3.5-12.9,7-19.4,10.4c-1.2,0.7-2.5,0.6-3.7-0.1c-6.4-3.4-12.7-6.8-19.1-10.2c-1.1-0.6-1.8-1.4-1.8-2.7c0-3.7,0-7.5,0-11.2
	C0.1,33.8,0.1,33.6,0.1,33.6z"/>
</svg>
