<?xml version="1.0" encoding="utf-8"?>
<!-- Generator: Adobe Illustrator 26.0.0, SVG Export Plug-In . SVG Version: 6.00 Build 0)  -->
<svg version="1.1" id="Layer_1" xmlns="http://www.w3.org/2000/svg" xmlns:xlink="http://www.w3.org/1999/xlink" x="0px" y="0px"
	 viewBox="0 0 225 78" style="enable-background:new 0 0 225 78;" xml:space="preserve">
<style type="text/css">
	.st0{fill:#575E60;}
	
		.st1{clip-path:url(#SVGID_00000011712630398490379380000014440926012138753694_);fill:url(#SVGID_00000105416421533182958470000007661422233324455849_);}
	.st2{fill:url(#SVGID_00000056410942998872197110000010642100275079549330_);}
	
		.st3{clip-path:url(#SVGID_00000127749023059864578140000009974970716792168845_);fill:url(#SVGID_00000004530508873702933660000008309119733140420483_);}
	
		.st4{clip-path:url(#SVGID_00000156583271293709242810000002964203689582204572_);fill:url(#SVGID_00000056402532100926982320000011185330917716613286_);}
	.st5{fill:url(#SVGID_00000060724953437489484560000008378071866984352679_);}
	
		.st6{clip-path:url(#SVGID_00000133502401921209925980000001120175075021421979_);fill:url(#SVGID_00000150077136470368416190000017857061751304409492_);}
	
		.st7{clip-path:url(#SVGID_00000059291476361460678510000017929915890459925923_);fill:url(#SVGID_00000011031486291923718600000010969721251903285384_);}
	.st8{clip-path:url(#SVGID_00000103234786276649062540000017216430661992037288_);}
	
		.st9{clip-path:url(#SVGID_00000060736389736365461810000010405653069369328015_);fill:url(#SVGID_00000109713152680611154570000002924701368024624815_);}
	.st10{fill:url(#SVGID_00000116213246180940776110000006083323495304997016_);}
	
		.st11{clip-path:url(#SVGID_00000104668960249339266230000001091557292233352858_);fill:url(#SVGID_00000057848856482595311100000003185568388830507451_);}
	.st12{fill:#C7DB59;}
	.st13{fill:#B9D43D;}
</style>
<g>
	<g>
		<polygon class="st0" points="80.9,28.7 88.7,28.7 88.7,30.6 83,30.6 83,37.4 88,37.4 88,39.2 83,39.2 83,46.3 88.8,46.3 
			88.8,48.2 80.9,48.2 		"/>
		<path class="st0" d="M109.3,32.9c0-0.7-0.3-2.4-2.3-2.4c-2.2,0-2.4,1.9-2.4,3V44c0,0.7,0.3,2.5,2.3,2.5c1.1,0,2.4-0.5,2.4-2.7
			v-0.6h2.1v0.7c0,2.8-1.3,4.6-4.6,4.6c-3.9,0-4.3-3.2-4.3-4.3V32.7c0-2.2,1.5-4.2,4.4-4.2c2.4,0,4.4,1.2,4.4,4.3V34h-2V32.9z"/>
		<polygon class="st0" points="127.4,28.7 127.4,39.1 132.7,28.7 134.8,28.7 130.8,36.5 135.6,48.2 133.4,48.2 129.5,38.5 
			127.4,42.6 127.4,48.2 125.3,48.2 125.3,28.7 		"/>
		<polygon class="st0" points="149.3,28.7 157.2,28.7 157.2,30.6 151.4,30.6 151.4,37.4 156.5,37.4 156.5,39.2 151.4,39.2 
			151.4,46.3 157.2,46.3 157.2,48.2 149.3,48.2 		"/>
		<path class="st0" d="M175,28.7c2.1,0,5.1,0.3,5.1,4.6v1.5c0,2.1-0.9,3.6-2.7,4.1l3.1,9.2h-2.2l-2.9-8.8H173v8.8h-2.1V28.7H175z
			 M173.2,37.6h2.1c1.5,0,2.8-0.9,2.8-2.6v-1.8c0-2.4-1.9-2.6-2.9-2.6h-1.9v7H173.2z"/>
		<polygon class="st0" points="196.8,28.7 196.8,46.3 202.9,46.3 202.9,48.2 194.7,48.2 194.7,28.7 		"/>
		<polygon class="st0" points="216.5,28.7 224.3,28.7 224.3,30.6 218.6,30.6 218.6,37.4 223.6,37.4 223.6,39.2 218.6,39.2 
			218.6,46.3 224.4,46.3 224.4,48.2 216.5,48.2 		"/>
	</g>
	<g>
		<g>
			<g>
				<defs>
					<path id="SVGID_1_" d="M28.9,59.4L28.9,59.4L28.9,59.4L28.9,59.4 M28.8,59.4L28.8,59.4L28.8,59.4 M28.8,28.4l-26,13.9
						c-0.7,0.4-1.2,0.9-1.5,1.6c0,0-0.4,1.1,1.7,2.2l3.9,2.1c1.1,0.6,1.9,1.3,2.6,2.2c0.8,1,1.2,2.2,1.2,3.5s0.4,2.4,1.2,3.5
						c0.6,0.9,1.5,1.6,2.5,2.2l14.5,7.8l0.3,0.2c1.2,0.6,2.7,0.6,3.8,0l0.3-0.2L59.9,53c0.1,0,0.1-0.1,0.2-0.1
						c0.2-0.1,1.5-0.9,0.7-2.2c-0.2-0.3-0.6-0.6-1.1-0.9l-13-7c-1-0.6-1.9-1.3-2.5-2.2c-0.8-1-1.2-2.2-1.2-3.5
						c0-1.2-0.4-2.4-1.2-3.4c-0.6-0.9-1.5-1.6-2.6-2.2l-5.8-3.1l0,0c-0.7-0.4-1.5-0.5-2.2-0.5C30.3,27.9,29.5,28,28.8,28.4"/>
				</defs>
				<clipPath id="SVGID_00000179643628377345103470000008888318625573436345_">
					<use xlink:href="#SVGID_1_"  style="overflow:visible;"/>
				</clipPath>
				
					<linearGradient id="SVGID_00000018224193076014651210000007187485962638852236_" gradientUnits="userSpaceOnUse" x1="-1129.5876" y1="297.9937" x2="-1128.6418" y2="297.9937" gradientTransform="matrix(16.5941 35.5863 -35.5863 16.5941 29372.3086 35283.8633)">
					<stop  offset="0" style="stop-color:#D0D2D1"/>
					<stop  offset="0.4051" style="stop-color:#D0D2D1"/>
					<stop  offset="0.4134" style="stop-color:#D0D2D1"/>
					<stop  offset="0.4165" style="stop-color:#D0D2D1"/>
					<stop  offset="0.5932" style="stop-color:#E2E2E1"/>
					<stop  offset="0.7813" style="stop-color:#EDECEB"/>
					<stop  offset="1" style="stop-color:#F0EFEE"/>
				</linearGradient>
				
					<polygon style="clip-path:url(#SVGID_00000179643628377345103470000008888318625573436345_);fill:url(#SVGID_00000018224193076014651210000007187485962638852236_);" points="
					50.8,4.6 77,60.8 11.7,91.3 -14.5,35 				"/>
			</g>
		</g>
		<g>
			<g>
				
					<linearGradient id="SVGID_00000085221844324850417200000009803919091479086473_" gradientUnits="userSpaceOnUse" x1="1.1123" y1="19.3375" x2="60.6982" y2="19.3375" gradientTransform="matrix(1 0 0 -1 0 80)">
					<stop  offset="0" style="stop-color:#B9D53D"/>
					<stop  offset="0.2654" style="stop-color:#B7D33D"/>
					<stop  offset="0.3609" style="stop-color:#B2CC3C"/>
					<stop  offset="0.4288" style="stop-color:#A8C13B"/>
					<stop  offset="0.4832" style="stop-color:#9BB039"/>
					<stop  offset="0.6438" style="stop-color:#A0B338"/>
					<stop  offset="0.8346" style="stop-color:#AEBD36"/>
					<stop  offset="1" style="stop-color:#C1CA33"/>
				</linearGradient>
				<path id="SVGID_4_" style="fill:url(#SVGID_00000085221844324850417200000009803919091479086473_);" d="M1,45L1,45v2v4.3v8.6
					c0,1.3,0.8,2.6,2.2,3.3L28.9,77c1.4,0.7,3.1,0.7,4.5,0l26-13.9c1.2-0.6,1.9-1.7,1.9-2.8v-6.8v-1.1l0,0c0,0,0,0,0-0.1v-0.1
					c0-0.7-0.1-1.1-0.4-1.4c0.9,1.3-0.5,2.1-0.7,2.2c-0.1,0-0.1,0.1-0.2,0.1L33.4,67.2L33,67.4c-1.2,0.6-2.7,0.6-3.8,0l-0.3-0.2
					l-14.5-7.8c-2.3-1.3-3.8-3.4-3.8-5.7S9.2,49.3,6.8,48L3,46c-2.1-1.1-1.7-2.2-1.7-2.2C1.1,44.2,1,44.6,1,45"/>
			</g>
			<g>
				<defs>
					<path id="SVGID_00000003817593707275941850000011625484568514960777_" d="M1,45L1,45v2v4.3v8.6c0,1.3,0.8,2.6,2.2,3.3L28.9,77
						c1.4,0.7,3.1,0.7,4.5,0l26-13.9c1.2-0.6,1.9-1.7,1.9-2.8v-6.8v-1.1l0,0c0,0,0,0,0-0.1v-0.1c0-0.7-0.1-1.1-0.4-1.4
						c0.9,1.3-0.5,2.1-0.7,2.2c-0.1,0-0.1,0.1-0.2,0.1L33.4,67.2L33,67.4c-1.2,0.6-2.7,0.6-3.8,0l-0.3-0.2l-14.5-7.8
						c-2.3-1.3-3.8-3.4-3.8-5.7S9.2,49.3,6.8,48L3,46c-2.1-1.1-1.7-2.2-1.7-2.2C1.1,44.2,1,44.6,1,45"/>
				</defs>
				<clipPath id="SVGID_00000001656165266020711050000007327751728847886748_">
					<use xlink:href="#SVGID_00000003817593707275941850000011625484568514960777_"  style="overflow:visible;"/>
				</clipPath>
				
					<linearGradient id="SVGID_00000015321455134498067310000003752644444072885165_" gradientUnits="userSpaceOnUse" x1="-1142.3958" y1="316.679" x2="-1141.4501" y2="316.679" gradientTransform="matrix(63.6271 0 0 63.6271 72688.3203 -20088.5684)">
					<stop  offset="0" style="stop-color:#B9D53D"/>
					<stop  offset="0.2654" style="stop-color:#B7D33D"/>
					<stop  offset="0.3609" style="stop-color:#B2CC3C"/>
					<stop  offset="0.4288" style="stop-color:#A8C13B"/>
					<stop  offset="0.4832" style="stop-color:#9BB039"/>
					<stop  offset="0.6438" style="stop-color:#A0B338"/>
					<stop  offset="0.8346" style="stop-color:#AEBD36"/>
					<stop  offset="1" style="stop-color:#C1CA33"/>
				</linearGradient>
				
					<rect x="0.9" y="43.9" style="clip-path:url(#SVGID_00000001656165266020711050000007327751728847886748_);fill:url(#SVGID_00000015321455134498067310000003752644444072885165_);" width="60.8" height="33.8"/>
			</g>
		</g>
		<g>
			<g>
				<defs>
					<path id="SVGID_00000091717964467893187530000017106777187638183867_" d="M59.7,49.8l-13-7c-1.1-0.6-1.9-1.3-2.5-2.2
						c-0.8-1-1.2-2.2-1.2-3.5c0-1.2-0.4-2.4-1.2-3.4c-0.6-0.9-1.5-1.6-2.6-2.2l-5.8-3.1l0,0c-1.4-0.7-3.1-0.7-4.5,0L2.8,42.3
						c-0.2,0.1-0.3,0.3-0.5,0.4c-0.4,0.3-0.8,0.7-1,1.2c0,0-0.4,1.1,1.7,2.2l3.9,2.1c1.1,0.6,1.9,1.3,2.6,2.2
						c0.2,0.3,0.4,0.6,0.6,0.9c0.3,0.6,0.5,1.2,0.6,1.8c0.2,0.4,0.4,0.7,0.6,1c0.7,0.9,1.5,1.6,2.6,2.2l15,8l0.3,0.2
						c1.2,0.6,2.8,0.6,4,0l0.3-0.2L60,50.1C59.9,50,59.8,49.9,59.7,49.8 M28.7,56.3L28.7,56.3L28.7,56.3L28.7,56.3 M28.9,59.4
						L28.9,59.4L28.9,59.4L28.9,59.4"/>
				</defs>
				<clipPath id="SVGID_00000121239532258109552960000017945345162007241097_">
					<use xlink:href="#SVGID_00000091717964467893187530000017106777187638183867_"  style="overflow:visible;"/>
				</clipPath>
				
					<linearGradient id="SVGID_00000117637321997657125390000017627942110746250376_" gradientUnits="userSpaceOnUse" x1="-1169.3265" y1="301.2761" x2="-1168.381" y2="301.2761" gradientTransform="matrix(-49.3833 -28.5114 28.5114 -49.3833 -66280.8047 -18401.0137)">
					<stop  offset="0" style="stop-color:#FFFFFF"/>
					<stop  offset="1" style="stop-color:#121617"/>
				</linearGradient>
				
					<polygon style="clip-path:url(#SVGID_00000121239532258109552960000017945345162007241097_);fill:url(#SVGID_00000117637321997657125390000017627942110746250376_);" points="
					45.2,90.7 -15.3,55.8 15.7,2.1 76.2,37 				"/>
			</g>
		</g>
		<g>
			<g>
				
					<linearGradient id="SVGID_00000100360786742983266930000010577886055853101457_" gradientUnits="userSpaceOnUse" x1="1.1123" y1="37.5375" x2="60.6982" y2="37.5375" gradientTransform="matrix(1 0 0 -1 0 80)">
					<stop  offset="0" style="stop-color:#B9D53D"/>
					<stop  offset="0.2654" style="stop-color:#B7D33D"/>
					<stop  offset="0.3609" style="stop-color:#B2CC3C"/>
					<stop  offset="0.4288" style="stop-color:#A8C13B"/>
					<stop  offset="0.4832" style="stop-color:#9BB039"/>
					<stop  offset="0.6438" style="stop-color:#A0B338"/>
					<stop  offset="0.8346" style="stop-color:#AEBD36"/>
					<stop  offset="1" style="stop-color:#C1CA33"/>
				</linearGradient>
				<path id="SVGID_11_" style="fill:url(#SVGID_00000100360786742983266930000010577886055853101457_);" d="M1,26.8
					C1,26.8,1,26.9,1,26.8v2v4.3v8.6C1,43,1.8,44.3,3.2,45l25.7,13.8c1.4,0.7,3.1,0.7,4.5,0l26-13.9c1.2-0.6,1.9-1.7,1.9-2.8v-6.8
					v-1.1l0,0c0,0,0,0,0-0.1V34c0-0.7-0.1-1.1-0.4-1.4c0.9,1.3-0.5,2.1-0.7,2.2c-0.1,0-0.1,0.1-0.2,0.1L33.4,49L33,49.2
					c-1.2,0.6-2.7,0.6-3.8,0L28.9,49l-14.5-7.8c-2.3-1.3-3.8-3.4-3.8-5.7s-1.4-4.4-3.8-5.7l-3.8-2c-2.1-1.1-1.7-2.2-1.7-2.2
					C1.1,26,1,26.4,1,26.8"/>
			</g>
			<g>
				<defs>
					<path id="SVGID_00000080175977051794422980000003090054113679184820_" d="M1,26.8C1,26.8,1,26.9,1,26.8v2v4.3v8.6
						C1,43,1.8,44.3,3.2,45l25.7,13.8c1.4,0.7,3.1,0.7,4.5,0l26-13.9c1.2-0.6,1.9-1.7,1.9-2.8v-6.8v-1.1l0,0c0,0,0,0,0-0.1V34
						c0-0.7-0.1-1.1-0.4-1.4c0.9,1.3-0.5,2.1-0.7,2.2c-0.1,0-0.1,0.1-0.2,0.1L33.4,49L33,49.2c-1.2,0.6-2.7,0.6-3.8,0L28.9,49
						l-14.5-7.8c-2.3-1.3-3.8-3.4-3.8-5.7s-1.4-4.4-3.8-5.7l-3.8-2c-2.1-1.1-1.7-2.2-1.7-2.2C1.1,26,1,26.4,1,26.8"/>
				</defs>
				<clipPath id="SVGID_00000036964305102439056740000009825309579981135770_">
					<use xlink:href="#SVGID_00000080175977051794422980000003090054113679184820_"  style="overflow:visible;"/>
				</clipPath>
				
					<linearGradient id="SVGID_00000137827508952993253470000015349463360351136408_" gradientUnits="userSpaceOnUse" x1="-1142.3958" y1="316.6954" x2="-1141.4501" y2="316.6954" gradientTransform="matrix(63.6271 0 0 63.6271 72688.3203 -20107.8086)">
					<stop  offset="0" style="stop-color:#B9D53D"/>
					<stop  offset="0.2654" style="stop-color:#B7D33D"/>
					<stop  offset="0.3609" style="stop-color:#B2CC3C"/>
					<stop  offset="0.4288" style="stop-color:#A8C13B"/>
					<stop  offset="0.4832" style="stop-color:#9BB039"/>
					<stop  offset="0.6438" style="stop-color:#A0B338"/>
					<stop  offset="0.8346" style="stop-color:#AEBD36"/>
					<stop  offset="1" style="stop-color:#C1CA33"/>
				</linearGradient>
				
					<rect x="0.9" y="25.7" style="clip-path:url(#SVGID_00000036964305102439056740000009825309579981135770_);fill:url(#SVGID_00000137827508952993253470000015349463360351136408_);" width="60.8" height="33.8"/>
			</g>
		</g>
		<g>
			<g>
				<defs>
					<path id="SVGID_00000171690886845639129960000010699334786570088849_" d="M28.9,41.2L28.9,41.2L28.9,41.2L28.9,41.2 M28.8,41.2
						L28.8,41.2L28.8,41.2 M28.8,10.2l-26,13.9c-0.7,0.4-1.2,0.9-1.5,1.6c0,0-0.4,1.1,1.7,2.2L6.9,30c1.1,0.6,1.9,1.3,2.6,2.2
						c0.8,1,1.2,2.2,1.2,3.5s0.4,2.4,1.2,3.5c0.6,0.9,1.5,1.6,2.5,2.2L28.9,49l0.3,0.2c1.2,0.6,2.7,0.6,3.8,0l0.3-0.2l26.6-14.2
						c0.1,0,0.1-0.1,0.2-0.1c0.2-0.1,1.5-0.9,0.7-2.2c-0.2-0.3-0.6-0.6-1.1-0.9l-13-7c-1-0.6-1.9-1.3-2.5-2.2
						c-0.8-1-1.2-2.2-1.2-3.5c0-1.2-0.4-2.4-1.2-3.4c-0.6-0.9-1.5-1.6-2.6-2.2l-5.8-3.1l0,0c-0.7-0.4-1.5-0.5-2.2-0.5
						C30.3,9.7,29.5,9.9,28.8,10.2"/>
				</defs>
				<clipPath id="SVGID_00000124878708410536584230000011084703482070506650_">
					<use xlink:href="#SVGID_00000171690886845639129960000010699334786570088849_"  style="overflow:visible;"/>
				</clipPath>
				
					<linearGradient id="SVGID_00000016052945907594794820000008682718457118602638_" gradientUnits="userSpaceOnUse" x1="-1130.0074" y1="297.7978" x2="-1129.0618" y2="297.7978" gradientTransform="matrix(16.5941 35.5863 -35.5863 16.5941 29372.3086 35283.8633)">
					<stop  offset="0" style="stop-color:#D0D2D1"/>
					<stop  offset="0.4051" style="stop-color:#D0D2D1"/>
					<stop  offset="0.4134" style="stop-color:#D0D2D1"/>
					<stop  offset="0.4165" style="stop-color:#D0D2D1"/>
					<stop  offset="0.5932" style="stop-color:#E2E2E1"/>
					<stop  offset="0.7813" style="stop-color:#EDECEB"/>
					<stop  offset="1" style="stop-color:#F0EFEE"/>
				</linearGradient>
				
					<polygon style="clip-path:url(#SVGID_00000124878708410536584230000011084703482070506650_);fill:url(#SVGID_00000016052945907594794820000008682718457118602638_);" points="
					50.8,-13.6 77,42.6 11.7,73.1 -14.5,16.8 				"/>
			</g>
		</g>
		<g>
			<g>
				<defs>
					<rect id="SVGID_00000066484588169003245580000013840516172397655443_" x="1.3" y="9.7" width="58.7" height="37.1"/>
				</defs>
				<clipPath id="SVGID_00000073680528098897774090000000222527019569563318_">
					<use xlink:href="#SVGID_00000066484588169003245580000013840516172397655443_"  style="overflow:visible;"/>
				</clipPath>
				<g style="clip-path:url(#SVGID_00000073680528098897774090000000222527019569563318_);">
					<g>
						<defs>
							<path id="SVGID_00000008122812177764989120000015041550014725385379_" d="M59.7,31.6l-13-7c-1.1-0.6-1.9-1.3-2.5-2.2
								c-0.8-1-1.2-2.2-1.2-3.5c0-1.2-0.4-2.4-1.2-3.4c-0.6-0.9-1.5-1.6-2.6-2.2l-5.8-3.1l0,0c-1.4-0.7-3.1-0.7-4.5,0L2.8,24.1
								c-0.2,0.1-0.3,0.3-0.5,0.4c-0.4,0.3-0.8,0.7-1,1.2c0,0-0.4,1.1,1.7,2.2L6.9,30c1.1,0.6,1.9,1.3,2.6,2.2
								c0.2,0.3,0.4,0.6,0.6,0.9c0.3,0.6,0.5,1.2,0.6,1.8c0.2,0.4,0.4,0.7,0.6,1c0.7,0.9,1.5,1.6,2.6,2.2l15,8l0.3,0.2
								c1.2,0.6,2.8,0.6,4,0l0.3-0.2L60,31.9C59.9,31.8,59.8,31.7,59.7,31.6 M28.7,38.1L28.7,38.1L28.7,38.1L28.7,38.1 M28.9,41.2
								L28.9,41.2L28.9,41.2L28.9,41.2"/>
						</defs>
						<clipPath id="SVGID_00000042000820070882770930000015300436206086535314_">
							<use xlink:href="#SVGID_00000008122812177764989120000015041550014725385379_"  style="overflow:visible;"/>
						</clipPath>
						
							<linearGradient id="SVGID_00000070100213939994627730000002927058551020292023_" gradientUnits="userSpaceOnUse" x1="-1169.1671" y1="301.5523" x2="-1168.2214" y2="301.5523" gradientTransform="matrix(-49.3833 -28.5114 28.5114 -49.3833 -66280.8047 -18401.0137)">
							<stop  offset="0" style="stop-color:#FFFFFF"/>
							<stop  offset="1" style="stop-color:#121617"/>
						</linearGradient>
						
							<polygon style="clip-path:url(#SVGID_00000042000820070882770930000015300436206086535314_);fill:url(#SVGID_00000070100213939994627730000002927058551020292023_);" points="
							45.2,72.5 -15.3,37.6 15.7,-16.1 76.2,18.9 						"/>
					</g>
				</g>
			</g>
		</g>
		<g>
			<g>
				
					<linearGradient id="SVGID_00000098179911673011945110000017358620400608944285_" gradientUnits="userSpaceOnUse" x1="1" y1="51.1875" x2="61.172" y2="51.1875" gradientTransform="matrix(1 0 0 -1 0 80)">
					<stop  offset="0" style="stop-color:#B9D53D"/>
					<stop  offset="0.2654" style="stop-color:#B7D33D"/>
					<stop  offset="0.3609" style="stop-color:#B2CC3C"/>
					<stop  offset="0.4288" style="stop-color:#A8C13B"/>
					<stop  offset="0.4832" style="stop-color:#9BB039"/>
					<stop  offset="0.6438" style="stop-color:#A0B338"/>
					<stop  offset="0.8346" style="stop-color:#AEBD36"/>
					<stop  offset="1" style="stop-color:#C1CA33"/>
				</linearGradient>
				<path id="SVGID_23_" style="fill:url(#SVGID_00000098179911673011945110000017358620400608944285_);" d="M1,17.7v6.2
					c0,1.1,0.7,2.2,1.8,2.8l26,13.9l0,0c1.4,0.7,3.1,0.7,4.5,0l0,0l25.9-13.9c1.2-0.6,1.9-1.7,1.9-2.8v-6.2c0-0.4-0.1-0.8-0.3-1.2
					c-0.3,0.6-0.8,1.2-1.5,1.6L33.4,32l0,0c-1.4,0.7-2.9,0.3-4.2-0.4c0,0-0.3-0.4-0.4-0.4L3.4,18c-0.7-0.4-1.7-0.8-2-1.5
					C1.1,16.9,1,17.3,1,17.7"/>
			</g>
			<g>
				<defs>
					<path id="SVGID_00000085239008821264847300000000319717374026926269_" d="M1,17.7v6.2c0,1.1,0.7,2.2,1.8,2.8l26,13.9l0,0
						c1.4,0.7,3.1,0.7,4.5,0l0,0l25.9-13.9c1.2-0.6,1.9-1.7,1.9-2.8v-6.2c0-0.4-0.1-0.8-0.3-1.2c-0.3,0.6-0.8,1.2-1.5,1.6L33.4,32
						l0,0c-1.4,0.7-2.9,0.3-4.2-0.4c0,0-0.3-0.4-0.4-0.4L3.4,18c-0.7-0.4-1.7-0.8-2-1.5C1.1,16.9,1,17.3,1,17.7"/>
				</defs>
				<clipPath id="SVGID_00000145059600599377075720000001300323909466229161_">
					<use xlink:href="#SVGID_00000085239008821264847300000000319717374026926269_"  style="overflow:visible;"/>
				</clipPath>
				
					<linearGradient id="SVGID_00000121972546134039737990000013206815435755461276_" gradientUnits="userSpaceOnUse" x1="-1142.3956" y1="316.7078" x2="-1141.4495" y2="316.7078" gradientTransform="matrix(63.6271 0 0 63.6271 72688.3203 -20122.2461)">
					<stop  offset="0" style="stop-color:#B9D53D"/>
					<stop  offset="0.2654" style="stop-color:#B7D33D"/>
					<stop  offset="0.3609" style="stop-color:#B2CC3C"/>
					<stop  offset="0.4288" style="stop-color:#A8C13B"/>
					<stop  offset="0.4832" style="stop-color:#9BB039"/>
					<stop  offset="0.6438" style="stop-color:#A0B338"/>
					<stop  offset="0.8346" style="stop-color:#AEBD36"/>
					<stop  offset="1" style="stop-color:#C1CA33"/>
				</linearGradient>
				
					<rect x="1" y="16.5" style="clip-path:url(#SVGID_00000145059600599377075720000001300323909466229161_);fill:url(#SVGID_00000121972546134039737990000013206815435755461276_);" width="60.2" height="24.9"/>
			</g>
		</g>
		<g>
			<g>
				<path class="st12" d="M59.3,15l-26-14c-1.4-0.7-3.2-0.7-4.6,0L2.8,14.9c-0.7,0.4-1.2,0.9-1.5,1.6c0.3,0.6,0.8,1.2,1.5,1.6
					l26,13.9c1.4,0.7,3.2,0.7,4.6,0l25.9-13.9c0.7-0.4,1.2-0.9,1.5-1.6C60.6,15.9,60,15.4,59.3,15"/>
				<path class="st13" d="M56.3,13.9L33.1,1.5c-1.2-0.7-2.8-0.7-4.1,0L5.8,13.9c-0.6,0.3-1.1,0.8-1.4,1.4c0.3,0.6,0.7,1.1,1.4,1.4
					l23.3,12.5c1.2,0.7,2.8,0.7,4.1,0l23.2-12.4c0.6-0.3,1.1-0.8,1.4-1.4C57.4,14.8,57,14.3,56.3,13.9"/>
			</g>
		</g>
	</g>
</g>
</svg>
