<?xml version="1.0" encoding="utf-8"?>
<!-- Generator: Adobe Illustrator 26.0.0, SVG Export Plug-In . SVG Version: 6.00 Build 0)  -->
<svg version="1.1" id="Réteg_1" xmlns="http://www.w3.org/2000/svg" xmlns:xlink="http://www.w3.org/1999/xlink" x="0px" y="0px"
	 viewBox="0 0 1280 1280" style="enable-background:new 0 0 1280 1280;" xml:space="preserve">
<style type="text/css">
	.st0{fill:#363636;}
	.st1{fill:#B8D33C;}
</style>
<path class="st0" d="M855.1,734.6c0-153.3,0-306.7-0.1-460c0-3.7,0.8-4.6,4.6-4.6c113.7,0.1,227.5,0.1,341.2,0
	c3.4,0,4.2,0.8,4.2,4.2c-0.1,307.2-0.1,614.4,0,921.6c0,3.4-0.8,4.2-4.2,4.2c-113.9-0.1-227.7-0.1-341.6,0c-3.4,0-4.2-0.8-4.2-4.2
	C855.1,1042.1,855.1,888.4,855.1,734.6z M984.7,977.6c-5.1,0-10.3,0.1-15.4,0c-2.3-0.1-3.3,0.4-3.1,3c0.8,9.5,1.2,19,3,28.4
	c2.1,11.1,6.6,20.9,14.1,29.3c11.3,12.6,26.3,17.6,42.6,18.6c11.4,0.7,22.8-0.1,33.9-3.6c9.5-3,17.8-8.2,24.2-15.6
	c5.4-6.1,9-13.6,11.4-21.5c3.8-12.1,4.9-24.6,4.6-37.3c-0.3-11.8-1.6-23.2-6-34.3c-3.8-9.6-10.1-17.1-18.3-23.1
	c-9.1-6.7-19.9-9.5-30.2-13.4c-8.6-3.3-17.2-6.4-24.5-12.1c-3.9-3-7-6.7-9-11.3c-5.5-12.8-4.3-25.8-1.8-38.9
	c1.1-5.9,3.7-11.2,8.4-14.9c10.6-8.6,30.7-5.9,35.5,10.1c2.5,8.2,4,16.6,3.8,25.2c0,1.4-0.5,2.9,2,2.9c10.9-0.1,21.8-0.1,32.6,0
	c1.6,0,2-0.4,2.2-2.1c0.3-3.1-0.9-6.1-0.9-9.2c0-7.9-1.3-15.7-3.7-23.3c-7.5-24-24.1-37.3-48.7-40.1c-10.3-1.2-20.8-0.7-31.1,2.6
	c-10.3,3.3-19,8.7-25.4,17.2c-10.1,13.3-13.8,28.8-14.2,45.3c-0.1,4.5-0.3,9-0.1,13.5c0.4,8.1,1.7,15.9,4.2,23.6
	c5.1,16.1,16.1,26.9,30.7,34.6c11.4,6.1,23.9,9.6,35.9,14.1c6.2,2.3,11.1,6.1,15,11.4c4.2,5.7,5.4,12.4,5.8,19.1
	c0.7,9.4,0.5,19-2.2,28.2c-2.1,7.1-5.3,13.3-12.3,17.2c-5.6,3.1-11.5,3.9-17.6,3.5c-13.8-0.9-20.2-7.6-24-19.4
	c-2.6-8.1-3.6-16.5-3-25c0.2-2.5-0.9-2.8-3-2.7C994.9,977.7,989.8,977.6,984.7,977.6z"/>
<path class="st0" d="M814.9,830.4c0,121.8,0,243.6,0.1,365.4c0,3.4-0.8,4.2-4.2,4.2c-113.9-0.1-227.7-0.1-341.6,0
	c-3.4,0-4.2-0.8-4.2-4.2c0.1-243.9,0.1-487.7,0-731.6c0-3.4,0.8-4.2,4.2-4.2c113.9,0.1,227.7,0.1,341.6,0c3.4,0,4.2,0.8,4.2,4.2
	C814.9,586.3,814.9,708.3,814.9,830.4z M658,925.2c0-41.7,0-83.5,0.1-125.2c0-2.8-0.6-3.5-3.4-3.5c-11.1,0.2-22.3,0.2-33.4,0
	c-2.5,0-3.1,0.6-3.1,3.1c0.1,83.5,0.1,166.9,0,250.4c0,2.4,0.6,3.1,3.1,3.1c11-0.1,22-0.2,33,0c3.1,0.1,3.8-0.7,3.8-3.8
	C658,1007.9,658,966.5,658,925.2z"/>
<path class="st0" d="M75.1,924.6c0-90.1,0-180.3-0.1-270.4c0-3.4,0.8-4.2,4.2-4.2c113.9,0.1,227.7,0.1,341.6,0
	c3.4,0,4.2,0.8,4.2,4.2c-0.1,180.5-0.1,361.1,0,541.6c0,3.4-0.8,4.2-4.2,4.2c-113.9-0.1-227.7-0.1-341.6,0c-3.4,0-4.2-0.8-4.2-4.2
	C75.1,1105.4,75.1,1015,75.1,924.6z M190.7,924.2c0,41.7,0,83.4,0,125.1c0,1.8-0.6,3.5,2.6,3.5c37.8-0.1,75.6-0.1,113.4,0
	c2.1,0,2.7-0.5,2.7-2.7c-0.1-8.8-0.2-17.5,0-26.3c0.1-2.8-0.6-3.5-3.4-3.5c-24,0.1-48,0-72.1,0.1c-2.8,0-3.5-0.6-3.5-3.4
	c0.1-24.8,0.1-49.6,0-74.4c0-2.8,0.6-3.5,3.4-3.5c19.6,0.1,39.3,0,58.9,0.1c2.4,0,3.1-0.6,3.1-3.1c-0.2-8.6-0.2-17.3,0-25.9
	c0.1-2.8-0.6-3.5-3.5-3.5c-19.5,0.1-39,0-58.6,0.2c-2.8,0-3.5-0.6-3.5-3.5c0.1-24,0.1-48.1,0-72.1c0-2.8,0.6-3.5,3.5-3.5
	c23.6,0.1,47.3,0,70.9,0.1c2.4,0,3.1-0.6,3.1-3.1c-0.2-8.5-0.2-17,0-25.5c0.1-3.1-0.7-3.8-3.8-3.8c-36.5,0.1-73.1,0.1-109.6,0
	c-3.1,0-3.8,0.7-3.8,3.8C190.7,841.1,190.7,882.7,190.7,924.2z"/>
<path class="st1" d="M250.4,460.1c56.7,0,113.3,0,170-0.1c3.4,0,4.6,0.5,4.6,3.8c-0.1,47.6-0.1,95.1,0,142.7c0,2.9-0.8,3.5-4.1,3.5
	c-113.9-0.1-227.9-0.1-341.8,0c-3.5,0-4-0.9-4-3.6c0.1-47.6,0.1-95.1,0-142.7c0-3,0.9-3.7,4.3-3.7
	C136.3,460.1,193.4,460.1,250.4,460.1z"/>
<path class="st1" d="M250.4,270.1c56.7,0,113.3,0,170-0.1c3.4,0,4.6,0.5,4.6,3.8c-0.1,47.6-0.1,95.1,0,142.7c0,2.9-0.8,3.5-4.1,3.5
	c-113.9-0.1-227.9-0.1-341.8,0c-3.5,0-4-0.9-4-3.6c0.1-47.6,0.1-95.1,0-142.7c0-3,0.9-3.7,4.3-3.7
	C136.3,270.1,193.4,270.1,250.4,270.1z"/>
<path class="st1" d="M250.4,80.1c56.7,0,113.3,0,170-0.1c3.4,0,4.6,0.5,4.6,3.8c-0.1,47.6-0.1,95.1,0,142.7c0,2.9-0.8,3.5-4.1,3.5
	c-113.9-0.1-227.9-0.1-341.8,0c-3.5,0-4-0.9-4-3.6c0.1-47.6,0.1-95.1,0-142.7c0-3,0.9-3.7,4.3-3.7C136.3,80.1,193.4,80.1,250.4,80.1
	z"/>
<path class="st1" d="M640.4,270.1c56.7,0,113.3,0,170-0.1c3.4,0,4.6,0.5,4.6,3.8c-0.1,47.6-0.1,95.1,0,142.7c0,2.9-0.8,3.5-4.1,3.5
	c-113.9-0.1-227.9-0.1-341.8,0c-3.5,0-4-0.9-4-3.6c0.1-47.6,0.1-95.1,0-142.7c0-3,0.9-3.7,4.3-3.7
	C526.3,270.1,583.4,270.1,640.4,270.1z"/>
<path class="st1" d="M640.4,80.1c56.7,0,113.3,0,170-0.1c3.4,0,4.6,0.5,4.6,3.8c-0.1,47.6-0.1,95.1,0,142.7c0,2.9-0.8,3.5-4.1,3.5
	c-113.9-0.1-227.9-0.1-341.8,0c-3.5,0-4-0.9-4-3.6c0.1-47.6,0.1-95.1,0-142.7c0-3,0.9-3.7,4.3-3.7C526.3,80.1,583.4,80.1,640.4,80.1
	z"/>
<path class="st1" d="M1030.4,80.1c56.7,0,113.3,0,170-0.1c3.4,0,4.6,0.5,4.6,3.8c-0.1,47.6-0.1,95.1,0,142.7c0,2.9-0.8,3.5-4.1,3.5
	c-113.9-0.1-227.9-0.1-341.8,0c-3.5,0-4-0.9-4-3.6c0.1-47.6,0.1-95.1,0-142.7c0-3,0.9-3.7,4.3-3.7
	C916.3,80.1,973.4,80.1,1030.4,80.1z"/>
</svg>
