<?xml version="1.0"?>
<svg width="225" height="78" xmlns="http://www.w3.org/2000/svg" xmlns:svg="http://www.w3.org/2000/svg" xmlns:xlink="http://www.w3.org/1999/xlink" enable-background="new 0 0 225 78" version="1.1" xml:space="preserve">
 <style type="text/css">.st0{clip-path:url(#SVGID_2_);fill:url(#SVGID_3_);}
	.st1{clip-path:url(#SVGID_6_);fill:url(#SVGID_7_);}
	.st2{clip-path:url(#SVGID_9_);fill:url(#SVGID_10_);}
	.st3{clip-path:url(#SVGID_13_);fill:url(#SVGID_14_);}
	.st4{clip-path:url(#SVGID_16_);fill:url(#SVGID_17_);}
	.st5{clip-path:url(#SVGID_19_);}
	.st6{clip-path:url(#SVGID_21_);fill:url(#SVGID_22_);}
	.st7{clip-path:url(#SVGID_25_);fill:url(#SVGID_26_);}
	.st8{fill:#C7DB59;}
	.st9{fill:#B9D43D;}</style>
 <g class="layer">
  <title>Layer 1</title>
  <g id="svg_1">
   <g id="svg_2">
    <polygon id="svg_3" points="74.9000015258789,29.700000762939453 82.69999694824219,29.700000762939453 82.69999694824219,31.599998474121094 77,31.599998474121094 77,38.400001525878906 82,38.400001525878906 82,40.20000076293945 77,40.20000076293945 77,47.29999923706055 82.80000305175781,47.29999923706055 82.80000305175781,49.20000076293945 74.9000015258789,49.20000076293945 "/>
    <path d="m103.3,33.9c0,-0.7 -0.3,-2.4 -2.3,-2.4c-2.2,0 -2.4,1.9 -2.4,3l0,10.5c0,0.7 0.3,2.5 2.3,2.5c1.1,0 2.4,-0.5 2.4,-2.7l0,-0.6l2.1,0l0,0.7c0,2.8 -1.3,4.6 -4.6,4.6c-3.9,0 -4.3,-3.2 -4.3,-4.3l0,-11.5c0,-2.2 1.5,-4.2 4.4,-4.2c2.4,0 4.4,1.2 4.4,4.3l0,1.2l-2,0l0,-1.1z" id="svg_4"/>
    <polygon id="svg_5" points="121.4000015258789,29.700000762939453 121.4000015258789,40.099998474121094 126.69999694824219,29.700000762939453 128.8000030517578,29.700000762939453 124.80000305175781,37.5 129.60000610351562,49.20000076293945 127.39999389648438,49.20000076293945 123.5,39.5 121.4000015258789,43.599998474121094 121.4000015258789,49.20000076293945 119.30000305175781,49.20000076293945 119.30000305175781,29.700000762939453 "/>
    <polygon id="svg_6" points="143.3000030517578,29.700000762939453 151.1999969482422,29.700000762939453 151.1999969482422,31.599998474121094 145.39999389648438,31.599998474121094 145.39999389648438,38.400001525878906 150.5,38.400001525878906 150.5,40.20000076293945 145.39999389648438,40.20000076293945 145.39999389648438,47.29999923706055 151.1999969482422,47.29999923706055 151.1999969482422,49.20000076293945 143.3000030517578,49.20000076293945 "/>
    <path d="m169,29.7c2.1,0 5.1,0.3 5.1,4.6l0,1.5c0,2.1 -0.9,3.6 -2.7,4.1l3.1,9.2l-2.2,0l-2.9,-8.8l-2.4,0l0,8.8l-2.1,0l0,-19.4l4.1,0zm-1.8,8.9l2.1,0c1.5,0 2.8,-0.9 2.8,-2.6l0,-1.8c0,-2.4 -1.9,-2.6 -2.9,-2.6l-1.9,0l0,7l-0.1,0z" id="svg_7"/>
    <polygon id="svg_8" points="190.8000030517578,29.700000762939453 190.8000030517578,47.29999923706055 196.89999389648438,47.29999923706055 196.89999389648438,49.20000076293945 188.6999969482422,49.20000076293945 188.6999969482422,29.700000762939453 "/>
    <polygon id="svg_9" points="210.5,29.700000762939453 218.3000030517578,29.700000762939453 218.3000030517578,31.599998474121094 212.60000610351562,31.599998474121094 212.60000610351562,38.400001525878906 217.60000610351562,38.400001525878906 217.60000610351562,40.20000076293945 212.60000610351562,40.20000076293945 212.60000610351562,47.29999923706055 218.39999389648438,47.29999923706055 218.39999389648438,49.20000076293945 210.5,49.20000076293945 "/>
   </g>
   <g id="svg_10">
    <g id="svg_11">
     <defs>
      <path d="m28.9,59.4c0,0 0,0 0,0c0,0 0,0 0,0c0,0 0,0 0,0m-0.1,0c0,0 0,0 0,0c0,0 0,0 0,0m0,-31l-26,13.9c-0.7,0.4 -1.2,0.9 -1.5,1.6c0,0 -0.4,1.1 1.7,2.2l3.9,2.1c1.1,0.6 1.9,1.3 2.6,2.2c0.8,1 1.2,2.2 1.2,3.5c0,1.3 0.4,2.4 1.2,3.5c0.6,0.9 1.5,1.6 2.5,2.2l14.5,7.8l0.3,0.2c1.2,0.6 2.7,0.6 3.8,0l0.3,-0.2l26.6,-14.4c0.1,0 0.1,-0.1 0.2,-0.1c0.2,-0.1 1.5,-0.9 0.7,-2.2c-0.2,-0.3 -0.6,-0.6 -1.1,-0.9l-13,-7c-1,-0.6 -1.9,-1.3 -2.5,-2.2c-0.8,-1 -1.2,-2.2 -1.2,-3.5c0,-1.2 -0.4,-2.4 -1.2,-3.4c-0.6,-0.9 -1.5,-1.6 -2.6,-2.2l-5.8,-3.1c0,0 0,0 0,0c-0.7,-0.4 -1.5,-0.5 -2.2,-0.5c-0.9,0 -1.7,0.1 -2.4,0.5" id="SVGID_1_"/>
      <linearGradient id="SVGID_5_" x1="0.001862" x2="0.99002" y1="0.500727" y2="0.500727">
       <stop offset="0" stop-color="#B9D53D"/>
       <stop offset="0.2654" stop-color="#B7D33D"/>
       <stop offset="0.3609" stop-color="#B2CC3C"/>
       <stop offset="0.4288" stop-color="#A8C13B"/>
       <stop offset="0.4832" stop-color="#9BB039"/>
       <stop offset="0.6438" stop-color="#A0B338"/>
       <stop offset="0.8346" stop-color="#AEBD36"/>
       <stop offset="1" stop-color="#C1CA33"/>
      </linearGradient>
      <linearGradient id="SVGID_12_" x1="0.001862" x2="0.99002" y1="0.500845" y2="0.500845">
       <stop offset="0" stop-color="#B9D53D"/>
       <stop offset="0.2654" stop-color="#B7D33D"/>
       <stop offset="0.3609" stop-color="#B2CC3C"/>
       <stop offset="0.4288" stop-color="#A8C13B"/>
       <stop offset="0.4832" stop-color="#9BB039"/>
       <stop offset="0.6438" stop-color="#A0B338"/>
       <stop offset="0.8346" stop-color="#AEBD36"/>
       <stop offset="1" stop-color="#C1CA33"/>
      </linearGradient>
      <linearGradient id="SVGID_24_" x1="0" x2="1.001198" y1="0.500999" y2="0.500999">
       <stop offset="0" stop-color="#B9D53D"/>
       <stop offset="0.2654" stop-color="#B7D33D"/>
       <stop offset="0.3609" stop-color="#B2CC3C"/>
       <stop offset="0.4288" stop-color="#A8C13B"/>
       <stop offset="0.4832" stop-color="#9BB039"/>
       <stop offset="0.6438" stop-color="#A0B338"/>
       <stop offset="0.8346" stop-color="#AEBD36"/>
       <stop offset="1" stop-color="#C1CA33"/>
      </linearGradient>
     </defs>
     <clipPath id="SVGID_2_">
      <use id="svg_12" overflow="visible" xlink:href="#SVGID_1_"/>
     </clipPath>
     <polygon class="st0" id="svg_13" points="50.8,4.6 77,60.8 11.7,91.3 -14.5,35    "/>
    </g>
    <g id="svg_14">
     <defs>
      <path d="m1,45c0,0 0,0 0,0l0,2l0,4.3l0,8.6c0,1.3 0.8,2.6 2.2,3.3l25.7,13.8c1.4,0.7 3.1,0.7 4.5,0l26,-13.9c1.2,-0.6 1.9,-1.7 1.9,-2.8l0,-6.8l0,-1.1l0,0c0,0 0,0 0,-0.1l0,-0.1c0,-0.7 -0.1,-1.1 -0.4,-1.4c0.9,1.3 -0.5,2.1 -0.7,2.2c-0.1,0 -0.1,0.1 -0.2,0.1l-26.6,14.1l-0.4,0.2c-1.2,0.6 -2.7,0.6 -3.8,0l-0.3,-0.2l-14.5,-7.8c-2.3,-1.3 -3.8,-3.4 -3.8,-5.7c0,-2.3 -1.4,-4.4 -3.8,-5.7l-3.8,-2c-2.1,-1.1 -1.7,-2.2 -1.7,-2.2c-0.2,0.4 -0.3,0.8 -0.3,1.2" id="SVGID_4_"/>
     </defs>
     <use fill="url(#SVGID_5_)" id="svg_15" overflow="visible" xlink:href="#SVGID_4_"/>
     <clipPath id="SVGID_6_">
      <use id="svg_16" overflow="visible" xlink:href="#SVGID_4_"/>
     </clipPath>
     <rect class="st1" height="33.8" id="svg_17" width="60.8" x="0.9" y="43.9"/>
    </g>
    <g id="svg_18">
     <defs>
      <path d="m59.7,49.8l-13,-7c-1.1,-0.6 -1.9,-1.3 -2.5,-2.2c-0.8,-1 -1.2,-2.2 -1.2,-3.5c0,-1.2 -0.4,-2.4 -1.2,-3.4c-0.6,-0.9 -1.5,-1.6 -2.6,-2.2l-5.8,-3.1c0,0 0,0 0,0c-1.4,-0.7 -3.1,-0.7 -4.5,0l-26.1,13.9c-0.2,0.1 -0.3,0.3 -0.5,0.4c-0.4,0.3 -0.8,0.7 -1,1.2c0,0 -0.4,1.1 1.7,2.2l3.9,2.1c1.1,0.6 1.9,1.3 2.6,2.2c0.2,0.3 0.4,0.6 0.6,0.9c0.3,0.6 0.5,1.2 0.6,1.8c0.2,0.4 0.4,0.7 0.6,1c0.7,0.9 1.5,1.6 2.6,2.2l15,8l0.3,0.2c1.2,0.6 2.8,0.6 4,0l0.3,-0.2l26.5,-14.2c-0.1,-0.1 -0.2,-0.2 -0.3,-0.3m-31,6.5c0,0 0,0 0,0c0,0 0,0 0,0c0,0 0,0 0,0m0.2,3.1c0,0 0,0 0,0c0,0 0,0 0,0c0,0 0,0 0,0" id="SVGID_8_"/>
     </defs>
     <clipPath id="SVGID_9_">
      <use id="svg_19" overflow="visible" xlink:href="#SVGID_8_"/>
     </clipPath>
     <polygon class="st2" id="svg_20" points="45.2,90.7 -15.3,55.8 15.7,2.1 76.2,37    "/>
    </g>
    <g id="svg_21">
     <defs>
      <path d="m1,26.8c0,0 0,0.1 0,0l0,2l0,4.3l0,8.6c0,1.3 0.8,2.6 2.2,3.3l25.7,13.8c1.4,0.7 3.1,0.7 4.5,0l26,-13.9c1.2,-0.6 1.9,-1.7 1.9,-2.8l0,-6.8l0,-1.1l0,0c0,0 0,0 0,-0.1l0,-0.1c0,-0.7 -0.1,-1.1 -0.4,-1.4c0.9,1.3 -0.5,2.1 -0.7,2.2c-0.1,0 -0.1,0.1 -0.2,0.1l-26.6,14.1l-0.4,0.2c-1.2,0.6 -2.7,0.6 -3.8,0l-0.3,-0.2l-14.5,-7.8c-2.3,-1.3 -3.8,-3.4 -3.8,-5.7s-1.4,-4.4 -3.8,-5.7l-3.8,-2c-2.1,-1.1 -1.7,-2.2 -1.7,-2.2c-0.2,0.4 -0.3,0.8 -0.3,1.2" id="SVGID_11_"/>
     </defs>
     <use fill="url(#SVGID_12_)" id="svg_22" overflow="visible" xlink:href="#SVGID_11_"/>
     <clipPath id="SVGID_13_">
      <use id="svg_23" overflow="visible" xlink:href="#SVGID_11_"/>
     </clipPath>
     <rect class="st3" height="33.8" id="svg_24" width="60.8" x="0.9" y="25.7"/>
    </g>
    <g id="svg_25">
     <defs>
      <path d="m28.9,41.2c0,0 0,0 0,0c0,0 0,0 0,0c0,0 0,0 0,0m-0.1,0c0,0 0,0 0,0c0,0 0,0 0,0m0,-31l-26,13.9c-0.7,0.4 -1.2,0.9 -1.5,1.6c0,0 -0.4,1.1 1.7,2.2l3.9,2.1c1.1,0.6 1.9,1.3 2.6,2.2c0.8,1 1.2,2.2 1.2,3.5c0,1.3 0.4,2.4 1.2,3.5c0.6,0.9 1.5,1.6 2.5,2.2l14.5,7.6l0.3,0.2c1.2,0.6 2.7,0.6 3.8,0l0.3,-0.2l26.6,-14.2c0.1,0 0.1,-0.1 0.2,-0.1c0.2,-0.1 1.5,-0.9 0.7,-2.2c-0.2,-0.3 -0.6,-0.6 -1.1,-0.9l-13,-7c-1,-0.6 -1.9,-1.3 -2.5,-2.2c-0.8,-1 -1.2,-2.2 -1.2,-3.5c0,-1.2 -0.4,-2.4 -1.2,-3.4c-0.6,-0.9 -1.5,-1.6 -2.6,-2.2l-5.8,-3.1c0,0 0,0 0,0c-0.7,-0.4 -1.5,-0.5 -2.2,-0.5c-0.9,0 -1.7,0.2 -2.4,0.5" id="SVGID_15_"/>
     </defs>
     <clipPath id="SVGID_16_">
      <use id="svg_26" overflow="visible" xlink:href="#SVGID_15_"/>
     </clipPath>
     <polygon class="st4" id="svg_27" points="50.8,-13.6 77,42.6 11.7,73.1 -14.5,16.8    "/>
    </g>
    <g id="svg_28">
     <defs>
      <rect height="37.1" id="SVGID_18_" width="58.7" x="1.3" y="9.7"/>
     </defs>
     <clipPath id="SVGID_19_">
      <use id="svg_29" overflow="visible" xlink:href="#SVGID_18_"/>
     </clipPath>
     <g class="st5" id="svg_30">
      <defs>
       <path d="m59.7,31.6l-13,-7c-1.1,-0.6 -1.9,-1.3 -2.5,-2.2c-0.8,-1 -1.2,-2.2 -1.2,-3.5c0,-1.2 -0.4,-2.4 -1.2,-3.4c-0.6,-0.9 -1.5,-1.6 -2.6,-2.2l-5.8,-3.1c0,0 0,0 0,0c-1.4,-0.7 -3.1,-0.7 -4.5,0l-26.1,13.9c-0.2,0.1 -0.3,0.3 -0.5,0.4c-0.4,0.3 -0.8,0.7 -1,1.2c0,0 -0.4,1.1 1.7,2.2l3.9,2.1c1.1,0.6 1.9,1.3 2.6,2.2c0.2,0.3 0.4,0.6 0.6,0.9c0.3,0.6 0.5,1.2 0.6,1.8c0.2,0.4 0.4,0.7 0.6,1c0.7,0.9 1.5,1.6 2.6,2.2l15,8l0.3,0.2c1.2,0.6 2.8,0.6 4,0l0.3,-0.2l26.5,-14.2c-0.1,-0.1 -0.2,-0.2 -0.3,-0.3m-31,6.5c0,0 0,0 0,0c0,0 0,0 0,0c0,0 0,0 0,0m0.2,3.1c0,0 0,0 0,0c0,0 0,0 0,0c0,0 0,0 0,0" id="SVGID_20_"/>
      </defs>
      <clipPath id="SVGID_21_">
       <use id="svg_31" overflow="visible" xlink:href="#SVGID_20_"/>
      </clipPath>
      <polygon class="st6" id="svg_32" points="45.2,72.5 -15.3,37.6 15.7,-16.1 76.2,18.9     "/>
     </g>
    </g>
    <g id="svg_33">
     <defs>
      <path d="m1,17.7l0,6.2c0,1.1 0.7,2.2 1.8,2.8l26,13.9c0,0 0,0 0,0c1.4,0.7 3.1,0.7 4.5,0c0,0 0,0 0,0l25.9,-13.9c1.2,-0.6 1.9,-1.7 1.9,-2.8l0,-6.2c0,-0.4 -0.1,-0.8 -0.3,-1.2c-0.3,0.6 -0.8,1.2 -1.5,1.6l-25.9,13.9c0,0 0,0 0,0c-1.4,0.7 -2.9,0.3 -4.2,-0.4c0,0 -0.3,-0.4 -0.4,-0.4l-25.4,-13.2c-0.7,-0.4 -1.7,-0.8 -2,-1.5c-0.3,0.4 -0.4,0.8 -0.4,1.2" id="SVGID_23_"/>
     </defs>
     <use fill="url(#SVGID_24_)" id="svg_34" overflow="visible" xlink:href="#SVGID_23_"/>
     <clipPath id="SVGID_25_">
      <use id="svg_35" overflow="visible" xlink:href="#SVGID_23_"/>
     </clipPath>
     <rect class="st7" height="24.9" id="svg_36" width="60.2" x="1" y="16.5"/>
    </g>
    <g id="svg_37">
     <g id="svg_38">
      <path class="st8" d="m59.3,15l-26,-14c-1.4,-0.7 -3.2,-0.7 -4.6,0l-25.9,13.9c-0.7,0.4 -1.2,0.9 -1.5,1.6c0.3,0.6 0.8,1.2 1.5,1.6l26,13.9c1.4,0.7 3.2,0.7 4.6,0l25.9,-13.9c0.7,-0.4 1.2,-0.9 1.5,-1.6c-0.2,-0.6 -0.8,-1.1 -1.5,-1.5" id="svg_39"/>
      <path class="st9" d="m56.3,13.9l-23.2,-12.4c-1.2,-0.7 -2.8,-0.7 -4.1,0l-23.2,12.4c-0.6,0.3 -1.1,0.8 -1.4,1.4c0.3,0.6 0.7,1.1 1.4,1.4l23.3,12.5c1.2,0.7 2.8,0.7 4.1,0l23.2,-12.4c0.6,-0.3 1.1,-0.8 1.4,-1.4c-0.4,-0.6 -0.8,-1.1 -1.5,-1.5" id="svg_40"/>
     </g>
    </g>
   </g>
  </g>
 </g>
</svg>