<?xml version="1.0" encoding="utf-8"?>
<!-- Generator: Adobe Illustrator 26.0.0, SVG Export Plug-In . SVG Version: 6.00 Build 0)  -->
<svg version="1.1" id="Réteg_1" xmlns="http://www.w3.org/2000/svg" xmlns:xlink="http://www.w3.org/1999/xlink" x="0px" y="0px"
	 viewBox="0 0 549 429" style="enable-background:new 0 0 549 429;" xml:space="preserve">
<style type="text/css">
	.st0{opacity:0;fill:none;}
	.st1{fill:#212529;}
	.st2{fill:#B9D43C;}
	.st3{fill:#FDFDFD;}
</style>
<path class="st0" d="M274.5,428.9c-90.4,0-180.7,0-271.1,0.1c-2.8,0-3.4-0.6-3.4-3.4C0.1,284.9,0.1,144.1,0,3.4C0,0.6,0.6,0,3.4,0
	c180.7,0.1,361.4,0.1,542.1,0c2.8,0,3.4,0.6,3.4,3.4c-0.1,140.7-0.1,281.4,0,422.1c0,2.8-0.6,3.4-3.4,3.4
	C455.2,428.9,364.9,428.9,274.5,428.9z M166.4,251.9c0-55.9,0-111.7-0.1-167.6c0-3.3,0.7-4.3,4.2-4.3c37.6,0.1,75.1,0.1,112.7,0.2
	c2.9,0,3.7-0.7,3.7-3.7c-0.1-22.6-0.1-45.1,0-67.7c0-2.7-0.4-3.6-3.4-3.6C191.9,5.3,100.5,5.3,9,5.2c-2.9,0-3.4,0.9-3.4,3.5
	c0.1,22.6,0.1,45.1,0,67.7c0,2.8,0.6,3.7,3.6,3.7c25.1-0.1,50.2,0,75.2-0.2c3.7,0,4.7,0.8,4.7,4.6C89,196,89,307.4,89,418.8
	c0,3.2,0.5,4.4,4.1,4.3c23.2-0.2,46.4-0.2,69.6,0c3.2,0,3.8-0.9,3.8-3.9C166.3,363.4,166.4,307.7,166.4,251.9z M330.8,327.5
	c0,30.7,0,61.4-0.1,92.1c0,2.4,0.3,3.4,3.1,3.4c23-0.1,45.9-0.1,68.9,0c2.4,0,3.1-0.5,3.1-3c-0.3-23.4-0.5-46.9-0.6-70.3
	c-0.1-13.5-0.1-26.9-0.3-40.4c0-2.7,0.8-3.7,3.6-3.7c3.7,0,7.5-0.4,11.2-0.8c10.4-1.2,20.9-1.7,30.9-5.3
	c16.7-6.1,32.1-14.7,45.8-26.3c26.7-22.5,41.5-51.2,43.5-86.1c1.1-18.7,0.4-37.4,0.4-56.1c0-12.8-1.8-25.4-5.8-37.5
	c-17-51.2-65.9-87.2-119.9-88c-27-0.4-53.9-0.1-80.9-0.2c-2.6,0-3,0.8-3,3.1c0.1,23,0.1,45.9,0,68.9c0,2.8,1,3.1,3.4,3.1
	c24.3-0.1,48.7-0.1,73-0.1c6.2,0,12.5-0.3,18.6,1.2c21.6,5.3,38.1,24.9,39.4,47.7c1,17.3,0.5,34.7,0.2,52c-0.1,4.8-0.9,9.4-2.2,14
	c-5.2,17.5-22.1,37.4-50.1,37c-26.2-0.3-52.4,0-78.6-0.1c-2.8,0-3.7,0.6-3.7,3.6C330.9,266.1,330.8,296.8,330.8,327.5z M286.9,327.8
	c0-30.8,0-61.6,0.1-92.4c0-2.6-0.6-3.3-3.3-3.3c-23.5,0.1-46.9,0.1-70.4,0c-2.8,0-3.2,0.9-3.2,3.4c0.1,61.4,0.1,122.7,0,184.1
	c0,2.8,0.7,3.5,3.5,3.4c23.3-0.1,46.7-0.1,70,0c3,0,3.4-0.9,3.3-3.6C286.9,388.9,286.9,358.3,286.9,327.8z M369.3,155
	c0-34.6-27.4-62-61.8-62.1c-34.6,0-61.9,27.4-62,61.9c0,34.5,27.4,62.1,61.8,62.1C341.8,217,369.3,189.4,369.3,155z"/>
<path class="st1" d="M166.4,251.9c0,55.7,0,111.5,0.1,167.2c0,3-0.5,3.9-3.8,3.9c-23.2-0.2-46.4-0.2-69.6,0c-3.6,0-4.1-1.2-4.1-4.3
	C89,307.4,89,196,89.1,84.6c0-3.8-0.9-4.6-4.7-4.6c-25.1,0.2-50.2,0-75.2,0.2c-3,0-3.6-0.9-3.6-3.7c0.1-22.6,0.1-45.1,0-67.7
	c0-2.7,0.4-3.5,3.4-3.5c91.5,0.1,182.9,0.1,274.4,0c2.9,0,3.4,0.9,3.4,3.6c-0.1,22.6-0.1,45.1,0,67.7c0,2.9-0.7,3.7-3.7,3.7
	c-37.6-0.1-75.1,0-112.7-0.2c-3.5,0-4.2,1-4.2,4.3C166.4,140.2,166.4,196.1,166.4,251.9z"/>
<path class="st1" d="M330.8,327.5c0-30.7,0-61.4-0.1-92.1c0-3,0.9-3.6,3.7-3.6c26.2,0.1,52.4-0.1,78.6,0.1c28,0.3,44.8-19.5,50.1-37
	c1.4-4.6,2.2-9.2,2.2-14c0.2-17.3,0.8-34.7-0.2-52c-1.3-22.7-17.8-42.4-39.4-47.7c-6.1-1.5-12.4-1.3-18.6-1.2c-24.3,0-48.7,0-73,0.1
	c-2.4,0-3.4-0.3-3.4-3.1c0.1-23,0.1-45.9,0-68.9c0-2.3,0.5-3.2,3-3.1c27,0.1,53.9-0.1,80.9,0.2c54,0.7,102.9,36.8,119.9,88
	c4,12.2,5.9,24.7,5.8,37.5c-0.1,18.7,0.7,37.4-0.4,56.1c-2.1,34.9-16.8,63.6-43.5,86.1c-13.7,11.5-29.1,20.1-45.8,26.3
	c-9.9,3.6-20.5,4.2-30.9,5.3c-3.7,0.4-7.5,0.8-11.2,0.8c-2.8,0-3.6,1-3.6,3.7c0.2,13.5,0.2,26.9,0.3,40.4
	c0.2,23.4,0.3,46.9,0.6,70.3c0,2.5-0.7,3-3.1,3c-23-0.1-45.9-0.1-68.9,0c-2.8,0-3.1-1-3.1-3.4C330.9,388.9,330.8,358.2,330.8,327.5z
	"/>
<path class="st1" d="M286.9,327.8c0,30.6,0,61.1,0.1,91.7c0,2.6-0.3,3.6-3.3,3.6c-23.3-0.2-46.7-0.1-70,0c-2.8,0-3.5-0.6-3.5-3.4
	c0.1-61.4,0.1-122.7,0-184.1c0-2.5,0.4-3.4,3.2-3.4c23.5,0.1,46.9,0.1,70.4,0c2.6,0,3.3,0.7,3.3,3.3
	C286.9,266.2,286.9,297,286.9,327.8z"/>
<path class="st2" d="M369.3,155c0,34.5-27.6,62.1-62,62c-34.5-0.1-61.9-27.6-61.8-62.1c0-34.6,27.4-62,62-61.9
	C342,92.9,369.4,120.4,369.3,155z M347.6,138.4c-0.6-2.5-3.2-4.1-5.1-6.1c-4-4.4-5.1-4.3-9.3-0.1c-11.2,11.2-22.4,22.4-33.5,33.7
	c-1.7,1.8-2.7,1.8-4.4,0c-3.4-3.7-7-7.1-10.5-10.6c-8.2-8.2-7.2-8.4-15.4,0.2c-2.4,2.5-2.6,4.5-0.1,7c8.4,8.2,16.6,16.5,24.9,24.9
	c2.4,2.4,4.3,2.2,6.6-0.1c14.9-15,30-30,44.9-45C346.6,141.2,347.5,140.4,347.6,138.4z"/>
<path class="st3" d="M347.6,138.4c0,1.9-1,2.8-1.8,3.7c-15,15-30,30-44.9,45c-2.3,2.3-4.2,2.5-6.6,0.1c-8.2-8.4-16.5-16.7-24.9-24.9
	c-2.5-2.5-2.3-4.5,0.1-7c8.2-8.5,7.2-8.4,15.4-0.2c3.5,3.5,7.1,7,10.5,10.6c1.7,1.8,2.7,1.8,4.4,0c11.1-11.3,22.3-22.5,33.5-33.7
	c4.2-4.2,5.3-4.3,9.3,0.1C344.4,134.4,347,135.9,347.6,138.4z"/>
</svg>
