<?xml version="1.0" encoding="utf-8"?>
<!-- Generator: Adobe Illustrator 26.0.0, SVG Export Plug-In . SVG Version: 6.00 Build 0)  -->
<svg version="1.1" id="Réteg_1" xmlns="http://www.w3.org/2000/svg" xmlns:xlink="http://www.w3.org/1999/xlink" x="0px" y="0px"
	 viewBox="0 0 512 512" style="enable-background:new 0 0 512 512;" xml:space="preserve">
<style type="text/css">
	.st0{fill:#6C6C6C;}
</style>
<g>
	<circle class="st0" cx="64" cy="96" r="48"/>
	<path class="st0" d="M192,64c-17.7,0-32,14.3-32,32s14.3,32,32,32h288c17.7,0,32-14.3,32-32s-14.3-32-32-32H192z"/>
	<path class="st0" d="M192,224c-17.5,0-31.6,13.9-32,31.3c-0.4,18,14.7,32.7,32.7,32.7l99.3,0.5c18,0,32-14,32-32
		c0-17.4-14.4-32-31.8-32L192,224z"/>
	<circle class="st0" cx="64" cy="416" r="48"/>
	<circle class="st0" cx="64" cy="256" r="48"/>
	<path class="st0" d="M192,383.8c-17.5,0-31.6,13.9-32,31.3c-0.4,18,14.7,32.7,32.7,32.7l99.3,0.5c18,0,32-14,32-32
		c0-17.4-14.4-32-31.8-32L192,383.8z"/>
	<path class="st0" d="M445,286c-7.6-8.6-21.4-8.1-28,1.4l-13.1,18.1c-9,12.6-26.5,15.5-39.2,6.5s-15.5-26.5-6.5-39.2l13-18.2
		c27.7-38.8,84.5-41.6,115.9-5.7c24.9,28.5,24.3,71.2-1.3,99l-40.7,44.2H484c15.5,0,28,12.5,28,28s-12.5,28-28,28H381.1
		c-11.1,0-21.3-6.5-25.7-16.8c-4.4-10.3-2.5-22.1,5-30.3l84.1-91.2c6.2-6.8,6.3-17.1,0.4-24h0.1V286z"/>
</g>
</svg>
