<svg xmlns="http://www.w3.org/2000/svg" xmlns:xlink="http://www.w3.org/1999/xlink" version="1.1" style="" xml:space="preserve" width="3510" height="1032"><rect id="backgroundrect" width="100%" height="100%" x="0" y="0" fill="none" stroke="none"/>
<style type="text/css">
	.st0{fill:#2F2F2F;}
	.st1{fill:#575E60;}
	.st2{fill:#B9D45F;}
	.st3{fill:#FDFDFD;}
	.st4{fill:none;}
</style>

<g class="currentLayer" style=""><title>Layer 1</title>
	<path class="st0" d="M891.6791666865349,968.9 c-43,0 -85.5,0 -128.2,0 c0,-316.3 0,-632.3 0,-949.1 c1.5,0 3.1,0 4.7,0 c62.8,0 125.7,-0.5 188.5,0.2 c35.1,0.4 70,3.3 103.6,14.7 c20.6,6.9 39.2,17.1 55.7,31.3 c24.9,21.4 41.9,48.2 55.1,77.8 c12.5,28.1 19.7,57.8 24.3,88 c2.3,15.1 3.5,30.3 4.1,45.5 c0.9,22.3 1.7000000000000002,44.6 0.8,66.9 c-1.5,40.4 -7.1,80.3 -20,118.8 c-9.3,27.6 -22,53.6 -40.9,76 c-12.7,15.1 -27.9,27.4 -45.2,37.2 c-24.3,13.8 -50.6,21.9 -77.9,26.5 c-14.3,2.4 -29,3.7 -43.5,4.3 c-25.1,0.9 -50.3,0.9 -75.4,1 c-4.7,0 -5.8,1.4 -5.8,5.9 c0.1,115.8 0.1,231.7 0.1,347.5 C891.6791666865349,963.8 891.6791666865349,966.1 891.6791666865349,968.9 zM889.3791666865349,314 c0,58.5 0,117 0,175.4 c0,3 -0.2,5.5 4.2,5.4 c28.7,-0.8 57.6,1.7000000000000002 86.2,-2.1 c11.9,-1.6 23.6,-4.2 34.1,-10.3 c19.7,-11.5 31.9,-29.2 40.3,-49.8 c12.3,-30.2 16.5,-62.2 17.8,-94.4 c1.1,-26.4 0.8,-52.8 -2.6,-79.2 c-3.2,-24.7 -8.3,-48.7 -19.1,-71.3 c-8.3,-17.3 -19.2,-32 -36.9,-41.1 c-18.5,-9.5 -38.5,-12.6 -58.8,-13.2 c-19.6,-0.6000000000000001 -39.3,0 -59,-0.2 c-5,-0.1 -6.5,1.2 -6.5,6.4 C889.3791666865349,197.7 889.3791666865349,255.8 889.3791666865349,314 z" id="svg_2" fill="none" opacity="1"/>
	<path class="st0" d="M2.2791666865348814,134.3 c0,-38.4 0,-76.1 0,-114 c147.6,0 295.2,0 443,0 c0,37.9 0,75.6 0,114.1 c-1.9,0 -3.8,0 -5.7,0 c-48.2,0 -96.3,0 -144.5,0 c-7.3,0 -7.4,0.1 -7.4,7.1 c0,273.9 0,547.9 0,821.8 c0,1.8 0,3.6 0,5.6 c-42.8,0 -85.2,0 -128.4,0 c0,-2.2 0,-4.3 0,-6.4 c0,-273.6 0,-547.2 0,-820.9 c0,-7.3 0,-7.4 -7.2,-7.4 c-48,0 -96,0 -144,0 C6.279166686534881,134.3 4.479166686534882,134.3 2.2791666865348814,134.3 z" id="svg_3" fill="none" opacity="1"/>
	<path class="st0" d="M505.4791666865349,292 c41.3,0 82.4,0 123.8,0 c0,225.5 0,451 0,676.8 c-41.1,0 -82.3,0 -123.8,0 C505.4791666865349,743.2 505.4791666865349,517.7 505.4791666865349,292 z" id="svg_4" fill="none" opacity="1"/>
	<path class="st1" d="M1588.5791666865348,495.2 c2.5,-10 4.7,-19.5 7.1,-29 c22.1,-89 44.3,-178.1 66.4,-267.1 c15.4,-62 30.7,-124 45.9,-186.1 c0.8,-3.3 1.9,-4.4 5.2,-4.3 c10.8,0.2 21.7,0.2 32.5,0 c3.3,-0.1 4.3,1.3 5,4.1 c23,93.5 46.1,186.9 69.2,280.4 c16.3,65.9 32.7,131.7 49.1,197.5 c0.30000000000000004,1.3 0.5,2.5 0.9,4.2 c-17.1,0 -33.9,0 -51.4,0 c-1.7000000000000002,-7.6 -3.4,-15.4 -5.1,-23.3 c-5.7,-27.1 -11.4,-54.2 -17.1,-81.2 c-0.7000000000000001,-3.5 -2.7,-4.3 -6,-4.3 c-40.5,0.1 -81,0.1 -121.5,0 c-3.7,0 -4.9,1.3 -5.6,4.6 c-5.7,27.2 -11.6,54.5 -17.4,81.7 c-1.4,6.6 -2.7,13.3 -4.3,19.9 c-0.30000000000000004,1.2 -2.1,2.8 -3.2,2.8 C1621.9791666865349,495.3 1605.679166686535,495.2 1588.5791666865348,495.2 zM1730.679166686535,83.1 c-0.7000000000000001,0 -1.3,-0.1 -2,-0.1 c-18.6,87.5 -37.2,175 -55.9,263 c2.9,0.2 4.8,0.5 6.8,0.5 c10.8,0 21.7,0 32.5,0 c23.2,0 46.3,0 69.5,0.1 c3.5,0 5.1,-0.6000000000000001 4.1,-4.9 c-6.7,-30.9 -13.1,-61.9 -19.7,-92.9 c-9.2,-43.6 -18.6,-87.2 -27.9,-130.8 C1735.679166686535,106.3 1733.179166686535,94.7 1730.679166686535,83.1 z" id="svg_5" fill="none" opacity="1"/>
	<path class="st1" d="M2991.979166686535,495 c-17.3,0 -34.3,0 -52,0 c40.2,-162.2 80.3,-324.1 120.5,-486.2 c12.9,0 25.3,-0.1 37.8,0.2 c1.2,0 3.1,2.1 3.5,3.6 c7.4,29.4 14.7,58.9 22,88.3 c11.5,46.2 22.9,92.5 34.4,138.7 c18.3,73.9 36.6,147.8 54.9,221.8 c2.7,11.1 5.5,22.2 8.3,33.6 c-17.3,0 -34.2,0 -51.6,0 c-2.4,-11.2 -4.9,-22.5 -7.3,-33.8 c-5,-23.7 -10.2,-47.3 -15,-71 c-0.7000000000000001,-3.2 -1.8,-4.1 -4.8,-4 c-10.5,0.1 -21,0.1 -31.5,0 c-30.2,0 -60.3,0.1 -90.5,-0.1 c-3.9,0 -5.4,1.1 -6.2,5.1 c-7.1,34.1 -14.5,68.1 -21.8,102.1 C2992.579166686535,493.7 2992.279166686535,494.2 2991.979166686535,495 zM3081.779166686535,82.6 c-0.4,0 -0.8,0.1 -1.3,0.1 c-0.30000000000000004,0.9 -0.7000000000000001,1.7000000000000002 -0.9,2.7 c-4.6,21.2 -9.3,42.4 -13.8,63.7 c-13.6,64 -27.2,128.1 -40.8,192.1 c-0.7000000000000001,3.5 -0.4,5.4 3.8,5.3 c34.7,-0.1 69.3,-0.1 104,0 c4,0 4.9,-1.6 4.2,-5.2 c-7.8,-36.5 -15.5,-72.9 -23.3,-109.4 c-9.5,-44.6 -19,-89.2 -28.5,-133.8 C3084.1791666865347,93 3082.979166686535,87.8 3081.779166686535,82.6 z" id="svg_6" fill="none" opacity="1"/>
	<path class="st1" d="M2104.279166686535,358.9 c15.1,0 29.4,0 44.3,0 c0,6.4 0.6000000000000001,12.7 -0.1,18.9 c-1.6,14.1 -2.9,28.4 -6,42.2 c-7.1,31.4 -23.7,56.4 -53.4,70.6 c-20.7,9.9 -42.9,12 -65.7,9.8 c-12.9,-1.2 -25.3,-3.8 -36.9,-9.3 c-26.8,-12.7 -42.8,-34.2 -50.1,-62.4 c-4.8,-18.4 -7.1,-37.1 -7.2,-56.1 c-0.30000000000000004,-76.5 -0.9,-152.9 -0.7000000000000001,-229.4 c0.1,-25.5 2.5,-51 10.7,-75.6 c9.7,-29.2 28.7,-49 58.2,-58.2 c28.3,-8.7 56.8,-8.7 84.6,1.8 c32.5,12.4 49.7,38.2 57.6,70.8 c4.2,17.5 5,35.4 5.2,53.8 c-14.5,0 -28.7,0 -43.1,0 c-1.1,-10.3 -2,-20.7 -3.5,-31 c-2.1,-14.2 -5.4,-28.1 -13.6,-40.3 c-8.4,-12.4 -20.7,-18.7 -35.1,-20.2 c-8.1,-0.8 -16.6,-0.5 -24.6,0.7000000000000001 c-17.8,2.6 -29.5,13.5 -36.5,29.7 c-5.6,12.8 -8.5,26.3 -9.5,40 c-4.4,61.7 -1.2,123.5 -2,185.3 c-0.30000000000000004,20.8 -0.6000000000000001,41.7 0.1,62.5 c0.8,22.4 2.4,44.7 10.8,66 c7.5,19 25.4,31.8 45.7,32.2 c11.4,0.2 22.6,-0.30000000000000004 33.2,-5 c17,-7.5 25.7,-21.6 30.5,-38.5 c5.1,-17.5 7,-35.4 7.1,-53.6 C2104.279166686535,362.3 2104.279166686535,360.8 2104.279166686535,358.9 z" id="svg_7" fill="none" opacity="1"/>
	<path class="st1" d="M2841.279166686535,358.9 c15.1,0 29.4,0 43.6,0 c0.30000000000000004,0.4 0.7000000000000001,0.7000000000000001 0.7000000000000001,0.9 c0.1,26.2 -1.5,52.3 -11.2,76.9 c-13.9,35.2 -39.2,56.9 -77.3,62.6 c-24.4,3.7 -48.4,2.7 -71.3,-7.2 c-28.1,-12.1 -44.7,-34.2 -52.3,-63.3 c-4.4,-16.9 -6.9,-34.1 -7,-51.6 c-0.4,-80.1 -1,-160.2 -0.7000000000000001,-240.4 c0.1,-21.5 2.7,-43 8.7,-63.9 c10.9,-38 35.9,-60.4 74.6,-67.2 c25,-4.4 49.6,-3.3 73.3,6.8 c19.7,8.4 33.6,22.8 43.8,41.2 c8.7,15.7 12.3,32.8 13.7,50.5 c0.8,10.4 1.6,20.8 2.4,31.5 c-14.9,0 -28.9,0 -43.8,0 c-0.7000000000000001,-7.2 -1.3,-14.6 -2.1,-21.9 c-1.6,-14.4 -4.3,-28.6 -10.4,-41.8 c-6.1,-13.1 -16.1,-21.8 -30,-25.8 c-12.9,-3.6 -25.8,-4.1 -38.8,-0.5 c-18.7,5.2 -29,18.6 -34.8,36.1 c-4.8,14.4 -7.4,29.3 -7.5,44.5 c-0.5,80.9 -1.1,161.9 -0.8,242.8 c0.1,21.3 2.6,42.8 12.1,62.6 c9,19 24.5,28.1 45.3,29 c11.3,0.5 22.2,-0.6000000000000001 32.7,-5.2 c17.1,-7.7 25.4,-22.2 30.3,-39.3 c4.8,-17 6.3,-34.5 7,-52.1 C2841.279166686535,362.6 2841.279166686535,361 2841.279166686535,358.9 z" id="svg_8" fill="none" opacity="1"/>
	<path class="st1" d="M1343.4791666865349,49.2 c0,-13.7 0,-26.8 0,-40.2 c72,0 143.7,0 215.8,0 c0,13.2 0,26.4 0,40.2 c-1.8,0 -3.6,0 -5.4,0 c-24,0 -48,0.2 -72,-0.1 c-5.1,-0.1 -6.4,1.4 -6.4,6.4 c0.1,144 0.1,287.9 0.1,431.9 c0,2.3 0,4.6 0,7.4 c-16.1,0 -32,0 -48.4,0 c0,-2 0,-3.9 0,-5.9 c0,-143.6 0,-287.2 0,-430.9 c0,-9.9 1.2,-8.8 -8.8,-8.8 C1393.679166686535,49.2 1368.879166686535,49.2 1343.4791666865349,49.2 z" id="svg_9" fill="none" opacity="1"/>
	<path class="st1" d="M2213.479166686535,49.3 c0,-13.7 0,-26.8 0,-40.2 c72,0 143.7,0 215.8,0 c0,13.2 0,26.4 0,40.2 c-1.8,0 -3.6,0 -5.4,0 c-24,0 -48,0.1 -72,-0.1 c-5.1,-0.1 -6.4,1.4 -6.4,6.5 c0.1,144.3 0.1,288.6 0.1,432.9 c0,2 0,4 0,6.4 c-16.1,0 -32,0 -48.4,0 c0,-2 0,-3.9 0,-5.9 c0,-144.5 0,-288.9 0.1,-433.4 c0,-5.1 -1.3,-6.5 -6.4,-6.4 c-23.7,0.30000000000000004 -47.3,0.1 -71,0.1 C2217.979166686535,49.3 2215.979166686535,49.3 2213.479166686535,49.3 z" id="svg_10" fill="none" opacity="1"/>
	<path class="st1" d="M3485.1791666865347,454 c0,13.9 0,27.2 0,40.8 c-65.9,0 -131.6,0 -197.6,0 c0,-161.8 0,-323.5 0,-485.7 c15.8,0 31.7,0 48.2,0 c0,2.3 0,4.6 0,6.9 c0,143 0,285.9 0,428.9 c0,10.7 -1,9.1 9,9.1 c44.7,0.1 89.3,0 134,0 C3480.579166686535,454 3482.579166686535,454 3485.1791666865347,454 z" id="svg_11" fill="none" opacity="1"/>
	<path class="st1" d="M2555.379166686535,495 c-16,0 -31.8,0 -47.9,0 c0,-161.9 0,-323.7 0,-485.9 c15.8,0 31.7,0 47.9,0 C2555.379166686535,170.9 2555.379166686535,332.7 2555.379166686535,495 z" id="svg_12" fill="none" opacity="1"/>
	<path class="st2" d="M629.0791666865349,18.4 c0,54.8 0,109.4 0,164.2 c-41.1,0 -82,0 -123.1,0 c0,-54.8 0,-109.4 0,-164.2 C546.9791666865349,18.4 587.8791666865349,18.4 629.0791666865349,18.4 z" id="svg_13" fill="none" opacity="1"/>
	<path class="st1" d="M1980.679166686535,942.9 c-8.6,0 -16.6,0 -25,0 c0,-63.6 0,-127.1 0,-190.9 c6.1,0 12.2,0 18.5,0 c0.7000000000000001,4.9 1.4,9.9 2.1,14.8 c0.4,0.30000000000000004 0.8,0.5 1.2,0.8 c9.1,-14.1 22,-20 38.2,-19.4 c15.7,0.6000000000000001 28.8,6 35.4,19.5 c4.3,-3.6 8.4,-7.3 12.6,-10.6 c22,-17.2 61.9,-10.6 67.8,26.4 c1.9,12.1 2.6,24.4 2.7,36.7 c0.30000000000000004,39.3 0.1,78.6 0.1,118 c0,1.5 -0.2,2.9 -0.30000000000000004,4.7 c-8.2,0 -16.1,0 -24.9,0 c0,-1.8 0,-3.7 0,-5.7 c0,-39.3 0.30000000000000004,-78.7 -0.2,-118 c-0.1,-11 -1.7000000000000002,-22.2 -4.1,-33 c-2.3,-10.6 -9.3,-15.7 -18.4,-16 c-11.2,-0.4 -19.8,4.2 -22.9,14.6 c-3,10.1 -5.5,20.7 -5.7,31.1 c-0.7000000000000001,40 -0.30000000000000004,80 -0.30000000000000004,120 c0,2.1 0,4.3 0,6.8 c-8.5,0 -16.7,0 -25.4,0 c0,-1.9 0,-3.7 0,-5.5 c0,-41.3 0.30000000000000004,-82.7 -0.2,-124 c-0.1,-10.3 -2.5,-20.7 -5.1,-30.7 c-2.1,-8 -8.8,-11.7 -17,-12.4 c-9.6,-0.7000000000000001 -17.7,2.9 -21.3,11.6 c-3.5,8.6 -6.4,18.1 -6.6,27.3 c-1,41.4 -0.9,82.9 -1.2,124.4 C1980.679166686535,936.5 1980.679166686535,939.4 1980.679166686535,942.9 z" id="svg_14" fill="none" opacity="1"/>
	<path class="st1" d="M1599.679166686535,943 c-8.7,0 -16.6,0 -25.4,0 c0,-2.1 0,-4 0,-5.9 c0,-43 0.1,-86 -0.30000000000000004,-129 c-0.1,-7.8 -1.9,-15.8 -3.9,-23.4 c-2.1,-8.3 -8.2,-13.3 -16.8,-14.3 c-9.1,-1.1 -16.8,1.8 -21.9,9.9 c-5.9,9.5 -7.5,20.3 -7.7,31.1 c-0.6000000000000001,42.3 -0.8,84.6 -1.1,126.9 c0,1.5 0,2.9 0,4.7 c-8.4,0 -16.3,0 -25,0 c0,-2 0,-3.9 0,-5.9 c0,-37 0.1,-74 -0.1,-111 c-0.1,-12.9 0.30000000000000004,-25.9 -3.3,-38.6 c-2.9,-10.1 -8.9,-16.4 -17.1,-17.2 c-11.2,-1.1 -19.4,3.1 -24.2,12.9 c-4.7,9.7 -6.2,20.4 -6.3,31 c-0.30000000000000004,40.8 -0.2,81.6 -0.2,122.5 c0,2 0,3.9 0,6.2 c-8.6,0 -16.7,0 -25.1,0 c0,-63.5 0,-126.9 0,-191 c5.4,0 10.8,-0.30000000000000004 16.2,0.2 c1.1,0.1 2.4,3 2.8,4.8 c0.8,3.1 1,6.4 2.1,10.2 c9.4,-13.9 22.5,-19.2 38.3,-18.8 c15.9,0.4 28.8,6 36.2,20.4 c4.9,-4.5 9.1,-9.3 14.1,-12.9 c19.3,-13.9 58.2,-10.7 65.3,25.8 c1.7000000000000002,8.9 2.8,18.1 2.9,27.1 c0.30000000000000004,43.1 0.1,86.3 0.1,129.5 C1599.679166686535,939.5 1599.679166686535,941 1599.679166686535,943 z" id="svg_15" fill="none" opacity="1"/>
	<path class="st1" d="M1628.5791666865348,751.8 c5.7,0 11.2,-0.2 16.6,0.1 c1.2,0.1 2.9,1.8 3.4,3.2 c1.1,3.2 1.6,6.7 2.7,11.4 c2.7,-2.8 4.5,-4.7 6.4,-6.6 c9.8,-9.3 21.6,-12.1 34.9,-11.3 c11.7,0.8 21.9,4.5 29.3,13.7 c7,8.7 10.3,19.3 11.8,30.3 c4,29.8 1.9,59.8 1.7000000000000002,89.8 c-0.1,14.4 -2.5,28.7 -9.3,41.9 c-7.2,14.1 -18.9,21 -34.3,21.9 c-12.3,0.7000000000000001 -23.8,-1.5 -33.6,-9.7 c-0.8,-0.6000000000000001 -1.7000000000000002,-1.1 -2.5,-1.6 c-0.30000000000000004,-0.1 -0.6000000000000001,-0.1 -1.6,-0.2 c0,31.3 0,62.5 0,94.1 c-8.8,0 -17,0 -25.5,0 C1628.5791666865348,936.7 1628.5791666865348,844.6 1628.5791666865348,751.8 zM1710.2791666865348,846.1 C1710.2791666865348,846.1 1710.2791666865348,846.1 1710.2791666865348,846.1 c0,-11.5 0.5,-23 -0.2,-34.5 c-0.5,-8 -1.9,-16.2 -4.2,-23.9 c-3.2,-10.8 -11.5,-17 -20.7,-17.5 c-12,-0.7000000000000001 -19.5,5.5 -24.3,15.6 c-5,10.5 -6.8,22 -6.9,33.4 c-0.30000000000000004,21.8 0.2,43.6 0.9,65.3 c0.30000000000000004,9.5 2.9,18.6 7.6,27.1 c4.6,8.4 11.8,13 21,12.9 c9.2,-0.1 16.3,-4.9 20.5,-13.5 c4.6,-9.5 5.9,-19.7 6.3,-30 C1710.5791666865348,869.4 1710.2791666865348,857.7 1710.2791666865348,846.1 z" id="svg_16" fill="none" opacity="1"/>
	<path class="st1" d="M3067.779166686535,670.3 c2.7,0 5.2,0 7.6,0 c17.7,0.2 35.3,-0.1 52.9,0.6000000000000001 c24.7,1 41.2,9.4 50.4,34.2 c11.9,31.9 11.5,64.5 -0.4,96.5 c-7.2,19.5 -22.8,29 -42.6,31.4 c-11.8,1.4 -23.9,1.1 -35.8,1.1 c-4.9,0 -6.3,1.8 -6.3,6.5 c0.2,31.8 0.1,63.6 0.1,95.5 c0,2.1 0,4.3 0,6.7 c-8.7,0 -17.1,0 -26,0 C3067.779166686535,852.2 3067.779166686535,761.7 3067.779166686535,670.3 zM3093.579166686535,752 c0,18.6 0.1,37.3 -0.1,55.9 c0,3.7 1,5 4.8,4.9 c7.6,-0.2 15.3,0.30000000000000004 23,-0.1 c15,-0.8 26.6,-5.4 33.1,-23.1 c2.7,-7.3 4,-15.4 5,-23.2 c2.1,-16.3 1.4,-32.5 -3.7,-48.2 c-4.6,-14.2 -13.6,-23.6 -29,-25.1 c-9.4,-0.9 -18.9,-0.5 -28.3,-1 c-3.7,-0.2 -4.9,1.2 -4.8,4.9 C3093.6791666865347,715.4 3093.579166686535,733.7 3093.579166686535,752 z" id="svg_17" fill="none" opacity="1"/>
	<path class="st1" d="M3291.279166686535,808.9 c-7.5,0 -14.9,0 -22.3,0 c-1.4,-25.2 3.3,-50.7 32.1,-58.2 c17.9,-4.7 35.7,-4.1 51.1,8.1 c8.5,6.7 12.3,16.5 14.3,26.7 c1.8,9.1 3.1,18.4 3.1,27.6 c0.30000000000000004,41.6 0.2,83.3 0.2,124.9 c0,1.5 0,3 0,4.8 c-6.4,0 -12.5,0 -19.2,0 c-0.7000000000000001,-2.8 -1.5,-5.9 -2.4,-9.4 c-1.3,0.6000000000000001 -2.3,0.8 -2.9,1.4 c-6.6,7.5 -15.3,10.9 -24.8,11.1 c-9.7,0.2 -19.7,-0.30000000000000004 -29.2,-2.2 c-14.2,-2.8 -22.7,-12.5 -26,-26.5 c-4.5,-19.2 -4.6,-38.5 1,-57.6 c4.3,-14.8 14.9,-23.5 29.5,-25.6 c14.1,-2 28.5,-1.8 42.7,-2.2 c4.4,-0.1 6.3,-1 5.9,-5.8 c-0.9,-11.9 -0.7000000000000001,-23.9 -2.3,-35.7 c-3,-21.9 -24.3,-24.8 -37.4,-17.8 c-8.7,4.7 -10.5,13.2 -11.9,21.8 C3291.979166686535,799.1 3291.779166686535,803.9 3291.279166686535,808.9 zM3344.779166686535,877.3 c-0.2,0 -0.30000000000000004,0 -0.5,0 c0,-7 -0.1,-14 0,-21 c0.1,-2.9 -0.7000000000000001,-4.3 -3.9,-4.2 c-8.3,0.2 -16.7,-0.2 -25,0.2 c-11.2,0.7000000000000001 -20.7,5.1 -24.5,16.4 c-4.9,14.3 -5.1,29 0.2,43.4 c2.5,6.6 7.8,10 14.2,11.4 c5,1 10.2,1.3 15.3,1.2 c13.4,-0.4 21,-7.3 22.5,-20.6 C3344.1791666865347,895.2 3344.279166686535,886.2 3344.779166686535,877.3 z" id="svg_18" fill="none" opacity="1"/>
	<path class="st1" d="M2594.6791666865347,943 c-6.6,0 -12.6,0 -19.1,0 c-0.8,-3 -1.5,-6.1 -2.4,-9.4 c-1.1,0.4 -2.1,0.4 -2.5,0.9 c-6.3,7.1 -14.3,10.6 -23.6,11.4 c-13.2,1.2 -26.3,0.9 -38.6,-4.7 c-9.9,-4.6 -15.5,-13 -18,-23.2 c-4.8,-18.9 -4.8,-37.9 0.4,-56.6 c5.1,-18.5 17.6,-26.3 36.3,-28.3 c10.7,-1.1 21.6,-0.9 32.4,-1.1 c9.9,-0.2 10.2,0 9.8,-10.2 c-0.4,-10.6 -0.4,-21.3 -2.2,-31.7 c-3.4,-19.1 -23.5,-27.1 -39.4,-16 c-7.3,5.1 -8.9,13.3 -10,21.4 c-0.6000000000000001,4.4 -0.9,8.8 -1.4,13.5 c-7.4,0 -14.9,0 -23.5,0 c1,-8.6 1.6,-17.1 3,-25.5 c3.5,-21.8 21.7,-33.5 41.5,-34.7 c9.4,-0.6000000000000001 18.6,-0.1 27.5,2.9 c14.4,4.9 22.5,15.8 25.7,30 c2.4,10.6 4,21.6 4.1,32.4 c0.5,41 0.2,82 0.2,123 C2594.6791666865347,938.8 2594.6791666865347,940.6 2594.6791666865347,943 zM2569.879166686535,877.7 c-0.2,0 -0.30000000000000004,0 -0.5,0 c0,-7.2 -0.1,-14.3 0,-21.5 c0.1,-3 -0.9,-4.2 -4,-4.1 c-8.2,0.2 -16.3,-0.1 -24.5,0.2 c-13.8,0.4 -22.9,7.5 -26.4,20.8 c-3.2,12.1 -3,24.4 0.5,36.4 c2.2,7.7 7.6,12.5 15.4,13.9 c5.2,0.9 10.6,1.5 15.8,1.2 c12.9,-0.6000000000000001 20.1,-7.1 21.8,-20.2 C2569.279166686535,895.6 2569.279166686535,886.6 2569.879166686535,877.7 z" id="svg_19" fill="none" opacity="1"/>
	<path class="st1" d="M1931.679166686535,851.2 c-18.7,0 -36.7,0 -54.6,0 c-7.7,0 -15.3,0 -23,0 c-2.3,0 -4.4,0.1 -4.4,3.3 c0.1,16.4 -0.6000000000000001,32.9 2.9,49.1 c4.5,21.3 22.5,25 39,18.8 c8.5,-3.2 11.8,-10.9 13.6,-19.1 c1.3,-6.1 1.7000000000000002,-12.5 2.6,-19.1 c7.2,0 14.8,0 22.8,0 c0.5,10.1 -0.9,20 -3.3,29.8 c-5.7,22.9 -24,30.6 -42.9,32.1 c-10,0.8 -19.9,0.1 -29.4,-3.8 c-15.4,-6.2 -23.1,-18.8 -26.2,-34.1 c-2.4,-11.5 -3.7,-23.3 -4.1,-35 c-0.7000000000000001,-17.1 -0.6000000000000001,-34.3 0,-51.5 c0.5,-15.7 1.4,-31.5 7.5,-46.4 c6.7,-16.7 19.6,-24.8 36.7,-26.4 c8.6,-0.8 17.6,-0.30000000000000004 26.2,1.3 c17.3,3.3 27.7,15 31.6,31.6 c2.9,12.5 4.1,25.5 5.1,38.3 C1932.379166686535,830.2 1931.679166686535,840.4 1931.679166686535,851.2 zM1877.9791666865349,830.9 c8.2,0 16.3,-0.2 24.5,0.1 c3.7,0.1 5.1,-1.1 4.9,-4.8 c-0.8,-10.7 -1,-21.5 -2.1,-32.2 c-1.5,-14.1 -8.5,-21.8 -22.3,-24.2 c-12,-2.2 -25.2,2.9 -29.2,16.5 c-4,13.6 -4,27.5 -4,41.4 c0,3.1 1.9,3.3 4.3,3.3 C1861.9791666865349,830.8 1869.9791666865349,830.9 1877.9791666865349,830.9 z" id="svg_20" fill="none" opacity="1"/>
	<path class="st1" d="M2242.6791666865347,884 c7.4,0 14.9,0 22.9,0 c0.4,10.3 -0.9,20.4 -3.5,30.3 c-5,18.9 -18.2,28.5 -36.8,30.7 c-8.9,1 -18.3,1.1 -27.2,-0.4 c-20.2,-3.5 -30.7,-17.7 -34.5,-36.8 c-2.4,-12.3 -3.5,-25 -4,-37.5 c-0.7000000000000001,-16.6 -0.6000000000000001,-33.3 0,-50 c0.5,-15.2 1.6,-30.5 7.4,-45 c6.7,-16.7 19.6,-24.7 36.7,-26.5 c11.1,-1.2 22.2,-0.8 32.9,3.3 c11.8,4.6 20,12.9 23.3,24.9 c3.2,11.8 5.6,23.9 6.7,36 c1.1,12.4 0.2,24.9 0.2,38.1 c-2,0 -3.7,0 -5.5,0 c-23.7,0 -47.3,0.1 -71,-0.1 c-4.1,0 -5.7,1 -5.4,5.3 c0.8,14.6 0.8,29.2 2.3,43.7 c1.1,10.6 5.4,20.7 17,23.5 c18.2,4.4 32.3,-1 36.3,-21.2 C2241.379166686535,896.5 2241.879166686535,890.3 2242.6791666865347,884 zM2213.279166686535,830.9 c8.2,0 16.3,-0.1 24.5,0.1 c3.1,0.1 4.7,-0.8 4.5,-4.2 c-0.7000000000000001,-11.2 -0.8,-22.5 -2.2,-33.7 c-1.7000000000000002,-13.8 -8.5,-20.7 -22.1,-23.3 c-12,-2.3 -25.6,3.2 -29.4,16.8 c-3.7,13.5 -3.8,27.2 -3.8,40.9 c0,3 1.6,3.5 4.2,3.5 C2196.979166686535,830.8 2205.1791666865347,830.9 2213.279166686535,830.9 z" id="svg_21" fill="none" opacity="1"/>
	<path class="st1" d="M2753.279166686535,846.5 c0,-12.7 -0.5,-25.4 0.1,-38 c0.6000000000000001,-13.3 2.7,-26.4 9.2,-38.4 c5.8,-10.7 14.8,-16.7 26.3,-19.6 c11.8,-2.9 23.7,-3.2 35.5,-0.30000000000000004 c19.8,4.9 30.8,18.4 34.1,37.9 c1.9,11.4 2.7,23.1 3,34.6 c0.5,19 0.5,38 0,57 c-0.4,14.1 -1.9,28.1 -7.8,41.3 c-5.8,12.9 -15.7,20.2 -29.2,23.3 c-11.1,2.6 -22.1,2.6 -33.1,0.30000000000000004 c-17.3,-3.5 -28.6,-14 -33,-30.9 c-2.6,-10 -4.2,-20.5 -4.9,-30.8 C2752.579166686535,870.9 2753.279166686535,858.7 2753.279166686535,846.5 C2753.279166686535,846.5 2753.279166686535,846.5 2753.279166686535,846.5 zM2778.6791666865347,847.4 C2778.6791666865347,847.4 2778.6791666865347,847.4 2778.6791666865347,847.4 c0,12.3 -0.5,24.7 0.1,37 c0.4,7.9 1.4,15.9 3.5,23.5 c4.6,16.3 27,23.4 40.5,13 c3.4,-2.6 7,-6.4 8.1,-10.4 c2.5,-8.7 4.8,-17.7 5,-26.7 c0.7000000000000001,-24.5 0.6000000000000001,-49 0,-73.4 c-0.2,-8.2 -1.8,-16.5 -4.1,-24.4 c-3.3,-11.1 -12.9,-16.9 -25.5,-16.7 c-11.9,0.1 -20.8,6.2 -24,17.3 c-2,6.9 -3.3,14.2 -3.6,21.4 C2778.279166686535,821.1 2778.6791666865347,834.3 2778.6791666865347,847.4 z" id="svg_22" fill="none" opacity="1"/>
	<path class="st1" d="M3425.6791666865347,942.9 c-8.6,0 -16.6,0 -25,0 c0,-63.7 0,-127.2 0,-190.9 c6.2,0 12.3,0 18.6,0 c0.7000000000000001,5 1.3,9.8 2,14.7 c0.8,0.7000000000000001 1.7000000000000002,1.3 2.5,2 c0.5,-1.5 0.6000000000000001,-3.2 1.4,-4.4 c9.2,-12.7 22.3,-16.6 37.2,-15.9 c10.3,0.4 20.1,2.7 27.9,10.1 c8.9,8.5 13.5,19.2 14.1,31 c1.3,25.2 1.7000000000000002,50.5 2.1,75.8 c0.30000000000000004,24 0.1,48 0.1,72 c0,1.8 0,3.6 0,5.6 c-8.6,0 -16.7,0 -25.4,0 c0,-1.9 0,-3.6 0,-5.4 c0,-40.8 0.2,-81.6 -0.1,-122.4 c-0.1,-8.5 -1.4,-17.2 -3.1,-25.6 c-2.4,-11.7 -10,-18.5 -20.1,-19.1 c-13.1,-0.8 -22.6,4.7 -26.4,16.7 c-2.5,8 -4.6,16.5 -4.7,24.8 c-0.8,41.8 -0.9,83.6 -1.2,125.4 C3425.6791666865347,938.8 3425.6791666865347,940.7 3425.6791666865347,942.9 z" id="svg_23" fill="none" opacity="1"/>
	<path class="st1" d="M2905.379166686535,752 c0.7000000000000001,5.1 1.3,9.8 2.1,15.7 c1.6,-1.5 2.6,-2.3 3.3,-3.2 c9.9,-13 23.4,-17.1 39.2,-16.1 c10.3,0.7000000000000001 19.7,3.3 27.2,10.7 c8.5,8.5 12.5,19.2 13.6,30.9 c4.1,44.7 1.1,89.5 2,134.3 c0.1,6 0,12 0,18.4 c-8.5,0 -16.7,0 -25.4,0 c0,-1.7000000000000002 0,-3.4 0,-5 c0,-39.8 0.2,-79.7 -0.1,-119.5 c-0.1,-9.6 -1.2,-19.3 -3.2,-28.6 c-2.7,-12.7 -9.9,-18.9 -20.3,-19.4 c-13.2,-0.7000000000000001 -22.4,4.9 -26.6,17.3 c-2.2,6.7 -3.9,13.9 -4.2,20.9 c-0.8,20.3 -1,40.6 -1.1,60.9 c-0.2,24 -0.1,48 -0.1,72 c0,0.30000000000000004 -0.1,0.7000000000000001 -0.2,1.4 c-8.1,0 -16.3,0 -24.8,0 c0,-63.6 0,-127 0,-190.7 C2892.879166686535,752 2898.879166686535,752 2905.379166686535,752 z" id="svg_24" fill="none" opacity="1"/>
	<path class="st1" d="M2293.379166686535,942.7 c0,-63.7 0,-127 0,-190.9 c5.5,0 10.8,-0.30000000000000004 16,0.2 c1.2,0.1 2.7,2.8 3.1,4.5 c0.8,3.1 0.9,6.5 1.5,11.4 c3.2,-3.4 5.4,-5.7 7.6,-8 c7.9,-8.6 18,-11.5 29.2,-11.7 c14.6,-0.30000000000000004 27.8,3.2 37,15.7 c6.4,8.7 9.6,18.8 9.8,29.4 c0.7000000000000001,44.8 0.8,89.6 1.1,134.4 c0,5 0,9.9 0,15.1 c-8.6,0 -16.6,0 -25.4,0 c0,-2.2 0,-4.1 0,-6.1 c0,-43.2 0.2,-86.3 -0.30000000000000004,-129.5 c-0.1,-8 -2.4,-16 -4.6,-23.8 c-2.4,-8.2 -9,-12.3 -17.2,-13.2 c-9.4,-1 -17.8,1.3 -23.7,9.6 c-5.3,7.6 -7.4,16.5 -7.8,25.4 c-0.8,23.1 -1,46.3 -1.2,69.4 c-0.2,22.5 0,45 0,67.9 C2310.1791666865347,942.7 2301.979166686535,942.7 2293.379166686535,942.7 z" id="svg_25" fill="none" opacity="1"/>
	<path class="st1" d="M2431.579166686535,690 c8.1,0 15.8,0 24.2,0 c0,2 0,3.7 0,5.5 c0,16.8 0.2,33.7 -0.1,50.5 c-0.1,4.8 1.5,6.1 6,5.8 c6.1,-0.30000000000000004 12.3,-0.1 18.8,-0.1 c0,7.1 0,13.8 0,21.2 c-6.6,0 -13.2,0.2 -19.8,-0.1 c-3.7,-0.1 -4.9,1 -4.9,4.8 c0.1,40.3 -0.1,80.7 0.2,121 c0.1,8.6 1.3,17.9 11.4,21.3 c4.3,1.5 9.1,1.4 14,2.1 c0,6.6 0,13.5 0,21 c-12.2,-0.30000000000000004 -24.2,0 -35.3,-5.3 c-9.1,-4.4 -12.2,-12.9 -13.6,-22 c-1.3,-8.5 -2,-17.2 -2.1,-25.7 c-0.2,-37 -0.2,-74 0,-111 c0,-4.6 -1,-6.8 -6,-6.2 c-3.1,0.4 -6.3,0.1 -9.8,0.1 c0,-7.1 0,-13.8 0,-21.2 c3.3,0 6.6,-0.30000000000000004 9.8,0.1 c4.5,0.4 6,-1 6,-5.8 c0,-17.6 0.5,-35.3 0.9,-52.9 C2431.279166686535,692.1 2431.479166686535,691.2 2431.579166686535,690 z" id="svg_26" fill="none" opacity="1"/>
	<path class="st1" d="M1360.5791666865348,670 c9.1,0 17.8,0 26.9,0 c0,91 0,181.7 0,272.9 c-8.8,0 -17.7,0 -26.9,0 C1360.5791666865348,852 1360.5791666865348,761.3 1360.5791666865348,670 z" id="svg_27" fill="none" opacity="1"/>
	<path class="st1" d="M2613.479166686535,772.5 c0,-6.8 0,-13.4 0,-20.7 c3.8,0 7.6,-0.2 11.3,0.1 c4,0.30000000000000004 5.6,-1 5.5,-5.3 c-0.2,-11.7 -0.1,-23.3 0.1,-35 c0.1,-7.1 0.7000000000000001,-14.2 1.1,-21.5 c7.7,0 15.1,0 23.2,0 c0,1.8 0,3.6 0,5.4 c0,16.8 0.1,33.6 -0.1,50.5 c-0.1,4.7 1.5,6.2 6,6 c6.4,-0.30000000000000004 12.9,-0.1 19.7,-0.1 c0,7.1 0,13.8 0,21.2 c-7,0 -13.8,0.2 -20.5,-0.1 c-4,-0.2 -5.2,1.3 -5.1,5.2 c0.1,37.8 0,75.6 0.1,113.4 c0,5.3 1,10.5 1.8,15.8 c1.9,11.9 10.3,13.5 19,14.3 c1.5,0.1 2.9,0 5.1,0 c0,3.6 0,7 0,10.5 c0,3.5 0,6.9 0,11 c-13.1,-0.30000000000000004 -25.9,0.1 -37.5,-6.6 c-6.9,-3.9 -9.2,-10.9 -10.7,-17.9 c-1.5,-7.1 -2.2,-14.5 -2.2,-21.7 c-0.2,-39.1 -0.1,-78.3 -0.1,-117.4 c0,-6.5 0,-6.5 -6.7,-6.5 c-2.8,0 -5.7,0 -8.5,-0.1 C2614.779166686535,772.9 2614.479166686535,772.7 2613.479166686535,772.5 z" id="svg_28" fill="none" opacity="1"/>
	<path class="st1" d="M1814.379166686535,921.8 c0.1,1.2 0.30000000000000004,2.2 0.30000000000000004,3.2 c0,5.8 0,11.6 0,18.1 c-13.7,-0.5 -27.1,-0.30000000000000004 -39,-7.9 c-7.5,-4.8 -10.1,-12.8 -11.2,-20.9 c-1.5,-11.2 -2.7,-22.5 -2.8,-33.7 c-0.2,-68.3 -0.1,-136.6 -0.1,-204.9 c0,-1.6 0,-3.2 0,-5.2 c8.6,0 16.7,0 25.2,0 c0,2.1 0,3.9 0,5.7 c0,70.6 0,141.2 0.1,211.9 c0,5.6 0.8,11.3 1.8,16.8 c2.1,10.9 6.7,14.8 17.8,16 C1809.0791666865348,921.3 1811.679166686535,921.5 1814.379166686535,921.8 z" id="svg_29" fill="none" opacity="1"/>
	<path class="st1" d="M3261.479166686535,921.7 c0,7.3 0,14 0,21.4 c-12.9,-0.6000000000000001 -25.7,-0.5 -37.2,-7.1 c-9.3,-5.3 -12.1,-14.8 -12.8,-24.2 c-1.5,-18.5 -2.1,-37.2 -2.2,-55.7 c-0.2,-60 -0.1,-119.9 -0.1,-179.9 c0,-1.8 0,-3.6 0,-5.7 c8.6,0 16.7,0 25.4,0 c0,2.2 0,4.1 0,6 c0,73 0,145.9 0.1,218.9 c0,3.6 0.6000000000000001,7.3 1.4,10.8 c2.4,9.9 7,13.6 17.5,14.7 C3256.1791666865347,921.2 3258.579166686535,921.4 3261.479166686535,921.7 z" id="svg_30" fill="none" opacity="1"/>
	<path class="st1" d="M2723.279166686535,942.9 c-8.3,0 -16.2,0 -24.6,0 c0,-63.5 0,-127 0,-190.8 c8,0 16.1,0 24.6,0 C2723.279166686535,815.4 2723.279166686535,878.9 2723.279166686535,942.9 z" id="svg_31" fill="none" opacity="1"/>
	<path class="st1" d="M2723.379166686535,670 c0,12.5 0,24.5 0,36.9 c-8.3,0 -16.4,0 -24.8,0 c0,-12.2 0,-24.4 0,-36.9 C2706.779166686535,670 2714.879166686535,670 2723.379166686535,670 z" id="svg_32" fill="none" opacity="1"/>
	<path class="st3" d="M889.3791666865349,314 c0,-58.1 0.1,-116.3 -0.1,-174.4 c0,-5.2 1.5,-6.5 6.5,-6.4 c19.7,0.30000000000000004 39.3,-0.4 59,0.2 c20.3,0.6000000000000001 40.3,3.7 58.8,13.2 c17.6,9.1 28.6,23.8 36.9,41.1 c10.8,22.6 16,46.6 19.1,71.3 c3.4,26.3 3.7,52.8 2.6,79.2 c-1.4,32.2 -5.5,64.2 -17.8,94.4 c-8.4,20.6 -20.6,38.3 -40.3,49.8 c-10.5,6.1 -22.2,8.7 -34.1,10.3 c-28.7,3.8 -57.5,1.4 -86.2,2.1 c-4.4,0.1 -4.2,-2.4 -4.2,-5.4 C889.3791666865349,431 889.3791666865349,372.5 889.3791666865349,314 z" id="svg_33" fill="none" opacity="0"/>
	<path class="st4" d="M1730.679166686535,83.1 c2.5,11.6 5,23.2 7.5,34.9 c9.3,43.6 18.6,87.2 27.9,130.8 c6.6,31 12.9,62 19.7,92.9 c0.9,4.3 -0.6000000000000001,4.9 -4.1,4.9 c-23.2,-0.1 -46.3,-0.1 -69.5,-0.1 c-10.8,0 -21.7,0 -32.5,0 c-1.9,0 -3.9,-0.30000000000000004 -6.8,-0.5 c18.7,-88 37.3,-175.5 55.9,-263 C1729.2791666865348,83 1729.9791666865349,83 1730.679166686535,83.1 z" id="svg_34" fill="none" opacity="1"/>
	<path class="st4" d="M3081.779166686535,82.6 c1.2,5.2 2.3,10.4 3.4,15.6 c9.5,44.6 19,89.2 28.5,133.8 c7.8,36.5 15.5,72.9 23.3,109.4 c0.8,3.6 -0.1,5.2 -4.2,5.2 c-34.7,-0.1 -69.3,-0.1 -104,0 c-4.2,0 -4.6,-1.9 -3.8,-5.3 c13.6,-64 27.2,-128.1 40.8,-192.1 c4.5,-21.2 9.2,-42.4 13.8,-63.7 c0.2,-0.9 0.6000000000000001,-1.8 0.9,-2.7 C3080.979166686535,82.7 3081.379166686535,82.6 3081.779166686535,82.6 z" id="svg_35" fill="none" opacity="1"/>
	<path class="st4" d="M1710.2791666865348,846.1 c0,11.7 0.30000000000000004,23.3 -0.1,35 c-0.4,10.3 -1.7000000000000002,20.5 -6.3,30 c-4.2,8.6 -11.2,13.4 -20.5,13.5 c-9.2,0.1 -16.3,-4.5 -21,-12.9 c-4.7,-8.5 -7.2,-17.6 -7.6,-27.1 c-0.8,-21.8 -1.2,-43.6 -0.9,-65.3 c0.2,-11.4 1.9,-22.9 6.9,-33.4 c4.8,-10 12.4,-16.3 24.3,-15.6 c9.2,0.6000000000000001 17.5,6.7 20.7,17.5 c2.3,7.7 3.7,15.8 4.2,23.9 C1710.7791666865348,823 1710.2791666865348,834.6 1710.2791666865348,846.1 C1710.2791666865348,846.1 1710.2791666865348,846.1 1710.2791666865348,846.1 z" id="svg_36" fill="none" opacity="1"/>
	<path class="st4" d="M3093.579166686535,752 c0,-18.3 0.1,-36.6 -0.1,-54.9 c0,-3.7 1.1,-5 4.8,-4.9 c9.4,0.4 18.9,0.1 28.3,1 c15.4,1.4 24.4,10.9 29,25.1 c5.1,15.8 5.8,32 3.7,48.2 c-1,7.8 -2.3,15.8 -5,23.2 c-6.6,17.7 -18.1,22.3 -33.1,23.1 c-7.6,0.4 -15.3,-0.1 -23,0.1 c-3.8,0.1 -4.8,-1.3 -4.8,-4.9 C3093.6791666865347,789.3 3093.579166686535,770.6 3093.579166686535,752 z" id="svg_37" fill="none" opacity="1"/>
	<path class="st4" d="M3344.779166686535,877.3 c-0.5,8.9 -0.7000000000000001,17.9 -1.7000000000000002,26.8 c-1.5,13.3 -9.1,20.2 -22.5,20.6 c-5.1,0.1 -10.4,-0.1 -15.3,-1.2 c-6.4,-1.3 -11.7,-4.7 -14.2,-11.4 c-5.4,-14.4 -5.2,-29.1 -0.2,-43.4 c3.9,-11.3 13.3,-15.7 24.5,-16.4 c8.3,-0.5 16.7,-0.1 25,-0.2 c3.2,-0.1 4,1.3 3.9,4.2 c-0.1,7 0,14 0,21 C3344.479166686535,877.3 3344.6791666865347,877.3 3344.779166686535,877.3 z" id="svg_38" fill="none" opacity="1"/>
	<path class="st4" d="M2569.879166686535,877.7 c-0.5,8.9 -0.6000000000000001,17.9 -1.7000000000000002,26.8 c-1.7000000000000002,13 -8.9,19.5 -21.8,20.2 c-5.2,0.30000000000000004 -10.6,-0.30000000000000004 -15.8,-1.2 c-7.9,-1.4 -13.2,-6.3 -15.4,-13.9 c-3.5,-12 -3.6,-24.3 -0.5,-36.4 c3.5,-13.3 12.6,-20.4 26.4,-20.8 c8.1,-0.30000000000000004 16.3,0 24.5,-0.2 c3.1,-0.1 4.1,1.1 4,4.1 c-0.1,7.2 0,14.3 0,21.5 C2569.479166686535,877.7 2569.6791666865347,877.7 2569.879166686535,877.7 z" id="svg_39" fill="none" opacity="1"/>
	<path class="st4" d="M1877.9791666865349,830.9 c-8,0 -16,0 -24,0 c-2.4,0 -4.3,-0.2 -4.3,-3.3 c0,-13.9 0,-27.8 4,-41.4 c4,-13.5 17.2,-18.6 29.2,-16.5 c13.8,2.5 20.8,10.1 22.3,24.2 c1.1,10.7 1.4,21.5 2.1,32.2 c0.30000000000000004,3.7 -1.2,4.9 -4.9,4.8 C1894.2791666865348,830.7 1886.0791666865348,830.9 1877.9791666865349,830.9 z" id="svg_40" fill="none" opacity="1"/>
	<path class="st4" d="M2213.279166686535,830.9 c-8.2,0 -16.3,-0.1 -24.5,0 c-2.5,0 -4.2,-0.4 -4.2,-3.5 c0,-13.8 0.1,-27.5 3.8,-40.9 c3.8,-13.6 17.5,-19.1 29.4,-16.8 c13.6,2.6 20.4,9.5 22.1,23.3 c1.4,11.1 1.5,22.5 2.2,33.7 c0.2,3.4 -1.4,4.2 -4.5,4.2 C2229.579166686535,830.8 2221.479166686535,830.9 2213.279166686535,830.9 z" id="svg_41" fill="none" opacity="1"/>
	<path class="st4" d="M2778.6791666865347,847.4 c0,-13.2 -0.4,-26.3 0.2,-39.5 c0.30000000000000004,-7.2 1.7000000000000002,-14.5 3.6,-21.4 c3.1,-11.1 12.1,-17.1 24,-17.3 c12.6,-0.1 22.2,5.6 25.5,16.7 c2.3,7.9 3.9,16.2 4.1,24.4 c0.5,24.5 0.6000000000000001,49 0,73.4 c-0.2,9 -2.5,18 -5,26.7 c-1.2,3.9 -4.7,7.7 -8.1,10.4 c-13.5,10.4 -35.9,3.3 -40.5,-13 c-2.1,-7.6 -3.1,-15.6 -3.5,-23.5 C2778.279166686535,872.1 2778.6791666865347,859.8 2778.6791666865347,847.4 C2778.6791666865347,847.4 2778.6791666865347,847.4 2778.6791666865347,847.4 z" id="svg_42" fill="none" opacity="1"/>
</g></svg>