<?xml version="1.0" encoding="utf-8"?>
<!-- Generator: Adobe Illustrator 26.0.0, SVG Export Plug-In . SVG Version: 6.00 Build 0)  -->
<svg version="1.1" id="Réteg_1" xmlns="http://www.w3.org/2000/svg" xmlns:xlink="http://www.w3.org/1999/xlink" x="0px" y="0px"
	 viewBox="0 0 3510 1032" style="enable-background:new 0 0 3510 1032;" xml:space="preserve">
<style type="text/css">
	.st0{fill:#2F2F2F;}
	.st1{fill:#575E60;}
	.st2{fill:#B9D45F;}
	.st3{fill:#FDFDFD;}
	.st4{fill:none;}
</style>
<g>
	<path class="st0" d="M892.2,968.9c-43,0-85.5,0-128.2,0c0-316.3,0-632.3,0-949.1c1.5,0,3.1,0,4.7,0c62.8,0,125.7-0.5,188.5,0.2
		c35.1,0.4,70,3.3,103.6,14.7c20.6,6.9,39.2,17.1,55.7,31.3c24.9,21.4,41.9,48.2,55.1,77.8c12.5,28.1,19.7,57.8,24.3,88
		c2.3,15.1,3.5,30.3,4.1,45.5c0.9,22.3,1.7,44.6,0.8,66.9c-1.5,40.4-7.1,80.3-20,118.8c-9.3,27.6-22,53.6-40.9,76
		c-12.7,15.1-27.9,27.4-45.2,37.2c-24.3,13.8-50.6,21.9-77.9,26.5c-14.3,2.4-29,3.7-43.5,4.3c-25.1,0.9-50.3,0.9-75.4,1
		c-4.7,0-5.8,1.4-5.8,5.9c0.1,115.8,0.1,231.7,0.1,347.5C892.2,963.8,892.2,966.1,892.2,968.9z M889.9,314c0,58.5,0,117,0,175.4
		c0,3-0.2,5.5,4.2,5.4c28.7-0.8,57.6,1.7,86.2-2.1c11.9-1.6,23.6-4.2,34.1-10.3c19.7-11.5,31.9-29.2,40.3-49.8
		c12.3-30.2,16.5-62.2,17.8-94.4c1.1-26.4,0.8-52.8-2.6-79.2c-3.2-24.7-8.3-48.7-19.1-71.3c-8.3-17.3-19.2-32-36.9-41.1
		c-18.5-9.5-38.5-12.6-58.8-13.2c-19.6-0.6-39.3,0-59-0.2c-5-0.1-6.5,1.2-6.5,6.4C889.9,197.7,889.9,255.8,889.9,314z"/>
	<path class="st0" d="M2.8,134.3c0-38.4,0-76.1,0-114c147.6,0,295.2,0,443,0c0,37.9,0,75.6,0,114.1c-1.9,0-3.8,0-5.7,0
		c-48.2,0-96.3,0-144.5,0c-7.3,0-7.4,0.1-7.4,7.1c0,273.9,0,547.9,0,821.8c0,1.8,0,3.6,0,5.6c-42.8,0-85.2,0-128.4,0
		c0-2.2,0-4.3,0-6.4c0-273.6,0-547.2,0-820.9c0-7.3,0-7.4-7.2-7.4c-48,0-96,0-144,0C6.8,134.3,5,134.3,2.8,134.3z"/>
	<path class="st0" d="M506,292c41.3,0,82.4,0,123.8,0c0,225.5,0,451,0,676.8c-41.1,0-82.3,0-123.8,0C506,743.2,506,517.7,506,292z"
		/>
	<path class="st1" d="M1589.1,495.2c2.5-10,4.7-19.5,7.1-29c22.1-89,44.3-178.1,66.4-267.1c15.4-62,30.7-124,45.9-186.1
		c0.8-3.3,1.9-4.4,5.2-4.3c10.8,0.2,21.7,0.2,32.5,0c3.3-0.1,4.3,1.3,5,4.1c23,93.5,46.1,186.9,69.2,280.4
		c16.3,65.9,32.7,131.7,49.1,197.5c0.3,1.3,0.5,2.5,0.9,4.2c-17.1,0-33.9,0-51.4,0c-1.7-7.6-3.4-15.4-5.1-23.3
		c-5.7-27.1-11.4-54.2-17.1-81.2c-0.7-3.5-2.7-4.3-6-4.3c-40.5,0.1-81,0.1-121.5,0c-3.7,0-4.9,1.3-5.6,4.6
		c-5.7,27.2-11.6,54.5-17.4,81.7c-1.4,6.6-2.7,13.3-4.3,19.9c-0.3,1.2-2.1,2.8-3.2,2.8C1622.5,495.3,1606.2,495.2,1589.1,495.2z
		 M1731.2,83.1c-0.7,0-1.3-0.1-2-0.1c-18.6,87.5-37.2,175-55.9,263c2.9,0.2,4.8,0.5,6.8,0.5c10.8,0,21.7,0,32.5,0
		c23.2,0,46.3,0,69.5,0.1c3.5,0,5.1-0.6,4.1-4.9c-6.7-30.9-13.1-61.9-19.7-92.9c-9.2-43.6-18.6-87.2-27.9-130.8
		C1736.2,106.3,1733.7,94.7,1731.2,83.1z"/>
	<path class="st1" d="M2992.5,495c-17.3,0-34.3,0-52,0c40.2-162.2,80.3-324.1,120.5-486.2c12.9,0,25.3-0.1,37.8,0.2
		c1.2,0,3.1,2.1,3.5,3.6c7.4,29.4,14.7,58.9,22,88.3c11.5,46.2,22.9,92.5,34.4,138.7c18.3,73.9,36.6,147.8,54.9,221.8
		c2.7,11.1,5.5,22.2,8.3,33.6c-17.3,0-34.2,0-51.6,0c-2.4-11.2-4.9-22.5-7.3-33.8c-5-23.7-10.2-47.3-15-71c-0.7-3.2-1.8-4.1-4.8-4
		c-10.5,0.1-21,0.1-31.5,0c-30.2,0-60.3,0.1-90.5-0.1c-3.9,0-5.4,1.1-6.2,5.1c-7.1,34.1-14.5,68.1-21.8,102.1
		C2993.1,493.7,2992.8,494.2,2992.5,495z M3082.3,82.6c-0.4,0-0.8,0.1-1.3,0.1c-0.3,0.9-0.7,1.7-0.9,2.7
		c-4.6,21.2-9.3,42.4-13.8,63.7c-13.6,64-27.2,128.1-40.8,192.1c-0.7,3.5-0.4,5.4,3.8,5.3c34.7-0.1,69.3-0.1,104,0
		c4,0,4.9-1.6,4.2-5.2c-7.8-36.5-15.5-72.9-23.3-109.4c-9.5-44.6-19-89.2-28.5-133.8C3084.7,93,3083.5,87.8,3082.3,82.6z"/>
	<path class="st1" d="M2104.8,358.9c15.1,0,29.4,0,44.3,0c0,6.4,0.6,12.7-0.1,18.9c-1.6,14.1-2.9,28.4-6,42.2
		c-7.1,31.4-23.7,56.4-53.4,70.6c-20.7,9.9-42.9,12-65.7,9.8c-12.9-1.2-25.3-3.8-36.9-9.3c-26.8-12.7-42.8-34.2-50.1-62.4
		c-4.8-18.4-7.1-37.1-7.2-56.1c-0.3-76.5-0.9-152.9-0.7-229.4c0.1-25.5,2.5-51,10.7-75.6c9.7-29.2,28.7-49,58.2-58.2
		c28.3-8.7,56.8-8.7,84.6,1.8c32.5,12.4,49.7,38.2,57.6,70.8c4.2,17.5,5,35.4,5.2,53.8c-14.5,0-28.7,0-43.1,0
		c-1.1-10.3-2-20.7-3.5-31c-2.1-14.2-5.4-28.1-13.6-40.3c-8.4-12.4-20.7-18.7-35.1-20.2c-8.1-0.8-16.6-0.5-24.6,0.7
		c-17.8,2.6-29.5,13.5-36.5,29.7c-5.6,12.8-8.5,26.3-9.5,40c-4.4,61.7-1.2,123.5-2,185.3c-0.3,20.8-0.6,41.7,0.1,62.5
		c0.8,22.4,2.4,44.7,10.8,66c7.5,19,25.4,31.8,45.7,32.2c11.4,0.2,22.6-0.3,33.2-5c17-7.5,25.7-21.6,30.5-38.5
		c5.1-17.5,7-35.4,7.1-53.6C2104.8,362.3,2104.8,360.8,2104.8,358.9z"/>
	<path class="st1" d="M2841.8,358.9c15.1,0,29.4,0,43.6,0c0.3,0.4,0.7,0.7,0.7,0.9c0.1,26.2-1.5,52.3-11.2,76.9
		c-13.9,35.2-39.2,56.9-77.3,62.6c-24.4,3.7-48.4,2.7-71.3-7.2c-28.1-12.1-44.7-34.2-52.3-63.3c-4.4-16.9-6.9-34.1-7-51.6
		c-0.4-80.1-1-160.2-0.7-240.4c0.1-21.5,2.7-43,8.7-63.9c10.9-38,35.9-60.4,74.6-67.2c25-4.4,49.6-3.3,73.3,6.8
		c19.7,8.4,33.6,22.8,43.8,41.2c8.7,15.7,12.3,32.8,13.7,50.5c0.8,10.4,1.6,20.8,2.4,31.5c-14.9,0-28.9,0-43.8,0
		c-0.7-7.2-1.3-14.6-2.1-21.9c-1.6-14.4-4.3-28.6-10.4-41.8c-6.1-13.1-16.1-21.8-30-25.8c-12.9-3.6-25.8-4.1-38.8-0.5
		c-18.7,5.2-29,18.6-34.8,36.1c-4.8,14.4-7.4,29.3-7.5,44.5c-0.5,80.9-1.1,161.9-0.8,242.8c0.1,21.3,2.6,42.8,12.1,62.6
		c9,19,24.5,28.1,45.3,29c11.3,0.5,22.2-0.6,32.7-5.2c17.1-7.7,25.4-22.2,30.3-39.3c4.8-17,6.3-34.5,7-52.1
		C2841.8,362.6,2841.8,361,2841.8,358.9z"/>
	<path class="st1" d="M1344,49.2c0-13.7,0-26.8,0-40.2c72,0,143.7,0,215.8,0c0,13.2,0,26.4,0,40.2c-1.8,0-3.6,0-5.4,0
		c-24,0-48,0.2-72-0.1c-5.1-0.1-6.4,1.4-6.4,6.4c0.1,144,0.1,287.9,0.1,431.9c0,2.3,0,4.6,0,7.4c-16.1,0-32,0-48.4,0
		c0-2,0-3.9,0-5.9c0-143.6,0-287.2,0-430.9c0-9.9,1.2-8.8-8.8-8.8C1394.2,49.2,1369.4,49.2,1344,49.2z"/>
	<path class="st1" d="M2214,49.3c0-13.7,0-26.8,0-40.2c72,0,143.7,0,215.8,0c0,13.2,0,26.4,0,40.2c-1.8,0-3.6,0-5.4,0
		c-24,0-48,0.1-72-0.1c-5.1-0.1-6.4,1.4-6.4,6.5c0.1,144.3,0.1,288.6,0.1,432.9c0,2,0,4,0,6.4c-16.1,0-32,0-48.4,0c0-2,0-3.9,0-5.9
		c0-144.5,0-288.9,0.1-433.4c0-5.1-1.3-6.5-6.4-6.4c-23.7,0.3-47.3,0.1-71,0.1C2218.5,49.3,2216.5,49.3,2214,49.3z"/>
	<path class="st1" d="M3485.7,454c0,13.9,0,27.2,0,40.8c-65.9,0-131.6,0-197.6,0c0-161.8,0-323.5,0-485.7c15.8,0,31.7,0,48.2,0
		c0,2.3,0,4.6,0,6.9c0,143,0,285.9,0,428.9c0,10.7-1,9.1,9,9.1c44.7,0.1,89.3,0,134,0C3481.1,454,3483.1,454,3485.7,454z"/>
	<path class="st1" d="M2555.9,495c-16,0-31.8,0-47.9,0c0-161.9,0-323.7,0-485.9c15.8,0,31.7,0,47.9,0
		C2555.9,170.9,2555.9,332.7,2555.9,495z"/>
	<path class="st2" d="M629.6,18.4c0,54.8,0,109.4,0,164.2c-41.1,0-82,0-123.1,0c0-54.8,0-109.4,0-164.2
		C547.5,18.4,588.4,18.4,629.6,18.4z"/>
	<path class="st1" d="M1981.2,942.9c-8.6,0-16.6,0-25,0c0-63.6,0-127.1,0-190.9c6.1,0,12.2,0,18.5,0c0.7,4.9,1.4,9.9,2.1,14.8
		c0.4,0.3,0.8,0.5,1.2,0.8c9.1-14.1,22-20,38.2-19.4c15.7,0.6,28.8,6,35.4,19.5c4.3-3.6,8.4-7.3,12.6-10.6
		c22-17.2,61.9-10.6,67.8,26.4c1.9,12.1,2.6,24.4,2.7,36.7c0.3,39.3,0.1,78.6,0.1,118c0,1.5-0.2,2.9-0.3,4.7c-8.2,0-16.1,0-24.9,0
		c0-1.8,0-3.7,0-5.7c0-39.3,0.3-78.7-0.2-118c-0.1-11-1.7-22.2-4.1-33c-2.3-10.6-9.3-15.7-18.4-16c-11.2-0.4-19.8,4.2-22.9,14.6
		c-3,10.1-5.5,20.7-5.7,31.1c-0.7,40-0.3,80-0.3,120c0,2.1,0,4.3,0,6.8c-8.5,0-16.7,0-25.4,0c0-1.9,0-3.7,0-5.5
		c0-41.3,0.3-82.7-0.2-124c-0.1-10.3-2.5-20.7-5.1-30.7c-2.1-8-8.8-11.7-17-12.4c-9.6-0.7-17.7,2.9-21.3,11.6
		c-3.5,8.6-6.4,18.1-6.6,27.3c-1,41.4-0.9,82.9-1.2,124.4C1981.2,936.5,1981.2,939.4,1981.2,942.9z"/>
	<path class="st1" d="M1600.2,943c-8.7,0-16.6,0-25.4,0c0-2.1,0-4,0-5.9c0-43,0.1-86-0.3-129c-0.1-7.8-1.9-15.8-3.9-23.4
		c-2.1-8.3-8.2-13.3-16.8-14.3c-9.1-1.1-16.8,1.8-21.9,9.9c-5.9,9.5-7.5,20.3-7.7,31.1c-0.6,42.3-0.8,84.6-1.1,126.9
		c0,1.5,0,2.9,0,4.7c-8.4,0-16.3,0-25,0c0-2,0-3.9,0-5.9c0-37,0.1-74-0.1-111c-0.1-12.9,0.3-25.9-3.3-38.6
		c-2.9-10.1-8.9-16.4-17.1-17.2c-11.2-1.1-19.4,3.1-24.2,12.9c-4.7,9.7-6.2,20.4-6.3,31c-0.3,40.8-0.2,81.6-0.2,122.5
		c0,2,0,3.9,0,6.2c-8.6,0-16.7,0-25.1,0c0-63.5,0-126.9,0-191c5.4,0,10.8-0.3,16.2,0.2c1.1,0.1,2.4,3,2.8,4.8
		c0.8,3.1,1,6.4,2.1,10.2c9.4-13.9,22.5-19.2,38.3-18.8c15.9,0.4,28.8,6,36.2,20.4c4.9-4.5,9.1-9.3,14.1-12.9
		c19.3-13.9,58.2-10.7,65.3,25.8c1.7,8.9,2.8,18.1,2.9,27.1c0.3,43.1,0.1,86.3,0.1,129.5C1600.2,939.5,1600.2,941,1600.2,943z"/>
	<path class="st1" d="M1629.1,751.8c5.7,0,11.2-0.2,16.6,0.1c1.2,0.1,2.9,1.8,3.4,3.2c1.1,3.2,1.6,6.7,2.7,11.4
		c2.7-2.8,4.5-4.7,6.4-6.6c9.8-9.3,21.6-12.1,34.9-11.3c11.7,0.8,21.9,4.5,29.3,13.7c7,8.7,10.3,19.3,11.8,30.3
		c4,29.8,1.9,59.8,1.7,89.8c-0.1,14.4-2.5,28.7-9.3,41.9c-7.2,14.1-18.9,21-34.3,21.9c-12.3,0.7-23.8-1.5-33.6-9.7
		c-0.8-0.6-1.7-1.1-2.5-1.6c-0.3-0.1-0.6-0.1-1.6-0.2c0,31.3,0,62.5,0,94.1c-8.8,0-17,0-25.5,0
		C1629.1,936.7,1629.1,844.6,1629.1,751.8z M1710.8,846.1C1710.8,846.1,1710.8,846.1,1710.8,846.1c0-11.5,0.5-23-0.2-34.5
		c-0.5-8-1.9-16.2-4.2-23.9c-3.2-10.8-11.5-17-20.7-17.5c-12-0.7-19.5,5.5-24.3,15.6c-5,10.5-6.8,22-6.9,33.4
		c-0.3,21.8,0.2,43.6,0.9,65.3c0.3,9.5,2.9,18.6,7.6,27.1c4.6,8.4,11.8,13,21,12.9c9.2-0.1,16.3-4.9,20.5-13.5
		c4.6-9.5,5.9-19.7,6.3-30C1711.1,869.4,1710.8,857.7,1710.8,846.1z"/>
	<path class="st1" d="M3068.3,670.3c2.7,0,5.2,0,7.6,0c17.7,0.2,35.3-0.1,52.9,0.6c24.7,1,41.2,9.4,50.4,34.2
		c11.9,31.9,11.5,64.5-0.4,96.5c-7.2,19.5-22.8,29-42.6,31.4c-11.8,1.4-23.9,1.1-35.8,1.1c-4.9,0-6.3,1.8-6.3,6.5
		c0.2,31.8,0.1,63.6,0.1,95.5c0,2.1,0,4.3,0,6.7c-8.7,0-17.1,0-26,0C3068.3,852.2,3068.3,761.7,3068.3,670.3z M3094.1,752
		c0,18.6,0.1,37.3-0.1,55.9c0,3.7,1,5,4.8,4.9c7.6-0.2,15.3,0.3,23-0.1c15-0.8,26.6-5.4,33.1-23.1c2.7-7.3,4-15.4,5-23.2
		c2.1-16.3,1.4-32.5-3.7-48.2c-4.6-14.2-13.6-23.6-29-25.1c-9.4-0.9-18.9-0.5-28.3-1c-3.7-0.2-4.9,1.2-4.8,4.9
		C3094.2,715.4,3094.1,733.7,3094.1,752z"/>
	<path class="st1" d="M3291.8,808.9c-7.5,0-14.9,0-22.3,0c-1.4-25.2,3.3-50.7,32.1-58.2c17.9-4.7,35.7-4.1,51.1,8.1
		c8.5,6.7,12.3,16.5,14.3,26.7c1.8,9.1,3.1,18.4,3.1,27.6c0.3,41.6,0.2,83.3,0.2,124.9c0,1.5,0,3,0,4.8c-6.4,0-12.5,0-19.2,0
		c-0.7-2.8-1.5-5.9-2.4-9.4c-1.3,0.6-2.3,0.8-2.9,1.4c-6.6,7.5-15.3,10.9-24.8,11.1c-9.7,0.2-19.7-0.3-29.2-2.2
		c-14.2-2.8-22.7-12.5-26-26.5c-4.5-19.2-4.6-38.5,1-57.6c4.3-14.8,14.9-23.5,29.5-25.6c14.1-2,28.5-1.8,42.7-2.2
		c4.4-0.1,6.3-1,5.9-5.8c-0.9-11.9-0.7-23.9-2.3-35.7c-3-21.9-24.3-24.8-37.4-17.8c-8.7,4.7-10.5,13.2-11.9,21.8
		C3292.5,799.1,3292.3,803.9,3291.8,808.9z M3345.3,877.3c-0.2,0-0.3,0-0.5,0c0-7-0.1-14,0-21c0.1-2.9-0.7-4.3-3.9-4.2
		c-8.3,0.2-16.7-0.2-25,0.2c-11.2,0.7-20.7,5.1-24.5,16.4c-4.9,14.3-5.1,29,0.2,43.4c2.5,6.6,7.8,10,14.2,11.4
		c5,1,10.2,1.3,15.3,1.2c13.4-0.4,21-7.3,22.5-20.6C3344.7,895.2,3344.8,886.2,3345.3,877.3z"/>
	<path class="st1" d="M2595.2,943c-6.6,0-12.6,0-19.1,0c-0.8-3-1.5-6.1-2.4-9.4c-1.1,0.4-2.1,0.4-2.5,0.9
		c-6.3,7.1-14.3,10.6-23.6,11.4c-13.2,1.2-26.3,0.9-38.6-4.7c-9.9-4.6-15.5-13-18-23.2c-4.8-18.9-4.8-37.9,0.4-56.6
		c5.1-18.5,17.6-26.3,36.3-28.3c10.7-1.1,21.6-0.9,32.4-1.1c9.9-0.2,10.2,0,9.8-10.2c-0.4-10.6-0.4-21.3-2.2-31.7
		c-3.4-19.1-23.5-27.1-39.4-16c-7.3,5.1-8.9,13.3-10,21.4c-0.6,4.4-0.9,8.8-1.4,13.5c-7.4,0-14.9,0-23.5,0c1-8.6,1.6-17.1,3-25.5
		c3.5-21.8,21.7-33.5,41.5-34.7c9.4-0.6,18.6-0.1,27.5,2.9c14.4,4.9,22.5,15.8,25.7,30c2.4,10.6,4,21.6,4.1,32.4
		c0.5,41,0.2,82,0.2,123C2595.2,938.8,2595.2,940.6,2595.2,943z M2570.4,877.7c-0.2,0-0.3,0-0.5,0c0-7.2-0.1-14.3,0-21.5
		c0.1-3-0.9-4.2-4-4.1c-8.2,0.2-16.3-0.1-24.5,0.2c-13.8,0.4-22.9,7.5-26.4,20.8c-3.2,12.1-3,24.4,0.5,36.4
		c2.2,7.7,7.6,12.5,15.4,13.9c5.2,0.9,10.6,1.5,15.8,1.2c12.9-0.6,20.1-7.1,21.8-20.2C2569.8,895.6,2569.8,886.6,2570.4,877.7z"/>
	<path class="st1" d="M1932.2,851.2c-18.7,0-36.7,0-54.6,0c-7.7,0-15.3,0-23,0c-2.3,0-4.4,0.1-4.4,3.3c0.1,16.4-0.6,32.9,2.9,49.1
		c4.5,21.3,22.5,25,39,18.8c8.5-3.2,11.8-10.9,13.6-19.1c1.3-6.1,1.7-12.5,2.6-19.1c7.2,0,14.8,0,22.8,0c0.5,10.1-0.9,20-3.3,29.8
		c-5.7,22.9-24,30.6-42.9,32.1c-10,0.8-19.9,0.1-29.4-3.8c-15.4-6.2-23.1-18.8-26.2-34.1c-2.4-11.5-3.7-23.3-4.1-35
		c-0.7-17.1-0.6-34.3,0-51.5c0.5-15.7,1.4-31.5,7.5-46.4c6.7-16.7,19.6-24.8,36.7-26.4c8.6-0.8,17.6-0.3,26.2,1.3
		c17.3,3.3,27.7,15,31.6,31.6c2.9,12.5,4.1,25.5,5.1,38.3C1932.9,830.2,1932.2,840.4,1932.2,851.2z M1878.5,830.9
		c8.2,0,16.3-0.2,24.5,0.1c3.7,0.1,5.1-1.1,4.9-4.8c-0.8-10.7-1-21.5-2.1-32.2c-1.5-14.1-8.5-21.8-22.3-24.2
		c-12-2.2-25.2,2.9-29.2,16.5c-4,13.6-4,27.5-4,41.4c0,3.1,1.9,3.3,4.3,3.3C1862.5,830.8,1870.5,830.9,1878.5,830.9z"/>
	<path class="st1" d="M2243.2,884c7.4,0,14.9,0,22.9,0c0.4,10.3-0.9,20.4-3.5,30.3c-5,18.9-18.2,28.5-36.8,30.7
		c-8.9,1-18.3,1.1-27.2-0.4c-20.2-3.5-30.7-17.7-34.5-36.8c-2.4-12.3-3.5-25-4-37.5c-0.7-16.6-0.6-33.3,0-50
		c0.5-15.2,1.6-30.5,7.4-45c6.7-16.7,19.6-24.7,36.7-26.5c11.1-1.2,22.2-0.8,32.9,3.3c11.8,4.6,20,12.9,23.3,24.9
		c3.2,11.8,5.6,23.9,6.7,36c1.1,12.4,0.2,24.9,0.2,38.1c-2,0-3.7,0-5.5,0c-23.7,0-47.3,0.1-71-0.1c-4.1,0-5.7,1-5.4,5.3
		c0.8,14.6,0.8,29.2,2.3,43.7c1.1,10.6,5.4,20.7,17,23.5c18.2,4.4,32.3-1,36.3-21.2C2241.9,896.5,2242.4,890.3,2243.2,884z
		 M2213.8,830.9c8.2,0,16.3-0.1,24.5,0.1c3.1,0.1,4.7-0.8,4.5-4.2c-0.7-11.2-0.8-22.5-2.2-33.7c-1.7-13.8-8.5-20.7-22.1-23.3
		c-12-2.3-25.6,3.2-29.4,16.8c-3.7,13.5-3.8,27.2-3.8,40.9c0,3,1.6,3.5,4.2,3.5C2197.5,830.8,2205.7,830.9,2213.8,830.9z"/>
	<path class="st1" d="M2753.8,846.5c0-12.7-0.5-25.4,0.1-38c0.6-13.3,2.7-26.4,9.2-38.4c5.8-10.7,14.8-16.7,26.3-19.6
		c11.8-2.9,23.7-3.2,35.5-0.3c19.8,4.9,30.8,18.4,34.1,37.9c1.9,11.4,2.7,23.1,3,34.6c0.5,19,0.5,38,0,57
		c-0.4,14.1-1.9,28.1-7.8,41.3c-5.8,12.9-15.7,20.2-29.2,23.3c-11.1,2.6-22.1,2.6-33.1,0.3c-17.3-3.5-28.6-14-33-30.9
		c-2.6-10-4.2-20.5-4.9-30.8C2753.1,870.9,2753.8,858.7,2753.8,846.5C2753.8,846.5,2753.8,846.5,2753.8,846.5z M2779.2,847.4
		C2779.2,847.4,2779.2,847.4,2779.2,847.4c0,12.3-0.5,24.7,0.1,37c0.4,7.9,1.4,15.9,3.5,23.5c4.6,16.3,27,23.4,40.5,13
		c3.4-2.6,7-6.4,8.1-10.4c2.5-8.7,4.8-17.7,5-26.7c0.7-24.5,0.6-49,0-73.4c-0.2-8.2-1.8-16.5-4.1-24.4
		c-3.3-11.1-12.9-16.9-25.5-16.7c-11.9,0.1-20.8,6.2-24,17.3c-2,6.9-3.3,14.2-3.6,21.4C2778.8,821.1,2779.2,834.3,2779.2,847.4z"/>
	<path class="st1" d="M3426.2,942.9c-8.6,0-16.6,0-25,0c0-63.7,0-127.2,0-190.9c6.2,0,12.3,0,18.6,0c0.7,5,1.3,9.8,2,14.7
		c0.8,0.7,1.7,1.3,2.5,2c0.5-1.5,0.6-3.2,1.4-4.4c9.2-12.7,22.3-16.6,37.2-15.9c10.3,0.4,20.1,2.7,27.9,10.1
		c8.9,8.5,13.5,19.2,14.1,31c1.3,25.2,1.7,50.5,2.1,75.8c0.3,24,0.1,48,0.1,72c0,1.8,0,3.6,0,5.6c-8.6,0-16.7,0-25.4,0
		c0-1.9,0-3.6,0-5.4c0-40.8,0.2-81.6-0.1-122.4c-0.1-8.5-1.4-17.2-3.1-25.6c-2.4-11.7-10-18.5-20.1-19.1
		c-13.1-0.8-22.6,4.7-26.4,16.7c-2.5,8-4.6,16.5-4.7,24.8c-0.8,41.8-0.9,83.6-1.2,125.4C3426.2,938.8,3426.2,940.7,3426.2,942.9z"/>
	<path class="st1" d="M2905.9,752c0.7,5.1,1.3,9.8,2.1,15.7c1.6-1.5,2.6-2.3,3.3-3.2c9.9-13,23.4-17.1,39.2-16.1
		c10.3,0.7,19.7,3.3,27.2,10.7c8.5,8.5,12.5,19.2,13.6,30.9c4.1,44.7,1.1,89.5,2,134.3c0.1,6,0,12,0,18.4c-8.5,0-16.7,0-25.4,0
		c0-1.7,0-3.4,0-5c0-39.8,0.2-79.7-0.1-119.5c-0.1-9.6-1.2-19.3-3.2-28.6c-2.7-12.7-9.9-18.9-20.3-19.4
		c-13.2-0.7-22.4,4.9-26.6,17.3c-2.2,6.7-3.9,13.9-4.2,20.9c-0.8,20.3-1,40.6-1.1,60.9c-0.2,24-0.1,48-0.1,72c0,0.3-0.1,0.7-0.2,1.4
		c-8.1,0-16.3,0-24.8,0c0-63.6,0-127,0-190.7C2893.4,752,2899.4,752,2905.9,752z"/>
	<path class="st1" d="M2293.9,942.7c0-63.7,0-127,0-190.9c5.5,0,10.8-0.3,16,0.2c1.2,0.1,2.7,2.8,3.1,4.5c0.8,3.1,0.9,6.5,1.5,11.4
		c3.2-3.4,5.4-5.7,7.6-8c7.9-8.6,18-11.5,29.2-11.7c14.6-0.3,27.8,3.2,37,15.7c6.4,8.7,9.6,18.8,9.8,29.4
		c0.7,44.8,0.8,89.6,1.1,134.4c0,5,0,9.9,0,15.1c-8.6,0-16.6,0-25.4,0c0-2.2,0-4.1,0-6.1c0-43.2,0.2-86.3-0.3-129.5
		c-0.1-8-2.4-16-4.6-23.8c-2.4-8.2-9-12.3-17.2-13.2c-9.4-1-17.8,1.3-23.7,9.6c-5.3,7.6-7.4,16.5-7.8,25.4
		c-0.8,23.1-1,46.3-1.2,69.4c-0.2,22.5,0,45,0,67.9C2310.7,942.7,2302.5,942.7,2293.9,942.7z"/>
	<path class="st1" d="M2432.1,690c8.1,0,15.8,0,24.2,0c0,2,0,3.7,0,5.5c0,16.8,0.2,33.7-0.1,50.5c-0.1,4.8,1.5,6.1,6,5.8
		c6.1-0.3,12.3-0.1,18.8-0.1c0,7.1,0,13.8,0,21.2c-6.6,0-13.2,0.2-19.8-0.1c-3.7-0.1-4.9,1-4.9,4.8c0.1,40.3-0.1,80.7,0.2,121
		c0.1,8.6,1.3,17.9,11.4,21.3c4.3,1.5,9.1,1.4,14,2.1c0,6.6,0,13.5,0,21c-12.2-0.3-24.2,0-35.3-5.3c-9.1-4.4-12.2-12.9-13.6-22
		c-1.3-8.5-2-17.2-2.1-25.7c-0.2-37-0.2-74,0-111c0-4.6-1-6.8-6-6.2c-3.1,0.4-6.3,0.1-9.8,0.1c0-7.1,0-13.8,0-21.2
		c3.3,0,6.6-0.3,9.8,0.1c4.5,0.4,6-1,6-5.8c0-17.6,0.5-35.3,0.9-52.9C2431.8,692.1,2432,691.2,2432.1,690z"/>
	<path class="st1" d="M1361.1,670c9.1,0,17.8,0,26.9,0c0,91,0,181.7,0,272.9c-8.8,0-17.7,0-26.9,0
		C1361.1,852,1361.1,761.3,1361.1,670z"/>
	<path class="st1" d="M2614,772.5c0-6.8,0-13.4,0-20.7c3.8,0,7.6-0.2,11.3,0.1c4,0.3,5.6-1,5.5-5.3c-0.2-11.7-0.1-23.3,0.1-35
		c0.1-7.1,0.7-14.2,1.1-21.5c7.7,0,15.1,0,23.2,0c0,1.8,0,3.6,0,5.4c0,16.8,0.1,33.6-0.1,50.5c-0.1,4.7,1.5,6.2,6,6
		c6.4-0.3,12.9-0.1,19.7-0.1c0,7.1,0,13.8,0,21.2c-7,0-13.8,0.2-20.5-0.1c-4-0.2-5.2,1.3-5.1,5.2c0.1,37.8,0,75.6,0.1,113.4
		c0,5.3,1,10.5,1.8,15.8c1.9,11.9,10.3,13.5,19,14.3c1.5,0.1,2.9,0,5.1,0c0,3.6,0,7,0,10.5c0,3.5,0,6.9,0,11
		c-13.1-0.3-25.9,0.1-37.5-6.6c-6.9-3.9-9.2-10.9-10.7-17.9c-1.5-7.1-2.2-14.5-2.2-21.7c-0.2-39.1-0.1-78.3-0.1-117.4
		c0-6.5,0-6.5-6.7-6.5c-2.8,0-5.7,0-8.5-0.1C2615.3,772.9,2615,772.7,2614,772.5z"/>
	<path class="st1" d="M1814.9,921.8c0.1,1.2,0.3,2.2,0.3,3.2c0,5.8,0,11.6,0,18.1c-13.7-0.5-27.1-0.3-39-7.9
		c-7.5-4.8-10.1-12.8-11.2-20.9c-1.5-11.2-2.7-22.5-2.8-33.7c-0.2-68.3-0.1-136.6-0.1-204.9c0-1.6,0-3.2,0-5.2c8.6,0,16.7,0,25.2,0
		c0,2.1,0,3.9,0,5.7c0,70.6,0,141.2,0.1,211.9c0,5.6,0.8,11.3,1.8,16.8c2.1,10.9,6.7,14.8,17.8,16
		C1809.6,921.3,1812.2,921.5,1814.9,921.8z"/>
	<path class="st1" d="M3262,921.7c0,7.3,0,14,0,21.4c-12.9-0.6-25.7-0.5-37.2-7.1c-9.3-5.3-12.1-14.8-12.8-24.2
		c-1.5-18.5-2.1-37.2-2.2-55.7c-0.2-60-0.1-119.9-0.1-179.9c0-1.8,0-3.6,0-5.7c8.6,0,16.7,0,25.4,0c0,2.2,0,4.1,0,6
		c0,73,0,145.9,0.1,218.9c0,3.6,0.6,7.3,1.4,10.8c2.4,9.9,7,13.6,17.5,14.7C3256.7,921.2,3259.1,921.4,3262,921.7z"/>
	<path class="st1" d="M2723.8,942.9c-8.3,0-16.2,0-24.6,0c0-63.5,0-127,0-190.8c8,0,16.1,0,24.6,0
		C2723.8,815.4,2723.8,878.9,2723.8,942.9z"/>
	<path class="st1" d="M2723.9,670c0,12.5,0,24.5,0,36.9c-8.3,0-16.4,0-24.8,0c0-12.2,0-24.4,0-36.9
		C2707.3,670,2715.4,670,2723.9,670z"/>
	<path class="st3" d="M889.9,314c0-58.1,0.1-116.3-0.1-174.4c0-5.2,1.5-6.5,6.5-6.4c19.7,0.3,39.3-0.4,59,0.2
		c20.3,0.6,40.3,3.7,58.8,13.2c17.6,9.1,28.6,23.8,36.9,41.1c10.8,22.6,16,46.6,19.1,71.3c3.4,26.3,3.7,52.8,2.6,79.2
		c-1.4,32.2-5.5,64.2-17.8,94.4c-8.4,20.6-20.6,38.3-40.3,49.8c-10.5,6.1-22.2,8.7-34.1,10.3c-28.7,3.8-57.5,1.4-86.2,2.1
		c-4.4,0.1-4.2-2.4-4.2-5.4C889.9,431,889.9,372.5,889.9,314z"/>
	<path class="st4" d="M1731.2,83.1c2.5,11.6,5,23.2,7.5,34.9c9.3,43.6,18.6,87.2,27.9,130.8c6.6,31,12.9,62,19.7,92.9
		c0.9,4.3-0.6,4.9-4.1,4.9c-23.2-0.1-46.3-0.1-69.5-0.1c-10.8,0-21.7,0-32.5,0c-1.9,0-3.9-0.3-6.8-0.5c18.7-88,37.3-175.5,55.9-263
		C1729.8,83,1730.5,83,1731.2,83.1z"/>
	<path class="st4" d="M3082.3,82.6c1.2,5.2,2.3,10.4,3.4,15.6c9.5,44.6,19,89.2,28.5,133.8c7.8,36.5,15.5,72.9,23.3,109.4
		c0.8,3.6-0.1,5.2-4.2,5.2c-34.7-0.1-69.3-0.1-104,0c-4.2,0-4.6-1.9-3.8-5.3c13.6-64,27.2-128.1,40.8-192.1
		c4.5-21.2,9.2-42.4,13.8-63.7c0.2-0.9,0.6-1.8,0.9-2.7C3081.5,82.7,3081.9,82.6,3082.3,82.6z"/>
	<path class="st4" d="M1710.8,846.1c0,11.7,0.3,23.3-0.1,35c-0.4,10.3-1.7,20.5-6.3,30c-4.2,8.6-11.2,13.4-20.5,13.5
		c-9.2,0.1-16.3-4.5-21-12.9c-4.7-8.5-7.2-17.6-7.6-27.1c-0.8-21.8-1.2-43.6-0.9-65.3c0.2-11.4,1.9-22.9,6.9-33.4
		c4.8-10,12.4-16.3,24.3-15.6c9.2,0.6,17.5,6.7,20.7,17.5c2.3,7.7,3.7,15.8,4.2,23.9C1711.3,823,1710.8,834.6,1710.8,846.1
		C1710.8,846.1,1710.8,846.1,1710.8,846.1z"/>
	<path class="st4" d="M3094.1,752c0-18.3,0.1-36.6-0.1-54.9c0-3.7,1.1-5,4.8-4.9c9.4,0.4,18.9,0.1,28.3,1
		c15.4,1.4,24.4,10.9,29,25.1c5.1,15.8,5.8,32,3.7,48.2c-1,7.8-2.3,15.8-5,23.2c-6.6,17.7-18.1,22.3-33.1,23.1
		c-7.6,0.4-15.3-0.1-23,0.1c-3.8,0.1-4.8-1.3-4.8-4.9C3094.2,789.3,3094.1,770.6,3094.1,752z"/>
	<path class="st4" d="M3345.3,877.3c-0.5,8.9-0.7,17.9-1.7,26.8c-1.5,13.3-9.1,20.2-22.5,20.6c-5.1,0.1-10.4-0.1-15.3-1.2
		c-6.4-1.3-11.7-4.7-14.2-11.4c-5.4-14.4-5.2-29.1-0.2-43.4c3.9-11.3,13.3-15.7,24.5-16.4c8.3-0.5,16.7-0.1,25-0.2
		c3.2-0.1,4,1.3,3.9,4.2c-0.1,7,0,14,0,21C3345,877.3,3345.2,877.3,3345.3,877.3z"/>
	<path class="st4" d="M2570.4,877.7c-0.5,8.9-0.6,17.9-1.7,26.8c-1.7,13-8.9,19.5-21.8,20.2c-5.2,0.3-10.6-0.3-15.8-1.2
		c-7.9-1.4-13.2-6.3-15.4-13.9c-3.5-12-3.6-24.3-0.5-36.4c3.5-13.3,12.6-20.4,26.4-20.8c8.1-0.3,16.3,0,24.5-0.2
		c3.1-0.1,4.1,1.1,4,4.1c-0.1,7.2,0,14.3,0,21.5C2570,877.7,2570.2,877.7,2570.4,877.7z"/>
	<path class="st4" d="M1878.5,830.9c-8,0-16,0-24,0c-2.4,0-4.3-0.2-4.3-3.3c0-13.9,0-27.8,4-41.4c4-13.5,17.2-18.6,29.2-16.5
		c13.8,2.5,20.8,10.1,22.3,24.2c1.1,10.7,1.4,21.5,2.1,32.2c0.3,3.7-1.2,4.9-4.9,4.8C1894.8,830.7,1886.6,830.9,1878.5,830.9z"/>
	<path class="st4" d="M2213.8,830.9c-8.2,0-16.3-0.1-24.5,0c-2.5,0-4.2-0.4-4.2-3.5c0-13.8,0.1-27.5,3.8-40.9
		c3.8-13.6,17.5-19.1,29.4-16.8c13.6,2.6,20.4,9.5,22.1,23.3c1.4,11.1,1.5,22.5,2.2,33.7c0.2,3.4-1.4,4.2-4.5,4.2
		C2230.1,830.8,2222,830.9,2213.8,830.9z"/>
	<path class="st4" d="M2779.2,847.4c0-13.2-0.4-26.3,0.2-39.5c0.3-7.2,1.7-14.5,3.6-21.4c3.1-11.1,12.1-17.1,24-17.3
		c12.6-0.1,22.2,5.6,25.5,16.7c2.3,7.9,3.9,16.2,4.1,24.4c0.5,24.5,0.6,49,0,73.4c-0.2,9-2.5,18-5,26.7c-1.2,3.9-4.7,7.7-8.1,10.4
		c-13.5,10.4-35.9,3.3-40.5-13c-2.1-7.6-3.1-15.6-3.5-23.5C2778.8,872.1,2779.2,859.8,2779.2,847.4
		C2779.2,847.4,2779.2,847.4,2779.2,847.4z"/>
</g>
</svg>
