<?xml version="1.0" standalone="no"?>
<!DOCTYPE svg PUBLIC "-//W3C//DTD SVG 1.1//EN" "http://www.w3.org/Graphics/SVG/1.1/DTD/svg11.dtd" >
<svg xmlns="http://www.w3.org/2000/svg" xmlns:xlink="http://www.w3.org/1999/xlink" version="1.1">
<metadata>
Created by FontForge 20190801 at Tue Dec 20 11:25:42 2016
 By www-data
Copyright 2016 by URW++ Design &#38; Development GmbH
</metadata>
<defs>
<font id="URWDINXLight" horiz-adv-x="540" >
  <font-face 
    font-family="URWDINXLight"
    font-weight="250"
    font-stretch="normal"
    units-per-em="1000"
    panose-1="0 0 4 0 0 0 0 0 0 0"
    ascent="714"
    descent="-286"
    x-height="494"
    cap-height="714"
    bbox="-103 -242 1133 1004"
    underline-thickness="38"
    underline-position="-225"
    unicode-range="U+0020-FB04"
  />
<missing-glyph horiz-adv-x="200" 
 />
    <glyph glyph-name="ff" unicode="ff" horiz-adv-x="622" 
d="M122 453h-65v41h65v100q0 70 26 95.5t96 24.5h34v-39h-25q-49 2 -66.5 -16t-17.5 -70v-95h112v-41h-112v-453h-47v453zM421 453h-64v41h64v100q0 70 26 95.5t96 24.5h36v-39h-26q-50 2 -67.5 -16t-17.5 -70v-95h117v-41h-117v-453h-47v453z" />
    <glyph glyph-name="fi" unicode="fi" horiz-adv-x="563" 
d="M122 453h-65v41h65v100q0 69 26 95t95 25h36v-39h-26q-49 2 -66.5 -16t-17.5 -70v-95h117v-41h-117v-453h-47v453zM419 625v90h47v-90h-47zM419 0v494h47v-494h-47z" />
    <glyph glyph-name="fl" unicode="fl" horiz-adv-x="602" 
d="M122 453h-65v41h65v100q0 69 26 95t95 25h36v-39h-26q-49 2 -66.5 -16t-17.5 -70v-95h117v-41h-117v-453h-47v453zM419 714h47v-586q-1 -49 17 -68.5t64 -18.5h32v-41h-33q-73 0 -100 28t-27 103v583z" />
    <glyph glyph-name="ffi" unicode="ffi" horiz-adv-x="863" 
d="M122 453h-65v41h65v100q0 70 26 95.5t96 24.5h34v-39h-25q-49 2 -66.5 -16t-17.5 -70v-95h112v-41h-112v-453h-47v453zM421 453h-64v41h64v100q0 70 26 95.5t96 24.5h36v-39h-26q-50 2 -67.5 -16t-17.5 -70v-95h117v-41h-117v-453h-47v453zM719 625v90h47v-90h-47zM719 0
v494h47v-494h-47z" />
    <glyph glyph-name="ffl" unicode="ffl" horiz-adv-x="902" 
d="M122 453h-65v41h65v100q0 70 26 95.5t96 24.5h34v-39h-25q-49 2 -66.5 -16t-17.5 -70v-95h112v-41h-112v-453h-47v453zM421 453h-64v41h64v100q0 70 26 95.5t96 24.5h36v-39h-26q-50 2 -67.5 -16t-17.5 -70v-95h117v-41h-117v-453h-47v453zM719 714h47v-586
q-1 -49 17 -68.5t64 -18.5h32v-41h-33q-73 0 -100 28t-27 103v583z" />
    <glyph glyph-name=".notdef" horiz-adv-x="200" 
 />
    <glyph glyph-name=".null" horiz-adv-x="0" 
 />
    <glyph glyph-name="nonmarkingreturn" horiz-adv-x="333" 
 />
    <glyph glyph-name="space" unicode=" " horiz-adv-x="200" 
 />
    <glyph glyph-name="exclam" unicode="!" horiz-adv-x="291" 
d="M125 182l-6 532h53l-6 -532h-41zM123 0v79h47v-79h-47z" />
    <glyph glyph-name="quotedbl" unicode="&#x22;" horiz-adv-x="384" 
d="M97 469l-3 245h48l-3 -245h-42zM244 469l-3 245h48l-3 -245h-42z" />
    <glyph glyph-name="numbersign" unicode="#" 
d="M159 283l17 129h-132l7 37h132l28 196h44l-28 -196h119l29 196h43l-28 -196h134l-7 -37h-134l-17 -129h132l-7 -37h-132l-27 -204h-43l26 204h-120l-26 -204h-43l26 204h-134l7 37h134zM203 283h120l16 129h-120z" />
    <glyph glyph-name="dollar" unicode="$" 
d="M38 105l38 25q50 -78 188 -78q89 0 139 37t50 104t-51 101q-23 15 -40.5 21t-98.5 25q-110 26 -158.5 70t-48.5 118q0 48 22 87.5t61 62.5q43 23 111 26v107h44v-108q55 -3 100 -23.5t64 -50.5l-38 -26q-44 60 -155 60q-76 0 -118.5 -34.5t-42.5 -96.5q0 -58 41 -92
t140 -57q73 -17 98.5 -26t51.5 -26q66 -46 66 -134q0 -83 -53 -130.5t-154 -54.5v-143h-44v142q-74 2 -131 27t-81 67z" />
    <glyph glyph-name="percent" unicode="%" horiz-adv-x="841" 
d="M49 471v99q0 152 136 152t136 -152v-99q0 -152 -136 -152t-136 152zM279 475v90q0 122 -94 122t-94 -122v-90q0 -121 94 -121t94 121zM519 144v99q0 152 136 152q137 0 137 -152v-99q0 -152 -137 -152q-136 0 -136 152zM750 149v90q0 121 -95 121q-94 0 -94 -121v-90
q0 -122 94 -122q95 0 95 122zM286 0l223 714h46l-223 -714h-46z" />
    <glyph glyph-name="ampersand" unicode="&#x26;" horiz-adv-x="826" 
d="M622 0l-65 89q-47 -54 -114.5 -87t-131.5 -33q-85 0 -135.5 48t-50.5 130q0 107 100 179q31 23 105 66q-66 91 -84 125.5t-18 71.5q0 66 45 107t117 41q74 0 120.5 -42.5t46.5 -111.5q0 -83 -89 -156q-24 -19 -70 -49l163 -225q59 78 81 164h48q-31 -109 -101 -197
l90 -120h-57zM370 413q75 45 107.5 84t32.5 85q0 51 -32.5 82.5t-85.5 31.5q-52 0 -84.5 -29.5t-32.5 -77.5q0 -32 13 -56t82 -120zM530 121l-171 235q-65 -35 -99 -60q-86 -59 -86 -148q0 -63 38.5 -100t104.5 -37q112 0 213 110z" />
    <glyph glyph-name="quotesingle" unicode="'" horiz-adv-x="237" 
d="M97 469l-3 245h48l-3 -245h-42z" />
    <glyph glyph-name="parenleft" unicode="(" horiz-adv-x="425" 
d="M330 -94l-36 -22q-73 115 -106 224t-33 237t33 236.5t106 223.5l36 -21q-40 -71 -68 -135q-58 -132 -58 -304q0 -176 66 -323q22 -49 60 -116z" />
    <glyph glyph-name="parenright" unicode=")" horiz-adv-x="425" 
d="M95 784l36 21q73 -114 106 -223.5t33 -236.5q0 -128 -33 -237t-106 -224l-36 22q44 77 68 134q58 133 58 305q0 175 -66 322q-23 50 -60 117z" />
    <glyph glyph-name="asterisk" unicode="*" 
d="M270 544l-96 -159l-47 28l112 155l-177 37l13 52l175 -54l-7 173h54l-7 -173l175 54l13 -52l-176 -37l111 -155l-47 -28z" />
    <glyph glyph-name="plus" unicode="+" 
d="M30 348v41h218v222h44v-222h219v-41h-219v-222h-44v222h-218z" />
    <glyph glyph-name="comma" unicode="," horiz-adv-x="275" 
d="M68 -188l47 267h54l-63 -267h-38z" />
    <glyph glyph-name="hyphen" unicode="-" horiz-adv-x="482" 
d="M111 347v42h260v-42h-260z" />
    <glyph glyph-name="period" unicode="." horiz-adv-x="275" 
d="M114 0v79h48v-79h-48z" />
    <glyph glyph-name="slash" unicode="/" horiz-adv-x="413" 
d="M65 -23l238 760h49l-238 -760h-49z" />
    <glyph glyph-name="zero" unicode="0" 
d="M83 243v228q0 124 43 183q50 68 144 68q103 0 152 -79q36 -58 36 -172v-228q0 -124 -43 -183q-50 -68 -145 -68q-102 0 -151 79q-36 56 -36 172zM410 249v216q0 110 -34 162.5t-105 52.5q-72 0 -106 -52.5t-34 -162.5v-216q0 -110 34 -162.5t106 -52.5q71 0 105 52.5
t34 162.5z" />
    <glyph glyph-name="one" unicode="1" 
d="M261 0v662l-130 -59l-14 40l157 71h35v-714h-48z" />
    <glyph glyph-name="two" unicode="2" 
d="M67 0v33l196 266q59 81 91 154q21 48 21 102q0 61 -32 93t-93 32q-105 0 -138 -113l-43 5q11 71 59.5 110.5t124.5 39.5q82 0 126.5 -44t44.5 -124q0 -63 -28 -127t-98 -158l-167 -227h301v-42h-365z" />
    <glyph glyph-name="three" unicode="3" 
d="M174 356v41h64q64 0 105.5 40t41.5 102q0 66 -35.5 103.5t-98.5 37.5q-104 0 -130 -90l-44 5q10 61 56 94t119 33q87 0 134.5 -47.5t47.5 -134.5q0 -119 -114 -163q133 -42 133 -187q0 -83 -44 -135q-53 -63 -164 -63q-164 0 -190 130l47 6q25 -94 144 -94q74 0 116 41.5
t42 115.5q0 73 -45.5 119t-117.5 46h-67z" />
    <glyph glyph-name="four" unicode="4" 
d="M356 0v137h-295v31l234 546h51l-230 -535h240v249h46v-249h76v-43h-76v-136h-46z" />
    <glyph glyph-name="five" unicode="5" 
d="M102 354l35 360h298v-42h-258l-28 -274q55 37 123 37q184 0 184 -223q0 -107 -52 -163t-151 -56q-75 0 -123 34t-59 95l47 6q25 -93 137 -93q73 0 112.5 45.5t39.5 129.5q0 184 -142 184q-66 0 -129 -47z" />
    <glyph glyph-name="six" unicode="6" 
d="M354 714l-163 -308q43 27 92 27q91 0 138 -67q35 -50 35 -153q0 -114 -45 -165q-48 -56 -140 -56q-100 0 -148 66q-37 49 -37 157q0 52 10 88.5t39 92.5l165 318h54zM273 392q-138 0 -138 -179t136 -179t136 179t-134 179z" />
    <glyph glyph-name="seven" unicode="7" 
d="M168 0l234 672h-306v42h357v-30l-234 -684h-51z" />
    <glyph glyph-name="eight" unicode="8" 
d="M181 377q-47 23 -68 60.5t-21 101.5q0 183 178 183t178 -183q0 -125 -88 -162q56 -19 82 -63t26 -119q0 -203 -198 -203q-197 0 -197 203q0 146 108 182zM272 681q-133 0 -133 -143t131 -143t131 143t-129 143zM272 354q-150 0 -150 -160t148 -160q149 0 149 160
t-147 160z" />
    <glyph glyph-name="nine" unicode="9" 
d="M186 0l167 336q-46 -25 -98 -25q-172 0 -172 204q0 207 185 207t185 -205q0 -47 -7.5 -79t-28.5 -76l-177 -362h-54zM270 680q-138 0 -138 -164q0 -165 136 -165t136 165q0 164 -134 164z" />
    <glyph glyph-name="colon" unicode=":" horiz-adv-x="275" 
d="M114 0v79h48v-79h-48zM114 415v79h48v-79h-48z" />
    <glyph glyph-name="semicolon" unicode=";" horiz-adv-x="275" 
d="M68 -188l47 267h54l-63 -267h-38zM116 415v79h48v-79h-48z" />
    <glyph glyph-name="less" unicode="&#x3c;" 
d="M101 369l359 -183v-48l-417 216v30l417 217v-48z" />
    <glyph glyph-name="equal" unicode="=" 
d="M42 275v40h457v-40h-457zM42 422v40h457v-40h-457z" />
    <glyph glyph-name="greater" unicode="&#x3e;" 
d="M439 369l-359 184v48l417 -217v-30l-417 -216v48z" />
    <glyph glyph-name="question" unicode="?" horiz-adv-x="588" 
d="M269 182v33q-1 55 19 91t76 84q46 40 61 60q33 44 33 93q0 60 -44 99t-111 39q-87 0 -134 -61q-14 -19 -21.5 -37t-16.5 -57l-45 8q39 189 220 189q89 0 145 -51t56 -131q0 -62 -38 -112q-20 -25 -67 -66q-55 -45 -74.5 -76t-19.5 -73v-32h-39zM266 0v79h47v-79h-47z" />
    <glyph glyph-name="at" unicode="@" horiz-adv-x="874" 
d="M598 525h37l-54 -255q-7 -28 -7 -51q0 -46 53 -46q62 0 104.5 64.5t42.5 158.5q0 117 -62 192q-40 47 -110 73.5t-154 26.5q-159 0 -253 -102t-94 -274q0 -165 87.5 -249.5t257.5 -84.5q137 0 252 56l17 -32q-118 -62 -264 -62q-192 0 -292 94t-100 275q0 193 106 305
t288 112q166 0 264.5 -90.5t98.5 -242.5q0 -112 -55 -185t-138 -73q-45 0 -64 20t-19 67q-52 -90 -144 -90q-62 0 -94.5 35t-32.5 103q0 116 63 198q51 68 136 68q43 0 70 -17.5t46 -56.5zM470 499q-68 0 -110 -63q-48 -70 -48 -165q0 -101 87 -101q74 0 121 79
q45 74 45 149q0 46 -26 73.5t-69 27.5z" />
    <glyph glyph-name="A" unicode="A" horiz-adv-x="589" 
d="M467 167h-344l-60 -167h-53l263 714h43l263 -714h-53zM453 209l-158 437l-159 -437h317z" />
    <glyph glyph-name="B" unicode="B" horiz-adv-x="642" 
d="M116 0v714h254q92 0 138 -43q54 -51 54 -137q0 -113 -96 -161q46 -22 64 -42q46 -54 46 -142q0 -99 -61 -151q-45 -38 -131 -38h-268zM164 390h203q68 0 104 32q42 39 42 109q0 76 -48 114q-34 27 -98 27h-203v-282zM164 42h218q68 0 103 34q42 40 42 116q0 83 -48 126
q-35 30 -97 30h-218v-306z" />
    <glyph glyph-name="C" unicode="C" horiz-adv-x="638" 
d="M501 160l45 -5q-5 -75 -64 -119t-155 -44q-129 0 -188 92q-41 63 -41 202v141q0 82 11.5 131.5t39.5 85.5q62 78 179 78q94 0 151.5 -44.5t61.5 -120.5l-44 -3q-9 59 -53.5 92.5t-114.5 33.5q-95 0 -139 -60.5t-44 -192.5v-141q0 -132 43.5 -192t138.5 -60
q72 0 118.5 33.5t54.5 92.5z" />
    <glyph glyph-name="D" unicode="D" horiz-adv-x="682" 
d="M116 0v714h217q123 2 189 -68t62 -200v-177q4 -130 -61.5 -200.5t-189.5 -68.5h-217zM164 42h163q104 -2 157.5 57.5t51.5 175.5v165q2 115 -51.5 174.5t-157.5 57.5h-163v-630z" />
    <glyph glyph-name="E" unicode="E" horiz-adv-x="577" 
d="M116 0v714h401v-42h-353v-289h301v-42h-301v-299h351v-42h-399z" />
    <glyph glyph-name="F" unicode="F" horiz-adv-x="545" 
d="M116 0v714h399v-42h-351v-295h300v-42h-300v-335h-48z" />
    <glyph glyph-name="G" unicode="G" horiz-adv-x="665" 
d="M362 321v41h216v-106q0 -127 -56 -191q-66 -73 -185 -73q-134 0 -196 92q-43 64 -43 202v141q0 83 12 132t41 85q61 78 183 78q96 0 155 -44.5t64 -120.5l-45 -4q-9 60 -54.5 93.5t-118.5 33.5q-99 0 -144 -60.5t-45 -192.5v-141q0 -132 45.5 -192t145.5 -60
q102 0 153 66q40 51 40 148v73h-168z" />
    <glyph glyph-name="H" unicode="H" horiz-adv-x="682" 
d="M116 0v714h48v-331h354v331h48v-714h-48v341h-354v-341h-48z" />
    <glyph glyph-name="I" unicode="I" horiz-adv-x="280" 
d="M116 0v714h48v-714h-48z" />
    <glyph glyph-name="J" unicode="J" horiz-adv-x="452" 
d="M293 714h48v-437q0 -90 -5 -130t-21 -68q-45 -87 -164 -87q-88 0 -154 57l27 35q53 -50 126 -50q98 0 129 85q14 36 14 155v440z" />
    <glyph glyph-name="K" unicode="K" horiz-adv-x="620" 
d="M116 0v714h48v-443l354 443h57l-230 -285l261 -429h-55l-236 394l-151 -186v-208h-48z" />
    <glyph glyph-name="L" unicode="L" horiz-adv-x="526" 
d="M116 0v714h48v-672h354v-42h-402z" />
    <glyph glyph-name="M" unicode="M" horiz-adv-x="816" 
d="M116 0v714h49l243 -509l243 509h49v-714h-47v619l-230 -478h-30l-230 478v-619h-47z" />
    <glyph glyph-name="N" unicode="N" horiz-adv-x="726" 
d="M116 0v714h45l403 -630v630h47v-714h-45l-403 630v-630h-47z" />
    <glyph glyph-name="O" unicode="O" horiz-adv-x="679" 
d="M98 267v180q0 135 58 201q67 74 184 74q128 0 193 -86q48 -64 48 -189v-180q0 -135 -58 -201q-65 -74 -183 -74q-129 0 -194 86q-48 64 -48 189zM533 273v168q0 119 -47 176q-51 63 -146 63q-103 0 -155 -73q-39 -56 -39 -166v-168q0 -119 47 -176q51 -63 147 -63
q102 0 154 73q39 56 39 166z" />
    <glyph glyph-name="P" unicode="P" horiz-adv-x="609" 
d="M165 292v-292h-48v714h223q116 0 167 -57q51 -55 51 -154q0 -107 -60 -163q-51 -48 -158 -48h-175zM165 334h175q85 0 127 43q42 45 42 126q0 88 -49 133q-39 36 -120 36h-175v-338z" />
    <glyph glyph-name="Q" unicode="Q" horiz-adv-x="679" 
d="M605 -13l-88 72q-66 -67 -177 -67q-127 0 -194 86q-48 64 -48 189v180q0 135 58 201q67 74 184 74q128 0 193 -86q48 -64 48 -189v-180q0 -112 -39 -176l90 -73zM480 89l-111 91l27 30l108 -87q29 54 29 150v168q0 119 -47 176q-51 63 -146 63q-103 0 -155 -73
q-39 -56 -39 -166v-168q0 -119 47 -176q51 -63 147 -63q89 0 140 55z" />
    <glyph glyph-name="R" unicode="R" horiz-adv-x="648" 
d="M165 322v-322h-48v714h232q112 0 163 -52q51 -51 51 -143q0 -172 -157 -192l158 -327h-53l-153 322h-193zM165 364h192q81 0 118 40q39 40 39 114q0 81 -49 121q-39 33 -120 33h-180v-308z" />
    <glyph glyph-name="S" unicode="S" horiz-adv-x="582" 
d="M63 87l39 25q48 -78 186 -78q90 0 140 39.5t50 110.5t-50 107q-23 16 -43 23t-97 26q-110 27 -158 73t-48 123q0 87 56 136.5t154 49.5q138 0 191 -77l-38 -25q-43 60 -154 60q-76 0 -118.5 -37.5t-42.5 -103.5q0 -62 41 -97.5t140 -59.5q73 -18 98 -27t51 -27
q66 -46 66 -140q0 -93 -62.5 -144.5t-174.5 -51.5q-165 0 -226 95z" />
    <glyph glyph-name="T" unicode="T" horiz-adv-x="553" 
d="M254 0v672h-214v42h474v-42h-212v-672h-48z" />
    <glyph glyph-name="U" unicode="U" horiz-adv-x="694" 
d="M113 714h48v-454q0 -61 7 -94.5t25 -59.5q48 -72 154 -72q114 0 161 83q25 44 25 143v454h48v-454q0 -73 -9 -113t-33 -72q-64 -83 -192 -83q-139 0 -200 96q-19 29 -26.5 66.5t-7.5 105.5v454z" />
    <glyph glyph-name="V" unicode="V" horiz-adv-x="545" 
d="M254 0l-237 714h49l207 -635l206 635h50l-238 -714h-37z" />
    <glyph glyph-name="W" unicode="W" horiz-adv-x="848" 
d="M212 0l-179 714h49l151 -626l176 626h29l176 -626l151 626h49l-179 -714h-37l-174 618l-174 -618h-38z" />
    <glyph glyph-name="X" unicode="X" horiz-adv-x="550" 
d="M246 375l-191 339h54l171 -304l167 304h51l-193 -347l207 -367h-54l-186 331l-183 -331h-51z" />
    <glyph glyph-name="Y" unicode="Y" horiz-adv-x="524" 
d="M239 0v258l-228 456h51l201 -404l200 404h52l-228 -456v-258h-48z" />
    <glyph glyph-name="Z" unicode="Z" horiz-adv-x="529" 
d="M50 0v38l353 634h-333v42h386v-38l-353 -634h369v-42h-422z" />
    <glyph glyph-name="bracketleft" unicode="[" horiz-adv-x="425" 
d="M171 -98v885h166v-37h-119v-811h119v-37h-166z" />
    <glyph glyph-name="backslash" unicode="\" horiz-adv-x="413" 
d="M349 -23h-49l-238 760h49z" />
    <glyph glyph-name="bracketright" unicode="]" horiz-adv-x="425" 
d="M254 787v-885h-166v37h119v811h-119v37h166z" />
    <glyph glyph-name="asciicircum" unicode="^" 
d="M270 667l-166 -281h-52l206 334h24l206 -334h-52z" />
    <glyph glyph-name="underscore" unicode="_" horiz-adv-x="470" 
d="M-25 -168v38h520v-38h-520z" />
    <glyph glyph-name="grave" unicode="`" horiz-adv-x="500" 
d="M289 583h-36l-99 134h64z" />
    <glyph glyph-name="a" unicode="a" horiz-adv-x="519" 
d="M377 280v48q0 64 -21 93q-30 41 -105 41q-82 0 -132 -51l-32 27q57 65 167 65q105 0 146 -64q24 -37 24 -115v-324h-39l-5 40q-23 -26 -56.5 -37t-92.5 -11q-98 0 -137.5 31.5t-39.5 110.5q0 81 42 113.5t148 32.5h133zM377 243h-132q-79 0 -112 -25t-33 -84
q0 -57 30.5 -79t107.5 -22q95 0 123 38q16 21 16 75v97z" />
    <glyph glyph-name="b" unicode="b" horiz-adv-x="564" 
d="M99 0v714h47v-290q45 79 153 79q184 0 184 -218v-76q0 -217 -185 -217q-58 0 -92.5 17t-63.5 61l-4 -70h-39zM436 211v72q0 179 -142 179q-148 0 -148 -182v-66q0 -181 147 -181q143 0 143 178z" />
    <glyph glyph-name="c" unicode="c" horiz-adv-x="472" 
d="M396 80l36 -24q-54 -64 -156 -64q-195 0 -195 222v50q0 239 192 239q101 0 148 -69l-37 -22q-40 50 -108 50q-76 0 -112 -48t-36 -149v-56q0 -86 38 -131t111 -45q78 0 119 47z" />
    <glyph glyph-name="d" unicode="d" horiz-adv-x="564" 
d="M426 0l-4 70q-30 -44 -64 -61t-92 -17q-185 0 -185 217v76q0 218 184 218q107 0 153 -79v290h47v-714h-39zM128 283v-72q0 -178 142 -178q148 0 148 181v66q0 182 -148 182q-142 0 -142 -179z" />
    <glyph glyph-name="e" unicode="e" 
d="M128 245v-29q0 -89 41 -136t120 -47t122 47l36 -24q-54 -64 -160 -64q-206 0 -206 232v46q0 233 193 233t193 -233v-25h-339zM128 282h293v6q0 75 -31 121q-37 53 -115 53q-71 0 -109 -45t-38 -130v-5z" />
    <glyph glyph-name="f" unicode="f" horiz-adv-x="322" 
d="M122 453h-65v41h65v100q0 69 26 95t95 25h36v-39h-26q-49 2 -66.5 -16t-17.5 -70v-95h117v-41h-117v-453h-47v453z" />
    <glyph glyph-name="g" unicode="g" horiz-adv-x="563" 
d="M418 -15v86q-44 -79 -154 -79q-183 0 -183 217v76q0 218 184 218q111 0 158 -83l3 74h39v-504q0 -223 -203 -223q-106 0 -162 65l36 24q43 -49 125 -49q155 0 157 178zM128 283v-73q0 -177 142 -177q148 0 148 181v66q0 182 -148 182q-142 0 -142 -179z" />
    <glyph glyph-name="h" unicode="h" horiz-adv-x="562" 
d="M99 0v714h47v-289q45 78 149 78q118 0 157 -96q16 -39 16 -123v-284h-47v282q0 72 -16 110q-32 70 -117 70q-76 0 -109 -49t-33 -162v-251h-47z" />
    <glyph glyph-name="i" unicode="i" horiz-adv-x="241" 
d="M97 625v90h47v-90h-47zM97 0v494h47v-494h-47z" />
    <glyph glyph-name="j" unicode="j" horiz-adv-x="248" 
d="M102 494h47v-524q2 -110 -37.5 -155.5t-137.5 -44.5v41q70 -3 100 33.5t28 120.5v529zM102 625v90h47v-90h-47z" />
    <glyph glyph-name="k" unicode="k" horiz-adv-x="497" 
d="M98 0v714h47v-539l252 319h55l-167 -209l191 -285h-52l-168 249l-111 -138v-111h-47z" />
    <glyph glyph-name="l" unicode="l" horiz-adv-x="280" 
d="M97 714h47v-586q-1 -49 17 -68.5t64 -18.5h32v-41h-33q-73 0 -100 28t-27 103v583z" />
    <glyph glyph-name="m" unicode="m" horiz-adv-x="845" 
d="M99 0v494h38l5 -75q38 84 139 84q115 0 150 -99q38 99 152 99q117 0 153 -96q15 -42 15 -123v-284h-47v281q0 76 -15 111q-29 70 -108 70q-71 0 -101.5 -49.5t-30.5 -162.5v-250h-47v283q0 93 -30 136t-94 43q-90 0 -119 -91q-13 -43 -13 -122v-249h-47z" />
    <glyph glyph-name="n" unicode="n" horiz-adv-x="562" 
d="M99 0v494h38l5 -75q41 84 148 84q125 0 162 -96q16 -39 16 -123v-284h-47v281q0 73 -16 111q-32 70 -117 70q-98 0 -128 -91q-14 -41 -14 -122v-249h-47z" />
    <glyph glyph-name="o" unicode="o" horiz-adv-x="556" 
d="M81 208v77q0 218 197 218t197 -218v-77q0 -216 -197 -216t-197 216zM428 209v75q0 178 -150 178t-150 -178v-75q0 -176 150 -176t150 176z" />
    <glyph glyph-name="p" unicode="p" horiz-adv-x="564" 
d="M99 -225v719h39l5 -71q46 80 156 80q184 0 184 -218v-76q0 -217 -184 -217q-106 0 -153 76v-293h-47zM436 210v73q0 179 -142 179q-148 0 -148 -182v-66q0 -181 147 -181q143 0 143 177z" />
    <glyph glyph-name="q" unicode="q" horiz-adv-x="564" 
d="M418 -225v293q-47 -76 -152 -76q-185 0 -185 217v76q0 218 184 218q110 0 156 -80l5 71h39v-719h-47zM128 283v-73q0 -177 142 -177q148 0 148 181v66q0 182 -148 182q-142 0 -142 -179z" />
    <glyph glyph-name="r" unicode="r" horiz-adv-x="363" 
d="M99 0v494h38l5 -75q36 84 131 84q45 0 86 -22l-19 -41q-36 21 -72 21q-64 0 -93 -51.5t-29 -166.5v-243h-47z" />
    <glyph glyph-name="s" unicode="s" horiz-adv-x="461" 
d="M34 55l33 26q52 -48 149 -48q146 0 146 99q0 53 -39 75q-29 16 -100 26q-93 14 -122 41q-38 32 -38 91q0 66 39.5 102t112.5 36q113 0 168 -67l-36 -24q-47 50 -128 50q-53 0 -81.5 -24.5t-28.5 -69.5q0 -48 36 -70q23 -14 89 -24q97 -14 131 -40q43 -32 43 -104
q0 -138 -190 -138q-127 0 -184 63z" />
    <glyph glyph-name="t" unicode="t" horiz-adv-x="326" 
d="M117 453h-63v41h63l1 168h46v-168h96v-41h-96v-326q0 -49 18 -68t64 -18h20v-41h-19q-75 -1 -102.5 27t-27.5 104v322z" />
    <glyph glyph-name="u" unicode="u" horiz-adv-x="551" 
d="M94 494h47v-281q0 -72 16 -111q30 -70 112 -70q73 0 104.5 49.5t31.5 163.5v249h47v-494h-38l-5 75q-38 -84 -143 -84q-120 0 -157 96q-15 41 -15 123v284z" />
    <glyph glyph-name="v" unicode="v" horiz-adv-x="475" 
d="M219 0l-186 494h48l157 -425l157 425h47l-185 -494h-38z" />
    <glyph glyph-name="w" unicode="w" horiz-adv-x="766" 
d="M202 0l-156 494h48l128 -424l146 424h31l146 -424l128 424h48l-156 -494h-35l-147 417l-147 -417h-34z" />
    <glyph glyph-name="x" unicode="x" horiz-adv-x="447" 
d="M195 253l-147 241h54l125 -206l127 206h51l-154 -245l152 -249h-54l-130 214l-132 -214h-52z" />
    <glyph glyph-name="y" unicode="y" horiz-adv-x="475" 
d="M220 -6l-192 500h47l169 -445l149 445h47l-206 -602q-28 -75 -59 -98t-108 -24v41q54 0 76.5 16.5t43.5 70.5z" />
    <glyph glyph-name="z" unicode="z" horiz-adv-x="470" 
d="M51 0v31l276 422h-255v41h314v-32l-276 -421h293v-41h-352z" />
    <glyph glyph-name="braceleft" unicode="{" horiz-adv-x="425" 
d="M218 573v-46q2 -82 -11 -112t-58 -46q45 -16 58 -46.5t11 -111.5v-96q-2 -108 18 -142t87 -35h18v-36h-25q-88 0 -117.5 38t-27.5 149v116q3 90 -14.5 117.5t-78.5 30.5h-7v32h7q61 2 78.5 30t14.5 118v67q-2 110 27.5 148.5t117.5 38.5h25v-36h-18q-67 -2 -86.5 -35.5
t-18.5 -142.5z" />
    <glyph glyph-name="bar" unicode="|" 
d="M248 -98v885h44v-885h-44z" />
    <glyph glyph-name="braceright" unicode="}" horiz-adv-x="425" 
d="M206 115v96q-2 82 11 112t58 46q-45 16 -58 46t-11 112v46q1 109 -18.5 142.5t-86.5 35.5h-17v36h25q87 0 116.5 -38.5t27.5 -148.5v-67q-3 -90 14.5 -118t78.5 -30h7v-32h-7q-61 -3 -78.5 -30.5t-14.5 -117.5v-116q2 -110 -27.5 -148.5t-116.5 -38.5h-25v36h17
q67 2 86.5 35t18.5 142z" />
    <glyph glyph-name="asciitilde" unicode="~" 
d="M82 314l-35 9q22 60 49.5 85t72.5 25q30 0 54 -10t62 -38q36 -26 53 -34t37 -8q55 0 83 78l35 -10q-19 -58 -46.5 -82.5t-74.5 -24.5q-29 0 -51 9t-62 39q-34 26 -51.5 34t-37.5 8q-57 0 -88 -80z" />
    <glyph glyph-name="uni00A0" unicode="&#xa0;" horiz-adv-x="200" 
 />
    <glyph glyph-name="exclamdown" unicode="&#xa1;" horiz-adv-x="291" 
d="M166 312l6 -532h-53l6 532h41zM168 494v-79h-47v79h47z" />
    <glyph glyph-name="cent" unicode="&#xa2;" 
d="M273 44v111q-86 5 -130.5 62t-43.5 159v50q-3 224 174 237v107h44v-108q82 -7 122 -67l-37 -21q-39 50 -108 50q-76 0 -112.5 -48t-36.5 -149v-55q0 -88 38 -133t112 -45q77 0 119 48l36 -22q-44 -58 -133 -64v-112h-44z" />
    <glyph glyph-name="sterling" unicode="&#xa3;" 
d="M68 0v36q49 22 82.5 77.5t33.5 114.5q0 40 -18 90h-101v42h82q-35 60 -47.5 95.5t-12.5 73.5q0 88 52 140.5t140 52.5q106 0 163 -72q31 -42 44 -117l-41 -10q-13 66 -36 98q-43 60 -127 60q-66 0 -106 -40.5t-40 -107.5q0 -35 13 -69.5t52 -103.5h172v-42h-157
q15 -49 15 -86q0 -111 -91 -190h354v-42h-426z" />
    <glyph glyph-name="currency" unicode="&#xa4;" 
d="M61 91l-27 25l85 88q-46 57 -46 131q0 73 46 132l-85 88l27 24l84 -87q60 43 125 43q67 0 125 -43l84 87l27 -24l-85 -88q46 -59 46 -132q0 -74 -46 -131l85 -88l-27 -25l-84 88q-60 -44 -125 -44t-125 44zM272 496q-69 0 -112.5 -45t-43.5 -116q0 -70 43.5 -115.5
t110.5 -45.5t110.5 45.5t43.5 115.5q0 69 -43.5 115t-108.5 46z" />
    <glyph glyph-name="yen" unicode="&#xa5;" 
d="M246 0v159h-160v38h160v73h-160v38h143l-202 406h51l192 -390l192 390h51l-202 -406h143v-38h-160v-73h160v-38h-160v-159h-48z" />
    <glyph glyph-name="brokenbar" unicode="&#xa6;" horiz-adv-x="500" 
d="M227 466v248h46v-248h-46zM227 0v240h46v-240h-46z" />
    <glyph glyph-name="section" unicode="&#xa7;" 
d="M100 -36l31 32q55 -49 122 -49q58 0 91 28t33 77q0 38 -17 62q-13 17 -36 28t-78 28q-94 27 -126 57t-32 90q0 73 51 112q14 9 43 27q-34 20 -48 45.5t-14 68.5q0 72 41.5 112t115.5 40q72 0 138 -46l-30 -32q-46 37 -103 37q-53 0 -84 -28t-31 -77q0 -47 25.5 -70
t105.5 -48q96 -29 124 -56q34 -31 34 -92q0 -49 -20.5 -79t-73.5 -59q35 -22 48.5 -46.5t13.5 -67.5q0 -72 -43.5 -112t-121.5 -40q-85 0 -159 58zM286 416l-65 22q-49 -23 -68 -47.5t-19 -63.5q0 -45 19 -66q18 -21 105 -50l65 -22q37 20 53 32q34 27 34 79q0 44 -19 66
q-13 14 -32 23t-73 27z" />
    <glyph glyph-name="dieresis" unicode="&#xa8;" horiz-adv-x="500" 
d="M132 594v89h44v-89h-44zM323 594v89h44v-89h-44z" />
    <glyph glyph-name="copyright" unicode="&#xa9;" horiz-adv-x="815" 
d="M510 271l38 -3q-3 -42 -37 -64.5t-95 -22.5q-72 0 -104.5 34.5t-32.5 110.5v62q0 76 33 110.5t104 34.5q121 0 129 -87l-38 -3q-4 26 -27.5 41t-61.5 15q-51 0 -75 -26.5t-24 -82.5v-66q0 -56 23.5 -82.5t74.5 -26.5q82 0 93 56zM413 724q156 0 260 -105t104 -262
q0 -159 -104.5 -263t-264.5 -104q-159 0 -264 104t-105 262q0 161 105 263q106 105 269 105zM413 688q-152 0 -247 -101q-87 -92 -87 -231q0 -142 93.5 -236t235.5 -94t235.5 94t93.5 237q0 141 -93 236t-231 95z" />
    <glyph glyph-name="ordfeminine" unicode="&#xaa;" horiz-adv-x="329" 
d="M234 585v27q0 39 -17.5 56t-57.5 17q-46 0 -83 -31l-26 22q40 43 112 43q61 0 86.5 -25.5t25.5 -84.5v-198h-34l-2 21q-29 -26 -92 -26q-65 0 -90.5 19t-25.5 68q0 51 28.5 71.5t98.5 20.5h77zM235 552h-78q-50 0 -69 -12.5t-19 -44.5q0 -31 18 -43t64 -12q48 0 66 12.5
t18 45.5v54z" />
    <glyph glyph-name="guillemotleft" unicode="&#xab;" horiz-adv-x="390" 
d="M256 295l92 -123l-27 -21l-121 144l121 144l27 -21zM99 295l92 -123l-27 -21l-120 144l120 144l27 -21z" />
    <glyph glyph-name="logicalnot" unicode="&#xac;" 
d="M45 348v41h415v-267h-46v226h-369z" />
    <glyph glyph-name="uni00AD" unicode="&#xad;" horiz-adv-x="482" 
d="M111 347v42h260v-42h-260z" />
    <glyph glyph-name="registered" unicode="&#xae;" horiz-adv-x="629" 
d="M253 560v-117h-36v271h113q106 0 106 -76q0 -63 -67 -75l72 -120h-41l-68 117h-79zM253 587h81q66 0 66 49t-71 49h-76v-98zM318 849q115 0 191.5 -77t76.5 -193q0 -117 -77 -193.5t-195 -76.5t-195 76.5t-77 192.5q0 119 77.5 195t198.5 76zM317 813q-108 0 -169 -65
q-66 -68 -66 -169t66 -169q60 -65 166 -65q105 0 167 65q65 68 65 169q0 102 -65 169q-63 65 -164 65z" />
    <glyph glyph-name="macron" unicode="&#xaf;" horiz-adv-x="500" 
d="M138 630v35h225v-35h-225z" />
    <glyph glyph-name="degree" unicode="&#xb0;" horiz-adv-x="381" 
d="M193 742q71 0 114.5 -44.5t43.5 -116.5q0 -73 -44 -117t-117 -44q-72 0 -116 44t-44 117q0 74 44 117.5t119 43.5zM192 705q-56 0 -88 -33t-32 -91q0 -57 32 -90.5t87 -33.5q54 0 86 33.5t32 90.5q0 56 -32 90t-85 34z" />
    <glyph glyph-name="plusminus" unicode="&#xb1;" 
d="M30 351v41h218v221h44v-221h219v-41h-219v-219h-44v219h-218zM30 0v41h481v-41h-481z" />
    <glyph glyph-name="twosuperior" unicode="&#xb2;" horiz-adv-x="333" 
d="M46 386v28l128 154q67 82 67 136q0 38 -20.5 59t-57.5 21q-64 0 -87 -67l-37 7q19 95 125 95q118 0 118 -116q0 -38 -17 -73.5t-60 -87.5l-99 -121h175v-35h-235z" />
    <glyph glyph-name="threesuperior" unicode="&#xb3;" horiz-adv-x="333" 
d="M103 594v33h45q37 0 62.5 23t25.5 56q0 35 -22 56t-58 21q-62 0 -80 -53l-38 7q18 81 118 81q121 0 121 -112q0 -35 -14 -56.5t-47 -38.5q73 -29 73 -109q0 -58 -35 -89t-102 -31q-73 0 -106 36q-13 13 -21 43l39 11q16 -55 88 -55q44 0 70 23t26 63q0 39 -28 65t-70 26
h-47z" />
    <glyph glyph-name="acute" unicode="&#xb4;" horiz-adv-x="500" 
d="M213 583l71 134h64l-98 -134h-37z" />
    <glyph glyph-name="mu" unicode="&#xb5;" 
d="M91 494h46v-284q0 -91 31.5 -134t96.5 -43q74 0 106 49t32 163v249h46v-494h-36l-6 79q-37 -87 -142 -87q-83 0 -128 59v-276h-46v719z" />
    <glyph glyph-name="paragraph" unicode="&#xb6;" horiz-adv-x="559" 
d="M245 -136v487h-32q-80 0 -115 22q-36 22 -56.5 65t-20.5 96q0 55 21 98t57 63q25 13 49 16t115 3h192v-850h-45v809h-120v-809h-45z" />
    <glyph glyph-name="periodcentered" unicode="&#xb7;" horiz-adv-x="274" 
d="M114 330v78h48v-78h-48z" />
    <glyph glyph-name="cedilla" unicode="&#xb8;" horiz-adv-x="500" 
d="M197 -211l54 137h56l-75 -137h-35z" />
    <glyph glyph-name="onesuperior" unicode="&#xb9;" horiz-adv-x="212" 
d="M97 386v385l-81 -34l-12 34l103 43h31v-428h-41z" />
    <glyph glyph-name="ordmasculine" unicode="&#xba;" horiz-adv-x="352" 
d="M47 538v49q0 132 130 132q129 0 129 -132v-49q0 -131 -129 -131q-130 0 -130 131zM266 539v47q0 99 -90 99q-89 0 -89 -99v-47q0 -98 89 -98q90 0 90 98z" />
    <glyph glyph-name="guillemotright" unicode="&#xbb;" horiz-adv-x="390" 
d="M134 295l-92 123l27 21l120 -144l-120 -144l-27 21zM290 295l-92 123l27 21l121 -144l-121 -144l-27 21z" />
    <glyph glyph-name="onequarter" unicode="&#xbc;" horiz-adv-x="834" 
d="M162 286v385l-81 -34l-12 34l103 43h31v-428h-41zM241 0l223 714h46l-223 -714h-46zM658 0v88h-187v26l149 314h45l-146 -305h139v103h39v-103h48v-36h-48v-87h-39z" />
    <glyph glyph-name="onehalf" unicode="&#xbd;" horiz-adv-x="834" 
d="M159 286v385l-81 -34l-12 34l103 43h31v-428h-41zM226 0l223 714h46l-223 -714h-46zM504 0v28l127 154q68 81 68 136q0 37 -21 58.5t-57 21.5q-64 0 -87 -67l-37 7q20 95 125 95q118 0 118 -116q0 -37 -17.5 -73.5t-59.5 -87.5l-100 -121h176v-35h-235z" />
    <glyph glyph-name="threequarters" unicode="&#xbe;" horiz-adv-x="834" 
d="M113 494v33h45q37 0 62.5 23t25.5 56q0 35 -22 56t-58 21q-62 0 -80 -53l-38 7q16 81 118 81q121 0 121 -112q0 -35 -14 -56.5t-47 -38.5q73 -29 73 -109q0 -58 -35 -89t-102 -31q-73 0 -106 36q-13 13 -21 43l39 11q16 -55 88 -55q44 0 70 23t26 63q0 39 -28 65t-70 26
h-47zM682 0v88h-187v26l149 314h45l-145 -305h138v103h39v-103h48v-36h-48v-87h-39zM284 0l223 714h46l-223 -714h-46z" />
    <glyph glyph-name="questiondown" unicode="&#xbf;" horiz-adv-x="588" 
d="M322 312v-33q1 -55 -18.5 -91t-76.5 -84q-47 -41 -61 -60q-33 -44 -33 -93q0 -60 44 -99t111 -39q87 0 134 61q24 31 38 94l45 -8q-38 -189 -220 -189q-89 0 -145 51t-56 131q0 61 38 112q21 27 67 66q55 46 74 76.5t20 72.5v32h39zM325 494v-79h-47v79h47z" />
    <glyph glyph-name="Agrave" unicode="&#xc0;" horiz-adv-x="589" 
d="M467 167h-344l-60 -167h-53l263 714h43l263 -714h-53zM453 209l-158 437l-159 -437h317zM332 796h-36l-99 134h64z" />
    <glyph glyph-name="Aacute" unicode="&#xc1;" horiz-adv-x="589" 
d="M467 167h-344l-60 -167h-53l263 714h43l263 -714h-53zM453 209l-158 437l-159 -437h317zM260 796l71 134h64l-98 -134h-37z" />
    <glyph glyph-name="Acircumflex" unicode="&#xc2;" horiz-adv-x="589" 
d="M467 167h-344l-60 -167h-53l263 714h43l263 -714h-53zM453 209l-158 437l-159 -437h317zM295 886l-76 -83h-58l121 122h25l121 -122h-58z" />
    <glyph glyph-name="Atilde" unicode="&#xc3;" horiz-adv-x="589" 
d="M467 167h-344l-60 -167h-53l263 714h43l263 -714h-53zM453 209l-158 437l-159 -437h317zM185 817h-34q14 50 33 71.5t50 21.5q34 0 70 -32q36 -33 55 -33q29 0 46 57h34q-14 -51 -32.5 -72t-49.5 -21q-34 0 -71 33q-36 32 -56 32q-28 0 -45 -57z" />
    <glyph glyph-name="Adieresis" unicode="&#xc4;" horiz-adv-x="589" 
d="M467 167h-344l-60 -167h-53l263 714h43l263 -714h-53zM453 209l-158 437l-159 -437h317zM177 807v89h44v-89h-44zM368 807v89h44v-89h-44z" />
    <glyph glyph-name="Aring" unicode="&#xc5;" horiz-adv-x="589" 
d="M467 167h-344l-60 -167h-53l263 714h43l263 -714h-53zM453 209l-158 437l-159 -437h317zM296 976q41 0 66 -25.5t25 -67.5q0 -43 -25 -68.5t-67 -25.5q-41 0 -66.5 25.5t-25.5 68.5t25 68t68 25zM296 946q-26 0 -40 -16.5t-14 -47.5q0 -29 14 -46t39 -17t39 17t14 46
q0 30 -14 47t-38 17z" />
    <glyph glyph-name="AE" unicode="&#xc6;" horiz-adv-x="943" 
d="M483 172h-342l-113 -172h-56l475 714h436v-42h-352v-289h301v-42h-301v-299h351v-42h-399v172zM483 214v458h-14l-303 -458h317z" />
    <glyph glyph-name="Ccedilla" unicode="&#xc7;" horiz-adv-x="638" 
d="M501 160l45 -5q-5 -75 -64 -119t-155 -44q-129 0 -188 92q-41 63 -41 202v141q0 82 11.5 131.5t39.5 85.5q62 78 179 78q94 0 151.5 -44.5t61.5 -120.5l-44 -3q-9 59 -53.5 92.5t-114.5 33.5q-95 0 -139 -60.5t-44 -192.5v-141q0 -132 43.5 -192t138.5 -60
q72 0 118.5 33.5t54.5 92.5zM250 -211l54 137h56l-75 -137h-35z" />
    <glyph glyph-name="Egrave" unicode="&#xc8;" horiz-adv-x="577" 
d="M116 0v714h401v-42h-353v-289h301v-42h-301v-299h351v-42h-399zM362 796h-36l-99 134h64z" />
    <glyph glyph-name="Eacute" unicode="&#xc9;" horiz-adv-x="577" 
d="M116 0v714h401v-42h-353v-289h301v-42h-301v-299h351v-42h-399zM286 796l71 134h64l-98 -134h-37z" />
    <glyph glyph-name="Ecircumflex" unicode="&#xca;" horiz-adv-x="577" 
d="M116 0v714h401v-42h-353v-289h301v-42h-301v-299h351v-42h-399zM322 886l-76 -83h-58l121 122h25l121 -122h-58z" />
    <glyph glyph-name="Edieresis" unicode="&#xcb;" horiz-adv-x="577" 
d="M116 0v714h401v-42h-353v-289h301v-42h-301v-299h351v-42h-399zM201 807v89h44v-89h-44zM392 807v89h44v-89h-44z" />
    <glyph glyph-name="Igrave" unicode="&#xcc;" horiz-adv-x="280" 
d="M116 0v714h48v-714h-48zM178 796h-36l-99 134h64z" />
    <glyph glyph-name="Iacute" unicode="&#xcd;" horiz-adv-x="280" 
d="M114 0v714h48v-714h-48zM103 796l71 134h64l-98 -134h-37z" />
    <glyph glyph-name="Icircumflex" unicode="&#xce;" horiz-adv-x="280" 
d="M116 0v714h48v-714h-48zM140 886l-76 -83h-58l121 122h25l121 -122h-58z" />
    <glyph glyph-name="Idieresis" unicode="&#xcf;" horiz-adv-x="280" 
d="M116 0v714h48v-714h-48zM22 807v89h44v-89h-44zM213 807v89h44v-89h-44z" />
    <glyph glyph-name="Eth" unicode="&#xd0;" horiz-adv-x="682" 
d="M116 383v331h217q123 2 189 -68t62 -200v-177q4 -130 -61.5 -200t-189.5 -69h-217v341h-90v42h90zM164 383h199v-42h-199v-299h163q104 -2 157.5 57.5t51.5 175.5v165q2 116 -51.5 175t-157.5 57h-163v-289z" />
    <glyph glyph-name="Ntilde" unicode="&#xd1;" horiz-adv-x="726" 
d="M116 0v714h45l403 -630v630h47v-714h-45l-403 630v-630h-47zM259 817h-34q14 50 33 71.5t50 21.5q34 0 70 -32q36 -33 55 -33q29 0 46 57h34q-14 -51 -32.5 -72t-49.5 -21q-34 0 -71 33q-36 32 -56 32q-28 0 -45 -57z" />
    <glyph glyph-name="Ograve" unicode="&#xd2;" horiz-adv-x="679" 
d="M98 267v180q0 135 58 201q67 74 184 74q128 0 193 -86q48 -64 48 -189v-180q0 -135 -58 -201q-65 -74 -183 -74q-129 0 -194 86q-48 64 -48 189zM533 273v168q0 119 -47 176q-51 63 -146 63q-103 0 -155 -73q-39 -56 -39 -166v-168q0 -119 47 -176q51 -63 147 -63
q102 0 154 73q39 56 39 166zM379 796h-36l-99 134h64z" />
    <glyph glyph-name="Oacute" unicode="&#xd3;" horiz-adv-x="679" 
d="M98 267v180q0 135 58 201q67 74 184 74q128 0 193 -86q48 -64 48 -189v-180q0 -135 -58 -201q-65 -74 -183 -74q-129 0 -194 86q-48 64 -48 189zM533 273v168q0 119 -47 176q-51 63 -146 63q-103 0 -155 -73q-39 -56 -39 -166v-168q0 -119 47 -176q51 -63 147 -63
q102 0 154 73q39 56 39 166zM303 796l71 134h64l-98 -134h-37z" />
    <glyph glyph-name="Ocircumflex" unicode="&#xd4;" horiz-adv-x="679" 
d="M98 267v180q0 135 58 201q67 74 184 74q128 0 193 -86q48 -64 48 -189v-180q0 -135 -58 -201q-65 -74 -183 -74q-129 0 -194 86q-48 64 -48 189zM533 273v168q0 119 -47 176q-51 63 -146 63q-103 0 -155 -73q-39 -56 -39 -166v-168q0 -119 47 -176q51 -63 147 -63
q102 0 154 73q39 56 39 166zM340 886l-76 -83h-58l121 122h25l121 -122h-58z" />
    <glyph glyph-name="Otilde" unicode="&#xd5;" horiz-adv-x="679" 
d="M98 267v180q0 135 58 201q67 74 184 74q128 0 193 -86q48 -64 48 -189v-180q0 -135 -58 -201q-65 -74 -183 -74q-129 0 -194 86q-48 64 -48 189zM533 273v168q0 119 -47 176q-51 63 -146 63q-103 0 -155 -73q-39 -56 -39 -166v-168q0 -119 47 -176q51 -63 147 -63
q102 0 154 73q39 56 39 166zM230 817h-34q14 50 33 71.5t50 21.5q34 0 70 -32q36 -33 55 -33q29 0 46 57h34q-14 -51 -32.5 -72t-49.5 -21q-34 0 -71 33q-36 32 -56 32q-28 0 -45 -57z" />
    <glyph glyph-name="Odieresis" unicode="&#xd6;" horiz-adv-x="679" 
d="M98 267v180q0 135 58 201q67 74 184 74q128 0 193 -86q48 -64 48 -189v-180q0 -135 -58 -201q-65 -74 -183 -74q-129 0 -194 86q-48 64 -48 189zM533 273v168q0 119 -47 176q-51 63 -146 63q-103 0 -155 -73q-39 -56 -39 -166v-168q0 -119 47 -176q51 -63 147 -63
q102 0 154 73q39 56 39 166zM222 807v89h44v-89h-44zM413 807v89h44v-89h-44z" />
    <glyph glyph-name="multiply" unicode="&#xd7;" 
d="M242 368l-171 172l29 28l171 -171l171 171l28 -28l-171 -172l171 -171l-28 -28l-171 171l-171 -171l-29 28z" />
    <glyph glyph-name="Oslash" unicode="&#xd8;" horiz-adv-x="678" 
d="M591 700l-50 -77q39 -63 39 -176v-180q0 -73 -13.5 -119.5t-44.5 -81.5q-65 -74 -183 -74q-110 0 -174 63l-46 -69l-32 24l51 78q-41 65 -41 179v180q0 135 58 201q67 74 184 74q112 0 175 -66l45 68zM510 577l-318 -481q52 -62 147 -62q102 0 154 73q39 55 39 166v168
q0 84 -22 136zM169 134l318 481q-52 65 -148 65q-103 0 -155 -73q-39 -56 -39 -166v-168q0 -88 24 -139z" />
    <glyph glyph-name="Ugrave" unicode="&#xd9;" horiz-adv-x="694" 
d="M113 714h48v-454q0 -61 7 -94.5t25 -59.5q48 -72 154 -72q114 0 161 83q25 44 25 143v454h48v-454q0 -73 -9 -113t-33 -72q-64 -83 -192 -83q-139 0 -200 96q-19 29 -26.5 66.5t-7.5 105.5v454zM401 796h-36l-99 134h64z" />
    <glyph glyph-name="Uacute" unicode="&#xda;" horiz-adv-x="694" 
d="M113 714h48v-454q0 -61 7 -94.5t25 -59.5q48 -72 154 -72q114 0 161 83q25 44 25 143v454h48v-454q0 -73 -9 -113t-33 -72q-64 -83 -192 -83q-139 0 -200 96q-19 29 -26.5 66.5t-7.5 105.5v454zM317 796l71 134h64l-98 -134h-37z" />
    <glyph glyph-name="Ucircumflex" unicode="&#xdb;" horiz-adv-x="694" 
d="M113 714h48v-454q0 -61 7 -94.5t25 -59.5q48 -72 154 -72q114 0 161 83q25 44 25 143v454h48v-454q0 -73 -9 -113t-33 -72q-64 -83 -192 -83q-139 0 -200 96q-19 29 -26.5 66.5t-7.5 105.5v454zM347 886l-76 -83h-58l121 122h25l121 -122h-58z" />
    <glyph glyph-name="Udieresis" unicode="&#xdc;" horiz-adv-x="694" 
d="M113 714h48v-454q0 -61 7 -94.5t25 -59.5q48 -72 154 -72q114 0 161 83q25 44 25 143v454h48v-454q0 -73 -9 -113t-33 -72q-64 -83 -192 -83q-139 0 -200 96q-19 29 -26.5 66.5t-7.5 105.5v454zM229 807v89h44v-89h-44zM420 807v89h44v-89h-44z" />
    <glyph glyph-name="Yacute" unicode="&#xdd;" horiz-adv-x="524" 
d="M239 0v258l-228 456h51l201 -404l200 404h52l-228 -456v-258h-48zM236 796l71 134h64l-98 -134h-37z" />
    <glyph glyph-name="Thorn" unicode="&#xde;" horiz-adv-x="609" 
d="M165 173v-173h-48v714h48v-118h175q62 0 100.5 -13t66.5 -44q51 -54 51 -154q0 -107 -60 -164q-51 -48 -158 -48h-175zM165 215h175q86 0 127 44q42 43 42 126q0 88 -49 133q-39 36 -120 36h-175v-339z" />
    <glyph glyph-name="germandbls" unicode="&#xdf;" horiz-adv-x="566" 
d="M98 0v547q0 174 175 174q86 0 131.5 -39.5t45.5 -113.5q0 -40 -12 -66t-41 -52q49 -18 69 -64.5t20 -139.5v-42q1 -109 -37 -157t-125 -47h-52v41h48q68 -1 94 34t25 127v46q0 104 -24 140.5t-90 34.5h-20v37h16q40 0 61.5 27t21.5 76q0 118 -130 118q-67 0 -98 -32
t-31 -101v-548h-47z" />
    <glyph glyph-name="agrave" unicode="&#xe0;" horiz-adv-x="519" 
d="M377 280v48q0 64 -21 93q-30 41 -105 41q-82 0 -132 -51l-32 27q57 65 167 65q105 0 146 -64q24 -37 24 -115v-324h-39l-5 40q-23 -26 -56.5 -37t-92.5 -11q-98 0 -137.5 31.5t-39.5 110.5q0 81 42 113.5t148 32.5h133zM377 243h-132q-79 0 -112 -25t-33 -84
q0 -57 30.5 -79t107.5 -22q95 0 123 38q16 21 16 75v97zM309 583h-36l-99 134h64z" />
    <glyph glyph-name="aacute" unicode="&#xe1;" horiz-adv-x="519" 
d="M377 280v48q0 64 -21 93q-30 41 -105 41q-82 0 -132 -51l-32 27q57 65 167 65q105 0 146 -64q24 -37 24 -115v-324h-39l-5 40q-23 -26 -56.5 -37t-92.5 -11q-98 0 -137.5 31.5t-39.5 110.5q0 81 42 113.5t148 32.5h133zM377 243h-132q-79 0 -112 -25t-33 -84
q0 -57 30.5 -79t107.5 -22q95 0 123 38q16 21 16 75v97zM225 583l71 134h64l-98 -134h-37z" />
    <glyph glyph-name="acircumflex" unicode="&#xe2;" horiz-adv-x="519" 
d="M377 280v48q0 64 -21 93q-30 41 -105 41q-82 0 -132 -51l-32 27q57 65 167 65q105 0 146 -64q24 -37 24 -115v-324h-39l-5 40q-23 -26 -56.5 -37t-92.5 -11q-98 0 -137.5 31.5t-39.5 110.5q0 81 42 113.5t148 32.5h133zM377 243h-132q-79 0 -112 -25t-33 -84
q0 -57 30.5 -79t107.5 -22q95 0 123 38q16 21 16 75v97zM260 672l-76 -83h-58l121 122h25l121 -122h-58z" />
    <glyph glyph-name="atilde" unicode="&#xe3;" horiz-adv-x="519" 
d="M377 280v48q0 64 -21 93q-30 41 -105 41q-82 0 -132 -51l-32 27q57 65 167 65q105 0 146 -64q24 -37 24 -115v-324h-39l-5 40q-23 -26 -56.5 -37t-92.5 -11q-98 0 -137.5 31.5t-39.5 110.5q0 81 42 113.5t148 32.5h133zM377 243h-132q-79 0 -112 -25t-33 -84
q0 -57 30.5 -79t107.5 -22q95 0 123 38q16 21 16 75v97zM149 604h-34q14 50 33 71.5t50 21.5q34 0 70 -32q36 -33 55 -33q29 0 46 57h34q-14 -51 -32.5 -72t-49.5 -21q-34 0 -71 33q-36 32 -56 32q-28 0 -45 -57z" />
    <glyph glyph-name="adieresis" unicode="&#xe4;" horiz-adv-x="519" 
d="M377 280v48q0 64 -21 93q-30 41 -105 41q-82 0 -132 -51l-32 27q57 65 167 65q105 0 146 -64q24 -37 24 -115v-324h-39l-5 40q-23 -26 -56.5 -37t-92.5 -11q-98 0 -137.5 31.5t-39.5 110.5q0 81 42 113.5t148 32.5h133zM377 243h-132q-79 0 -112 -25t-33 -84
q0 -57 30.5 -79t107.5 -22q95 0 123 38q16 21 16 75v97zM141 594v89h44v-89h-44zM332 594v89h44v-89h-44z" />
    <glyph glyph-name="aring" unicode="&#xe5;" horiz-adv-x="519" 
d="M377 280v48q0 64 -21 93q-30 41 -105 41q-82 0 -132 -51l-32 27q57 65 167 65q105 0 146 -64q24 -37 24 -115v-324h-39l-5 40q-23 -26 -56.5 -37t-92.5 -11q-98 0 -137.5 31.5t-39.5 110.5q0 81 42 113.5t148 32.5h133zM377 243h-132q-79 0 -112 -25t-33 -84
q0 -57 30.5 -79t107.5 -22q95 0 123 38q16 21 16 75v97zM266 763q41 0 66 -25.5t25 -67.5q0 -43 -25 -68.5t-67 -25.5t-67 25.5t-25 68.5t25 68t68 25zM266 733q-26 0 -40 -16.5t-14 -47.5q0 -29 14 -46t39 -17t39 17t14 47q0 29 -14 46t-38 17z" />
    <glyph glyph-name="ae" unicode="&#xe6;" horiz-adv-x="837" 
d="M119 411l-32 25q58 67 166 67q129 0 155 -100q41 100 166 100q189 0 189 -233v-25h-339v-29q0 -89 41.5 -136t120.5 -47t122 47l36 -23q-55 -65 -160 -65q-132 0 -179 105q-12 -55 -54.5 -80t-122.5 -25q-96 0 -135 31.5t-39 110.5q0 81 42 113.5t148 32.5h133v48
q0 66 -21 93q-30 41 -105 41q-81 0 -132 -51zM377 243h-132q-79 0 -112 -25t-33 -84q0 -56 30 -78.5t106 -22.5q50 0 76.5 9.5t42.5 34.5q22 31 22 103v63zM425 282h292v6q0 78 -31 121q-36 53 -115 53q-71 0 -108.5 -45t-37.5 -130v-5z" />
    <glyph glyph-name="ccedilla" unicode="&#xe7;" horiz-adv-x="472" 
d="M396 80l36 -24q-54 -64 -156 -64q-195 0 -195 222v50q0 239 192 239q101 0 148 -69l-37 -22q-40 50 -108 50q-76 0 -112 -48t-36 -149v-56q0 -86 38 -131t111 -45q78 0 119 47zM182 -211l54 137h56l-75 -137h-35z" />
    <glyph glyph-name="egrave" unicode="&#xe8;" 
d="M128 245v-29q0 -89 41 -136t120 -47t122 47l36 -24q-54 -64 -160 -64q-206 0 -206 232v46q0 233 193 233t193 -233v-25h-339zM128 282h293v6q0 75 -31 121q-37 53 -115 53q-71 0 -109 -45t-38 -130v-5zM319 583h-36l-99 134h64z" />
    <glyph glyph-name="eacute" unicode="&#xe9;" 
d="M128 245v-29q0 -89 41 -136t120 -47t122 47l36 -24q-54 -64 -160 -64q-206 0 -206 232v46q0 233 193 233t193 -233v-25h-339zM128 282h293v6q0 75 -31 121q-37 53 -115 53q-71 0 -109 -45t-38 -130v-5zM243 583l71 134h64l-98 -134h-37z" />
    <glyph glyph-name="ecircumflex" unicode="&#xea;" 
d="M128 245v-29q0 -89 41 -136t120 -47t122 47l36 -24q-54 -64 -160 -64q-206 0 -206 232v46q0 233 193 233t193 -233v-25h-339zM128 282h293v6q0 75 -31 121q-37 53 -115 53q-71 0 -109 -45t-38 -130v-5zM280 672l-76 -83h-58l121 122h25l121 -122h-58z" />
    <glyph glyph-name="edieresis" unicode="&#xeb;" 
d="M128 245v-29q0 -89 41 -136t120 -47t122 47l36 -24q-54 -64 -160 -64q-206 0 -206 232v46q0 233 193 233t193 -233v-25h-339zM128 282h293v6q0 75 -31 121q-37 53 -115 53q-71 0 -109 -45t-38 -130v-5zM162 594v89h44v-89h-44zM353 594v89h44v-89h-44z" />
    <glyph glyph-name="igrave" unicode="&#xec;" horiz-adv-x="241" 
d="M97 0v494h47v-494h-47zM158 583h-36l-99 134h64z" />
    <glyph glyph-name="iacute" unicode="&#xed;" horiz-adv-x="241" 
d="M96 0v494h47v-494h-47zM84 583l71 134h64l-98 -134h-37z" />
    <glyph glyph-name="icircumflex" unicode="&#xee;" horiz-adv-x="241" 
d="M97 0v494h47v-494h-47zM121 672l-76 -83h-58l121 122h25l121 -122h-58z" />
    <glyph glyph-name="idieresis" unicode="&#xef;" horiz-adv-x="241" 
d="M97 0v494h47v-494h-47zM3 594v89h44v-89h-44zM194 594v89h44v-89h-44z" />
    <glyph glyph-name="eth" unicode="&#xf0;" horiz-adv-x="556" 
d="M81 208v75q0 107 48.5 162t142.5 55q75 0 121 -40q-29 84 -63 126l-119 -49l-17 34l107 43q-60 54 -143 70l7 32q103 -12 178 -84l86 36l17 -34l-76 -31q45 -56 75.5 -148.5t29.5 -171.5v-75q0 -216 -197 -216t-197 216zM428 209v72q0 178 -150 178t-150 -178v-72
q0 -176 150 -176t150 176z" />
    <glyph glyph-name="ntilde" unicode="&#xf1;" horiz-adv-x="562" 
d="M99 0v494h38l5 -75q41 84 148 84q125 0 162 -96q16 -39 16 -123v-284h-47v281q0 73 -16 111q-32 70 -117 70q-98 0 -128 -91q-14 -41 -14 -122v-249h-47zM171 604h-34q14 50 33 71.5t50 21.5q34 0 70 -32q36 -33 55 -33q29 0 46 57h34q-14 -51 -32.5 -72t-49.5 -21
q-34 0 -71 33q-36 32 -56 32q-28 0 -45 -57z" />
    <glyph glyph-name="ograve" unicode="&#xf2;" horiz-adv-x="556" 
d="M81 208v77q0 218 197 218t197 -218v-77q0 -216 -197 -216t-197 216zM428 209v75q0 178 -150 178t-150 -178v-75q0 -176 150 -176t150 176zM317 583h-36l-99 134h64z" />
    <glyph glyph-name="oacute" unicode="&#xf3;" horiz-adv-x="556" 
d="M81 208v77q0 218 197 218t197 -218v-77q0 -216 -197 -216t-197 216zM428 209v75q0 178 -150 178t-150 -178v-75q0 -176 150 -176t150 176zM241 583l71 134h64l-98 -134h-37z" />
    <glyph glyph-name="ocircumflex" unicode="&#xf4;" horiz-adv-x="556" 
d="M81 208v77q0 218 197 218t197 -218v-77q0 -216 -197 -216t-197 216zM428 209v75q0 178 -150 178t-150 -178v-75q0 -176 150 -176t150 176zM278 672l-76 -83h-58l121 122h25l121 -122h-58z" />
    <glyph glyph-name="otilde" unicode="&#xf5;" horiz-adv-x="556" 
d="M81 208v77q0 218 197 218t197 -218v-77q0 -216 -197 -216t-197 216zM428 209v75q0 178 -150 178t-150 -178v-75q0 -176 150 -176t150 176zM168 604h-34q14 50 33 71.5t50 21.5q34 0 70 -32q36 -33 55 -33q29 0 46 57h34q-14 -51 -32.5 -72t-49.5 -21q-34 0 -71 33
q-36 32 -56 32q-28 0 -45 -57z" />
    <glyph glyph-name="odieresis" unicode="&#xf6;" horiz-adv-x="556" 
d="M81 208v77q0 218 197 218t197 -218v-77q0 -216 -197 -216t-197 216zM428 209v75q0 178 -150 178t-150 -178v-75q0 -176 150 -176t150 176zM160 594v89h44v-89h-44zM351 594v89h44v-89h-44z" />
    <glyph glyph-name="divide" unicode="&#xf7;" 
d="M30 348v41h481v-41h-481zM248 176v76h45v-76h-45zM248 484v76h45v-76h-45z" />
    <glyph glyph-name="oslash" unicode="&#xf8;" horiz-adv-x="556" 
d="M471 486l-36 -51q39 -51 39 -150v-76q0 -217 -197 -217q-81 0 -131 40l-33 -46l-30 22l36 51q-39 51 -39 150v76q0 218 198 218q82 0 130 -40l33 46zM405 394l-232 -325q36 -36 103 -36q151 0 151 177v74q0 67 -22 110zM149 101l232 324q-37 37 -103 37q-151 0 -151 -178
v-74q0 -66 22 -109z" />
    <glyph glyph-name="ugrave" unicode="&#xf9;" horiz-adv-x="551" 
d="M94 494h47v-281q0 -72 16 -111q30 -70 112 -70q73 0 104.5 49.5t31.5 163.5v249h47v-494h-38l-5 75q-38 -84 -143 -84q-120 0 -157 96q-15 41 -15 123v284zM315 583h-36l-99 134h64z" />
    <glyph glyph-name="uacute" unicode="&#xfa;" horiz-adv-x="551" 
d="M94 494h47v-281q0 -72 16 -111q30 -70 112 -70q73 0 104.5 49.5t31.5 163.5v249h47v-494h-38l-5 75q-38 -84 -143 -84q-120 0 -157 96q-15 41 -15 123v284zM239 583l71 134h64l-98 -134h-37z" />
    <glyph glyph-name="ucircumflex" unicode="&#xfb;" horiz-adv-x="551" 
d="M94 494h47v-281q0 -72 16 -111q30 -70 112 -70q73 0 104.5 49.5t31.5 163.5v249h47v-494h-38l-5 75q-38 -84 -143 -84q-120 0 -157 96q-15 41 -15 123v284zM276 672l-76 -83h-58l121 122h25l121 -122h-58z" />
    <glyph glyph-name="udieresis" unicode="&#xfc;" horiz-adv-x="551" 
d="M94 494h47v-281q0 -72 16 -111q30 -70 112 -70q73 0 104.5 49.5t31.5 163.5v249h47v-494h-38l-5 75q-38 -84 -143 -84q-120 0 -157 96q-15 41 -15 123v284zM158 594v89h44v-89h-44zM349 594v89h44v-89h-44z" />
    <glyph glyph-name="yacute" unicode="&#xfd;" horiz-adv-x="475" 
d="M220 -6l-192 500h47l169 -445l149 445h47l-206 -602q-28 -75 -59 -98t-108 -24v41q54 0 76.5 16.5t43.5 70.5zM209 583l71 134h64l-98 -134h-37z" />
    <glyph glyph-name="thorn" unicode="&#xfe;" horiz-adv-x="564" 
d="M146 68v-293h-47v939h47v-288q21 30 36 42q44 35 119 35q182 0 182 -218v-76q0 -217 -185 -217q-54 0 -89 17.5t-63 58.5zM436 210v73q0 179 -142 179q-148 0 -148 -182v-66q0 -181 147 -181q143 0 143 177z" />
    <glyph glyph-name="ydieresis" unicode="&#xff;" horiz-adv-x="475" 
d="M220 -6l-192 500h47l169 -445l149 445h47l-206 -602q-28 -75 -59 -98t-108 -24v41q54 0 76.5 16.5t43.5 70.5zM120 594v89h44v-89h-44zM311 594v89h44v-89h-44z" />
    <glyph glyph-name="Amacron" unicode="&#x100;" horiz-adv-x="589" 
d="M467 167h-344l-60 -167h-53l263 714h43l263 -714h-53zM453 209l-158 437l-159 -437h317zM183 843v35h225v-35h-225z" />
    <glyph glyph-name="amacron" unicode="&#x101;" horiz-adv-x="519" 
d="M377 280v48q0 64 -21 93q-30 41 -105 41q-82 0 -132 -51l-32 27q57 65 167 65q105 0 146 -64q24 -37 24 -115v-324h-39l-5 40q-23 -26 -56.5 -37t-92.5 -11q-98 0 -137.5 31.5t-39.5 110.5q0 81 42 113.5t148 32.5h133zM377 243h-132q-79 0 -112 -25t-33 -84
q0 -57 30.5 -79t107.5 -22q95 0 123 38q16 21 16 75v97zM147 630v35h225v-35h-225z" />
    <glyph glyph-name="Abreve" unicode="&#x102;" horiz-adv-x="589" 
d="M467 167h-344l-60 -167h-53l263 714h43l263 -714h-53zM453 209l-158 437l-159 -437h317zM174 918h37q5 -46 23.5 -65t59.5 -19q43 0 61.5 18.5t23.5 65.5h37q-5 -70 -31 -96.5t-90 -26.5q-65 0 -91 26.5t-30 96.5z" />
    <glyph glyph-name="abreve" unicode="&#x103;" horiz-adv-x="519" 
d="M377 280v48q0 64 -21 93q-30 41 -105 41q-82 0 -132 -51l-32 27q57 65 167 65q105 0 146 -64q24 -37 24 -115v-324h-39l-5 40q-23 -26 -56.5 -37t-92.5 -11q-98 0 -137.5 31.5t-39.5 110.5q0 81 42 113.5t148 32.5h133zM377 243h-132q-79 0 -112 -25t-33 -84
q0 -57 30.5 -79t107.5 -22q95 0 123 38q16 21 16 75v97zM141 705h37q5 -46 23.5 -65t60.5 -19t61 18.5t23 65.5h37q-4 -70 -30.5 -96.5t-90.5 -26.5q-65 0 -91 26.5t-30 96.5z" />
    <glyph glyph-name="Aogonek" unicode="&#x104;" horiz-adv-x="589" 
d="M316 714l263 -714q-55 -28 -78 -52t-23 -53q0 -43 54 -43q25 0 57 9l4 -34q-34 -10 -67 -10q-93 0 -93 71q0 35 25.5 65.5t68.5 46.5h-1l-59 167h-344l-60 -167h-53l263 714h43zM453 209l-158 437l-159 -437h317z" />
    <glyph glyph-name="aogonek" unicode="&#x105;" horiz-adv-x="519" 
d="M424 324v-324q-55 -28 -78 -51.5t-23 -52.5q0 -44 54 -44q25 0 56 9l5 -34q-36 -10 -68 -10q-92 0 -92 71q0 72 106 118l-4 34q-23 -26 -56.5 -37t-92.5 -11q-98 0 -137.5 31.5t-39.5 110.5q0 81 42 113.5t148 32.5h133v48q0 64 -21 93q-30 41 -105 41q-82 0 -132 -51
l-32 27q57 65 167 65q105 0 146 -64q24 -37 24 -115zM377 243h-132q-79 0 -112 -25t-33 -84q0 -57 30.5 -79t107.5 -22q95 0 123 38q16 21 16 75v97z" />
    <glyph glyph-name="Cacute" unicode="&#x106;" horiz-adv-x="638" 
d="M501 160l45 -5q-5 -75 -64 -119t-155 -44q-129 0 -188 92q-41 63 -41 202v141q0 82 11.5 131.5t39.5 85.5q62 78 179 78q94 0 151.5 -44.5t61.5 -120.5l-44 -3q-9 59 -53.5 92.5t-114.5 33.5q-95 0 -139 -60.5t-44 -192.5v-141q0 -132 43.5 -192t138.5 -60
q72 0 118.5 33.5t54.5 92.5zM293 796l71 134h64l-98 -134h-37z" />
    <glyph glyph-name="cacute" unicode="&#x107;" horiz-adv-x="472" 
d="M396 80l36 -24q-54 -64 -156 -64q-195 0 -195 222v50q0 239 192 239q101 0 148 -69l-37 -22q-40 50 -108 50q-76 0 -112 -48t-36 -149v-56q0 -86 38 -131t111 -45q78 0 119 47zM228 583l71 134h64l-98 -134h-37z" />
    <glyph glyph-name="Ccircumflex" unicode="&#x108;" horiz-adv-x="638" 
d="M501 160l45 -5q-5 -75 -64 -119t-155 -44q-129 0 -188 92q-41 63 -41 202v141q0 82 11.5 131.5t39.5 85.5q62 78 179 78q94 0 151.5 -44.5t61.5 -120.5l-44 -3q-9 59 -53.5 92.5t-114.5 33.5q-95 0 -139 -60.5t-44 -192.5v-141q0 -132 43.5 -192t138.5 -60
q72 0 118.5 33.5t54.5 92.5zM329 886l-76 -83h-58l121 122h25l121 -122h-58z" />
    <glyph glyph-name="ccircumflex" unicode="&#x109;" horiz-adv-x="472" 
d="M396 80l36 -24q-54 -64 -156 -64q-195 0 -195 222v50q0 239 192 239q101 0 148 -69l-37 -22q-40 50 -108 50q-76 0 -112 -48t-36 -149v-56q0 -86 38 -131t111 -45q78 0 119 47zM264 672l-76 -83h-58l121 122h25l121 -122h-58z" />
    <glyph glyph-name="Cdotaccent" unicode="&#x10a;" horiz-adv-x="638" 
d="M501 160l45 -5q-5 -75 -64 -119t-155 -44q-129 0 -188 92q-41 63 -41 202v141q0 82 11.5 131.5t39.5 85.5q62 78 179 78q94 0 151.5 -44.5t61.5 -120.5l-44 -3q-9 59 -53.5 92.5t-114.5 33.5q-95 0 -139 -60.5t-44 -192.5v-141q0 -132 43.5 -192t138.5 -60
q72 0 118.5 33.5t54.5 92.5zM306 807v89h46v-89h-46z" />
    <glyph glyph-name="cdotaccent" unicode="&#x10b;" horiz-adv-x="472" 
d="M396 80l36 -24q-54 -64 -156 -64q-195 0 -195 222v50q0 239 192 239q101 0 148 -69l-37 -22q-40 50 -108 50q-76 0 -112 -48t-36 -149v-56q0 -86 38 -131t111 -45q78 0 119 47zM245 594v89h46v-89h-46z" />
    <glyph glyph-name="Ccaron" unicode="&#x10c;" horiz-adv-x="638" 
d="M501 160l45 -5q-5 -75 -64 -119t-155 -44q-129 0 -188 92q-41 63 -41 202v141q0 82 11.5 131.5t39.5 85.5q62 78 179 78q94 0 151.5 -44.5t61.5 -120.5l-44 -3q-9 59 -53.5 92.5t-114.5 33.5q-95 0 -139 -60.5t-44 -192.5v-141q0 -132 43.5 -192t138.5 -60
q72 0 118.5 33.5t54.5 92.5zM329 841l75 83h58l-121 -122h-25l-121 122h58z" />
    <glyph glyph-name="ccaron" unicode="&#x10d;" horiz-adv-x="472" 
d="M396 80l36 -24q-54 -64 -156 -64q-195 0 -195 222v50q0 239 192 239q101 0 148 -69l-37 -22q-40 50 -108 50q-76 0 -112 -48t-36 -149v-56q0 -86 38 -131t111 -45q78 0 119 47zM273 628l75 83h58l-121 -122h-25l-121 122h58z" />
    <glyph glyph-name="Dcaron" unicode="&#x10e;" horiz-adv-x="682" 
d="M116 0v714h217q123 2 189 -68t62 -200v-177q4 -130 -61.5 -200.5t-189.5 -68.5h-217zM164 42h163q104 -2 157.5 57.5t51.5 175.5v165q2 115 -51.5 174.5t-157.5 57.5h-163v-630zM310 841l75 83h58l-121 -122h-25l-121 122h58z" />
    <glyph glyph-name="dcaron" unicode="&#x10f;" horiz-adv-x="613" 
d="M426 0l-4 70q-30 -44 -64 -61t-92 -17q-185 0 -185 217v76q0 218 184 218q107 0 153 -79v290h47v-714h-39zM128 283v-72q0 -178 142 -178q148 0 148 181v66q0 182 -148 182q-142 0 -142 -179zM559 518l22 199h54l-43 -199h-33z" />
    <glyph glyph-name="Dcroat" unicode="&#x110;" horiz-adv-x="682" 
d="M116 383v331h217q123 2 189 -68t62 -200v-177q4 -130 -61.5 -200t-189.5 -69h-217v341h-90v42h90zM164 383h199v-42h-199v-299h163q104 -2 157.5 57.5t51.5 175.5v165q2 116 -51.5 175t-157.5 57h-163v-289z" />
    <glyph glyph-name="dcroat" unicode="&#x111;" horiz-adv-x="564" 
d="M418 578h-156v36h156v100h47v-100h84v-36h-84v-578h-39l-4 70q-30 -44 -64 -61t-92 -17q-185 0 -185 217v76q0 218 184 218q107 0 153 -79v154zM128 283v-72q0 -178 142 -178q148 0 148 181v66q0 182 -148 182q-142 0 -142 -179z" />
    <glyph glyph-name="Emacron" unicode="&#x112;" horiz-adv-x="577" 
d="M116 0v714h401v-42h-353v-289h301v-42h-301v-299h351v-42h-399zM204 843v35h225v-35h-225z" />
    <glyph glyph-name="emacron" unicode="&#x113;" 
d="M128 245v-29q0 -89 41 -136t120 -47t122 47l36 -24q-54 -64 -160 -64q-206 0 -206 232v46q0 233 193 233t193 -233v-25h-339zM128 282h293v6q0 75 -31 121q-37 53 -115 53q-71 0 -109 -45t-38 -130v-5zM165 630v35h225v-35h-225z" />
    <glyph glyph-name="Ebreve" unicode="&#x114;" horiz-adv-x="577" 
d="M116 0v714h401v-42h-353v-289h301v-42h-301v-299h351v-42h-399zM195 918h37q5 -46 23.5 -65t59.5 -19q43 0 61.5 18.5t23.5 65.5h37q-5 -70 -31 -96.5t-90 -26.5q-65 0 -91 26.5t-30 96.5z" />
    <glyph glyph-name="ebreve" unicode="&#x115;" 
d="M128 245v-29q0 -89 41 -136t120 -47t122 47l36 -24q-54 -64 -160 -64q-206 0 -206 232v46q0 233 193 233t193 -233v-25h-339zM128 282h293v6q0 75 -31 121q-37 53 -115 53q-71 0 -109 -45t-38 -130v-5zM155 705h37q5 -46 23.5 -65t60.5 -19t61 18.5t23 65.5h37
q-4 -70 -30.5 -96.5t-90.5 -26.5q-65 0 -91 26.5t-30 96.5z" />
    <glyph glyph-name="Edotaccent" unicode="&#x116;" horiz-adv-x="577" 
d="M116 0v714h401v-42h-353v-289h301v-42h-301v-299h351v-42h-399zM298 807v89h46v-89h-46z" />
    <glyph glyph-name="edotaccent" unicode="&#x117;" 
d="M128 245v-29q0 -89 41 -136t120 -47t122 47l36 -24q-54 -64 -160 -64q-206 0 -206 232v46q0 233 193 233t193 -233v-25h-339zM128 282h293v6q0 75 -31 121q-37 53 -115 53q-71 0 -109 -45t-38 -130v-5zM255 594v89h46v-89h-46z" />
    <glyph glyph-name="Eogonek" unicode="&#x118;" horiz-adv-x="577" 
d="M116 0v714h401v-42h-353v-289h301v-42h-301v-299h351v-42q-57 -30 -79 -52.5t-22 -51.5q0 -44 54 -44q24 0 57 9l5 -34q-36 -10 -68 -10q-93 0 -93 72q0 71 93 111h-346z" />
    <glyph glyph-name="eogonek" unicode="&#x119;" 
d="M129 245v-29q0 -89 41 -136t120 -47t122 47l36 -24q-29 -37 -77 -53q-52 -28 -74.5 -52.5t-22.5 -54.5q0 -44 54 -44q25 0 56 9l5 -34q-39 -10 -67 -10q-93 0 -93 73q0 58 66 102q-107 -1 -160.5 57t-52.5 175v46q0 233 193 233t193 -233v-25h-339zM129 282h293v6
q0 75 -31 121q-37 53 -115 53q-71 0 -109 -45t-38 -130v-5z" />
    <glyph glyph-name="Ecaron" unicode="&#x11a;" horiz-adv-x="577" 
d="M116 0v714h401v-42h-353v-289h301v-42h-301v-299h351v-42h-399zM322 841l75 83h58l-121 -122h-25l-121 122h58z" />
    <glyph glyph-name="ecaron" unicode="&#x11b;" 
d="M128 245v-29q0 -89 41 -136t120 -47t122 47l36 -24q-54 -64 -160 -64q-206 0 -206 232v46q0 233 193 233t193 -233v-25h-339zM128 282h293v6q0 75 -31 121q-37 53 -115 53q-71 0 -109 -45t-38 -130v-5zM280 628l75 83h58l-121 -122h-25l-121 122h58z" />
    <glyph glyph-name="Gcircumflex" unicode="&#x11c;" horiz-adv-x="665" 
d="M362 321v41h216v-106q0 -127 -56 -191q-66 -73 -185 -73q-134 0 -196 92q-43 64 -43 202v141q0 83 12 132t41 85q61 78 183 78q96 0 155 -44.5t64 -120.5l-45 -4q-9 60 -54.5 93.5t-118.5 33.5q-99 0 -144 -60.5t-45 -192.5v-141q0 -132 45.5 -192t145.5 -60
q102 0 153 66q40 51 40 148v73h-168zM333 886l-76 -83h-58l121 122h25l121 -122h-58z" />
    <glyph glyph-name="gcircumflex" unicode="&#x11d;" horiz-adv-x="563" 
d="M418 -15v86q-44 -79 -154 -79q-183 0 -183 217v76q0 218 184 218q111 0 158 -83l3 74h39v-504q0 -223 -203 -223q-106 0 -162 65l36 24q43 -49 125 -49q155 0 157 178zM128 283v-73q0 -177 142 -177q148 0 148 181v66q0 182 -148 182q-142 0 -142 -179zM286 672l-76 -83
h-58l121 122h25l121 -122h-58z" />
    <glyph glyph-name="Gbreve" unicode="&#x11e;" horiz-adv-x="665" 
d="M362 321v41h216v-106q0 -127 -56 -191q-66 -73 -185 -73q-134 0 -196 92q-43 64 -43 202v141q0 83 12 132t41 85q61 78 183 78q96 0 155 -44.5t64 -120.5l-45 -4q-9 60 -54.5 93.5t-118.5 33.5q-99 0 -144 -60.5t-45 -192.5v-141q0 -132 45.5 -192t145.5 -60
q102 0 153 66q40 51 40 148v73h-168zM214 918h37q5 -46 23.5 -65t59.5 -19q43 0 61.5 18.5t23.5 65.5h37q-5 -70 -31 -96.5t-90 -26.5q-65 0 -91 26.5t-30 96.5z" />
    <glyph glyph-name="gbreve" unicode="&#x11f;" horiz-adv-x="563" 
d="M418 -15v86q-44 -79 -154 -79q-183 0 -183 217v76q0 218 184 218q111 0 158 -83l3 74h39v-504q0 -223 -203 -223q-106 0 -162 65l36 24q43 -49 125 -49q155 0 157 178zM128 283v-73q0 -177 142 -177q148 0 148 181v66q0 182 -148 182q-142 0 -142 -179zM171 705h37
q5 -46 23.5 -65t60.5 -19t61 18.5t23 65.5h37q-4 -70 -30.5 -96.5t-90.5 -26.5q-65 0 -91 26.5t-30 96.5z" />
    <glyph glyph-name="Gdotaccent" unicode="&#x120;" horiz-adv-x="665" 
d="M362 321v41h216v-106q0 -127 -56 -191q-66 -73 -185 -73q-134 0 -196 92q-43 64 -43 202v141q0 83 12 132t41 85q61 78 183 78q96 0 155 -44.5t64 -120.5l-45 -4q-9 60 -54.5 93.5t-118.5 33.5q-99 0 -144 -60.5t-45 -192.5v-141q0 -132 45.5 -192t145.5 -60
q102 0 153 66q40 51 40 148v73h-168zM311 807v89h46v-89h-46z" />
    <glyph glyph-name="gdotaccent" unicode="&#x121;" horiz-adv-x="563" 
d="M418 -15v86q-44 -79 -154 -79q-183 0 -183 217v76q0 218 184 218q111 0 158 -83l3 74h39v-504q0 -223 -203 -223q-106 0 -162 65l36 24q43 -49 125 -49q155 0 157 178zM128 283v-73q0 -177 142 -177q148 0 148 181v66q0 182 -148 182q-142 0 -142 -179zM269 594v89h46
v-89h-46z" />
    <glyph glyph-name="Gcommaaccent" unicode="&#x122;" horiz-adv-x="665" 
d="M362 321v41h216v-106q0 -127 -56 -191q-66 -73 -185 -73q-134 0 -196 92q-43 64 -43 202v141q0 83 12 132t41 85q61 78 183 78q96 0 155 -44.5t64 -120.5l-45 -4q-9 60 -54.5 93.5t-118.5 33.5q-99 0 -144 -60.5t-45 -192.5v-141q0 -132 45.5 -192t145.5 -60
q102 0 153 66q40 51 40 148v73h-168zM266 -211l54 137h56l-75 -137h-35z" />
    <glyph glyph-name="gcommaaccent" unicode="&#x123;" horiz-adv-x="563" 
d="M418 -15v86q-44 -79 -154 -79q-183 0 -183 217v76q0 218 184 218q111 0 158 -83l3 74h39v-504q0 -223 -203 -223q-106 0 -162 65l36 24q43 -49 125 -49q155 0 157 178zM128 283v-73q0 -177 142 -177q148 0 148 181v66q0 182 -148 182q-142 0 -142 -179zM251 583l99 134
h36l-71 -134h-64z" />
    <glyph glyph-name="Hcircumflex" unicode="&#x124;" horiz-adv-x="682" 
d="M116 0v714h48v-331h354v331h48v-714h-48v341h-354v-341h-48zM341 886l-76 -83h-58l121 122h25l121 -122h-58z" />
    <glyph glyph-name="hcircumflex" unicode="&#x125;" horiz-adv-x="562" 
d="M99 0v714h47v-289q45 78 149 78q118 0 157 -96q16 -39 16 -123v-284h-47v282q0 72 -16 110q-32 70 -117 70q-76 0 -109 -49t-33 -162v-251h-47zM153 886l-76 -83h-58l121 122h25l121 -122h-58z" />
    <glyph glyph-name="Hbar" unicode="&#x126;" horiz-adv-x="682" 
d="M116 0v497h-60v38h60v179h48v-179h353v179h48v-179h60v-38h-60v-497h-48v341h-353v-341h-48zM164 383h353v114h-353v-114z" />
    <glyph glyph-name="hbar" unicode="&#x127;" horiz-adv-x="562" 
d="M98 578h-84v36h84v100h47v-100h157v-36h-157v-153q46 78 150 78q118 0 157 -96q16 -39 16 -123v-284h-47v282q0 94 -32 137t-101 43q-76 0 -109.5 -49t-33.5 -162v-251h-47v578z" />
    <glyph glyph-name="Itilde" unicode="&#x128;" horiz-adv-x="280" 
d="M116 0v714h48v-714h-48zM30 817h-34q14 50 33 71.5t50 21.5q34 0 70 -32q36 -33 55 -33q29 0 46 57h34q-14 -51 -32.5 -72t-49.5 -21q-34 0 -71 33q-36 32 -56 32q-28 0 -45 -57z" />
    <glyph glyph-name="itilde" unicode="&#x129;" horiz-adv-x="241" 
d="M98 0v494h47v-494h-47zM11 604h-34q14 50 33 71.5t50 21.5q34 0 70 -32q36 -33 55 -33q29 0 46 57h34q-14 -51 -32.5 -72t-49.5 -21q-34 0 -71 33q-36 32 -56 32q-28 0 -45 -57z" />
    <glyph glyph-name="Imacron" unicode="&#x12a;" horiz-adv-x="280" 
d="M116 0v714h48v-714h-48zM28 843v35h225v-35h-225z" />
    <glyph glyph-name="imacron" unicode="&#x12b;" horiz-adv-x="241" 
d="M98 0v494h47v-494h-47zM9 630v35h225v-35h-225z" />
    <glyph glyph-name="Ibreve" unicode="&#x12c;" horiz-adv-x="280" 
d="M116 0v714h48v-714h-48zM19 918h37q5 -46 23.5 -65t59.5 -19q43 0 61.5 18.5t23.5 65.5h37q-5 -70 -31 -96.5t-90 -26.5q-65 0 -91 26.5t-30 96.5z" />
    <glyph glyph-name="ibreve" unicode="&#x12d;" horiz-adv-x="241" 
d="M97 0v494h47v-494h-47zM0 705h37q5 -46 23.5 -65t60.5 -19t60.5 18.5t23.5 65.5h37q-4 -70 -30.5 -96.5t-90.5 -26.5q-65 0 -91 26.5t-30 96.5z" />
    <glyph glyph-name="Iogonek" unicode="&#x12e;" horiz-adv-x="280" 
d="M164 714v-714q-78 -42 -78 -98q0 -26 12 -38t38 -12q24 0 55 9l5 -34q-36 -10 -68 -10q-87 0 -87 77q0 68 76 106h-1v714h48z" />
    <glyph glyph-name="iogonek" unicode="&#x12f;" horiz-adv-x="241" 
d="M97 3v491h47v-494l-3 -2l-8 -5q-66 -41 -66 -94q0 -26 11.5 -36.5t39.5 -10.5q23 0 53 9l4 -34q-34 -10 -66 -10q-87 0 -87 75q0 69 75 111zM97 625v90h47v-90h-47z" />
    <glyph glyph-name="Idotaccent" unicode="&#x130;" horiz-adv-x="280" 
d="M115 0v714h48v-714h-48zM115 807v89h46v-89h-46z" />
    <glyph glyph-name="dotlessi" unicode="&#x131;" horiz-adv-x="241" 
d="M97 0v494h47v-494h-47z" />
    <glyph glyph-name="IJ" unicode="&#x132;" horiz-adv-x="560" 
d="M116 0v714h48v-714h-48zM397 714h48v-671q0 -90 -5 -129.5t-21 -68.5q-45 -87 -165 -87q-37 0 -77 12l15 40q33 -10 61 -10q98 0 130 85q14 36 14 155v674z" />
    <glyph glyph-name="ij" unicode="&#x133;" horiz-adv-x="489" 
d="M97 625v90h47v-90h-47zM97 0v494h47v-494h-47zM343 494h47v-524q2 -110 -37.5 -155.5t-137.5 -44.5v41q70 -3 100 33.5t28 120.5v529zM343 625v90h47v-90h-47z" />
    <glyph glyph-name="Jcircumflex" unicode="&#x134;" horiz-adv-x="452" 
d="M293 714h48v-437q0 -90 -5 -130t-21 -68q-45 -87 -164 -87q-88 0 -154 57l27 35q53 -50 126 -50q98 0 129 85q14 36 14 155v440zM297 886l-76 -83h-58l121 122h25l121 -122h-58z" />
    <glyph glyph-name="jcircumflex" unicode="&#x135;" horiz-adv-x="248" 
d="M101 494h47v-524q2 -110 -37.5 -155.5t-137.5 -44.5v41q70 -3 100 33.5t28 120.5v529zM123 672l-76 -83h-58l121 122h25l121 -122h-58z" />
    <glyph glyph-name="Kcommaaccent" unicode="&#x136;" horiz-adv-x="620" 
d="M116 0v714h48v-443l354 443h57l-230 -285l261 -429h-55l-236 394l-151 -186v-208h-48zM263 -211l54 137h56l-75 -137h-35z" />
    <glyph glyph-name="kcommaaccent" unicode="&#x137;" horiz-adv-x="497" 
d="M98 0v714h47v-539l252 319h55l-167 -209l191 -285h-52l-168 249l-111 -138v-111h-47zM196 -211l54 137h56l-75 -137h-35z" />
    <glyph glyph-name="kgreenlandic" unicode="&#x138;" horiz-adv-x="497" 
d="M98 0v494h47v-319l252 319h55l-167 -209l191 -285h-52l-168 249l-111 -138v-111h-47z" />
    <glyph glyph-name="Lacute" unicode="&#x139;" horiz-adv-x="526" 
d="M116 0v714h48v-672h354v-42h-402zM129 796l71 134h64l-98 -134h-37z" />
    <glyph glyph-name="lacute" unicode="&#x13a;" horiz-adv-x="280" 
d="M97 714h47v-586q-1 -49 17 -68.5t64 -18.5h32v-41h-33q-73 0 -100 28t-27 103v583zM104 796l71 134h64l-98 -134h-37z" />
    <glyph glyph-name="Lcommaaccent" unicode="&#x13b;" horiz-adv-x="526" 
d="M116 0v714h48v-672h354v-42h-402zM234 -211l54 137h56l-75 -137h-35z" />
    <glyph glyph-name="lcommaaccent" unicode="&#x13c;" horiz-adv-x="280" 
d="M96 714h47v-586q-1 -49 17 -68.5t64 -18.5h32v-41h-33q-73 0 -100 28t-27 103v583zM86 -211l54 137h56l-75 -137h-35z" />
    <glyph glyph-name="Lcaron" unicode="&#x13d;" horiz-adv-x="526" 
d="M116 0v714h48v-672h354v-42h-402zM276 518l22 199h54l-43 -199h-33z" />
    <glyph glyph-name="lcaron" unicode="&#x13e;" horiz-adv-x="298" 
d="M97 714h47v-586q-1 -49 17 -68.5t64 -18.5h32v-41h-33q-73 0 -100 28t-27 103v583zM233 518l22 199h54l-43 -199h-33z" />
    <glyph glyph-name="Ldot" unicode="&#x13f;" horiz-adv-x="526" 
d="M116 0v714h48v-672h354v-42h-402zM371 330v78h48v-78h-48z" />
    <glyph glyph-name="ldot" unicode="&#x140;" horiz-adv-x="291" 
d="M97 714h47v-586q-1 -49 17 -68.5t64 -18.5h32v-41h-33q-73 0 -100 28t-27 103v583zM243 330v78h48v-78h-48z" />
    <glyph glyph-name="Lslash" unicode="&#x141;" horiz-adv-x="526" 
d="M116 0v237l-81 -57v48l81 57v429h48v-398l218 153v-48l-218 -153v-226h354v-42h-402z" />
    <glyph glyph-name="lslash" unicode="&#x142;" horiz-adv-x="284" 
d="M99 367v347h47v-317l119 85v-49l-119 -84v-221q-1 -49 17 -68.5t64 -18.5h32v-41h-33q-71 0 -99 27t-28 97v194l-98 -70v49z" />
    <glyph glyph-name="Nacute" unicode="&#x143;" horiz-adv-x="726" 
d="M116 0v714h45l403 -630v630h47v-714h-45l-403 630v-630h-47zM343 796l71 134h64l-98 -134h-37z" />
    <glyph glyph-name="nacute" unicode="&#x144;" horiz-adv-x="562" 
d="M99 0v494h38l5 -75q41 84 148 84q125 0 162 -96q16 -39 16 -123v-284h-47v281q0 73 -16 111q-32 70 -117 70q-98 0 -128 -91q-14 -41 -14 -122v-249h-47zM247 583l71 134h64l-98 -134h-37z" />
    <glyph glyph-name="Ncommaaccent" unicode="&#x145;" horiz-adv-x="726" 
d="M116 0v714h45l403 -630v630h47v-714h-45l-403 630v-630h-47zM299 -211l54 137h56l-75 -137h-35z" />
    <glyph glyph-name="ncommaaccent" unicode="&#x146;" horiz-adv-x="562" 
d="M99 0v494h38l5 -75q41 84 148 84q125 0 162 -96q16 -39 16 -123v-284h-47v281q0 73 -16 111q-32 70 -117 70q-98 0 -128 -91q-14 -41 -14 -122v-249h-47zM213 -211l54 137h56l-75 -137h-35z" />
    <glyph glyph-name="Ncaron" unicode="&#x147;" horiz-adv-x="726" 
d="M116 0v714h45l403 -630v630h47v-714h-45l-403 630v-630h-47zM379 841l75 83h58l-121 -122h-25l-121 122h58z" />
    <glyph glyph-name="ncaron" unicode="&#x148;" horiz-adv-x="562" 
d="M99 0v494h38l5 -75q41 84 148 84q125 0 162 -96q16 -39 16 -123v-284h-47v281q0 73 -16 111q-32 70 -117 70q-98 0 -128 -91q-14 -41 -14 -122v-249h-47zM280 628l75 83h58l-121 -122h-25l-121 122h58z" />
    <glyph glyph-name="napostrophe" unicode="&#x149;" horiz-adv-x="577" 
d="M114 0v494h38l5 -75q40 84 148 84q125 0 162 -96q16 -39 16 -123v-284h-47v281q0 73 -16 111q-32 70 -117 70q-98 0 -128 -91q-14 -41 -14 -122v-249h-47zM23 490l38 224h52l-52 -224h-38z" />
    <glyph glyph-name="Eng" unicode="&#x14a;" horiz-adv-x="726" 
d="M116 0v714h45l403 -629v629h47v-744q2 -111 -37.5 -156t-137.5 -44v41q70 -4 100.5 32.5t28.5 119.5v41l-402 626v-630h-47z" />
    <glyph glyph-name="eng" unicode="&#x14b;" horiz-adv-x="562" 
d="M99 0v494h38l5 -75q40 84 149 84q124 0 161 -96q16 -39 16 -123v-314q2 -110 -37 -155.5t-137 -44.5v41q69 -3 99 33.5t28 120.5v316q0 73 -16 111q-32 70 -116 70q-99 0 -129 -91q-14 -41 -14 -122v-249h-47z" />
    <glyph glyph-name="Omacron" unicode="&#x14c;" horiz-adv-x="679" 
d="M98 267v180q0 135 58 201q67 74 184 74q128 0 193 -86q48 -64 48 -189v-180q0 -135 -58 -201q-65 -74 -183 -74q-129 0 -194 86q-48 64 -48 189zM533 273v168q0 119 -47 176q-51 63 -146 63q-103 0 -155 -73q-39 -56 -39 -166v-168q0 -119 47 -176q51 -63 147 -63
q102 0 154 73q39 56 39 166zM227 843v35h225v-35h-225z" />
    <glyph glyph-name="omacron" unicode="&#x14d;" horiz-adv-x="556" 
d="M81 208v77q0 218 197 218t197 -218v-77q0 -216 -197 -216t-197 216zM428 209v75q0 178 -150 178t-150 -178v-75q0 -176 150 -176t150 176zM166 630v35h225v-35h-225z" />
    <glyph glyph-name="Obreve" unicode="&#x14e;" horiz-adv-x="679" 
d="M98 267v180q0 135 58 201q67 74 184 74q128 0 193 -86q48 -64 48 -189v-180q0 -135 -58 -201q-65 -74 -183 -74q-129 0 -194 86q-48 64 -48 189zM533 273v168q0 119 -47 176q-51 63 -146 63q-103 0 -155 -73q-39 -56 -39 -166v-168q0 -119 47 -176q51 -63 147 -63
q102 0 154 73q39 56 39 166zM219 918h37q5 -46 23.5 -65t59.5 -19q43 0 61.5 18.5t23.5 65.5h37q-5 -70 -31 -96.5t-90 -26.5q-65 0 -91 26.5t-30 96.5z" />
    <glyph glyph-name="obreve" unicode="&#x14f;" horiz-adv-x="556" 
d="M81 208v77q0 218 197 218t197 -218v-77q0 -216 -197 -216t-197 216zM428 209v75q0 178 -150 178t-150 -178v-75q0 -176 150 -176t150 176zM157 705h37q5 -46 23.5 -65t60.5 -19t61 18.5t23 65.5h37q-4 -70 -30.5 -96.5t-90.5 -26.5q-65 0 -91 26.5t-30 96.5z" />
    <glyph glyph-name="Ohungarumlaut" unicode="&#x150;" horiz-adv-x="679" 
d="M98 267v180q0 135 58 201q67 74 184 74q128 0 193 -86q48 -64 48 -189v-180q0 -135 -58 -201q-65 -74 -183 -74q-129 0 -194 86q-48 64 -48 189zM533 273v168q0 119 -47 176q-51 63 -146 63q-103 0 -155 -73q-39 -56 -39 -166v-168q0 -119 47 -176q51 -63 147 -63
q102 0 154 73q39 56 39 166zM261 796l57 134h58l-80 -134h-35zM375 796l57 134h58l-80 -134h-35z" />
    <glyph glyph-name="ohungarumlaut" unicode="&#x151;" horiz-adv-x="556" 
d="M81 208v77q0 218 197 218t197 -218v-77q0 -216 -197 -216t-197 216zM428 209v75q0 178 -150 178t-150 -178v-75q0 -176 150 -176t150 176zM199 583l57 134h58l-80 -134h-35zM313 583l57 134h58l-80 -134h-35z" />
    <glyph glyph-name="OE" unicode="&#x152;" horiz-adv-x="994" 
d="M537 0v112l-3 -5q-2 -3 -8 -13.5t-9 -15.5q-23 -40 -72 -63t-112 -23q-123 0 -188 87q-47 64 -47 187v182q0 133 57 200q65 74 178 74q110 0 171 -65q4 -4 33 -53v110h397v-42h-353v-289h301v-42h-301v-299h352v-42h-396zM146 441v-169q0 -118 47 -175q51 -63 146 -63
q94 0 144 61t50 177v169q0 116 -50 177.5t-144 61.5q-103 0 -154 -73q-39 -56 -39 -166z" />
    <glyph glyph-name="oe" unicode="&#x153;" horiz-adv-x="887" 
d="M81 210v76q0 217 195 217q68 0 110.5 -26.5t65.5 -83.5q40 110 171 110q191 0 191 -233v-25h-339v-29q0 -89 41 -136t120 -47q81 0 122 47l36 -22q-53 -66 -160 -66q-135 0 -182 111q-23 -59 -64.5 -85t-110.5 -26q-196 0 -196 218zM428 211v73q0 178 -150 178t-150 -178
v-73q0 -178 150 -178t150 178zM475 282h293v6q0 85 -37.5 129.5t-108.5 44.5t-109 -45t-38 -130v-5z" />
    <glyph glyph-name="Racute" unicode="&#x154;" horiz-adv-x="648" 
d="M165 322v-322h-48v714h232q112 0 163 -52q51 -51 51 -143q0 -172 -157 -192l158 -327h-53l-153 322h-193zM165 364h192q81 0 118 40q39 40 39 114q0 81 -49 121q-39 33 -120 33h-180v-308zM287 796l71 134h64l-98 -134h-37z" />
    <glyph glyph-name="racute" unicode="&#x155;" horiz-adv-x="363" 
d="M99 0v494h38l5 -75q36 84 131 84q45 0 86 -22l-19 -41q-36 21 -72 21q-64 0 -93 -51.5t-29 -166.5v-243h-47zM182 583l71 134h64l-98 -134h-37z" />
    <glyph glyph-name="Rcommaaccent" unicode="&#x156;" horiz-adv-x="648" 
d="M165 322v-322h-48v714h232q112 0 163 -52q51 -51 51 -143q0 -172 -157 -192l158 -327h-53l-153 322h-193zM165 364h192q81 0 118 40q39 40 39 114q0 81 -49 121q-39 33 -120 33h-180v-308zM254 -211l54 137h56l-75 -137h-35z" />
    <glyph glyph-name="rcommaaccent" unicode="&#x157;" horiz-adv-x="363" 
d="M98 0v494h38l5 -75q35 84 131 84q45 0 86 -22l-19 -41q-36 21 -72 21q-64 0 -93 -51.5t-29 -166.5v-243h-47zM44 -211l54 137h56l-75 -137h-35z" />
    <glyph glyph-name="Rcaron" unicode="&#x158;" horiz-adv-x="648" 
d="M165 322v-322h-48v714h232q112 0 163 -52q51 -51 51 -143q0 -172 -157 -192l158 -327h-53l-153 322h-193zM165 364h192q81 0 118 40q39 40 39 114q0 81 -49 121q-39 33 -120 33h-180v-308zM322 841l75 83h58l-121 -122h-25l-121 122h58z" />
    <glyph glyph-name="rcaron" unicode="&#x159;" horiz-adv-x="363" 
d="M98 0v494h38l5 -75q35 84 131 84q45 0 86 -22l-19 -41q-36 21 -72 21q-64 0 -93 -51.5t-29 -166.5v-243h-47zM216 628l75 83h58l-121 -122h-25l-121 122h58z" />
    <glyph glyph-name="Sacute" unicode="&#x15a;" horiz-adv-x="582" 
d="M63 87l39 25q48 -78 186 -78q90 0 140 39.5t50 110.5t-50 107q-23 16 -43 23t-97 26q-110 27 -158 73t-48 123q0 87 56 136.5t154 49.5q138 0 191 -77l-38 -25q-43 60 -154 60q-76 0 -118.5 -37.5t-42.5 -103.5q0 -62 41 -97.5t140 -59.5q73 -18 98 -27t51 -27
q66 -46 66 -140q0 -93 -62.5 -144.5t-174.5 -51.5q-165 0 -226 95zM261 796l71 134h64l-98 -134h-37z" />
    <glyph glyph-name="sacute" unicode="&#x15b;" horiz-adv-x="461" 
d="M34 55l33 26q52 -48 149 -48q146 0 146 99q0 53 -39 75q-29 16 -100 26q-93 14 -122 41q-38 32 -38 91q0 66 39.5 102t112.5 36q113 0 168 -67l-36 -24q-47 50 -128 50q-53 0 -81.5 -24.5t-28.5 -69.5q0 -48 36 -70q23 -14 89 -24q97 -14 131 -40q43 -32 43 -104
q0 -138 -190 -138q-127 0 -184 63zM194 583l71 134h64l-98 -134h-37z" />
    <glyph glyph-name="Scircumflex" unicode="&#x15c;" horiz-adv-x="582" 
d="M63 87l39 25q48 -78 186 -78q90 0 140 39.5t50 110.5t-50 107q-23 16 -43 23t-97 26q-110 27 -158 73t-48 123q0 87 56 136.5t154 49.5q138 0 191 -77l-38 -25q-43 60 -154 60q-76 0 -118.5 -37.5t-42.5 -103.5q0 -62 41 -97.5t140 -59.5q73 -18 98 -27t51 -27
q66 -46 66 -140q0 -93 -62.5 -144.5t-174.5 -51.5q-165 0 -226 95zM297 886l-76 -83h-58l121 122h25l121 -122h-58z" />
    <glyph glyph-name="scircumflex" unicode="&#x15d;" horiz-adv-x="461" 
d="M34 55l33 26q52 -48 149 -48q146 0 146 99q0 53 -39 75q-29 16 -100 26q-93 14 -122 41q-38 32 -38 91q0 66 39.5 102t112.5 36q113 0 168 -67l-36 -24q-47 50 -128 50q-53 0 -81.5 -24.5t-28.5 -69.5q0 -48 36 -70q23 -14 89 -24q97 -14 131 -40q43 -32 43 -104
q0 -138 -190 -138q-127 0 -184 63zM226 672l-76 -83h-58l121 122h25l121 -122h-58z" />
    <glyph glyph-name="Scedilla" unicode="&#x15e;" horiz-adv-x="582" 
d="M63 87l39 25q48 -78 186 -78q90 0 140 39.5t50 110.5t-50 107q-23 16 -43 23t-97 26q-110 27 -158 73t-48 123q0 87 56 136.5t154 49.5q138 0 191 -77l-38 -25q-43 60 -154 60q-76 0 -118.5 -37.5t-42.5 -103.5q0 -62 41 -97.5t140 -59.5q73 -18 98 -27t51 -27
q66 -46 66 -140q0 -93 -62.5 -144.5t-174.5 -51.5q-165 0 -226 95zM213 -211l54 137h56l-75 -137h-35z" />
    <glyph glyph-name="scedilla" unicode="&#x15f;" horiz-adv-x="461" 
d="M34 55l33 26q52 -48 149 -48q146 0 146 99q0 53 -39 75q-29 16 -100 26q-93 14 -122 41q-38 32 -38 91q0 66 39.5 102t112.5 36q113 0 168 -67l-36 -24q-47 50 -128 50q-53 0 -81.5 -24.5t-28.5 -69.5q0 -48 36 -70q23 -14 89 -24q97 -14 131 -40q43 -32 43 -104
q0 -138 -190 -138q-127 0 -184 63zM155 -211l54 137h56l-75 -137h-35z" />
    <glyph glyph-name="Scaron" unicode="&#x160;" horiz-adv-x="582" 
d="M63 87l39 25q48 -78 186 -78q90 0 140 39.5t50 110.5t-50 107q-23 16 -43 23t-97 26q-110 27 -158 73t-48 123q0 87 56 136.5t154 49.5q138 0 191 -77l-38 -25q-43 60 -154 60q-76 0 -118.5 -37.5t-42.5 -103.5q0 -62 41 -97.5t140 -59.5q73 -18 98 -27t51 -27
q66 -46 66 -140q0 -93 -62.5 -144.5t-174.5 -51.5q-165 0 -226 95zM303 841l75 83h58l-121 -122h-25l-121 122h58z" />
    <glyph glyph-name="scaron" unicode="&#x161;" horiz-adv-x="461" 
d="M34 55l33 26q52 -48 149 -48q146 0 146 99q0 53 -39 75q-29 16 -100 26q-93 14 -122 41q-38 32 -38 91q0 66 39.5 102t112.5 36q113 0 168 -67l-36 -24q-47 50 -128 50q-53 0 -81.5 -24.5t-28.5 -69.5q0 -48 36 -70q23 -14 89 -24q97 -14 131 -40q43 -32 43 -104
q0 -138 -190 -138q-127 0 -184 63zM228 628l75 83h58l-121 -122h-25l-121 122h58z" />
    <glyph glyph-name="Tcommaaccent" unicode="&#x162;" horiz-adv-x="553" 
d="M254 0v672h-214v42h474v-42h-212v-672h-48zM201 -211l54 137h56l-75 -137h-35z" />
    <glyph glyph-name="tcommaaccent" unicode="&#x163;" horiz-adv-x="326" 
d="M117 453h-63v41h63l1 168h46v-168h96v-41h-96v-326q0 -49 18 -68t64 -18h20v-41h-19q-75 -1 -102.5 27t-27.5 104v322zM110 -211l54 137h56l-75 -137h-35z" />
    <glyph glyph-name="Tcaron" unicode="&#x164;" horiz-adv-x="553" 
d="M254 0v672h-214v42h474v-42h-212v-672h-48zM277 841l75 83h58l-121 -122h-25l-121 122h58z" />
    <glyph glyph-name="tcaron" unicode="&#x165;" horiz-adv-x="340" 
d="M117 453h-63v41h63l1 168h46v-168h96v-41h-96v-326q0 -49 18 -68t64 -18h20v-41h-19q-75 -1 -102.5 27t-27.5 104v322zM286 550l21 191h54l-41 -191h-34z" />
    <glyph glyph-name="Tbar" unicode="&#x166;" horiz-adv-x="553" 
d="M254 0v341h-149v42h149v289h-214v42h474v-42h-212v-289h147v-42h-147v-341h-48z" />
    <glyph glyph-name="tbar" unicode="&#x167;" horiz-adv-x="326" 
d="M117 453h-63v41h63l1 168h46v-168h96v-41h-96v-104h96v-36h-96v-187q0 -49 18 -67.5t64 -17.5h20v-41h-19q-74 -1 -102 26t-28 100v187h-63v36h63v104z" />
    <glyph glyph-name="Utilde" unicode="&#x168;" horiz-adv-x="694" 
d="M113 714h48v-454q0 -61 7 -94.5t25 -59.5q48 -72 154 -72q114 0 161 83q25 44 25 143v454h48v-454q0 -73 -9 -113t-33 -72q-64 -83 -192 -83q-139 0 -200 96q-19 29 -26.5 66.5t-7.5 105.5v454zM237 817h-34q14 50 33 71.5t50 21.5q34 0 70 -32q36 -33 55 -33q29 0 46 57
h34q-14 -51 -32.5 -72t-49.5 -21q-34 0 -71 33q-36 32 -56 32q-28 0 -45 -57z" />
    <glyph glyph-name="utilde" unicode="&#x169;" horiz-adv-x="551" 
d="M94 494h47v-281q0 -72 16 -111q30 -70 112 -70q73 0 104.5 49.5t31.5 163.5v249h47v-494h-38l-5 75q-38 -84 -143 -84q-120 0 -157 96q-15 41 -15 123v284zM166 604h-34q14 50 33 71.5t50 21.5q34 0 70 -32q36 -33 55 -33q29 0 46 57h34q-14 -51 -32.5 -72t-49.5 -21
q-34 0 -71 33q-36 32 -56 32q-28 0 -45 -57z" />
    <glyph glyph-name="Umacron" unicode="&#x16a;" horiz-adv-x="694" 
d="M113 714h48v-454q0 -61 7 -94.5t25 -59.5q48 -72 154 -72q114 0 161 83q25 44 25 143v454h48v-454q0 -73 -9 -113t-33 -72q-64 -83 -192 -83q-139 0 -200 96q-19 29 -26.5 66.5t-7.5 105.5v454zM235 843v35h225v-35h-225z" />
    <glyph glyph-name="umacron" unicode="&#x16b;" horiz-adv-x="551" 
d="M94 494h47v-281q0 -72 16 -111q30 -70 112 -70q73 0 104.5 49.5t31.5 163.5v249h47v-494h-38l-5 75q-38 -84 -143 -84q-120 0 -157 96q-15 41 -15 123v284zM164 630v35h225v-35h-225z" />
    <glyph glyph-name="Ubreve" unicode="&#x16c;" horiz-adv-x="694" 
d="M113 714h48v-454q0 -61 7 -94.5t25 -59.5q48 -72 154 -72q114 0 161 83q25 44 25 143v454h48v-454q0 -73 -9 -113t-33 -72q-64 -83 -192 -83q-139 0 -200 96q-19 29 -26.5 66.5t-7.5 105.5v454zM226 918h37q5 -46 23.5 -65t59.5 -19q43 0 61.5 18.5t23.5 65.5h37
q-5 -70 -31 -96.5t-90 -26.5q-65 0 -91 26.5t-30 96.5z" />
    <glyph glyph-name="ubreve" unicode="&#x16d;" horiz-adv-x="551" 
d="M94 494h47v-281q0 -72 16 -111q30 -70 112 -70q73 0 104.5 49.5t31.5 163.5v249h47v-494h-38l-5 75q-38 -84 -143 -84q-120 0 -157 96q-15 41 -15 123v284zM155 705h37q5 -46 23.5 -65t60.5 -19t61 18.5t23 65.5h37q-4 -70 -30.5 -96.5t-90.5 -26.5q-65 0 -91 26.5
t-30 96.5z" />
    <glyph glyph-name="Uring" unicode="&#x16e;" horiz-adv-x="694" 
d="M113 714h48v-454q0 -61 7 -94.5t25 -59.5q48 -72 154 -72q114 0 161 83q25 44 25 143v454h48v-454q0 -73 -9 -113t-33 -72q-64 -83 -192 -83q-139 0 -200 96q-19 29 -26.5 66.5t-7.5 105.5v454zM348 976q41 0 66 -25.5t25 -67.5q0 -43 -25 -68.5t-67 -25.5
q-41 0 -66.5 25.5t-25.5 68.5t25 68t68 25zM348 946q-26 0 -40 -16.5t-14 -47.5q0 -29 14 -46t39 -17t39 17t14 46q0 30 -14 47t-38 17z" />
    <glyph glyph-name="uring" unicode="&#x16f;" horiz-adv-x="551" 
d="M94 494h47v-281q0 -72 16 -111q30 -70 112 -70q73 0 104.5 49.5t31.5 163.5v249h47v-494h-38l-5 75q-38 -84 -143 -84q-120 0 -157 96q-15 41 -15 123v284zM277 763q41 0 66 -25.5t25 -67.5q0 -43 -25 -68.5t-67 -25.5t-67 25.5t-25 68.5t25 68t68 25zM277 733
q-26 0 -40 -16.5t-14 -47.5q0 -29 14 -46t39 -17t39 17t14 47q0 29 -14 46t-38 17z" />
    <glyph glyph-name="Uhungarumlaut" unicode="&#x170;" horiz-adv-x="694" 
d="M113 714h48v-454q0 -61 7 -94.5t25 -59.5q48 -72 154 -72q114 0 161 83q25 44 25 143v454h48v-454q0 -73 -9 -113t-33 -72q-64 -83 -192 -83q-139 0 -200 96q-19 29 -26.5 66.5t-7.5 105.5v454zM271 796l57 134h58l-80 -134h-35zM385 796l57 134h58l-80 -134h-35z" />
    <glyph glyph-name="uhungarumlaut" unicode="&#x171;" horiz-adv-x="551" 
d="M94 494h47v-281q0 -72 16 -111q30 -70 112 -70q73 0 104.5 49.5t31.5 163.5v249h47v-494h-38l-5 75q-38 -84 -143 -84q-120 0 -157 96q-15 41 -15 123v284zM197 583l57 134h58l-80 -134h-35zM311 583l57 134h58l-80 -134h-35z" />
    <glyph glyph-name="Uogonek" unicode="&#x172;" horiz-adv-x="694" 
d="M113 714h48v-454q0 -108 32 -153q48 -72 154 -72q114 0 161 82q25 44 25 143v454h48v-454q4 -105 -31 -167t-112 -89q-49 -30 -68.5 -54t-19.5 -54q0 -44 54 -44q29 0 56 9l5 -34q-39 -10 -67 -10q-93 0 -93 74q0 57 61 102h-27q-132 0 -192 95q-19 30 -26.5 67t-7.5 105
v454z" />
    <glyph glyph-name="uogonek" unicode="&#x173;" horiz-adv-x="551" 
d="M452 494v-494q-56 -29 -78.5 -52.5t-22.5 -52.5q0 -43 54 -43q25 0 56 9l5 -34q-36 -10 -68 -10q-92 0 -92 72t107 118l-4 68q-38 -84 -143 -84q-120 0 -157 96q-15 41 -15 123v284h47v-281q0 -72 16 -111q30 -70 112 -70q73 0 104.5 49.5t31.5 163.5v249h47z" />
    <glyph glyph-name="Wcircumflex" unicode="&#x174;" horiz-adv-x="848" 
d="M212 0l-179 714h49l151 -626l176 626h29l176 -626l151 626h49l-179 -714h-37l-174 618l-174 -618h-38zM424 886l-76 -83h-58l121 122h25l121 -122h-58z" />
    <glyph glyph-name="wcircumflex" unicode="&#x175;" horiz-adv-x="766" 
d="M202 0l-156 494h48l128 -424l146 424h31l146 -424l128 424h48l-156 -494h-35l-147 417l-147 -417h-34zM384 672l-76 -83h-58l121 122h25l121 -122h-58z" />
    <glyph glyph-name="Ycircumflex" unicode="&#x176;" horiz-adv-x="524" 
d="M239 0v258l-228 456h51l201 -404l200 404h52l-228 -456v-258h-48zM263 886l-76 -83h-58l121 122h25l121 -122h-58z" />
    <glyph glyph-name="ycircumflex" unicode="&#x177;" horiz-adv-x="475" 
d="M220 -6l-192 500h47l169 -445l149 445h47l-206 -602q-28 -75 -59 -98t-108 -24v41q54 0 76.5 16.5t43.5 70.5zM238 672l-76 -83h-58l121 122h25l121 -122h-58z" />
    <glyph glyph-name="Ydieresis" unicode="&#x178;" horiz-adv-x="524" 
d="M239 0v258l-228 456h51l201 -404l200 404h52l-228 -456v-258h-48zM145 807v89h44v-89h-44zM336 807v89h44v-89h-44z" />
    <glyph glyph-name="Zacute" unicode="&#x179;" horiz-adv-x="529" 
d="M50 0v38l353 634h-333v42h386v-38l-353 -634h369v-42h-422zM251 796l71 134h64l-98 -134h-37z" />
    <glyph glyph-name="zacute" unicode="&#x17a;" horiz-adv-x="470" 
d="M51 0v31l276 422h-255v41h314v-32l-276 -421h293v-41h-352zM207 583l71 134h64l-98 -134h-37z" />
    <glyph glyph-name="Zdotaccent" unicode="&#x17b;" horiz-adv-x="529" 
d="M50 0v38l353 634h-333v42h386v-38l-353 -634h369v-42h-422zM251 807v89h46v-89h-46z" />
    <glyph glyph-name="zdotaccent" unicode="&#x17c;" horiz-adv-x="470" 
d="M51 0v31l276 422h-255v41h314v-32l-276 -421h293v-41h-352zM212 594v89h46v-89h-46z" />
    <glyph glyph-name="Zcaron" unicode="&#x17d;" horiz-adv-x="529" 
d="M50 0v38l353 634h-333v42h386v-38l-353 -634h369v-42h-422zM283 841l75 83h58l-121 -122h-25l-121 122h58z" />
    <glyph glyph-name="zcaron" unicode="&#x17e;" horiz-adv-x="470" 
d="M51 0v31l276 422h-255v41h314v-32l-276 -421h293v-41h-352zM242 628l75 83h58l-121 -122h-25l-121 122h58z" />
    <glyph glyph-name="Ohorn" unicode="&#x1a0;" horiz-adv-x="694" 
d="M637 723h45q5 -17 5 -32q0 -64 -59 -107q-27 -18 -57 -36q10 -43 10 -101v-180q0 -135 -58 -201q-65 -74 -183 -74q-129 0 -194 86q-48 64 -48 189v180q0 135 58 201q66 75 183 75q165 0 223 -140q26 15 40 25q43 31 43 79q0 16 -8 36zM533 273v168q0 119 -47 177
q-51 63 -146 63q-103 0 -155 -73q-39 -57 -39 -167v-168q0 -119 47 -176q51 -63 147 -63q102 0 154 73q39 56 39 166z" />
    <glyph glyph-name="ohorn" unicode="&#x1a1;" horiz-adv-x="564" 
d="M527 503h45q5 -18 5 -34q0 -42 -24.5 -74t-80.5 -63q3 -29 3 -51v-73q0 -216 -197 -216t-197 216v77q0 218 197 218q76 0 124 -34.5t64 -99.5q39 23 54 44t15 52q0 18 -8 38zM428 209v75q0 178 -150 178t-150 -178v-75q0 -176 150 -176t150 176z" />
    <glyph glyph-name="Uhorn" unicode="&#x1af;" horiz-adv-x="714" 
d="M113 714h48v-454q0 -61 7 -94.5t25 -59.5q48 -72 154 -72q114 0 161 83q25 44 25 143v454h48v-145q58 27 81.5 53.5t23.5 63.5q0 18 -8 37h46q4 -19 4 -34q0 -49 -32 -83.5t-115 -75.5v-270q0 -73 -9 -113t-33 -72q-64 -83 -192 -83q-139 0 -200 96q-19 29 -26.5 66.5
t-7.5 105.5v454z" />
    <glyph glyph-name="uhorn" unicode="&#x1b0;" horiz-adv-x="570" 
d="M94 494h47v-281q0 -72 16 -111q30 -70 112 -70q73 0 104.5 49.5t31.5 163.5v249h47v-145q60 29 82.5 54t22.5 63q0 17 -8 37h46q4 -19 4 -34q0 -64 -66 -113q-23 -17 -81 -46v-310h-38l-5 75q-38 -84 -143 -84q-120 0 -157 96q-15 41 -15 123v284z" />
    <glyph glyph-name="uni01C4" unicode="&#x1c4;" horiz-adv-x="1168" 
d="M116 0v714h217q123 2 189 -68t62 -200v-177q4 -130 -61.5 -200.5t-189.5 -68.5h-217zM164 42h163q104 -2 157.5 57.5t51.5 175.5v165q2 115 -51.5 174.5t-157.5 57.5h-163v-630zM689 0v38l353 634h-333v42h386v-38l-353 -634h369v-42h-422zM915 841l75 83h58l-121 -122
h-25l-121 122h58z" />
    <glyph glyph-name="uni01C5" unicode="&#x1c5;" horiz-adv-x="1109" 
d="M116 0v714h217q123 2 189 -68t62 -200v-177q4 -130 -61.5 -200.5t-189.5 -68.5h-217zM164 42h163q104 -2 157.5 57.5t51.5 175.5v165q2 115 -51.5 174.5t-157.5 57.5h-163v-630zM690 0v31l276 422h-255v41h314v-32l-275 -421h292v-41h-352zM878 628l75 83h58l-121 -122
h-25l-121 122h58z" />
    <glyph glyph-name="uni01C6" unicode="&#x1c6;" horiz-adv-x="1033" 
d="M426 0l-4 70q-30 -44 -64 -61t-92 -17q-185 0 -185 217v76q0 218 184 218q107 0 153 -79v290h47v-714h-39zM128 283v-72q0 -178 142 -178q148 0 148 181v66q0 182 -148 182q-142 0 -142 -179zM614 0v31l277 422h-256v41h315v-32l-276 -421h293v-41h-353zM804 628l76 83
h58l-121 -122h-25l-121 122h58z" />
    <glyph glyph-name="uni01C7" unicode="&#x1c7;" horiz-adv-x="806" 
d="M116 0v714h48v-672h354v-42h-402zM644 714h48v-671q0 -90 -5 -130t-21 -68q-45 -87 -165 -87q-37 0 -77 12l15 40q33 -10 61 -10q98 0 130 85q14 36 14 155v674z" />
    <glyph glyph-name="uni01C8" unicode="&#x1c8;" horiz-adv-x="774" 
d="M116 0v714h48v-672h354v-42h-402zM629 625v90h47v-90h-47zM629 494h47v-524q2 -110 -37.5 -155.5t-137.5 -44.5v41q70 -3 100 33.5t28 120.5v529z" />
    <glyph glyph-name="uni01C9" unicode="&#x1c9;" horiz-adv-x="528" 
d="M97 714h47v-586q-1 -49 17 -68.5t64 -18.5h32v-41h-33q-73 0 -100 28t-27 103v583zM382 625v90h47v-90h-47zM382 494h47v-524q2 -110 -37 -155.5t-137 -44.5v41q69 -3 99 33.5t28 120.5v529z" />
    <glyph glyph-name="uni01CA" unicode="&#x1ca;" horiz-adv-x="1006" 
d="M116 0v714h45l403 -630v630h47v-714h-45l-403 630v-630h-47zM844 714h48v-671q0 -90 -5 -129.5t-21 -68.5q-45 -87 -165 -87q-37 0 -77 12l15 40q33 -10 61 -10q98 0 130 85q14 36 14 155v674z" />
    <glyph glyph-name="uni01CB" unicode="&#x1cb;" horiz-adv-x="974" 
d="M116 0v714h45l403 -630v630h47v-714h-45l-403 630v-630h-47zM829 494h47v-524q2 -110 -37.5 -155.5t-137.5 -44.5v41q70 -3 100 33.5t28 120.5v529zM829 625v90h47v-90h-47z" />
    <glyph glyph-name="uni01CC" unicode="&#x1cc;" horiz-adv-x="810" 
d="M99 0v494h38l5 -75q41 84 148 84q125 0 162 -96q16 -39 16 -123v-284h-47v281q0 73 -16 111q-32 70 -117 70q-98 0 -128 -91q-14 -41 -14 -122v-249h-47zM664 494h47v-524q2 -110 -37 -155.5t-137 -44.5v41q69 -3 99 33.5t28 120.5v529zM664 625v90h47v-90h-47z" />
    <glyph glyph-name="uni01CD" unicode="&#x1cd;" horiz-adv-x="589" 
d="M467 167h-344l-60 -167h-53l263 714h43l263 -714h-53zM453 209l-158 437l-159 -437h317zM295 841l75 83h58l-121 -122h-25l-121 122h58z" />
    <glyph glyph-name="uni01CE" unicode="&#x1ce;" horiz-adv-x="519" 
d="M377 280v48q0 64 -21 93q-30 41 -105 41q-82 0 -132 -51l-32 27q57 65 167 65q105 0 146 -64q24 -37 24 -115v-324h-39l-5 40q-23 -26 -56.5 -37t-92.5 -11q-98 0 -137.5 31.5t-39.5 110.5q0 81 42 113.5t148 32.5h133zM377 243h-132q-79 0 -112 -25t-33 -84
q0 -57 30.5 -79t107.5 -22q95 0 123 38q16 21 16 75v97zM263 628l75 83h58l-121 -122h-25l-121 122h58z" />
    <glyph glyph-name="uni01CF" unicode="&#x1cf;" horiz-adv-x="280" 
d="M116 0v714h48v-714h-48zM140 841l75 83h58l-121 -122h-25l-121 122h58z" />
    <glyph glyph-name="uni01D0" unicode="&#x1d0;" horiz-adv-x="241" 
d="M97 0v494h47v-494h-47zM121 628l75 83h58l-121 -122h-25l-121 122h58z" />
    <glyph glyph-name="uni01D1" unicode="&#x1d1;" horiz-adv-x="679" 
d="M98 267v180q0 135 58 201q67 74 184 74q128 0 193 -86q48 -65 48 -189v-180q0 -135 -58 -201q-65 -74 -183 -74q-127 0 -194 86q-48 64 -48 189zM533 273v168q0 119 -47 176q-51 63 -146 63q-103 0 -155 -73q-39 -56 -39 -166v-168q0 -119 47 -176q51 -63 147 -63
q102 0 154 73q39 55 39 166zM339 841l76 83h58l-121 -122h-25l-121 122h58z" />
    <glyph glyph-name="uni01D2" unicode="&#x1d2;" horiz-adv-x="556" 
d="M81 208v77q0 218 197 218t197 -218v-77q0 -216 -197 -216t-197 216zM428 209v75q0 178 -150 178t-150 -178v-75q0 -176 150 -176t150 176zM278 628l75 83h58l-121 -122h-25l-121 122h58z" />
    <glyph glyph-name="uni01D3" unicode="&#x1d3;" horiz-adv-x="694" 
d="M113 714h48v-454q0 -61 7 -94.5t25 -59.5q48 -72 154 -72q114 0 161 83q25 44 25 143v454h48v-454q0 -73 -9 -113t-33 -72q-64 -83 -192 -83q-139 0 -200 96q-19 29 -26.5 66.5t-7.5 105.5v454zM347 841l75 83h58l-121 -122h-25l-121 122h58z" />
    <glyph glyph-name="uni01D4" unicode="&#x1d4;" horiz-adv-x="551" 
d="M94 494h47v-281q0 -72 16 -111q30 -70 112 -70q73 0 104.5 49.5t31.5 163.5v249h47v-494h-38l-5 75q-38 -84 -143 -84q-120 0 -157 96q-15 41 -15 123v284zM276 628l75 83h58l-121 -122h-25l-121 122h58z" />
    <glyph glyph-name="Gcaron" unicode="&#x1e6;" horiz-adv-x="665" 
d="M362 321v41h216v-106q0 -127 -56 -191q-66 -73 -185 -73q-134 0 -196 92q-43 64 -43 202v141q0 83 12 132t41 85q61 78 183 78q96 0 155 -44.5t64 -120.5l-45 -4q-9 60 -54.5 93.5t-118.5 33.5q-99 0 -144 -60.5t-45 -192.5v-141q0 -132 45.5 -192t145.5 -60
q102 0 153 66q40 51 40 148v73h-168zM335 841l75 83h58l-121 -122h-25l-121 122h58z" />
    <glyph glyph-name="gcaron" unicode="&#x1e7;" horiz-adv-x="563" 
d="M418 -15v86q-44 -79 -154 -79q-183 0 -183 217v76q0 218 184 218q111 0 158 -83l3 74h39v-504q0 -223 -203 -223q-106 0 -162 65l36 24q43 -49 125 -49q155 0 157 178zM128 283v-73q0 -177 142 -177q148 0 148 181v66q0 182 -148 182q-142 0 -142 -179zM292 628l75 83h58
l-121 -122h-25l-121 122h58z" />
    <glyph glyph-name="uni01EA" unicode="&#x1ea;" horiz-adv-x="679" 
d="M585 447v-180q5 -213 -156 -264q-45 -28 -64 -53t-19 -54q0 -44 54 -44q26 0 57 9l5 -34q-37 -10 -68 -10q-93 0 -93 73q0 57 60 102q-127 -4 -194.5 67t-64.5 208v180q0 135 58 201q67 74 184 74q128 0 193 -86q48 -64 48 -189zM537 273v168q0 119 -47 176
q-51 63 -146 63q-103 0 -155 -73q-39 -56 -39 -166v-168q0 -119 47 -176q51 -63 147 -63q102 0 154 73q39 56 39 166z" />
    <glyph glyph-name="uni01EB" unicode="&#x1eb;" horiz-adv-x="556" 
d="M475 285v-77q0 -167 -119 -206q-41 -28 -58 -52t-17 -54q0 -44 54 -44q25 0 56 9l5 -34q-36 -10 -67 -10q-93 0 -93 73q0 57 55 102h-4q-104 -1 -155 52.5t-51 163.5v77q0 218 197 218t197 -218zM428 209v75q0 178 -150 178t-150 -178v-75q0 -176 150 -176t150 176z" />
    <glyph glyph-name="uni01F1" unicode="&#x1f1;" horiz-adv-x="1168" 
d="M116 0v714h217q123 2 189 -68t62 -200v-177q4 -130 -61.5 -200.5t-189.5 -68.5h-217zM164 42h163q104 -2 157.5 57.5t51.5 175.5v165q2 115 -51.5 174.5t-157.5 57.5h-163v-630zM689 0v38l353 634h-333v42h386v-38l-353 -634h369v-42h-422z" />
    <glyph glyph-name="uni01F2" unicode="&#x1f2;" horiz-adv-x="1113" 
d="M120 0v714h217q123 2 189 -68t62 -200v-177q4 -130 -61.5 -200.5t-189.5 -68.5h-217zM168 42h163q104 -2 157.5 57.5t51.5 175.5v165q2 115 -51.5 174.5t-157.5 57.5h-163v-630zM694 0v31l276 422h-255v41h314v-32l-275 -421h292v-41h-352z" />
    <glyph glyph-name="uni01F3" unicode="&#x1f3;" horiz-adv-x="1033" 
d="M426 0l-4 70q-30 -44 -64 -61t-92 -17q-185 0 -185 217v76q0 218 184 218q107 0 153 -79v290h47v-714h-39zM128 283v-72q0 -178 142 -178q148 0 148 181v66q0 182 -148 182q-142 0 -142 -179zM614 0v31l277 422h-256v41h315v-32l-276 -421h293v-41h-353z" />
    <glyph glyph-name="uni01F4" unicode="&#x1f4;" horiz-adv-x="665" 
d="M362 321v41h216v-106q0 -127 -56 -191q-66 -73 -185 -73q-134 0 -196 92q-43 64 -43 202v141q0 83 12 132t41 85q61 78 183 78q96 0 155 -44.5t64 -120.5l-45 -4q-9 60 -54.5 93.5t-118.5 33.5q-99 0 -144 -60.5t-45 -192.5v-141q0 -132 45.5 -192t145.5 -60
q102 0 153 66q40 51 40 148v73h-168zM302 796l71 134h64l-98 -134h-37z" />
    <glyph glyph-name="uni01F5" unicode="&#x1f5;" horiz-adv-x="563" 
d="M418 -15v86q-44 -79 -154 -79q-183 0 -183 217v76q0 218 184 218q111 0 158 -83l3 74h39v-504q0 -223 -203 -223q-106 0 -162 65l36 24q43 -49 125 -49q155 0 157 178zM128 283v-73q0 -177 142 -177q148 0 148 181v66q0 182 -148 182q-142 0 -142 -179zM251 583l71 134
h64l-98 -134h-37z" />
    <glyph glyph-name="Aringacute" unicode="&#x1fa;" horiz-adv-x="589" 
d="M10 0l254 691q-28 8 -44.5 32t-16.5 58q0 42 25 67.5t67 25.5q41 0 66 -25.5t25 -68.5q0 -33 -16.5 -57t-44.5 -32l254 -691h-53l-59 167h-344l-60 -167h-53zM453 209l-158 437l-159 -437h317zM295 844q-53 0 -53 -64q0 -29 14 -46t39 -17q24 0 38 17t14 46q0 30 -14 47
t-38 17zM266 893l55 111h63l-84 -111h-34z" />
    <glyph glyph-name="aringacute" unicode="&#x1fb;" horiz-adv-x="519" 
d="M377 280v48q0 64 -21 93q-30 41 -105 41q-82 0 -132 -51l-32 27q57 65 167 65q105 0 146 -64q24 -37 24 -115v-324h-39l-5 40q-23 -26 -56.5 -37t-92.5 -11q-98 0 -137.5 31.5t-39.5 110.5q0 81 42 113.5t148 32.5h133zM377 243h-132q-79 0 -112 -25t-33 -84
q0 -57 30.5 -79t107.5 -22q95 0 123 38q16 21 16 75v97zM261 743q41 0 66 -25.5t25 -67.5q0 -43 -25 -68.5t-67 -25.5t-67 25.5t-25 68.5t25 68t68 25zM261 713q-26 0 -40 -16.5t-14 -47.5q0 -29 14 -46t39 -17t39 17t14 47q0 29 -14 46t-38 17zM232 782l55 112h63l-84 -112
h-34z" />
    <glyph glyph-name="AEacute" unicode="&#x1fc;" horiz-adv-x="943" 
d="M483 172h-342l-113 -172h-56l475 714h436v-42h-352v-289h301v-42h-301v-299h351v-42h-399v172zM483 214v458h-14l-303 -458h317zM622 796l71 134h64l-98 -134h-37z" />
    <glyph glyph-name="aeacute" unicode="&#x1fd;" horiz-adv-x="837" 
d="M119 411l-32 25q58 67 166 67q129 0 155 -100q41 100 166 100q189 0 189 -233v-25h-339v-29q0 -89 41.5 -136t120.5 -47t122 47l36 -23q-55 -65 -160 -65q-132 0 -179 105q-12 -55 -54.5 -80t-122.5 -25q-96 0 -135 31.5t-39 110.5q0 81 42 113.5t148 32.5h133v48
q0 66 -21 93q-30 41 -105 41q-81 0 -132 -51zM377 243h-132q-79 0 -112 -25t-33 -84q0 -56 30 -78.5t106 -22.5q50 0 76.5 9.5t42.5 34.5q22 31 22 103v63zM425 282h292v6q0 78 -31 121q-36 53 -115 53q-71 0 -108.5 -45t-37.5 -130v-5zM382 583l71 134h64l-98 -134h-37z
" />
    <glyph glyph-name="Oslashacute" unicode="&#x1fe;" horiz-adv-x="678" 
d="M591 700l-50 -77q39 -63 39 -176v-180q0 -73 -13.5 -119.5t-44.5 -81.5q-65 -74 -183 -74q-110 0 -174 63l-46 -69l-32 24l51 78q-41 65 -41 179v180q0 135 58 201q67 74 184 74q112 0 175 -66l45 68zM510 577l-318 -481q52 -62 147 -62q102 0 154 73q39 55 39 166v168
q0 84 -22 136zM169 134l318 481q-52 65 -148 65q-103 0 -155 -73q-39 -56 -39 -166v-168q0 -88 24 -139zM302 796l71 134h64l-98 -134h-37z" />
    <glyph glyph-name="oslashacute" unicode="&#x1ff;" horiz-adv-x="556" 
d="M471 486l-36 -51q39 -51 39 -150v-76q0 -217 -197 -217q-81 0 -131 40l-33 -46l-30 22l36 51q-39 51 -39 150v76q0 218 198 218q82 0 130 -40l33 46zM405 394l-232 -325q36 -36 103 -36q151 0 151 177v74q0 67 -22 110zM149 101l232 324q-37 37 -103 37q-151 0 -151 -178
v-74q0 -66 22 -109zM240 583l71 134h64l-98 -134h-37z" />
    <glyph glyph-name="uni0200" unicode="&#x200;" horiz-adv-x="589" 
d="M467 167h-344l-60 -167h-53l263 714h43l263 -714h-53zM453 209l-158 437l-159 -437h317zM373 796h-36l-79 134h58zM259 796h-35l-80 134h58z" />
    <glyph glyph-name="uni0201" unicode="&#x201;" horiz-adv-x="519" 
d="M377 280v48q0 64 -21 93q-30 41 -105 41q-82 0 -132 -51l-32 27q57 65 167 65q105 0 146 -64q24 -37 24 -115v-324h-39l-5 40q-23 -26 -56.5 -37t-92.5 -11q-98 0 -137.5 31.5t-39.5 110.5q0 81 42 113.5t148 32.5h133zM377 243h-132q-79 0 -112 -25t-33 -84
q0 -57 30.5 -79t107.5 -22q95 0 123 38q16 21 16 75v97zM350 583h-36l-79 134h58zM236 583h-35l-80 134h58z" />
    <glyph glyph-name="uni0202" unicode="&#x202;" horiz-adv-x="589" 
d="M467 167h-344l-60 -167h-53l263 714h43l263 -714h-53zM453 209l-158 437l-159 -437h317zM416 803h-37q-4 47 -23 65.5t-61 18.5t-61 -19t-23 -65h-37q4 70 30 96.5t91 26.5q64 0 90 -26.5t31 -96.5z" />
    <glyph glyph-name="uni0203" unicode="&#x203;" horiz-adv-x="519" 
d="M377 280v48q0 64 -21 93q-30 41 -105 41q-82 0 -132 -51l-32 27q57 65 167 65q105 0 146 -64q24 -37 24 -115v-324h-39l-5 40q-23 -26 -56.5 -37t-92.5 -11q-98 0 -137.5 31.5t-39.5 110.5q0 81 42 113.5t148 32.5h133zM377 243h-132q-79 0 -112 -25t-33 -84
q0 -57 30.5 -79t107.5 -22q95 0 123 38q16 21 16 75v97zM380 590h-37q-4 46 -23 65t-61 19t-61 -19t-23 -65h-37q4 70 30 96.5t91 26.5q64 0 90 -26.5t31 -96.5z" />
    <glyph glyph-name="uni0204" unicode="&#x204;" horiz-adv-x="577" 
d="M116 0v714h401v-42h-353v-289h301v-42h-301v-299h351v-42h-399zM396 796h-36l-79 134h58zM282 796h-35l-80 134h58z" />
    <glyph glyph-name="uni0205" unicode="&#x205;" 
d="M128 245v-29q0 -89 41 -136t120 -47t122 47l36 -24q-54 -64 -160 -64q-206 0 -206 232v46q0 233 193 233t193 -233v-25h-339zM128 282h293v6q0 75 -31 121q-37 53 -115 53q-71 0 -109 -45t-38 -130v-5zM365 583h-36l-79 134h58zM251 583h-35l-80 134h58z" />
    <glyph glyph-name="uni0206" unicode="&#x206;" horiz-adv-x="577" 
d="M116 0v714h401v-42h-353v-289h301v-42h-301v-299h351v-42h-399zM442 803h-37q-5 47 -23.5 65.5t-60.5 18.5t-61 -19t-23 -65h-37q4 70 30 96.5t91 26.5q64 0 90 -26.5t31 -96.5z" />
    <glyph glyph-name="uni0207" unicode="&#x207;" 
d="M128 245v-29q0 -89 41 -136t120 -47t122 47l36 -24q-54 -64 -160 -64q-206 0 -206 232v46q0 233 193 233t193 -233v-25h-339zM128 282h293v6q0 75 -31 121q-37 53 -115 53q-71 0 -109 -45t-38 -130v-5zM400 590h-37q-5 46 -23.5 65t-60.5 19t-61 -19t-23 -65h-37
q4 70 30 96.5t91 26.5q64 0 90 -26.5t31 -96.5z" />
    <glyph glyph-name="uni0208" unicode="&#x208;" horiz-adv-x="280" 
d="M116 0v714h48v-714h-48zM219 796h-36l-79 134h58zM105 796h-35l-80 134h58z" />
    <glyph glyph-name="uni0209" unicode="&#x209;" horiz-adv-x="241" 
d="M96 0v494h47v-494h-47zM199 583h-36l-79 134h58zM85 583h-35l-80 134h58z" />
    <glyph glyph-name="uni020A" unicode="&#x20a;" horiz-adv-x="280" 
d="M116 0v714h48v-714h-48zM261 803h-37q-4 47 -23 65.5t-61 18.5t-61 -19t-23 -65h-37q4 70 30 96.5t91 26.5q64 0 90 -26.5t31 -96.5z" />
    <glyph glyph-name="uni020B" unicode="&#x20b;" horiz-adv-x="241" 
d="M97 0v494h47v-494h-47zM242 590h-37q-5 46 -23.5 65t-60.5 19t-61 -19t-23 -65h-37q4 70 30 96.5t91 26.5q64 0 90 -26.5t31 -96.5z" />
    <glyph glyph-name="uni020C" unicode="&#x20c;" horiz-adv-x="679" 
d="M98 267v180q0 135 58 201q67 74 184 74q128 0 193 -86q48 -64 48 -189v-180q0 -135 -58 -201q-65 -74 -183 -74q-129 0 -194 86q-48 64 -48 189zM533 273v168q0 119 -47 176q-51 63 -146 63q-103 0 -155 -73q-39 -56 -39 -166v-168q0 -119 47 -176q51 -63 147 -63
q102 0 154 73q39 56 39 166zM418 796h-36l-79 134h58zM304 796h-35l-80 134h58z" />
    <glyph glyph-name="uni020D" unicode="&#x20d;" horiz-adv-x="556" 
d="M81 208v77q0 218 197 218t197 -218v-77q0 -216 -197 -216t-197 216zM428 209v75q0 178 -150 178t-150 -178v-75q0 -176 150 -176t150 176zM356 583h-36l-79 134h58zM242 583h-35l-80 134h58z" />
    <glyph glyph-name="uni020E" unicode="&#x20e;" horiz-adv-x="679" 
d="M98 267v180q0 135 58 201q67 74 184 74q128 0 193 -86q48 -64 48 -189v-180q0 -135 -58 -201q-65 -74 -183 -74q-129 0 -194 86q-48 64 -48 189zM533 273v168q0 119 -47 176q-51 63 -146 63q-103 0 -155 -73q-39 -56 -39 -166v-168q0 -119 47 -176q51 -63 147 -63
q102 0 154 73q39 56 39 166zM461 803h-37q-4 47 -23 65.5t-61 18.5t-61 -19t-23 -65h-37q4 70 30 96.5t91 26.5q64 0 90 -26.5t31 -96.5z" />
    <glyph glyph-name="uni020F" unicode="&#x20f;" horiz-adv-x="556" 
d="M81 208v77q0 218 197 218t197 -218v-77q0 -216 -197 -216t-197 216zM428 209v75q0 178 -150 178t-150 -178v-75q0 -176 150 -176t150 176zM399 590h-37q-4 46 -23 65t-61 19t-61 -19t-23 -65h-37q4 70 30 96.5t91 26.5q64 0 90 -26.5t31 -96.5z" />
    <glyph glyph-name="uni0210" unicode="&#x210;" horiz-adv-x="648" 
d="M165 322v-322h-48v714h232q112 0 163 -52q51 -51 51 -143q0 -172 -157 -192l158 -327h-53l-153 322h-193zM165 364h192q81 0 118 40q39 40 39 114q0 81 -49 121q-39 33 -120 33h-180v-308zM377 796h-36l-79 134h58zM263 796h-35l-80 134h58z" />
    <glyph glyph-name="uni0211" unicode="&#x211;" horiz-adv-x="363" 
d="M99 0v494h38l5 -75q36 84 131 84q45 0 86 -22l-19 -41q-36 21 -72 21q-64 0 -93 -51.5t-29 -166.5v-243h-47zM285 583h-36l-79 134h58zM171 583h-35l-80 134h58z" />
    <glyph glyph-name="uni0212" unicode="&#x212;" horiz-adv-x="648" 
d="M165 322v-322h-48v714h232q112 0 163 -52q51 -51 51 -143q0 -172 -157 -192l158 -327h-53l-153 322h-193zM165 364h192q81 0 118 40q39 40 39 114q0 81 -49 121q-39 33 -120 33h-180v-308zM412 803h-37q-5 47 -23.5 65.5t-60.5 18.5t-61 -19t-23 -65h-37q4 70 30 96.5
t91 26.5q64 0 90 -26.5t31 -96.5z" />
    <glyph glyph-name="uni0213" unicode="&#x213;" horiz-adv-x="363" 
d="M99 0v494h38l5 -75q35 84 131 84q45 0 86 -22l-19 -41q-36 21 -72 21q-64 0 -93 -51.5t-29 -166.5v-243h-47zM325 590h-37q-4 46 -23 65t-61 19t-61 -19t-23 -65h-37q4 70 30 96.5t91 26.5q64 0 90 -26.5t31 -96.5z" />
    <glyph glyph-name="uni0214" unicode="&#x214;" horiz-adv-x="694" 
d="M113 714h48v-454q0 -61 7 -94.5t25 -59.5q48 -72 154 -72q114 0 161 83q25 44 25 143v454h48v-454q0 -73 -9 -113t-33 -72q-64 -83 -192 -83q-139 0 -200 96q-19 29 -26.5 66.5t-7.5 105.5v454zM426 796h-36l-79 134h58zM312 796h-35l-80 134h58z" />
    <glyph glyph-name="uni0215" unicode="&#x215;" horiz-adv-x="551" 
d="M94 494h47v-281q0 -72 16 -111q30 -70 112 -70q73 0 104.5 49.5t31.5 163.5v249h47v-494h-38l-5 75q-38 -84 -143 -84q-120 0 -157 96q-15 41 -15 123v284zM354 583h-36l-79 134h58zM240 583h-35l-80 134h58z" />
    <glyph glyph-name="uni0216" unicode="&#x216;" horiz-adv-x="694" 
d="M113 714h48v-454q0 -61 7 -94.5t25 -59.5q48 -72 154 -72q114 0 161 83q25 44 25 143v454h48v-454q0 -73 -9 -113t-33 -72q-64 -83 -192 -83q-139 0 -200 96q-19 29 -26.5 66.5t-7.5 105.5v454zM468 803h-37q-5 47 -23.5 65.5t-60.5 18.5t-61 -19t-23 -65h-37
q4 70 30 96.5t91 26.5q64 0 90 -26.5t31 -96.5z" />
    <glyph glyph-name="uni0217" unicode="&#x217;" horiz-adv-x="551" 
d="M94 494h47v-281q0 -72 16 -111q30 -70 112 -70q73 0 104.5 49.5t31.5 163.5v249h47v-494h-38l-5 75q-38 -84 -143 -84q-120 0 -157 96q-15 41 -15 123v284zM397 590h-37q-4 46 -23 65t-61 19t-61 -19t-23 -65h-37q4 70 30 96.5t91 26.5q64 0 90 -26.5t31 -96.5z" />
    <glyph glyph-name="Scommaaccent" unicode="&#x218;" horiz-adv-x="582" 
d="M63 87l39 25q48 -78 186 -78q90 0 140 39.5t50 110.5t-50 107q-23 16 -43 23t-97 26q-110 27 -158 73t-48 123q0 87 56 136.5t154 49.5q138 0 191 -77l-38 -25q-43 60 -154 60q-76 0 -118.5 -37.5t-42.5 -103.5q0 -62 41 -97.5t140 -59.5q73 -18 98 -27t51 -27
q66 -46 66 -140q0 -93 -62.5 -144.5t-174.5 -51.5q-165 0 -226 95zM223 -211l54 137h56l-75 -137h-35z" />
    <glyph glyph-name="scommaaccent" unicode="&#x219;" horiz-adv-x="461" 
d="M34 55l33 26q52 -48 149 -48q146 0 146 99q0 53 -39 75q-29 16 -100 26q-93 14 -122 41q-38 32 -38 91q0 66 39.5 102t112.5 36q113 0 168 -67l-36 -24q-47 50 -128 50q-53 0 -81.5 -24.5t-28.5 -69.5q0 -48 36 -70q23 -14 89 -24q97 -14 131 -40q43 -32 43 -104
q0 -138 -190 -138q-127 0 -184 63zM151 -211l54 137h56l-75 -137h-35z" />
    <glyph glyph-name="uni021A" unicode="&#x21a;" horiz-adv-x="553" 
d="M254 0v672h-214v42h474v-42h-212v-672h-48zM201 -211l54 137h56l-75 -137h-35z" />
    <glyph glyph-name="uni021B" unicode="&#x21b;" horiz-adv-x="326" 
d="M117 453h-63v41h63l1 168h46v-168h96v-41h-96v-326q0 -49 18 -68t64 -18h20v-41h-19q-75 -1 -102.5 27t-27.5 104v322zM110 -211l54 137h56l-75 -137h-35z" />
    <glyph glyph-name="uni0226" unicode="&#x226;" horiz-adv-x="589" 
d="M467 167h-344l-60 -167h-53l263 714h43l263 -714h-53zM453 209l-158 437l-159 -437h317zM271 807v89h46v-89h-46z" />
    <glyph glyph-name="uni0227" unicode="&#x227;" horiz-adv-x="519" 
d="M377 280v48q0 64 -21 93q-30 41 -105 41q-82 0 -132 -51l-32 27q57 65 167 65q105 0 146 -64q24 -37 24 -115v-324h-39l-5 40q-23 -26 -56.5 -37t-92.5 -11q-98 0 -137.5 31.5t-39.5 110.5q0 81 42 113.5t148 32.5h133zM377 243h-132q-79 0 -112 -25t-33 -84
q0 -57 30.5 -79t107.5 -22q95 0 123 38q16 21 16 75v97zM243 594v89h46v-89h-46z" />
    <glyph glyph-name="uni0237" unicode="&#x237;" horiz-adv-x="248" 
d="M102 494h47v-524q2 -110 -37.5 -155.5t-137.5 -44.5v41q70 -3 100 33.5t28 120.5v529z" />
    <glyph glyph-name="afii57929" unicode="&#x2bc;" horiz-adv-x="165" 
d="M38 490l38 224h52l-53 -224h-37z" />
    <glyph glyph-name="uni02C0" unicode="&#x2c0;" horiz-adv-x="500" 
d="M273 784h-39q1 23 3.5 31.5t13.5 25.5q19 29 19 44q0 27 -35 27q-17 0 -43 -9l-10 29q31 12 59 12q72 0 72 -57q0 -22 -23 -53q-12 -17 -14.5 -24.5t-2.5 -25.5z" />
    <glyph glyph-name="circumflex" unicode="&#x2c6;" horiz-adv-x="500" 
d="M250 672l-76 -83h-58l121 122h25l121 -122h-58z" />
    <glyph glyph-name="caron" unicode="&#x2c7;" horiz-adv-x="500" 
d="M250 628l75 83h58l-121 -122h-25l-121 122h58z" />
    <glyph glyph-name="uni02C9" unicode="&#x2c9;" horiz-adv-x="500" 
d="M138 630v35h225v-35h-225z" />
    <glyph glyph-name="breve" unicode="&#x2d8;" horiz-adv-x="500" 
d="M129 705h37q5 -46 23.5 -65t60.5 -19t61 18.5t23 65.5h37q-4 -70 -30.5 -96.5t-90.5 -26.5q-65 0 -91 26.5t-30 96.5z" />
    <glyph glyph-name="dotaccent" unicode="&#x2d9;" horiz-adv-x="500" 
d="M226 594v89h46v-89h-46z" />
    <glyph glyph-name="ring" unicode="&#x2da;" horiz-adv-x="500" 
d="M251 763q41 0 66 -25.5t25 -67.5q0 -43 -25 -68.5t-67 -25.5t-67 25.5t-25 68.5t25 68t68 25zM251 733q-26 0 -40 -16.5t-14 -47.5q0 -29 14 -46t39 -17t39 17t14 47q0 29 -14 46t-38 17z" />
    <glyph glyph-name="ogonek" unicode="&#x2db;" horiz-adv-x="500" 
d="M301 0h53q-57 -30 -79 -52.5t-22 -51.5q0 -44 54 -44q25 0 56 9l5 -34q-36 -10 -67 -10q-93 0 -93 71q0 35 24.5 64t68.5 48z" />
    <glyph glyph-name="tilde" unicode="&#x2dc;" horiz-adv-x="500" 
d="M140 604h-34q14 50 33 71.5t50 21.5q34 0 70 -32q36 -33 55 -33q29 0 46 57h34q-14 -51 -32.5 -72t-49.5 -21q-34 0 -71 33q-36 32 -56 32q-28 0 -45 -57z" />
    <glyph glyph-name="hungarumlaut" unicode="&#x2dd;" horiz-adv-x="500" 
d="M171 583l57 134h58l-80 -134h-35zM285 583l57 134h58l-80 -134h-35z" />
    <glyph glyph-name="uni0309" unicode="&#x309;" horiz-adv-x="500" 
d="M273 575h-39q1 23 3.5 31.5t13.5 26.5q19 29 19 44q0 27 -35 27q-19 0 -43 -10l-10 30q31 12 59 12q72 0 72 -57q0 -23 -23 -54q-12 -17 -14.5 -24.5t-2.5 -25.5z" />
    <glyph glyph-name="uni0312" unicode="&#x312;" horiz-adv-x="500" 
d="M176 583l99 134h36l-71 -134h-64z" />
    <glyph glyph-name="uni0313" unicode="&#x313;" horiz-adv-x="50" 
d="M-5 518l22 199h54l-43 -199h-33z" />
    <glyph glyph-name="uni031B" unicode="&#x31b;" horiz-adv-x="50" 
d="M-5 518l22 199h54l-43 -199h-33z" />
    <glyph glyph-name="uni0323" unicode="&#x323;" horiz-adv-x="500" 
d="M226 -184v89h46v-89h-46z" />
    <glyph glyph-name="uni037E" unicode="&#x37e;" horiz-adv-x="275" 
d="M68 -188l47 267h54l-63 -267h-38zM116 415v79h48v-79h-48z" />
    <glyph glyph-name="uni0387" unicode="&#x387;" horiz-adv-x="274" 
d="M114 330v78h48v-78h-48z" />
    <glyph glyph-name="uni04D4" unicode="&#x4d4;" horiz-adv-x="943" 
d="M483 172h-342l-113 -172h-56l475 714h436v-42h-352v-289h301v-42h-301v-299h351v-42h-399v172zM483 214v458h-14l-303 -458h317z" />
    <glyph glyph-name="uni04D5" unicode="&#x4d5;" horiz-adv-x="837" 
d="M119 411l-32 25q58 67 166 67q129 0 155 -100q41 100 166 100q189 0 189 -233v-25h-339v-29q0 -89 41.5 -136t120.5 -47t122 47l36 -23q-55 -65 -160 -65q-132 0 -179 105q-12 -55 -54.5 -80t-122.5 -25q-96 0 -135 31.5t-39 110.5q0 81 42 113.5t148 32.5h133v48
q0 66 -21 93q-30 41 -105 41q-81 0 -132 -51zM377 243h-132q-79 0 -112 -25t-33 -84q0 -56 30 -78.5t106 -22.5q50 0 76.5 9.5t42.5 34.5q22 31 22 103v63zM425 282h292v6q0 78 -31 121q-36 53 -115 53q-71 0 -108.5 -45t-37.5 -130v-5z" />
    <glyph glyph-name="uni1E02" unicode="&#x1e02;" horiz-adv-x="642" 
d="M116 0v714h254q92 0 138 -43q54 -51 54 -137q0 -113 -96 -161q46 -22 64 -42q46 -54 46 -142q0 -99 -61 -151q-45 -38 -131 -38h-268zM164 390h203q68 0 104 32q42 39 42 109q0 76 -48 114q-34 27 -98 27h-203v-282zM164 42h218q68 0 103 34q42 40 42 116q0 83 -48 126
q-35 30 -97 30h-218v-306zM284 807v89h46v-89h-46z" />
    <glyph glyph-name="uni1E03" unicode="&#x1e03;" horiz-adv-x="564" 
d="M99 0v714h47v-290q45 79 153 79q184 0 184 -218v-76q0 -217 -185 -217q-58 0 -92.5 17t-63.5 61l-4 -70h-39zM436 211v72q0 179 -142 179q-148 0 -148 -182v-66q0 -181 147 -181q143 0 143 178zM297 594v89h46v-89h-46z" />
    <glyph glyph-name="uni1E0C" unicode="&#x1e0c;" horiz-adv-x="682" 
d="M116 0v714h217q123 2 189 -68t62 -200v-177q4 -130 -61.5 -200.5t-189.5 -68.5h-217zM164 42h163q104 -2 157.5 57.5t51.5 175.5v165q2 115 -51.5 174.5t-157.5 57.5h-163v-630zM286 -184v89h46v-89h-46z" />
    <glyph glyph-name="uni1E0D" unicode="&#x1e0d;" horiz-adv-x="564" 
d="M426 0l-4 70q-30 -44 -64 -61t-92 -17q-185 0 -185 217v76q0 218 184 218q107 0 153 -79v290h47v-714h-39zM128 283v-72q0 -178 142 -178q148 0 148 181v66q0 182 -148 182q-142 0 -142 -179zM277 -184v89h46v-89h-46z" />
    <glyph glyph-name="uni1E1E" unicode="&#x1e1e;" horiz-adv-x="545" 
d="M116 0v714h399v-42h-351v-295h300v-42h-300v-335h-48zM297 807v89h46v-89h-46z" />
    <glyph glyph-name="uni1E1F" unicode="&#x1e1f;" horiz-adv-x="322" 
d="M122 453h-65v41h65v100q0 69 26 95t95 25h36v-39h-26q-49 2 -66.5 -16t-17.5 -70v-95h117v-41h-117v-453h-47v453zM180 807v89h46v-89h-46z" />
    <glyph glyph-name="uni1E24" unicode="&#x1e24;" horiz-adv-x="682" 
d="M116 0v714h48v-331h354v331h48v-714h-48v341h-354v-341h-48zM317 -184v89h46v-89h-46z" />
    <glyph glyph-name="uni1E25" unicode="&#x1e25;" horiz-adv-x="562" 
d="M99 0v714h47v-289q45 78 149 78q118 0 157 -96q16 -39 16 -123v-284h-47v282q0 72 -16 110q-32 70 -117 70q-76 0 -109 -49t-33 -162v-251h-47zM257 -184v89h46v-89h-46z" />
    <glyph glyph-name="uni1E44" unicode="&#x1e44;" horiz-adv-x="726" 
d="M116 0v714h45l403 -630v630h47v-714h-45l-403 630v-630h-47zM355 807v89h46v-89h-46z" />
    <glyph glyph-name="uni1E45" unicode="&#x1e45;" horiz-adv-x="562" 
d="M99 0v494h38l5 -75q41 84 148 84q125 0 162 -96q16 -39 16 -123v-284h-47v281q0 73 -16 111q-32 70 -117 70q-98 0 -128 -91q-14 -41 -14 -122v-249h-47zM257 594v89h46v-89h-46z" />
    <glyph glyph-name="uni1E5A" unicode="&#x1e5a;" horiz-adv-x="648" 
d="M165 322v-322h-48v714h232q112 0 163 -52q51 -51 51 -143q0 -172 -157 -192l158 -327h-53l-153 322h-193zM165 364h192q81 0 118 40q39 40 39 114q0 81 -49 121q-39 33 -120 33h-180v-308zM300 -184v89h46v-89h-46z" />
    <glyph glyph-name="uni1E5B" unicode="&#x1e5b;" horiz-adv-x="363" 
d="M99 0v494h38l5 -75q36 84 131 84q45 0 86 -22l-19 -41q-36 21 -72 21q-64 0 -93 -51.5t-29 -166.5v-243h-47zM99 -184v89h46v-89h-46z" />
    <glyph glyph-name="uni1E62" unicode="&#x1e62;" horiz-adv-x="582" 
d="M63 87l39 25q48 -78 186 -78q90 0 140 39.5t50 110.5t-50 107q-23 16 -43 23t-97 26q-110 27 -158 73t-48 123q0 87 56 136.5t154 49.5q138 0 191 -77l-38 -25q-43 60 -154 60q-76 0 -118.5 -37.5t-42.5 -103.5q0 -62 41 -97.5t140 -59.5q73 -18 98 -27t51 -27
q66 -46 66 -140q0 -93 -62.5 -144.5t-174.5 -51.5q-165 0 -226 95zM266 -184v89h46v-89h-46z" />
    <glyph glyph-name="uni1E63" unicode="&#x1e63;" horiz-adv-x="461" 
d="M34 55l33 26q52 -48 149 -48q146 0 146 99q0 53 -39 75q-29 16 -100 26q-93 14 -122 41q-38 32 -38 91q0 66 39.5 102t112.5 36q113 0 168 -67l-36 -24q-47 50 -128 50q-53 0 -81.5 -24.5t-28.5 -69.5q0 -48 36 -70q23 -14 89 -24q97 -14 131 -40q43 -32 43 -104
q0 -138 -190 -138q-127 0 -184 63zM200 -182v89h46v-89h-46z" />
    <glyph glyph-name="uni1E6C" unicode="&#x1e6c;" horiz-adv-x="553" 
d="M254 0v672h-214v42h474v-42h-212v-672h-48zM253 -184v89h46v-89h-46z" />
    <glyph glyph-name="uni1E6D" unicode="&#x1e6d;" horiz-adv-x="326" 
d="M117 453h-63v41h63l1 168h46v-168h96v-41h-96v-326q0 -49 18 -68t64 -18h20v-41h-19q-75 -1 -102.5 27t-27.5 104v322zM139 -184v89h46v-89h-46z" />
    <glyph glyph-name="Wgrave" unicode="&#x1e80;" horiz-adv-x="848" 
d="M212 0l-179 714h49l151 -626l176 626h29l176 -626l151 626h49l-179 -714h-37l-174 618l-174 -618h-38zM463 796h-36l-99 134h64z" />
    <glyph glyph-name="wgrave" unicode="&#x1e81;" horiz-adv-x="766" 
d="M202 0l-156 494h48l128 -424l146 424h31l146 -424l128 424h48l-156 -494h-35l-147 417l-147 -417h-34zM423 583h-36l-99 134h64z" />
    <glyph glyph-name="Wacute" unicode="&#x1e82;" horiz-adv-x="848" 
d="M212 0l-179 714h49l151 -626l176 626h29l176 -626l151 626h49l-179 -714h-37l-174 618l-174 -618h-38zM387 796l71 134h64l-98 -134h-37z" />
    <glyph glyph-name="wacute" unicode="&#x1e83;" horiz-adv-x="766" 
d="M202 0l-156 494h48l128 -424l146 424h31l146 -424l128 424h48l-156 -494h-35l-147 417l-147 -417h-34zM347 583l71 134h64l-98 -134h-37z" />
    <glyph glyph-name="Wdieresis" unicode="&#x1e84;" horiz-adv-x="848" 
d="M212 0l-179 714h49l151 -626l176 626h29l176 -626l151 626h49l-179 -714h-37l-174 618l-174 -618h-38zM306 807v89h44v-89h-44zM497 807v89h44v-89h-44z" />
    <glyph glyph-name="wdieresis" unicode="&#x1e85;" horiz-adv-x="766" 
d="M202 0l-156 494h48l128 -424l146 424h31l146 -424l128 424h48l-156 -494h-35l-147 417l-147 -417h-34zM265 594v89h44v-89h-44zM456 594v89h44v-89h-44z" />
    <glyph glyph-name="uni1E92" unicode="&#x1e92;" horiz-adv-x="529" 
d="M50 0v38l353 634h-333v42h386v-38l-353 -634h369v-42h-422zM251 -182v89h46v-89h-46z" />
    <glyph glyph-name="uni1E93" unicode="&#x1e93;" horiz-adv-x="470" 
d="M51 0v31l276 422h-255v41h314v-32l-276 -421h293v-41h-352zM218 -184v89h46v-89h-46z" />
    <glyph glyph-name="uni1EA0" unicode="&#x1ea0;" horiz-adv-x="589" 
d="M467 167h-344l-60 -167h-53l263 714h43l263 -714h-53zM453 209l-158 437l-159 -437h317zM271 -184v89h46v-89h-46z" />
    <glyph glyph-name="uni1EA1" unicode="&#x1ea1;" horiz-adv-x="519" 
d="M377 280v48q0 64 -21 93q-30 41 -105 41q-82 0 -132 -51l-32 27q57 65 167 65q105 0 146 -64q24 -37 24 -115v-324h-39l-5 40q-23 -26 -56.5 -37t-92.5 -11q-98 0 -137.5 31.5t-39.5 110.5q0 81 42 113.5t148 32.5h133zM377 243h-132q-79 0 -112 -25t-33 -84
q0 -57 30.5 -79t107.5 -22q95 0 123 38q16 21 16 75v97zM235 -184v89h46v-89h-46z" />
    <glyph glyph-name="uni1EA2" unicode="&#x1ea2;" horiz-adv-x="589" 
d="M467 167h-344l-60 -167h-53l263 714h43l263 -714h-53zM453 209l-158 437l-159 -437h317zM317 784h-38q0 22 2.5 31t13.5 26q19 29 19 44q0 27 -35 27q-18 0 -42 -9l-10 29q31 12 59 12q71 0 71 -57q0 -21 -22 -53q-13 -17 -15.5 -24.5t-2.5 -25.5z" />
    <glyph glyph-name="uni1EA3" unicode="&#x1ea3;" horiz-adv-x="519" 
d="M377 280v48q0 64 -21 93q-30 41 -105 41q-82 0 -132 -51l-32 27q57 65 167 65q105 0 146 -64q24 -37 24 -115v-324h-39l-5 40q-23 -26 -56.5 -37t-92.5 -11q-98 0 -137.5 31.5t-39.5 110.5q0 81 42 113.5t148 32.5h133zM377 243h-132q-79 0 -112 -25t-33 -84
q0 -57 30.5 -79t107.5 -22q95 0 123 38q16 21 16 75v97zM290 575h-39q0 22 3 31.5t14 26.5q19 29 19 44q0 27 -35 27q-19 0 -43 -10l-10 30q31 12 59 12q72 0 72 -57q0 -23 -23 -54q-12 -16 -14.5 -24t-2.5 -26z" />
    <glyph glyph-name="uni1EA4" unicode="&#x1ea4;" horiz-adv-x="589" 
d="M467 167h-344l-60 -167h-53l263 714h43l263 -714h-53zM453 209l-158 437l-159 -437h317zM262 887l55 111h57l-79 -111h-33zM294 822l-74 -59h-58l121 97h23l121 -97h-58z" />
    <glyph glyph-name="uni1EA5" unicode="&#x1ea5;" horiz-adv-x="519" 
d="M377 280v48q0 64 -21 93q-30 41 -105 41q-82 0 -132 -51l-32 27q57 65 167 65q105 0 146 -64q24 -37 24 -115v-324h-39l-5 40q-23 -26 -56.5 -37t-92.5 -11q-98 0 -137.5 31.5t-39.5 110.5q0 81 42 113.5t148 32.5h133zM377 243h-132q-79 0 -112 -25t-33 -84
q0 -57 30.5 -79t107.5 -22q95 0 123 38q16 21 16 75v97zM237 674l55 111h57l-80 -111h-32zM269 609l-75 -59h-57l120 97h24l120 -97h-57z" />
    <glyph glyph-name="uni1EA6" unicode="&#x1ea6;" horiz-adv-x="589" 
d="M467 167h-344l-60 -167h-53l263 714h43l263 -714h-53zM453 209l-158 437l-159 -437h317zM326 887h-32l-80 111h58zM294 822l-74 -59h-58l121 97h23l121 -97h-58z" />
    <glyph glyph-name="uni1EA7" unicode="&#x1ea7;" horiz-adv-x="519" 
d="M377 280v48q0 64 -21 93q-30 41 -105 41q-82 0 -132 -51l-32 27q57 65 167 65q105 0 146 -64q24 -37 24 -115v-324h-39l-5 40q-23 -26 -56.5 -37t-92.5 -11q-98 0 -137.5 31.5t-39.5 110.5q0 81 42 113.5t148 32.5h133zM377 243h-132q-79 0 -112 -25t-33 -84
q0 -57 30.5 -79t107.5 -22q95 0 123 38q16 21 16 75v97zM294 674h-32l-80 111h58zM263 609l-75 -59h-57l120 97h24l120 -97h-57z" />
    <glyph glyph-name="uni1EA8" unicode="&#x1ea8;" horiz-adv-x="589" 
d="M467 167h-344l-60 -167h-53l263 714h43l263 -714h-53zM453 209l-158 437l-159 -437h317zM314 875h-36q0 16 2.5 23.5t13.5 21.5q18 23 18 33q0 18 -34 18q-19 0 -40 -8l-10 27q30 10 56 10q68 0 68 -45q0 -18 -21 -42q-12 -13 -14.5 -18.5t-2.5 -19.5zM291 821l-75 -58
h-57l120 95h24l120 -95h-57z" />
    <glyph glyph-name="uni1EA9" unicode="&#x1ea9;" horiz-adv-x="519" 
d="M377 280v48q0 64 -21 93q-30 41 -105 41q-82 0 -132 -51l-32 27q57 65 167 65q105 0 146 -64q24 -37 24 -115v-324h-39l-5 40q-23 -26 -56.5 -37t-92.5 -11q-98 0 -137.5 31.5t-39.5 110.5q0 81 42 113.5t148 32.5h133zM377 243h-132q-79 0 -112 -25t-33 -84
q0 -57 30.5 -79t107.5 -22q95 0 123 38q16 21 16 75v97zM282 662h-36q0 16 2.5 23t13.5 22q18 22 18 33q0 18 -34 18q-20 0 -40 -8l-10 27q26 10 56 10q68 0 68 -45q0 -18 -21 -42q-12 -13 -14.5 -19t-2.5 -19zM259 608l-75 -58h-57l120 95h24l120 -95h-57z" />
    <glyph glyph-name="uni1EAA" unicode="&#x1eaa;" horiz-adv-x="589" 
d="M467 167h-344l-60 -167h-53l263 714h43l263 -714h-53zM453 209l-158 437l-159 -437h317zM209 898h-31q13 47 31.5 67.5t46.5 20.5q29 0 56 -30q27 -31 42 -31q23 0 36 53h32q-11 -47 -27.5 -67t-42.5 -20q-29 0 -55 31q-27 30 -44 30q-25 0 -44 -54zM300 822l-75 -59h-57
l120 97h24l120 -97h-57z" />
    <glyph glyph-name="uni1EAB" unicode="&#x1eab;" horiz-adv-x="519" 
d="M377 280v48q0 64 -21 93q-30 41 -105 41q-82 0 -132 -51l-32 27q57 65 167 65q105 0 146 -64q24 -37 24 -115v-324h-39l-5 40q-23 -26 -56.5 -37t-92.5 -11q-98 0 -137.5 31.5t-39.5 110.5q0 81 42 113.5t148 32.5h133zM377 243h-132q-79 0 -112 -25t-33 -84
q0 -57 30.5 -79t107.5 -22q95 0 123 38q16 21 16 75v97zM174 685h-31q13 47 31.5 67.5t46.5 20.5q29 0 55 -31q27 -31 43 -31q23 0 36 54h31q-10 -47 -26.5 -67.5t-42.5 -20.5q-29 0 -56 31q-26 31 -43 31q-26 0 -44 -54zM265 609l-75 -59h-57l120 97h24l120 -97h-57z" />
    <glyph glyph-name="uni1EAC" unicode="&#x1eac;" horiz-adv-x="589" 
d="M467 167h-344l-60 -167h-53l263 714h43l263 -714h-53zM453 209l-158 437l-159 -437h317zM294 886l-75 -83h-58l121 122h25l121 -122h-58zM271 -184v89h46v-89h-46z" />
    <glyph glyph-name="uni1EAD" unicode="&#x1ead;" horiz-adv-x="519" 
d="M377 280v48q0 64 -21 93q-30 41 -105 41q-82 0 -132 -51l-32 27q57 65 167 65q105 0 146 -64q24 -37 24 -115v-324h-39l-5 40q-23 -26 -56.5 -37t-92.5 -11q-98 0 -137.5 31.5t-39.5 110.5q0 81 42 113.5t148 32.5h133zM377 243h-132q-79 0 -112 -25t-33 -84
q0 -57 30.5 -79t107.5 -22q95 0 123 38q16 21 16 75v97zM259 672l-75 -83h-58l121 122h25l121 -122h-58zM235 -184v89h46v-89h-46z" />
    <glyph glyph-name="uni1EAE" unicode="&#x1eae;" horiz-adv-x="589" 
d="M467 167h-344l-60 -167h-53l263 714h43l263 -714h-53zM453 209l-158 437l-159 -437h317zM262 887l55 111h57l-79 -111h-33zM175 871h36q5 -40 23.5 -56.5t59.5 -16.5q42 0 60.5 16.5t23.5 56.5h36q-4 -62 -30 -86.5t-90 -24.5q-63 0 -89 24t-30 87z" />
    <glyph glyph-name="uni1EAF" unicode="&#x1eaf;" horiz-adv-x="519" 
d="M377 280v48q0 64 -21 93q-30 41 -105 41q-82 0 -132 -51l-32 27q57 65 167 65q105 0 146 -64q24 -37 24 -115v-324h-39l-5 40q-23 -26 -56.5 -37t-92.5 -11q-98 0 -137.5 31.5t-39.5 110.5q0 81 42 113.5t148 32.5h133zM377 243h-132q-79 0 -112 -25t-33 -84
q0 -57 30.5 -79t107.5 -22q95 0 123 38q16 21 16 75v97zM227 674l55 111h57l-80 -111h-32zM140 658h36q4 -40 23 -56.5t60 -16.5q42 0 60.5 16.5t23.5 56.5h36q-4 -62 -30 -86.5t-90 -24.5t-89.5 24t-29.5 87z" />
    <glyph glyph-name="uni1EB0" unicode="&#x1eb0;" horiz-adv-x="589" 
d="M467 167h-344l-60 -167h-53l263 714h43l263 -714h-53zM453 209l-158 437l-159 -437h317zM327 887h-32l-79 111h57zM175 871h36q5 -40 23.5 -56.5t59.5 -16.5q42 0 60.5 16.5t23.5 56.5h36q-4 -62 -30 -86.5t-90 -24.5q-63 0 -89 24t-30 87z" />
    <glyph glyph-name="uni1EB1" unicode="&#x1eb1;" horiz-adv-x="519" 
d="M377 280v48q0 64 -21 93q-30 41 -105 41q-82 0 -132 -51l-32 27q57 65 167 65q105 0 146 -64q24 -37 24 -115v-324h-39l-5 40q-23 -26 -56.5 -37t-92.5 -11q-98 0 -137.5 31.5t-39.5 110.5q0 81 42 113.5t148 32.5h133zM377 243h-132q-79 0 -112 -25t-33 -84
q0 -57 30.5 -79t107.5 -22q95 0 123 38q16 21 16 75v97zM293 674h-32l-80 111h57zM140 658h36q4 -40 23 -56.5t60 -16.5q42 0 60.5 16.5t23.5 56.5h36q-4 -62 -30 -86.5t-90 -24.5t-89.5 24t-29.5 87z" />
    <glyph glyph-name="uni1EB2" unicode="&#x1eb2;" horiz-adv-x="589" 
d="M467 167h-344l-60 -167h-53l263 714h43l263 -714h-53zM453 209l-158 437l-159 -437h317zM312 863h-36q0 25 16 48q18 24 18 36q0 24 -35 24q-18 0 -39 -8l-10 27q26 10 55 10q69 0 69 -51q0 -15 -19 -39t-19 -41v-6zM175 871h36q5 -41 23.5 -57.5t60.5 -16.5
q41 0 59.5 16.5t23.5 57.5h36q-4 -62 -30 -86.5t-90 -24.5q-63 0 -89 24t-30 87z" />
    <glyph glyph-name="uni1EB3" unicode="&#x1eb3;" horiz-adv-x="519" 
d="M377 280v48q0 64 -21 93q-30 41 -105 41q-82 0 -132 -51l-32 27q57 65 167 65q105 0 146 -64q24 -37 24 -115v-324h-39l-5 40q-23 -26 -56.5 -37t-92.5 -11q-98 0 -137.5 31.5t-39.5 110.5q0 81 42 113.5t148 32.5h133zM377 243h-132q-79 0 -112 -25t-33 -84
q0 -57 30.5 -79t107.5 -22q95 0 123 38q16 21 16 75v97zM277 650h-36q0 25 16 48q18 26 18 36q0 24 -35 24q-16 0 -40 -8l-9 27q26 10 55 10q69 0 69 -50q0 -16 -19 -40t-19 -41v-6zM140 658h35q4 -40 23.5 -57t60.5 -17q42 0 60.5 16.5t23.5 57.5h36q-4 -62 -30 -86.5
t-90 -24.5t-89.5 24t-29.5 87z" />
    <glyph glyph-name="uni1EB4" unicode="&#x1eb4;" horiz-adv-x="589" 
d="M467 167h-344l-60 -167h-53l263 714h43l263 -714h-53zM453 209l-158 437l-159 -437h317zM202 907h-32q13 46 31 66.5t47 20.5t56 -30q27 -31 43 -31q23 0 35 54h32q-11 -47 -27.5 -67.5t-42.5 -20.5q-29 0 -55 31q-27 30 -43 30q-27 0 -44 -53zM174 869h35
q5 -40 23.5 -56t60.5 -16q41 0 60 16t23 56h35q-5 -62 -30.5 -85.5t-88.5 -23.5t-88.5 23.5t-29.5 85.5z" />
    <glyph glyph-name="uni1EB5" unicode="&#x1eb5;" horiz-adv-x="519" 
d="M377 280v48q0 64 -21 93q-30 41 -105 41q-82 0 -132 -51l-32 27q57 65 167 65q105 0 146 -64q24 -37 24 -115v-324h-39l-5 40q-23 -26 -56.5 -37t-92.5 -11q-98 0 -137.5 31.5t-39.5 110.5q0 81 42 113.5t148 32.5h133zM377 243h-132q-79 0 -112 -25t-33 -84
q0 -57 30.5 -79t107.5 -22q95 0 123 38q16 21 16 75v97zM170 693h-32q13 47 31.5 67.5t46.5 20.5q29 0 56 -30q27 -31 43 -31q23 0 36 54h31q-11 -47 -27 -67.5t-42 -20.5q-29 0 -56 31q-26 30 -43 30q-26 0 -44 -54zM142 656h35q4 -40 23 -56t60 -16q42 0 60.5 16t23.5 56
h35q-4 -62 -29.5 -85.5t-89.5 -23.5q-63 0 -88.5 23.5t-29.5 85.5z" />
    <glyph glyph-name="uni1EB6" unicode="&#x1eb6;" horiz-adv-x="589" 
d="M467 167h-344l-60 -167h-53l263 714h43l263 -714h-53zM453 209l-158 437l-159 -437h317zM174 918h36q4 -46 23.5 -65t60.5 -19q42 0 61.5 19t23.5 65h36q-4 -70 -30 -96.5t-91 -26.5q-64 0 -90 26.5t-30 96.5zM271 -184v89h46v-89h-46z" />
    <glyph glyph-name="uni1EB7" unicode="&#x1eb7;" horiz-adv-x="519" 
d="M377 280v48q0 64 -21 93q-30 41 -105 41q-82 0 -132 -51l-32 27q57 65 167 65q105 0 146 -64q24 -37 24 -115v-324h-39l-5 40q-23 -26 -56.5 -37t-92.5 -11q-98 0 -137.5 31.5t-39.5 110.5q0 81 42 113.5t148 32.5h133zM377 243h-132q-79 0 -112 -25t-33 -84
q0 -57 30.5 -79t107.5 -22q95 0 123 38q16 21 16 75v97zM145 705h36q5 -46 24 -65t60 -19q42 0 61.5 19t23.5 65h36q-4 -70 -30 -96.5t-90 -26.5t-90.5 27t-30.5 96zM235 -184v89h46v-89h-46z" />
    <glyph glyph-name="uni1EB8" unicode="&#x1eb8;" horiz-adv-x="577" 
d="M116 0v714h401v-42h-353v-289h301v-42h-301v-299h351v-42h-399zM297 -184v89h46v-89h-46z" />
    <glyph glyph-name="uni1EB9" unicode="&#x1eb9;" 
d="M128 245v-29q0 -89 41 -136t120 -47t122 47l36 -24q-54 -64 -160 -64q-206 0 -206 232v46q0 233 193 233t193 -233v-25h-339zM128 282h293v6q0 75 -31 121q-37 53 -115 53q-71 0 -109 -45t-38 -130v-5zM250 -184v89h46v-89h-46z" />
    <glyph glyph-name="uni1EBA" unicode="&#x1eba;" horiz-adv-x="577" 
d="M116 0v714h401v-42h-353v-289h301v-42h-301v-299h351v-42h-399zM352 784h-39q1 23 3.5 31.5t13.5 25.5q19 29 19 44q0 27 -35 27q-18 0 -42 -9l-11 29q31 12 59 12q72 0 72 -57q0 -22 -23 -53q-12 -17 -14.5 -24.5t-2.5 -25.5z" />
    <glyph glyph-name="uni1EBB" unicode="&#x1ebb;" 
d="M128 245v-29q0 -89 41 -136t120 -47t122 47l36 -24q-54 -64 -160 -64q-206 0 -206 232v46q0 233 193 233t193 -233v-25h-339zM128 282h293v6q0 75 -31 121q-37 53 -115 53q-71 0 -109 -45t-38 -130v-5zM302 575h-39q1 23 3.5 31.5t13.5 26.5q19 29 19 44q0 27 -35 27
q-19 0 -43 -10l-10 30q31 12 59 12q72 0 72 -57q0 -23 -23 -54q-12 -18 -15 -25.5t-2 -24.5z" />
    <glyph glyph-name="uni1EBC" unicode="&#x1ebc;" horiz-adv-x="577" 
d="M116 0v714h401v-42h-353v-289h301v-42h-301v-299h351v-42h-399zM213 817h-34q14 50 33 71.5t50 21.5q34 0 70 -32q36 -33 55 -33q29 0 46 57h34q-14 -51 -32.5 -72t-49.5 -21q-34 0 -71 33q-36 32 -56 32q-28 0 -45 -57z" />
    <glyph glyph-name="uni1EBD" unicode="&#x1ebd;" 
d="M128 245v-29q0 -89 41 -136t120 -47t122 47l36 -24q-54 -64 -160 -64q-206 0 -206 232v46q0 233 193 233t193 -233v-25h-339zM128 282h293v6q0 75 -31 121q-37 53 -115 53q-71 0 -109 -45t-38 -130v-5zM164 604h-34q14 50 33 71.5t50 21.5q34 0 70 -32q36 -33 55 -33
q29 0 46 57h34q-14 -51 -32.5 -72t-49.5 -21q-34 0 -71 33q-36 32 -56 32q-28 0 -45 -57z" />
    <glyph glyph-name="uni1EBE" unicode="&#x1ebe;" horiz-adv-x="577" 
d="M116 0v714h401v-42h-353v-289h301v-42h-301v-299h351v-42h-399zM289 887l55 111h57l-80 -111h-32zM321 822l-75 -59h-57l120 97h24l120 -97h-57z" />
    <glyph glyph-name="uni1EBF" unicode="&#x1ebf;" 
d="M128 245v-29q0 -89 41 -136t120 -47t122 47l36 -24q-54 -64 -160 -64q-206 0 -206 232v46q0 233 193 233t193 -233v-25h-339zM128 282h293v6q0 75 -31 121q-37 53 -115 53q-71 0 -109 -45t-38 -130v-5zM245 674l55 111h57l-80 -111h-32zM277 609l-75 -59h-57l120 97h24
l120 -97h-57z" />
    <glyph glyph-name="uni1EC0" unicode="&#x1ec0;" horiz-adv-x="577" 
d="M116 0v714h401v-42h-353v-289h301v-42h-301v-299h351v-42h-399zM353 887h-32l-80 111h57zM321 822l-75 -59h-57l120 97h24l120 -97h-57z" />
    <glyph glyph-name="uni1EC1" unicode="&#x1ec1;" 
d="M128 245v-29q0 -89 41 -136t120 -47t122 47l36 -24q-54 -64 -160 -64q-206 0 -206 232v46q0 233 193 233t193 -233v-25h-339zM128 282h293v6q0 75 -31 121q-37 53 -115 53q-71 0 -109 -45t-38 -130v-5zM309 674h-32l-80 111h57zM277 609l-75 -59h-57l120 97h24l120 -97
h-57z" />
    <glyph glyph-name="uni1EC2" unicode="&#x1ec2;" horiz-adv-x="577" 
d="M116 0v714h401v-42h-353v-289h301v-42h-301v-299h351v-42h-399zM341 875h-37q1 25 17 45q18 23 18 33q0 18 -34 18q-18 0 -41 -8l-10 27q30 10 57 10q68 0 68 -45q0 -19 -22 -42q-11 -13 -13.5 -18.5t-2.5 -19.5zM317 821l-74 -58h-58l121 95h23l121 -95h-58z" />
    <glyph glyph-name="uni1EC3" unicode="&#x1ec3;" 
d="M128 245v-29q0 -89 41 -136t120 -47t122 47l36 -24q-54 -64 -160 -64q-206 0 -206 232v46q0 233 193 233t193 -233v-25h-339zM128 282h293v6q0 75 -31 121q-37 53 -115 53q-71 0 -109 -45t-38 -130v-5zM297 662h-37q1 25 17 45q18 22 18 33q0 18 -34 18q-20 0 -41 -8
l-9 27q26 10 56 10q68 0 68 -45q0 -18 -21 -42q-12 -13 -14.5 -18.5t-2.5 -19.5zM274 608l-75 -58h-58l121 95h23l121 -95h-57z" />
    <glyph glyph-name="uni1EC4" unicode="&#x1ec4;" horiz-adv-x="577" 
d="M116 0v714h401v-42h-353v-289h301v-42h-301v-299h351v-42h-399zM236 898h-32q13 47 31.5 67.5t46.5 20.5q29 0 56 -30q27 -31 43 -31q23 0 36 53h31q-11 -47 -27 -67t-42 -20q-29 0 -56 31q-26 30 -43 30q-26 0 -44 -54zM327 822l-75 -59h-57l120 97h24l120 -97h-57z" />
    <glyph glyph-name="uni1EC5" unicode="&#x1ec5;" 
d="M128 245v-29q0 -89 41 -136t120 -47t122 47l36 -24q-54 -64 -160 -64q-206 0 -206 232v46q0 233 193 233t193 -233v-25h-339zM128 282h293v6q0 75 -31 121q-37 53 -115 53q-71 0 -109 -45t-38 -130v-5zM190 685h-31q13 47 31 67.5t47 20.5q28 0 55 -31t43 -31q23 0 36 54
h31q-11 -47 -27 -67.5t-42 -20.5q-29 0 -56 31q-26 31 -43 31q-27 0 -44 -54zM281 609l-75 -59h-57l120 97h24l120 -97h-57z" />
    <glyph glyph-name="uni1EC6" unicode="&#x1ec6;" horiz-adv-x="577" 
d="M116 0v714h401v-42h-353v-289h301v-42h-301v-299h351v-42h-399zM321 886l-75 -83h-58l121 122h25l121 -122h-58zM297 -184v89h46v-89h-46z" />
    <glyph glyph-name="uni1EC7" unicode="&#x1ec7;" 
d="M128 245v-29q0 -89 41 -136t120 -47t122 47l36 -24q-54 -64 -160 -64q-206 0 -206 232v46q0 233 193 233t193 -233v-25h-339zM128 282h293v6q0 75 -31 121q-37 53 -115 53q-71 0 -109 -45t-38 -130v-5zM279 672l-75 -83h-58l121 122h25l121 -122h-58zM246 -184v89h46v-89
h-46z" />
    <glyph glyph-name="uni1EC8" unicode="&#x1ec8;" horiz-adv-x="280" 
d="M116 0v714h48v-714h-48zM163 784h-39q1 23 3.5 31.5t13.5 25.5q19 29 19 44q0 27 -35 27q-18 0 -43 -9l-10 29q31 12 59 12q72 0 72 -57q0 -22 -23 -53q-12 -17 -14.5 -24.5t-2.5 -25.5z" />
    <glyph glyph-name="uni1EC9" unicode="&#x1ec9;" horiz-adv-x="241" 
d="M97 0v494h47v-494h-47zM144 575h-39q1 23 3.5 31.5t13.5 26.5q19 29 19 44q0 27 -35 27q-19 0 -43 -10l-10 30q31 12 59 12q72 0 72 -57q0 -23 -23 -54q-12 -17 -14.5 -24.5t-2.5 -25.5z" />
    <glyph glyph-name="uni1ECA" unicode="&#x1eca;" horiz-adv-x="280" 
d="M115 0v714h48v-714h-48zM115 -184v89h46v-89h-46z" />
    <glyph glyph-name="uni1ECB" unicode="&#x1ecb;" horiz-adv-x="241" 
d="M97 625v90h47v-90h-47zM97 0v494h47v-494h-47zM96 -184v89h46v-89h-46z" />
    <glyph glyph-name="uni1ECC" unicode="&#x1ecc;" horiz-adv-x="679" 
d="M98 267v180q0 135 58 201q67 74 184 74q128 0 193 -86q48 -64 48 -189v-180q0 -135 -58 -201q-65 -74 -183 -74q-129 0 -194 86q-48 64 -48 189zM533 273v168q0 119 -47 176q-51 63 -146 63q-103 0 -155 -73q-39 -56 -39 -166v-168q0 -119 47 -176q51 -63 147 -63
q102 0 154 73q39 56 39 166zM315 -184v89h46v-89h-46z" />
    <glyph glyph-name="uni1ECD" unicode="&#x1ecd;" horiz-adv-x="556" 
d="M81 208v77q0 218 197 218t197 -218v-77q0 -216 -197 -216t-197 216zM428 209v75q0 178 -150 178t-150 -178v-75q0 -176 150 -176t150 176zM254 -184v89h46v-89h-46z" />
    <glyph glyph-name="uni1ECE" unicode="&#x1ece;" horiz-adv-x="679" 
d="M98 267v180q0 135 58 201q67 74 184 74q128 0 193 -86q48 -64 48 -189v-180q0 -135 -58 -201q-65 -74 -183 -74q-129 0 -194 86q-48 64 -48 189zM533 273v168q0 119 -47 176q-51 63 -146 63q-103 0 -155 -73q-39 -56 -39 -166v-168q0 -119 47 -176q51 -63 147 -63
q102 0 154 73q39 56 39 166zM362 784h-38q0 23 2.5 31.5t13.5 25.5q19 30 19 44q0 27 -35 27q-18 0 -42 -9l-10 29q31 12 59 12q71 0 71 -57q0 -23 -22 -53q-13 -17 -15.5 -24.5t-2.5 -25.5z" />
    <glyph glyph-name="uni1ECF" unicode="&#x1ecf;" horiz-adv-x="556" 
d="M81 208v77q0 218 197 218t197 -218v-77q0 -216 -197 -216t-197 216zM428 209v75q0 178 -150 178t-150 -178v-75q0 -176 150 -176t150 176zM301 575h-39q0 22 3 31.5t14 26.5q19 30 19 44q0 27 -35 27q-19 0 -43 -10l-10 30q31 12 59 12q72 0 72 -57q0 -23 -23 -54
q-12 -17 -14.5 -24.5t-2.5 -25.5z" />
    <glyph glyph-name="uni1ED0" unicode="&#x1ed0;" horiz-adv-x="679" 
d="M98 267v180q0 135 58 201q67 74 184 74q128 0 193 -86q48 -64 48 -189v-180q0 -135 -58 -201q-65 -74 -183 -74q-129 0 -194 86q-48 64 -48 189zM533 273v168q0 119 -47 176q-51 63 -146 63q-103 0 -155 -73q-39 -56 -39 -166v-168q0 -119 47 -176q51 -63 147 -63
q102 0 154 73q39 56 39 166zM307 887l55 111h57l-79 -111h-33zM339 822l-74 -59h-58l121 97h23l121 -97h-58z" />
    <glyph glyph-name="uni1ED1" unicode="&#x1ed1;" horiz-adv-x="556" 
d="M81 208v77q0 218 197 218t197 -218v-77q0 -216 -197 -216t-197 216zM428 209v75q0 178 -150 178t-150 -178v-75q0 -176 150 -176t150 176zM246 674l54 111h58l-80 -111h-32zM278 609l-75 -59h-57l120 97h24l120 -97h-57z" />
    <glyph glyph-name="uni1ED2" unicode="&#x1ed2;" horiz-adv-x="679" 
d="M98 267v180q0 135 58 201q67 74 184 74q128 0 193 -86q48 -64 48 -189v-180q0 -135 -58 -201q-65 -74 -183 -74q-129 0 -194 86q-48 64 -48 189zM533 273v168q0 119 -47 176q-51 63 -146 63q-103 0 -155 -73q-39 -56 -39 -166v-168q0 -119 47 -176q51 -63 147 -63
q102 0 154 73q39 56 39 166zM371 887h-32l-80 111h58zM339 822l-74 -59h-58l121 97h23l121 -97h-58z" />
    <glyph glyph-name="uni1ED3" unicode="&#x1ed3;" horiz-adv-x="556" 
d="M81 208v77q0 218 197 218t197 -218v-77q0 -216 -197 -216t-197 216zM428 209v75q0 178 -150 178t-150 -178v-75q0 -176 150 -176t150 176zM310 674h-33l-79 111h57zM278 609l-75 -59h-57l120 97h24l120 -97h-57z" />
    <glyph glyph-name="uni1ED4" unicode="&#x1ed4;" horiz-adv-x="679" 
d="M98 267v180q0 135 58 201q67 74 184 74q128 0 193 -86q48 -64 48 -189v-180q0 -135 -58 -201q-65 -74 -183 -74q-129 0 -194 86q-48 64 -48 189zM533 273v168q0 119 -47 176q-51 63 -146 63q-103 0 -155 -73q-39 -56 -39 -166v-168q0 -119 47 -176q51 -63 147 -63
q102 0 154 73q39 56 39 166zM359 875h-36q0 16 2.5 23.5t13.5 21.5q18 23 18 33q0 18 -34 18q-19 0 -40 -8l-10 27q26 10 56 10q68 0 68 -45q0 -18 -21 -42q-12 -13 -14.5 -18.5t-2.5 -19.5zM336 821l-75 -58h-57l120 95h24l120 -95h-57z" />
    <glyph glyph-name="uni1ED5" unicode="&#x1ed5;" horiz-adv-x="556" 
d="M81 208v77q0 218 197 218t197 -218v-77q0 -216 -197 -216t-197 216zM428 209v75q0 178 -150 178t-150 -178v-75q0 -176 150 -176t150 176zM298 662h-37q0 16 3 23t14 22q18 23 18 33q0 18 -34 18q-21 0 -41 -8l-10 27q26 10 57 10q68 0 68 -45q0 -19 -22 -42
q-11 -13 -13.5 -18.5t-2.5 -19.5zM274 608l-75 -58h-57l120 95h24l120 -95h-57z" />
    <glyph glyph-name="uni1ED6" unicode="&#x1ed6;" horiz-adv-x="679" 
d="M98 267v180q0 135 58 201q67 74 184 74q128 0 193 -86q48 -64 48 -189v-180q0 -135 -58 -201q-65 -74 -183 -74q-129 0 -194 86q-48 64 -48 189zM533 273v168q0 119 -47 176q-51 63 -146 63q-103 0 -155 -73q-39 -56 -39 -166v-168q0 -119 47 -176q51 -63 147 -63
q102 0 154 73q39 56 39 166zM254 898h-31q13 47 31.5 67.5t46.5 20.5q29 0 56 -30q27 -31 42 -31q24 0 36 53h32q-11 -47 -27.5 -67t-42.5 -20q-29 0 -55 31q-27 30 -44 30q-26 0 -44 -54zM345 822l-75 -59h-57l120 97h24l120 -97h-57z" />
    <glyph glyph-name="uni1ED7" unicode="&#x1ed7;" horiz-adv-x="556" 
d="M81 208v77q0 218 197 218t197 -218v-77q0 -216 -197 -216t-197 216zM428 209v75q0 178 -150 178t-150 -178v-75q0 -176 150 -176t150 176zM193 685h-32q13 47 31.5 67.5t46.5 20.5q29 0 56 -31t43 -31q21 0 36 54h31q-11 -47 -27 -67.5t-42 -20.5q-29 0 -56 31
q-26 31 -43 31q-26 0 -44 -54zM284 609l-75 -59h-57l120 97h24l120 -97h-57z" />
    <glyph glyph-name="uni1ED8" unicode="&#x1ed8;" horiz-adv-x="679" 
d="M98 267v180q0 135 58 201q67 74 184 74q128 0 193 -86q48 -64 48 -189v-180q0 -135 -58 -201q-65 -74 -183 -74q-129 0 -194 86q-48 64 -48 189zM533 273v168q0 119 -47 176q-51 63 -146 63q-103 0 -155 -73q-39 -56 -39 -166v-168q0 -119 47 -176q51 -63 147 -63
q102 0 154 73q39 56 39 166zM339 886l-75 -83h-58l121 122h25l121 -122h-58zM315 -184v89h46v-89h-46z" />
    <glyph glyph-name="uni1ED9" unicode="&#x1ed9;" horiz-adv-x="556" 
d="M81 208v77q0 218 197 218t197 -218v-77q0 -216 -197 -216t-197 216zM428 209v75q0 178 -150 178t-150 -178v-75q0 -176 150 -176t150 176zM278 672l-75 -83h-59l122 122h24l122 -122h-59zM254 -184v89h46v-89h-46z" />
    <glyph glyph-name="uni1EDA" unicode="&#x1eda;" horiz-adv-x="694" 
d="M637 723h45q5 -17 5 -32q0 -64 -59 -107q-27 -18 -57 -36q10 -43 10 -101v-180q0 -135 -58 -201q-65 -74 -183 -74q-129 0 -194 86q-48 64 -48 189v180q0 135 58 201q66 75 183 75q165 0 223 -140q26 15 40 25q43 31 43 79q0 16 -8 36zM533 273v168q0 119 -47 177
q-51 63 -146 63q-103 0 -155 -73q-39 -57 -39 -167v-168q0 -119 47 -176q51 -63 147 -63q102 0 154 73q39 56 39 166zM325 796l71 134h64l-98 -134h-37z" />
    <glyph glyph-name="uni1EDB" unicode="&#x1edb;" horiz-adv-x="564" 
d="M527 503h45q5 -18 5 -34q0 -42 -24.5 -74t-80.5 -63q3 -29 3 -51v-73q0 -216 -197 -216t-197 216v77q0 218 197 218q76 0 124 -34.5t64 -99.5q39 23 54 44t15 52q0 18 -8 38zM428 209v75q0 178 -150 178t-150 -178v-75q0 -176 150 -176t150 176zM261 583l71 134h64
l-98 -134h-37z" />
    <glyph glyph-name="uni1EDC" unicode="&#x1edc;" horiz-adv-x="694" 
d="M637 723h45q5 -17 5 -32q0 -64 -59 -107q-27 -18 -57 -36q10 -43 10 -101v-180q0 -135 -58 -201q-65 -74 -183 -74q-129 0 -194 86q-48 64 -48 189v180q0 135 58 201q66 75 183 75q165 0 223 -140q26 15 40 25q43 31 43 79q0 16 -8 36zM533 273v168q0 119 -47 177
q-51 63 -146 63q-103 0 -155 -73q-39 -57 -39 -167v-168q0 -119 47 -176q51 -63 147 -63q102 0 154 73q39 56 39 166zM405 796h-37l-99 134h65z" />
    <glyph glyph-name="uni1EDD" unicode="&#x1edd;" horiz-adv-x="564" 
d="M527 503h45q5 -18 5 -34q0 -42 -24.5 -74t-80.5 -63q3 -29 3 -51v-73q0 -216 -197 -216t-197 216v77q0 218 197 218q76 0 124 -34.5t64 -99.5q39 23 54 44t15 52q0 18 -8 38zM428 209v75q0 178 -150 178t-150 -178v-75q0 -176 150 -176t150 176zM344 583h-36l-99 134h64z
" />
    <glyph glyph-name="uni1EDE" unicode="&#x1ede;" horiz-adv-x="694" 
d="M637 723h45q5 -17 5 -32q0 -64 -59 -107q-27 -18 -57 -36q10 -43 10 -101v-180q0 -135 -58 -201q-65 -74 -183 -74q-129 0 -194 86q-48 64 -48 189v180q0 135 58 201q66 75 183 75q165 0 223 -140q26 15 40 25q43 31 43 79q0 16 -8 36zM533 273v168q0 119 -47 177
q-51 63 -146 63q-103 0 -155 -73q-39 -57 -39 -167v-168q0 -119 47 -176q51 -63 147 -63q102 0 154 73q39 56 39 166zM370 784h-39q1 23 3.5 31.5t13.5 25.5q19 29 19 44q0 27 -35 27q-18 0 -42 -9l-11 29q31 12 60 12q71 0 71 -57q0 -22 -23 -53q-12 -17 -14.5 -24.5
t-2.5 -25.5z" />
    <glyph glyph-name="uni1EDF" unicode="&#x1edf;" horiz-adv-x="564" 
d="M527 503h45q5 -18 5 -34q0 -42 -24.5 -74t-80.5 -63q3 -29 3 -51v-73q0 -216 -197 -216t-197 216v77q0 218 197 218q76 0 124 -34.5t64 -99.5q39 23 54 44t15 52q0 18 -8 38zM428 209v75q0 178 -150 178t-150 -178v-75q0 -176 150 -176t150 176zM314 575h-38q0 22 2.5 31
t13.5 27q19 29 19 44q0 27 -35 27q-18 0 -42 -10l-10 30q29 12 58 12q72 0 72 -57q0 -23 -23 -54q-12 -16 -14.5 -24t-2.5 -26z" />
    <glyph glyph-name="uni1EE0" unicode="&#x1ee0;" horiz-adv-x="694" 
d="M637 723h45q5 -17 5 -32q0 -64 -59 -107q-27 -18 -57 -36q10 -43 10 -101v-180q0 -135 -58 -201q-65 -74 -183 -74q-129 0 -194 86q-48 64 -48 189v180q0 135 58 201q66 75 183 75q165 0 223 -140q26 15 40 25q43 31 43 79q0 16 -8 36zM533 273v168q0 119 -47 177
q-51 63 -146 63q-103 0 -155 -73q-39 -57 -39 -167v-168q0 -119 47 -176q51 -63 147 -63q102 0 154 73q39 56 39 166zM237 817h-34q14 51 33 72t50 21q34 0 70 -32q37 -33 55 -33q29 0 46 57h34q-14 -51 -32.5 -72t-49.5 -21q-34 0 -71 33q-35 32 -55 32q-29 0 -46 -57z" />
    <glyph glyph-name="uni1EE1" unicode="&#x1ee1;" horiz-adv-x="564" 
d="M527 503h45q5 -18 5 -34q0 -42 -24.5 -74t-80.5 -63q3 -29 3 -51v-73q0 -216 -197 -216t-197 216v77q0 218 197 218q76 0 124 -34.5t64 -99.5q39 23 54 44t15 52q0 18 -8 38zM428 209v75q0 178 -150 178t-150 -178v-75q0 -176 150 -176t150 176zM179 604h-34
q14 50 33 71.5t50 21.5q34 0 70 -32q36 -33 55 -33q29 0 46 57h34q-14 -51 -32.5 -72t-49.5 -21q-35 0 -71 33q-36 32 -56 32q-28 0 -45 -57z" />
    <glyph glyph-name="uni1EE2" unicode="&#x1ee2;" horiz-adv-x="694" 
d="M637 723h45q5 -17 5 -32q0 -64 -59 -107q-27 -18 -57 -36q10 -43 10 -101v-180q0 -135 -58 -201q-65 -74 -183 -74q-129 0 -194 86q-48 64 -48 189v180q0 135 58 201q66 75 183 75q165 0 223 -140q26 15 40 25q43 31 43 79q0 16 -8 36zM533 273v168q0 119 -47 177
q-51 63 -146 63q-103 0 -155 -73q-39 -57 -39 -167v-168q0 -119 47 -176q51 -63 147 -63q102 0 154 73q39 56 39 166zM316 -184v89h46v-89h-46z" />
    <glyph glyph-name="uni1EE3" unicode="&#x1ee3;" horiz-adv-x="564" 
d="M527 503h45q5 -18 5 -34q0 -42 -24.5 -74t-80.5 -63q3 -29 3 -51v-73q0 -216 -197 -216t-197 216v77q0 218 197 218q76 0 124 -34.5t64 -99.5q39 23 54 44t15 52q0 18 -8 38zM428 209v75q0 178 -150 178t-150 -178v-75q0 -176 150 -176t150 176zM255 -184v89h46v-89h-46z
" />
    <glyph glyph-name="uni1EE4" unicode="&#x1ee4;" horiz-adv-x="694" 
d="M113 714h48v-454q0 -61 7 -94.5t25 -59.5q48 -72 154 -72q114 0 161 83q25 44 25 143v454h48v-454q0 -73 -9 -113t-33 -72q-64 -83 -192 -83q-139 0 -200 96q-19 29 -26.5 66.5t-7.5 105.5v454zM323 -184v89h46v-89h-46z" />
    <glyph glyph-name="uni1EE5" unicode="&#x1ee5;" horiz-adv-x="551" 
d="M94 494h47v-281q0 -72 16 -111q30 -70 112 -70q73 0 104.5 49.5t31.5 163.5v249h47v-494h-38l-5 75q-38 -84 -143 -84q-120 0 -157 96q-15 41 -15 123v284zM252 -184v89h46v-89h-46z" />
    <glyph glyph-name="uni1EE6" unicode="&#x1ee6;" horiz-adv-x="694" 
d="M113 714h48v-454q0 -61 7 -94.5t25 -59.5q48 -72 154 -72q114 0 161 83q25 44 25 143v454h48v-454q0 -73 -9 -113t-33 -72q-64 -83 -192 -83q-139 0 -200 96q-19 29 -26.5 66.5t-7.5 105.5v454zM370 784h-39q1 22 3.5 31t13.5 26q19 30 19 44q0 27 -35 27q-18 0 -43 -9
l-10 29q31 12 59 12q72 0 72 -57q0 -23 -23 -53q-12 -16 -14.5 -24t-2.5 -26z" />
    <glyph glyph-name="uni1EE7" unicode="&#x1ee7;" horiz-adv-x="551" 
d="M94 494h47v-281q0 -72 16 -111q30 -70 112 -70q73 0 104.5 49.5t31.5 163.5v249h47v-494h-38l-5 75q-38 -84 -143 -84q-120 0 -157 96q-15 41 -15 123v284zM298 575h-38q1 24 3 32.5t13 25.5q19 29 19 44q0 27 -35 27q-18 0 -42 -10l-10 30q31 12 58 12q72 0 72 -57
q0 -22 -22 -54q-12 -17 -15 -24.5t-3 -25.5z" />
    <glyph glyph-name="uni1EE8" unicode="&#x1ee8;" horiz-adv-x="714" 
d="M113 714h48v-454q0 -61 7 -94.5t25 -59.5q48 -72 154 -72q114 0 161 83q25 44 25 143v454h48v-145q58 27 81.5 53.5t23.5 63.5q0 18 -8 37h46q4 -19 4 -34q0 -49 -32 -83.5t-115 -75.5v-270q0 -73 -9 -113t-33 -72q-64 -83 -192 -83q-139 0 -200 96q-19 29 -26.5 66.5
t-7.5 105.5v454zM340 796l71 134h64l-99 -134h-36z" />
    <glyph glyph-name="uni1EE9" unicode="&#x1ee9;" horiz-adv-x="570" 
d="M94 494h47v-281q0 -72 16 -111q30 -70 112 -70q73 0 104.5 49.5t31.5 163.5v249h47v-145q60 29 82.5 54t22.5 63q0 17 -8 37h46q4 -19 4 -34q0 -64 -66 -113q-23 -17 -81 -46v-310h-38l-5 75q-38 -84 -143 -84q-120 0 -157 96q-15 41 -15 123v284zM257 583l71 134h64
l-98 -134h-37z" />
    <glyph glyph-name="uni1EEA" unicode="&#x1eea;" horiz-adv-x="714" 
d="M113 714h48v-454q0 -61 7 -94.5t25 -59.5q48 -72 154 -72q114 0 161 83q25 44 25 143v454h48v-145q58 27 81.5 53.5t23.5 63.5q0 18 -8 37h46q4 -19 4 -34q0 -49 -32 -83.5t-115 -75.5v-270q0 -73 -9 -113t-33 -72q-64 -83 -192 -83q-139 0 -200 96q-19 29 -26.5 66.5
t-7.5 105.5v454zM394 796h-37l-98 134h64z" />
    <glyph glyph-name="uni1EEB" unicode="&#x1eeb;" horiz-adv-x="570" 
d="M94 494h47v-281q0 -72 16 -111q30 -70 112 -70q73 0 104.5 49.5t31.5 163.5v249h47v-145q60 29 82.5 54t22.5 63q0 17 -8 37h46q4 -19 4 -34q0 -64 -66 -113q-23 -17 -81 -46v-310h-38l-5 75q-38 -84 -143 -84q-120 0 -157 96q-15 41 -15 123v284zM318 583h-37l-98 134
h64z" />
    <glyph glyph-name="uni1EEC" unicode="&#x1eec;" horiz-adv-x="714" 
d="M113 714h48v-454q0 -61 7 -94.5t25 -59.5q48 -72 154 -72q114 0 161 83q25 44 25 143v454h48v-145q58 27 81.5 53.5t23.5 63.5q0 18 -8 37h46q4 -19 4 -34q0 -49 -32 -83.5t-115 -75.5v-270q0 -73 -9 -113t-33 -72q-64 -83 -192 -83q-139 0 -200 96q-19 29 -26.5 66.5
t-7.5 105.5v454zM383 784h-39q0 21 3 30t14 27q19 30 19 44q0 27 -35 27q-17 0 -43 -9l-10 29q31 12 59 12q72 0 72 -57q0 -23 -23 -53q-12 -17 -14.5 -24.5t-2.5 -25.5z" />
    <glyph glyph-name="uni1EED" unicode="&#x1eed;" horiz-adv-x="570" 
d="M94 494h47v-281q0 -72 16 -111q30 -70 112 -70q73 0 104.5 49.5t31.5 163.5v249h47v-145q60 29 82.5 54t22.5 63q0 17 -8 37h46q4 -19 4 -34q0 -64 -66 -113q-23 -17 -81 -46v-310h-38l-5 75q-38 -84 -143 -84q-120 0 -157 96q-15 41 -15 123v284zM298 575h-39
q0 22 3 31.5t14 26.5q19 30 19 43q0 28 -35 28q-17 0 -43 -10l-10 30q31 12 59 12q72 0 72 -57q0 -23 -23 -54q-12 -16 -14.5 -24t-2.5 -26z" />
    <glyph glyph-name="uni1EEE" unicode="&#x1eee;" horiz-adv-x="714" 
d="M113 714h48v-454q0 -61 7 -94.5t25 -59.5q48 -72 154 -72q114 0 161 83q25 44 25 143v454h48v-145q58 27 81.5 53.5t23.5 63.5q0 18 -8 37h46q4 -19 4 -34q0 -49 -32 -83.5t-115 -75.5v-270q0 -73 -9 -113t-33 -72q-64 -83 -192 -83q-139 0 -200 96q-19 29 -26.5 66.5
t-7.5 105.5v454zM241 817h-34q14 50 33 71.5t50 21.5q34 0 70 -32q36 -33 55 -33q29 0 46 57h34q-13 -51 -32 -72t-50 -21q-35 0 -71 33q-36 32 -56 32q-28 0 -45 -57z" />
    <glyph glyph-name="uni1EEF" unicode="&#x1eef;" horiz-adv-x="570" 
d="M94 494h47v-281q0 -72 16 -111q30 -70 112 -70q73 0 104.5 49.5t31.5 163.5v249h47v-145q60 29 82.5 54t22.5 63q0 17 -8 37h46q4 -19 4 -34q0 -64 -66 -113q-23 -17 -81 -46v-310h-38l-5 75q-38 -84 -143 -84q-120 0 -157 96q-15 41 -15 123v284zM168 604h-34
q13 51 32 72t51 21q34 0 70 -32q36 -33 55 -33q29 0 46 57h34q-13 -51 -31.5 -72t-49.5 -21q-35 0 -72 33q-36 32 -55 32q-28 0 -46 -57z" />
    <glyph glyph-name="uni1EF0" unicode="&#x1ef0;" horiz-adv-x="714" 
d="M113 714h48v-454q0 -61 7 -94.5t25 -59.5q48 -72 154 -72q114 0 161 83q25 44 25 143v454h48v-145q58 27 81.5 53.5t23.5 63.5q0 18 -8 37h46q4 -19 4 -34q0 -49 -32 -83.5t-115 -75.5v-270q0 -73 -9 -113t-33 -72q-64 -83 -192 -83q-139 0 -200 96q-19 29 -26.5 66.5
t-7.5 105.5v454zM322 -184v89h46v-89h-46z" />
    <glyph glyph-name="uni1EF1" unicode="&#x1ef1;" horiz-adv-x="570" 
d="M94 494h47v-281q0 -72 16 -111q30 -70 112 -70q73 0 104.5 49.5t31.5 163.5v249h47v-145q60 29 82.5 54t22.5 63q0 17 -8 37h46q4 -19 4 -34q0 -64 -66 -113q-23 -17 -81 -46v-310h-38l-5 75q-38 -84 -143 -84q-120 0 -157 96q-15 41 -15 123v284zM264 -184v89h46v-89
h-46z" />
    <glyph glyph-name="Ygrave" unicode="&#x1ef2;" horiz-adv-x="524" 
d="M239 0v258l-228 456h51l201 -404l200 404h52l-228 -456v-258h-48zM302 796h-36l-99 134h64z" />
    <glyph glyph-name="ygrave" unicode="&#x1ef3;" horiz-adv-x="475" 
d="M220 -6l-192 500h47l169 -445l149 445h47l-206 -602q-28 -75 -59 -98t-108 -24v41q54 0 76.5 16.5t43.5 70.5zM278 583h-36l-99 134h64z" />
    <glyph glyph-name="uni1EF4" unicode="&#x1ef4;" horiz-adv-x="524" 
d="M239 0v258l-228 456h51l201 -404l200 404h52l-228 -456v-258h-48zM239 -184v89h46v-89h-46z" />
    <glyph glyph-name="uni1EF5" unicode="&#x1ef5;" horiz-adv-x="475" 
d="M220 -6l-192 500h47l169 -445l149 445h47l-206 -602q-28 -75 -59 -98t-108 -24v41q54 0 76.5 16.5t43.5 70.5zM307 -184v89h46v-89h-46z" />
    <glyph glyph-name="uni1EF6" unicode="&#x1ef6;" horiz-adv-x="524" 
d="M239 0v258l-228 456h51l201 -404l200 404h52l-228 -456v-258h-48zM285 784h-39q1 23 3.5 31.5t13.5 25.5q19 31 19 44q0 27 -35 27q-18 0 -43 -9l-10 29q31 12 59 12q72 0 72 -57q0 -22 -23 -53q-12 -17 -14.5 -24.5t-2.5 -25.5z" />
    <glyph glyph-name="uni1EF7" unicode="&#x1ef7;" horiz-adv-x="475" 
d="M220 -6l-192 500h47l169 -445l149 445h47l-206 -602q-28 -75 -59 -98t-108 -24v41q54 0 76.5 16.5t43.5 70.5zM261 575h-39q1 23 3.5 31.5t13.5 26.5q19 29 19 44q0 27 -35 27q-19 0 -43 -10l-10 30q31 12 59 12q72 0 72 -57q0 -23 -23 -54q-12 -16 -14.5 -24t-2.5 -26z
" />
    <glyph glyph-name="uni1EF8" unicode="&#x1ef8;" horiz-adv-x="524" 
d="M239 0v258l-228 456h51l201 -404l200 404h52l-228 -456v-258h-48zM152 817h-34q14 51 33 72t50 21q34 0 70 -32q37 -33 56 -33q28 0 45 57h34q-14 -51 -32.5 -72t-49.5 -21q-34 0 -71 33q-36 32 -55 32q-28 0 -46 -57z" />
    <glyph glyph-name="uni1EF9" unicode="&#x1ef9;" horiz-adv-x="475" 
d="M220 -6l-192 500h47l169 -445l149 445h47l-206 -602q-28 -75 -59 -98t-108 -24v41q54 0 76.5 16.5t43.5 70.5zM128 604h-34q13 51 32 72t51 21q34 0 70 -32q36 -33 55 -33q29 0 46 57h34q-13 -51 -31.5 -72t-49.5 -21q-35 0 -72 33q-36 32 -55 32q-28 0 -46 -57z" />
    <glyph glyph-name="uni2002" unicode="&#x2002;" horiz-adv-x="500" 
 />
    <glyph glyph-name="uni2003" unicode="&#x2003;" horiz-adv-x="1000" 
 />
    <glyph glyph-name="uni2004" unicode="&#x2004;" horiz-adv-x="333" 
 />
    <glyph glyph-name="uni2005" unicode="&#x2005;" horiz-adv-x="250" 
 />
    <glyph glyph-name="uni2006" unicode="&#x2006;" horiz-adv-x="167" 
 />
    <glyph glyph-name="uni2007" unicode="&#x2007;" 
 />
    <glyph glyph-name="uni2008" unicode="&#x2008;" horiz-adv-x="0" 
 />
    <glyph glyph-name="uni2009" unicode="&#x2009;" horiz-adv-x="200" 
 />
    <glyph glyph-name="uni200A" unicode="&#x200a;" horiz-adv-x="125" 
 />
    <glyph glyph-name="uni2011" unicode="&#x2011;" horiz-adv-x="482" 
d="M111 347v42h260v-42h-260z" />
    <glyph glyph-name="figuredash" unicode="&#x2012;" 
d="M85 347v42h369v-42h-369z" />
    <glyph glyph-name="endash" unicode="&#x2013;" 
d="M85 347v42h369v-42h-369z" />
    <glyph glyph-name="emdash" unicode="&#x2014;" 
d="M8 347v42h525v-42h-525z" />
    <glyph glyph-name="afii00208" unicode="&#x2015;" 
d="M8 347v42h525v-42h-525z" />
    <glyph glyph-name="underscoredbl" unicode="&#x2017;" horiz-adv-x="470" 
d="M-25 -201v35h520v-35h-520zM-25 -127v35h520v-35h-520z" />
    <glyph glyph-name="quoteleft" unicode="&#x2018;" horiz-adv-x="165" 
d="M128 714l-39 -224h-51l53 224h37z" />
    <glyph glyph-name="quoteright" unicode="&#x2019;" horiz-adv-x="165" 
d="M38 490l38 224h52l-53 -224h-37z" />
    <glyph glyph-name="quotesinglbase" unicode="&#x201a;" horiz-adv-x="165" 
d="M38 -145l38 224h52l-53 -224h-37z" />
    <glyph glyph-name="quotedblleft" unicode="&#x201c;" horiz-adv-x="328" 
d="M291 714l-38 -224h-52l53 224h37zM128 714l-39 -224h-51l53 224h37z" />
    <glyph glyph-name="quotedblright" unicode="&#x201d;" horiz-adv-x="328" 
d="M38 490l38 224h52l-53 -224h-37zM201 490l39 224h51l-53 -224h-37z" />
    <glyph glyph-name="quotedblbase" unicode="&#x201e;" horiz-adv-x="328" 
d="M38 -145l38 224h52l-53 -224h-37zM201 -145l39 224h51l-53 -224h-37z" />
    <glyph glyph-name="dagger" unicode="&#x2020;" 
d="M246 441h-172v42h172v231h47v-231h173v-42h-173v-602h-47v602z" />
    <glyph glyph-name="daggerdbl" unicode="&#x2021;" 
d="M246 441h-172v42h172v231h47v-231h173v-42h-173v-182h161v-42h-161v-378h-47v378h-160v42h160v182z" />
    <glyph glyph-name="bullet" unicode="&#x2022;" 
d="M271 523q68 0 114 -44.5t46 -110.5t-46 -110.5t-114 -44.5q-70 0 -115.5 44.5t-45.5 112.5q0 65 46.5 109t114.5 44z" />
    <glyph glyph-name="ellipsis" unicode="&#x2026;" horiz-adv-x="826" 
d="M114 0v79h48v-79h-48zM389 0v79h48v-79h-48zM665 0v79h48v-79h-48z" />
    <glyph glyph-name="perthousand" unicode="&#x2030;" horiz-adv-x="1183" 
d="M49 471v99q0 152 136 152t136 -152v-99q0 -152 -136 -152t-136 152zM279 475v90q0 122 -94 122t-94 -122v-90q0 -121 94 -121t94 121zM520 144v99q0 152 136 152t136 -152v-99q0 -152 -136 -152t-136 152zM750 149v90q0 121 -94 121t-94 -121v-90q0 -122 94 -122t94 122z
M861 144v99q0 152 136 152t136 -152v-99q0 -152 -136 -152t-136 152zM1091 149v90q0 121 -94 121t-94 -121v-90q0 -122 94 -122t94 122zM286 0l223 714h46l-223 -714h-46z" />
    <glyph glyph-name="guilsinglleft" unicode="&#x2039;" horiz-adv-x="234" 
d="M99 295l92 -123l-27 -21l-120 144l120 144l27 -21z" />
    <glyph glyph-name="guilsinglright" unicode="&#x203a;" horiz-adv-x="234" 
d="M134 295l-92 123l27 21l120 -144l-120 -144l-27 21z" />
    <glyph glyph-name="uni203E" unicode="&#x203e;" horiz-adv-x="470" 
d="M-25 815v38h520v-38h-520z" />
    <glyph glyph-name="fraction" unicode="&#x2044;" horiz-adv-x="147" 
d="M-58 0l223 714h46l-223 -714h-46z" />
    <glyph glyph-name="zerosuperior" unicode="&#x2070;" horiz-adv-x="347" 
d="M50 533v134q0 151 123 151q124 0 124 -151v-134q0 -151 -124 -151q-123 0 -123 151zM257 537v126q0 121 -84 121q-83 0 -83 -121v-126q0 -121 83 -121q84 0 84 121z" />
    <glyph glyph-name="foursuperior" unicode="&#x2074;" horiz-adv-x="343" 
d="M222 386v88h-187v26l149 314h45l-145 -305h138v103h39v-103h47v-36h-47v-87h-39z" />
    <glyph glyph-name="fivesuperior" unicode="&#x2075;" horiz-adv-x="337" 
d="M56 594l23 220h199v-35h-164l-16 -146q33 17 71 17q122 0 122 -135q0 -133 -134 -133q-103 0 -120 80l39 10q15 -55 83 -55q42 0 66.5 26t24.5 71q0 102 -84 102q-43 0 -80 -28z" />
    <glyph glyph-name="sixsuperior" unicode="&#x2076;" horiz-adv-x="343" 
d="M235 814l-99 -173q21 8 45 8q114 0 114 -133q0 -68 -30 -101t-93 -33q-62 0 -92 33t-30 102q0 32 6 54t25 56l105 187h49zM174 615q-84 0 -84 -99q0 -100 82 -100q83 0 83 99q0 100 -81 100z" />
    <glyph glyph-name="sevensuperior" unicode="&#x2077;" horiz-adv-x="239" 
d="M42 386l129 393h-171v35h217v-25l-130 -403h-45z" />
    <glyph glyph-name="eightsuperior" unicode="&#x2078;" horiz-adv-x="343" 
d="M101 613q-47 26 -47 94q0 112 117 112q118 0 118 -112q0 -37 -10 -57.5t-36 -36.5q32 -15 45.5 -40t13.5 -68q0 -124 -130 -124t-130 124q0 81 59 108zM172 786q-79 0 -79 -80t79 -80q78 0 78 80t-78 80zM173 594q-91 0 -91 -90q0 -89 90 -89t90 89q0 90 -89 90z" />
    <glyph glyph-name="ninesuperior" unicode="&#x2079;" horiz-adv-x="343" 
d="M109 386l102 190q-28 -8 -51 -8q-112 0 -112 124q0 65 30 95.5t93 30.5q122 0 122 -125q0 -50 -24 -93l-112 -214h-48zM172 784q-84 0 -84 -91q0 -92 83 -92q82 0 82 91q0 44 -21 68t-60 24z" />
    <glyph glyph-name="zeroinferior" unicode="&#x2080;" horiz-adv-x="347" 
d="M50 47v134q0 151 123 151q124 0 124 -151v-134q0 -151 -124 -151q-123 0 -123 151zM257 51v126q0 121 -84 121q-83 0 -83 -121v-126q0 -121 83 -121q84 0 84 121z" />
    <glyph glyph-name="oneinferior" unicode="&#x2081;" horiz-adv-x="212" 
d="M97 -100v385l-81 -34l-12 34l103 43h31v-428h-41z" />
    <glyph glyph-name="twoinferior" unicode="&#x2082;" horiz-adv-x="333" 
d="M46 -100v28l128 154q67 82 67 136q0 38 -20.5 59t-57.5 21q-64 0 -87 -67l-37 7q19 95 125 95q118 0 118 -116q0 -38 -17 -73.5t-60 -87.5l-99 -121h175v-35h-235z" />
    <glyph glyph-name="threeinferior" unicode="&#x2083;" horiz-adv-x="333" 
d="M103 109v33h45q37 0 62.5 23t25.5 55q0 35 -22 56t-58 21q-62 0 -80 -52l-38 7q16 80 118 80q59 0 90 -28.5t31 -82.5q0 -35 -14 -56.5t-47 -38.5q73 -29 73 -109q0 -59 -35 -90t-102 -31q-73 0 -106 36q-13 13 -21 44l39 10q16 -55 88 -55q44 0 70 23.5t26 63.5
q0 39 -28 65t-70 26h-47z" />
    <glyph glyph-name="fourinferior" unicode="&#x2084;" horiz-adv-x="343" 
d="M222 -100v88h-187v26l149 314h45l-145 -305h138v103h39v-103h47v-36h-47v-87h-39z" />
    <glyph glyph-name="fiveinferior" unicode="&#x2085;" horiz-adv-x="337" 
d="M56 108l23 220h199v-35h-164l-16 -146q33 17 71 17q122 0 122 -135q0 -133 -134 -133q-103 0 -120 80l39 10q17 -55 83 -55q42 0 66.5 26t24.5 71q0 102 -84 102q-41 0 -80 -28z" />
    <glyph glyph-name="sixinferior" unicode="&#x2086;" horiz-adv-x="343" 
d="M235 328l-99 -173q21 8 45 8q114 0 114 -133q0 -68 -30 -101t-93 -33q-62 0 -92 33t-30 102q0 32 6 54t25 56l105 187h49zM174 129q-84 0 -84 -99q0 -100 82 -100q83 0 83 99q0 100 -81 100z" />
    <glyph glyph-name="seveninferior" unicode="&#x2087;" horiz-adv-x="239" 
d="M42 -100l129 393h-171v35h217v-25l-130 -403h-45z" />
    <glyph glyph-name="eightinferior" unicode="&#x2088;" horiz-adv-x="343" 
d="M101 127q-47 25 -47 94q0 112 117 112q118 0 118 -112q0 -36 -10.5 -57.5t-35.5 -36.5q32 -15 45.5 -40t13.5 -68q0 -124 -130 -124t-130 124q0 81 59 108zM172 300q-79 0 -79 -80t79 -80q78 0 78 80t-78 80zM173 108q-91 0 -91 -90q0 -89 90 -89t90 89q0 90 -89 90z" />
    <glyph glyph-name="nineinferior" unicode="&#x2089;" horiz-adv-x="343" 
d="M109 -100l102 190q-28 -8 -51 -8q-112 0 -112 124q0 65 30 95.5t93 30.5q122 0 122 -125q0 -50 -24 -93l-112 -214h-48zM172 298q-84 0 -84 -91q0 -92 83 -92q82 0 82 91q0 44 -21 68t-60 24z" />
    <glyph glyph-name="franc" unicode="&#x20a3;" horiz-adv-x="719" 
d="M97 0v714h312v-42h-265v-295h215v-42h-215v-335h-47zM444 0v436h38l4 -77q38 86 132 86q45 0 84 -21l-18 -41q-35 21 -70 21q-65 0 -94.5 -52t-29.5 -167v-185h-46z" />
    <glyph glyph-name="lira" unicode="&#x20a4;" 
d="M68 0v36q49 22 82 78t33 115q0 13 -3 35h-117v38h108q-9 30 -32 73h-76v38h57q-33 63 -33 117q0 88 52 140t140 52q108 0 163 -72q30 -40 44 -117l-41 -9l-3 13q-9 42 -19.5 63t-30.5 41q-43 40 -110 40q-66 0 -106 -40.5t-40 -107.5q0 -50 39 -120h198v-38h-179
q17 -31 28 -73h151v-38h-146q3 -25 3 -37q0 -106 -90 -185h354v-42h-426z" />
    <glyph glyph-name="peseta" unicode="&#x20a7;" 
d="M108 482h-94v38h94v194h153q101 3 156.5 -46.5t60.5 -147.5h72v-38h-71q-5 -97 -61 -146.5t-157 -46.5h-106v-289h-47v482zM155 482v-152h107q78 -2 121 36.5t48 115.5h-276zM155 520h275q-4 77 -47.5 116.5t-120.5 36.5h-107v-153z" />
    <glyph glyph-name="uni20AB" unicode="&#x20ab;" 
d="M59 -168v38h415v-38h-415zM385 578h-156v36h156v100h47v-100h84v-36h-84v-578h-39l-4 70q-30 -44 -64 -61t-92 -17q-185 0 -185 217v76q0 218 184 218q107 0 153 -79v154zM95 283v-72q0 -178 142 -178q148 0 148 181v66q0 182 -148 182q-142 0 -142 -179z" />
    <glyph glyph-name="Euro" unicode="&#x20ac;" 
d="M91 291v81h-93l15 38h78v18q0 151 48 215q57 79 166 79q86 0 139 -44t58 -121l-45 -4q-8 59 -48 93t-103 34q-87 0 -127 -60t-40 -191v-19h295l-15 -38h-280v-81h246l-15 -38h-230q3 -112 44 -166t123 -54q65 0 107 33t50 89l44 -5q-6 -74 -60 -116.5t-142 -42.5
q-141 0 -191 123q-19 45 -24 139h-92l15 38h77z" />
    <glyph glyph-name="uni20B4" unicode="&#x20b4;" 
d="M33 337l10 37l109 -29q17 9 94 32q31 9 53 18l-234 63l10 37l279 -75q67 43 67 120q0 66 -39.5 104t-108.5 38q-92 0 -127 -59l-37 23q47 76 165 76q89 0 141 -49.5t52 -135.5q0 -82 -55 -133l86 -23l-10 -36l-113 30q-43 -21 -147 -50l238 -64l-10 -37l-284 76
q-60 -40 -60 -118q0 -71 45 -110.5t124 -39.5q121 0 166 76l38 -23q-56 -93 -203 -93q-103 0 -159.5 51t-56.5 144q0 75 50 128z" />
    <glyph glyph-name="uni2101" unicode="&#x2101;" horiz-adv-x="844" 
d="M292 383h-211l-38 -97h-45l171 428h35l171 -428h-45zM280 416l-94 244l-93 -244h187zM510 58l35 21q31 -48 115 -48q52 0 82.5 22.5t30.5 60.5q0 36 -30 57q-14 9 -24.5 12.5t-61.5 15.5q-71 17 -101.5 44.5t-30.5 75.5q0 54 36 84t101 30q91 0 129 -52l-35 -21
q-27 38 -95 38q-43 0 -69 -21t-26 -56q0 -33 25.5 -53t85.5 -34q47 -11 62.5 -16t31.5 -16q43 -27 43 -87q0 -57 -40 -88t-114 -31q-107 0 -150 62zM298 0l223 714h44l-223 -714h-44z" />
    <glyph glyph-name="afii61248" unicode="&#x2105;" horiz-adv-x="901" 
d="M311 390l31 -20q-44 -57 -135 -57q-83 0 -125.5 48t-42.5 141v15q0 203 167 203q87 0 127 -61l-33 -18q-33 44 -92 44q-66 0 -97 -41t-31 -128v-16q0 -152 129 -152q69 0 102 42zM522 181v35q0 186 171 186q170 0 170 -186v-35q0 -186 -170 -186q-171 0 -171 186z
M822 182v33q0 152 -129 152q-130 0 -130 -152v-33q0 -152 130 -152q129 0 129 152zM308 0l223 714h44l-223 -714h-44z" />
    <glyph glyph-name="afii61289" unicode="&#x2113;" 
d="M194 243q-70 -75 -84 -75q-4 0 -7.5 5.5t-3.5 10.5q0 10 23 28q42 37 79 79q39 220 65 306q21 71 46.5 103t61.5 32q30 0 48.5 -23t18.5 -60q0 -107 -85 -230q-34 -49 -110 -128q-32 -181 -32 -226q0 -40 30 -40q20 0 33 13t36 54q11 21 22 21t11 -12q0 -30 -36 -73
q-33 -40 -76 -40q-61 0 -61 71q0 66 21 184zM255 347q70 80 100 134q51 91 51 166q0 22 -8.5 35t-22.5 13q-35 0 -59.5 -71.5t-60.5 -276.5z" />
    <glyph glyph-name="afii61352" unicode="&#x2116;" horiz-adv-x="1138" 
d="M116 0v714h45l402 -630v630h47v-714h-45l-402 630v-630h-47zM738 331v35q0 190 167 190t167 -190v-35q0 -190 -167 -190t-167 190zM1026 332v33q0 150 -121 150t-121 -150v-33q0 -150 121 -150t121 150zM738 0v41h334v-41h-334z" />
    <glyph glyph-name="trademark" unicode="&#x2122;" horiz-adv-x="866" 
d="M155 286v393h-135v35h310v-35h-134v-393h-41zM401 286v428h40l150 -290l149 290h40v-428h-40v346l-136 -264h-27l-136 264v-346h-40z" />
    <glyph glyph-name="uni2126" unicode="&#x2126;" horiz-adv-x="679" 
d="M86 0v36h162v32q-75 23 -114 90t-36 168v121q0 135 58 201q67 74 184 74q128 0 193 -86q48 -64 48 -189v-121q3 -101 -36 -168t-115 -90v-32h163v-36h-202v96q72 16 108.5 76t33.5 158v111q0 119 -47 176q-51 63 -147 63q-102 0 -154 -73q-39 -56 -39 -166v-111
q-3 -98 33.5 -158t108.5 -76v-96h-202z" />
    <glyph glyph-name="estimated" unicode="&#x212e;" horiz-adv-x="600" 
d="M541 331h-407v-153q18 -57 39 -89q41 -62 131 -62q130 0 181 133h35q-19 -61 -47 -94q-63 -75 -168 -75q-115 0 -179 89.5t-64 248.5q0 160 66 253.5t178 93.5q74 0 130 -43t82 -120q22 -66 23 -182zM478 362v136q-43 143 -174 143q-62 0 -99.5 -31t-70.5 -111v-137h344z
" />
    <glyph glyph-name="onethird" unicode="&#x2153;" horiz-adv-x="834" 
d="M156 286v385l-81 -34l-12 34l103 43h31v-428h-41zM223 0l223 714h46l-223 -714h-46zM557 209v33h45q37 0 62.5 22.5t25.5 55.5q0 35 -22 56t-58 21q-62 0 -80 -52l-37 7q15 80 117 80q59 0 90 -28.5t31 -82.5q0 -35 -14 -56.5t-46 -38.5q72 -29 72 -109q0 -59 -35 -90
t-102 -31q-73 0 -106 36q-14 15 -21 44l39 10q16 -55 88 -55q44 0 70 23.5t26 63.5q0 39 -28 65t-70 26h-47z" />
    <glyph glyph-name="twothirds" unicode="&#x2154;" horiz-adv-x="834" 
d="M56 286v28l128 154q67 82 67 136q0 38 -20.5 59t-57.5 21q-64 0 -87 -67l-37 7q19 95 125 95q118 0 118 -116q0 -38 -17.5 -74t-59.5 -87l-99 -121h175v-35h-235zM602 209v33h46q37 0 62.5 23t25.5 55q0 35 -22 56t-58 21q-63 0 -80 -52l-38 7q16 80 118 80
q59 0 90 -28.5t31 -82.5q0 -35 -14 -56.5t-47 -38.5q73 -29 73 -109q0 -59 -35 -90t-103 -31q-72 0 -105 36q-13 12 -21 44l39 10q16 -55 88 -55q44 0 70 23.5t26 63.5q0 39 -28 65t-70 26h-48zM282 0l223 714h46l-223 -714h-46z" />
    <glyph glyph-name="uni2155" unicode="&#x2155;" horiz-adv-x="834" 
d="M160 286v385l-81 -34l-12 34l103 43h31v-428h-41zM227 0l223 714h46l-223 -714h-46zM511 208l23 220h199v-35h-163l-17 -146q33 17 72 17q121 0 121 -134t-134 -134q-103 0 -120 80l39 10q16 -55 84 -55q41 0 65.5 26t24.5 71q0 102 -84 102q-43 0 -80 -28z" />
    <glyph glyph-name="uni2156" unicode="&#x2156;" horiz-adv-x="834" 
d="M59 286v28l128 154q67 82 67 136q0 38 -20.5 59t-57.5 21q-64 0 -87 -67l-37 7q19 95 125 95q118 0 118 -116q0 -38 -17.5 -74t-59.5 -87l-99 -121h175v-35h-235zM542 208l24 220h198v-35h-163l-17 -146q33 17 72 17q121 0 121 -135q0 -133 -134 -133q-103 0 -120 80
l39 10q17 -55 84 -55q42 0 66 26t24 71q0 102 -84 102q-43 0 -80 -28zM283 0l223 714h46l-223 -714h-46z" />
    <glyph glyph-name="uni2157" unicode="&#x2157;" horiz-adv-x="834" 
d="M120 494v33h45q37 0 62.5 23t25.5 56q0 35 -22 56t-58 21q-62 0 -80 -53l-38 7q16 81 118 81q121 0 121 -112q0 -35 -14 -56.5t-47 -38.5q73 -29 73 -109q0 -58 -35 -89t-102 -31q-73 0 -106 36q-13 13 -21 43l39 11q16 -55 88 -55q44 0 70 23t26 63q0 39 -28 65t-70 26
h-47zM542 208l24 220h198v-35h-163l-17 -146q34 17 72 17q121 0 121 -135q0 -133 -134 -133q-103 0 -120 80l39 10q17 -55 84 -55q42 0 66 26t24 71q0 102 -84 102q-43 0 -80 -28zM281 0l223 714h46l-223 -714h-46z" />
    <glyph glyph-name="uni2158" unicode="&#x2158;" horiz-adv-x="834" 
d="M229 286v88h-187v26l149 314h45l-145 -305h138v103h39v-103h47v-36h-47v-87h-39zM540 208l23 220h199v-35h-163l-17 -146q33 17 72 17q121 0 121 -134t-134 -134q-103 0 -120 80l39 10q16 -55 84 -55q41 0 65.5 26t24.5 71q0 102 -84 102q-43 0 -80 -28zM283 0l223 714
h45l-222 -714h-46z" />
    <glyph glyph-name="uni2159" unicode="&#x2159;" horiz-adv-x="834" 
d="M164 286v385l-81 -34l-12 34l103 43h31v-428h-41zM243 0l223 714h46l-223 -714h-46zM679 428l-99 -173q21 8 45 8q114 0 114 -133q0 -134 -122 -134q-63 0 -92.5 33t-29.5 102q0 33 6 55t25 55l105 187h48zM618 229q-83 0 -83 -99q0 -100 82 -100t82 99q0 100 -81 100z
" />
    <glyph glyph-name="uni215A" unicode="&#x215a;" horiz-adv-x="834" 
d="M64 494l23 220h199v-35h-164l-16 -146q33 17 71 17q122 0 122 -135q0 -133 -134 -133q-103 0 -120 80l39 10q15 -55 83 -55q42 0 66.5 26t24.5 71q0 102 -84 102q-43 0 -80 -28zM705 428l-99 -173q21 8 45 8q114 0 114 -133q0 -134 -122 -134q-63 0 -92.5 33t-29.5 102
q0 55 30 110l105 187h49zM644 229q-83 0 -83 -99q0 -100 82 -100t82 99q0 100 -81 100zM284 0l223 714h46l-223 -714h-46z" />
    <glyph glyph-name="oneeighth" unicode="&#x215b;" horiz-adv-x="834" 
d="M161 286v385l-81 -34l-12 34l103 43h31v-428h-41zM228 0l223 714h46l-223 -714h-46zM549 227q-46 26 -46 93q0 113 117 113q118 0 118 -112q0 -37 -10.5 -58t-36.5 -36q32 -15 45.5 -40t13.5 -68q0 -124 -130 -124q-67 0 -98.5 30.5t-31.5 93.5q0 43 13.5 68.5t45.5 39.5
zM621 400q-79 0 -79 -80t78 -80q79 0 79 80t-78 80zM621 208q-91 0 -91 -90q0 -89 90 -89t90 89q0 43 -23 66.5t-66 23.5z" />
    <glyph glyph-name="threeeighths" unicode="&#x215c;" horiz-adv-x="834" 
d="M128 494v33h45q37 0 62.5 23t25.5 56q0 35 -22 56t-58 21q-62 0 -80 -53l-38 7q16 81 118 81q121 0 121 -112q0 -35 -14 -56.5t-47 -38.5q73 -29 73 -109q0 -58 -35 -89t-102 -31q-73 0 -106 36q-13 13 -21 43l39 11q16 -55 88 -55q44 0 70 23t26 63q0 39 -28 65t-70 26
h-47zM582 227q-46 26 -46 94q0 112 118 112q117 0 117 -112q0 -37 -10.5 -58t-36.5 -36q32 -15 45.5 -40t13.5 -68q0 -124 -130 -124t-130 124q0 81 59 108zM654 400q-79 0 -79 -80t79 -80q78 0 78 80t-78 80zM654 208q-91 0 -91 -90q0 -89 90 -89t90 89q0 90 -89 90zM282 0
l223 714h46l-223 -714h-46z" />
    <glyph glyph-name="fiveeighths" unicode="&#x215d;" horiz-adv-x="834" 
d="M78 494l23 220h199v-35h-164l-16 -146q33 17 71 17q122 0 122 -135q0 -133 -134 -133q-103 0 -120 80l39 10q15 -55 83 -55q42 0 66.5 26t24.5 71q0 102 -84 102q-43 0 -80 -28zM585 227q-46 26 -46 94q0 112 117 112q118 0 118 -112q0 -37 -10.5 -58t-36.5 -36
q32 -15 45.5 -40t13.5 -68q0 -124 -130 -124q-129 0 -129 124q0 43 13.5 68.5t44.5 39.5zM657 400q-79 0 -79 -80t78 -80q79 0 79 80t-78 80zM657 208q-90 0 -90 -90q0 -89 89 -89q90 0 90 89q0 43 -23 66.5t-66 23.5zM282 0l223 714h46l-223 -714h-46z" />
    <glyph glyph-name="seveneighths" unicode="&#x215e;" horiz-adv-x="834" 
d="M112 286l149 393h-191v35h237v-25l-150 -403h-45zM567 227q-47 26 -47 94q0 112 118 112q117 0 117 -112q0 -37 -10.5 -58t-36.5 -36q32 -15 45.5 -40t13.5 -68q0 -63 -31.5 -93.5t-98.5 -30.5q-129 0 -129 124q0 43 13.5 68.5t45.5 39.5zM638 400q-79 0 -79 -80t78 -80
q79 0 79 80q0 38 -20.5 59t-57.5 21zM639 208q-91 0 -91 -90q0 -89 90 -89q89 0 89 89q0 44 -22.5 67t-65.5 23zM258 0l223 714h45l-222 -714h-46z" />
    <glyph glyph-name="arrowleft" unicode="&#x2190;" horiz-adv-x="800" 
d="M730 347h-609l198 -198l-30 -30l-238 240v18l238 240l30 -30l-198 -198h609v-42z" />
    <glyph glyph-name="arrowup" unicode="&#x2191;" horiz-adv-x="800" 
d="M353 0v653l-197 -198l-30 30l240 238h18l240 -238l-30 -30l-197 198v-653h-44z" />
    <glyph glyph-name="arrowright" unicode="&#x2192;" horiz-adv-x="800" 
d="M70 347v42h609l-198 198l30 30l238 -240v-18l-238 -240l-30 30l198 198h-609z" />
    <glyph glyph-name="arrowdown" unicode="&#x2193;" horiz-adv-x="800" 
d="M353 61v653h44v-653l197 198l30 -30l-240 -238h-18l-240 238l30 30z" />
    <glyph glyph-name="arrowboth" unicode="&#x2194;" horiz-adv-x="800" 
d="M683 347h-567l193 -193l-30 -30l-233 235v18l233 235l30 -30l-193 -193h567l-192 193l30 30l232 -235v-18l-232 -235l-30 30z" />
    <glyph glyph-name="arrowupdn" unicode="&#x2195;" horiz-adv-x="800" 
d="M355 56v602l-193 -193l-30 30l234 233h19l235 -233l-30 -30l-193 193v-602l193 193l30 -30l-235 -233h-19l-234 233l30 30z" />
    <glyph glyph-name="uni2196" unicode="&#x2196;" horiz-adv-x="800" 
d="M631 113l-438 437v-280h-42v337l15 15h338v-42h-281l438 -438z" />
    <glyph glyph-name="uni2197" unicode="&#x2197;" horiz-adv-x="800" 
d="M169 113l-29 29l438 438h-281v42h338l15 -15v-337h-42v280z" />
    <glyph glyph-name="uni2198" unicode="&#x2198;" horiz-adv-x="800" 
d="M169 629l438 -438v280h42v-337l-15 -15h-337v42h280l-437 437z" />
    <glyph glyph-name="uni2199" unicode="&#x2199;" horiz-adv-x="800" 
d="M631 629l29 -31l-437 -437h280v-42h-337l-15 15v337h42v-280z" />
    <glyph glyph-name="partialdiff" unicode="&#x2202;" 
d="M73 208v75q0 107 48 162t142 55q78 0 122 -40q-29 71 -39 89t-33 46q-65 72 -163 89l6 32q65 -7 121.5 -40.5t93.5 -86.5q41 -58 68 -144.5t27 -161.5v-75q0 -216 -196 -216q-197 0 -197 216zM420 209v72q0 179 -150 179q-151 0 -151 -179v-72q0 -177 151 -177
q150 0 150 177z" />
    <glyph glyph-name="emptyset" unicode="&#x2205;" 
d="M367 574l101 176l31 -15l-101 -178q93 -66 93 -187q0 -98 -62.5 -161.5t-160.5 -63.5q-46 0 -93 18l-110 -194l-31 16l110 193q-103 64 -103 192q0 98 62.5 161.5t158.5 63.5q48 0 105 -21zM161 209l189 333q-48 19 -90 19q-77 0 -129 -54.5t-52 -134.5q0 -102 82 -163z
M381 525l-189 -331q39 -15 76 -15q81 0 133 54t52 137q0 95 -72 155z" />
    <glyph glyph-name="Delta" unicode="&#x2206;" 
d="M556 0h-569l264 714h41zM489 41l-217 602l-218 -602h435z" />
    <glyph glyph-name="product" unicode="&#x220f;" horiz-adv-x="555" 
d="M66 -207v921h422v-921h-48v878h-326v-878h-48z" />
    <glyph glyph-name="summation" unicode="&#x2211;" horiz-adv-x="547" 
d="M66 -207v25l217 468l-208 399v29h445v-42h-383l201 -387l-206 -450h398v-42h-464z" />
    <glyph glyph-name="minus" unicode="&#x2212;" 
d="M30 348v41h481v-41h-481z" />
    <glyph glyph-name="uni2215" unicode="&#x2215;" horiz-adv-x="147" 
d="M-58 0l223 714h46l-223 -714h-46z" />
    <glyph glyph-name="uni2218" unicode="&#x2218;" 
d="M271 524q68 0 114.5 -44.5t46.5 -111.5q0 -66 -46.5 -111t-114.5 -45q-70 0 -116 45t-46 113q0 65 47 109.5t115 44.5zM271 491q-55 0 -91.5 -35t-36.5 -87q0 -54 36 -89t92 -35q55 0 91 35t36 88t-36 88t-91 35z" />
    <glyph glyph-name="uni2219" unicode="&#x2219;" horiz-adv-x="274" 
d="M114 330v78h48v-78h-48z" />
    <glyph glyph-name="radical" unicode="&#x221a;" 
d="M216 0l-105 312h-81v40h117l93 -291l215 792h231v-38h-196l-223 -815h-51z" />
    <glyph glyph-name="infinity" unicode="&#x221e;" horiz-adv-x="711" 
d="M355 335q-34 -58 -69 -82t-87 -24q-64 0 -102.5 38.5t-38.5 101.5q0 64 38.5 102.5t102.5 38.5q52 0 86.5 -23.5t69.5 -82.5q29 47 50 66q44 40 107 40q64 0 102.5 -38.5t38.5 -102.5q0 -63 -38.5 -101.5t-102.5 -38.5q-52 0 -86.5 23.5t-70.5 82.5zM333 369l-5 11
q-12 25 -42 57q-36 36 -83 36q-46 0 -74.5 -28.5t-28.5 -74.5t28.5 -75t74.5 -29q36 0 70.5 25.5t54.5 67.5zM378 369l5 -10q15 -30 42 -57q38 -36 82 -36q47 0 75.5 29t28.5 75t-29 74.5t-75 28.5t-82 -36q-30 -32 -42 -57z" />
    <glyph glyph-name="integral" unicode="&#x222b;" horiz-adv-x="425" 
d="M106 -95l9 39q20 -5 36 -5q49 0 65 37q9 22 9 79v575q0 88 27 124t93 36q25 0 48 -6l-9 -40q-18 6 -36 6q-42 0 -58 -24t-16 -88v-579q0 -88 -27 -124.5t-92 -36.5q-22 0 -49 7z" />
    <glyph glyph-name="similar" unicode="&#x223c;" 
d="M82 314l-35 9q22 60 49.5 85t72.5 25q30 0 54 -10t62 -38q36 -26 53 -34t37 -8q55 0 83 78l35 -10q-19 -58 -46.5 -82.5t-74.5 -24.5q-29 0 -51 9t-62 39q-34 26 -51.5 34t-37.5 8q-57 0 -88 -80z" />
    <glyph glyph-name="uni2243" unicode="&#x2243;" 
d="M38 275v40h457v-40h-457zM79 389l-36 9q21 59 49 84.5t73 25.5q30 0 53.5 -10t63.5 -38q34 -25 51.5 -33.5t37.5 -8.5q54 0 84 77l35 -9q-20 -58 -47.5 -82.5t-73.5 -24.5q-30 0 -51.5 9t-61.5 39q-35 26 -52.5 34t-37.5 8q-56 0 -87 -80z" />
    <glyph glyph-name="approxequal" unicode="&#x2248;" 
d="M82 239l-35 9q22 60 49.5 85t71.5 25q31 0 55 -10t62 -38q35 -26 52.5 -34t37.5 -8q53 0 83 78l35 -10q-19 -58 -46.5 -82.5t-74.5 -24.5q-29 0 -51 9.5t-62 38.5q-34 26 -51 34t-38 8q-57 0 -88 -80zM82 389l-35 9q22 60 49.5 85t71.5 25q30 0 54 -10t63 -38
q36 -26 53 -34t37 -8q29 0 48.5 18.5t34.5 58.5l35 -9q-19 -57 -47 -82t-74 -25q-30 0 -51.5 9t-61.5 39q-34 25 -51.5 33.5t-37.5 8.5q-57 0 -88 -80z" />
    <glyph glyph-name="notequal" unicode="&#x2260;" 
d="M42 275v40h182l49 107h-231v40h249l55 118l37 -15l-47 -103h163v-40h-182l-49 -107h231v-40h-249l-55 -118l-37 15l47 103h-163z" />
    <glyph glyph-name="lessequal" unicode="&#x2264;" 
d="M101 373l359 -181v-48l-417 214v30l417 214v-48zM43 0v41h417v-41h-417z" />
    <glyph glyph-name="greaterequal" unicode="&#x2265;" 
d="M439 373l-359 181v48l417 -214v-30l-417 -214v48zM80 0v41h417v-41h-417z" />
    <glyph glyph-name="dotmath" unicode="&#x22c5;" horiz-adv-x="274" 
d="M114 330v78h48v-78h-48z" />
    <glyph glyph-name="filledrect" unicode="&#x25ac;" 
d="M122 220v296h296v-296h-296z" />
    <glyph glyph-name="uni25B4" unicode="&#x25b4;" 
d="M92 215l178 355l178 -355h-356z" />
    <glyph glyph-name="uni25B8" unicode="&#x25b8;" 
d="M125 190v356l355 -178z" />
    <glyph glyph-name="uni25BE" unicode="&#x25be;" 
d="M92 520h356l-178 -355z" />
    <glyph glyph-name="uni25C2" unicode="&#x25c2;" 
d="M415 190l-355 178l355 178v-356z" />
    <glyph glyph-name="lozenge" unicode="&#x25ca;" 
d="M19 345l251 372l250 -372l-250 -371zM69 345l201 -297l200 297l-200 298z" />
    <glyph glyph-name="openbullet" unicode="&#x25e6;" 
d="M271 524q68 0 114.5 -44.5t46.5 -111.5q0 -66 -46.5 -111t-114.5 -45q-70 0 -116 45t-46 113q0 65 47 109.5t115 44.5zM271 491q-55 0 -91.5 -35t-36.5 -87q0 -54 36 -89t92 -35q55 0 91 35t36 88t-36 88t-91 35z" />
    <glyph glyph-name="commaaccent" unicode="&#xf6c3;" horiz-adv-x="500" 
d="M197 -211l54 137h56l-75 -137h-35z" />
    <glyph glyph-name="Acute" unicode="&#xf6c9;" horiz-adv-x="500" 
d="M213 796l71 134h64l-98 -134h-37z" />
    <glyph glyph-name="Caron" unicode="&#xf6ca;" horiz-adv-x="500" 
d="M250 841l75 83h58l-121 -122h-25l-121 122h58z" />
    <glyph glyph-name="Dieresis" unicode="&#xf6cb;" horiz-adv-x="500" 
d="M132 807v89h44v-89h-44zM323 807v89h44v-89h-44z" />
    <glyph glyph-name="Grave" unicode="&#xf6ce;" horiz-adv-x="500" 
d="M289 796h-36l-99 134h64z" />
    <glyph glyph-name="Hungarumlaut" unicode="&#xf6cf;" horiz-adv-x="500" 
d="M171 796l57 134h58l-80 -134h-35zM285 796l57 134h58l-80 -134h-35z" />
    <glyph glyph-name="Macron" unicode="&#xf6d0;" horiz-adv-x="500" 
d="M138 843v35h225v-35h-225z" />
    <glyph glyph-name="zerooldstyle" unicode="&#xf730;" horiz-adv-x="497" 
d="M73 195v135q0 101 41 149q48 54 134 54q96 0 142 -63q34 -47 34 -140v-135q0 -101 -42 -149q-46 -54 -134 -54q-94 0 -141 63q-34 47 -34 140zM376 199v127q0 86 -30.5 126t-97.5 40q-66 0 -96.5 -40t-30.5 -126v-127q0 -86 30.5 -126t97.5 -40q66 0 96.5 40t30.5 126z
" />
    <glyph glyph-name="oneoldstyle" unicode="&#xf731;" horiz-adv-x="318" 
d="M145 0v473l-130 -59l-14 40l157 71h35v-525h-48z" />
    <glyph glyph-name="twooldstyle" unicode="&#xf732;" horiz-adv-x="436" 
d="M26 0v32l180 178q59 59 88 106q22 34 22 72q0 50 -30.5 77t-87.5 27q-104 0 -129 -91l-43 10q30 122 174 122q77 0 120 -38t43 -106q0 -47 -26 -89.5t-99 -113.5l-147 -145h289v-41h-354z" />
    <glyph glyph-name="threeoldstyle" unicode="&#xf733;" horiz-adv-x="471" 
d="M127 184v41h65q62 0 101.5 39.5t39.5 101.5q0 59 -32.5 92.5t-88.5 33.5q-89 0 -116 -79l-42 14q23 58 59.5 82t100.5 24q80 0 124 -43.5t44 -122.5q0 -119 -111 -162q136 -39 136 -172q0 -79 -44 -132q-53 -63 -165 -63q-146 0 -181 99l44 18q22 -76 137 -76
q82 0 122 47q38 44 38 109q0 66 -45 107.5t-117 41.5h-69z" />
    <glyph glyph-name="fouroldstyle" unicode="&#xf734;" horiz-adv-x="452" 
d="M314 -154v154h-294v31l230 494h52l-229 -485h241v249h44v-249h76v-41h-76v-153h-44z" />
    <glyph glyph-name="fiveoldstyle" unicode="&#xf735;" horiz-adv-x="517" 
d="M88 182l33 343h295v-42h-255l-26 -258q61 38 124 38q180 0 180 -206q0 -107 -52.5 -163t-152.5 -56q-69 0 -115.5 26t-60.5 73l44 17q10 -35 45.5 -55t87.5 -20q75 0 115 45.5t40 130.5q0 167 -139 167q-67 0 -128 -47z" />
    <glyph glyph-name="sixoldstyle" unicode="&#xf736;" horiz-adv-x="526" 
d="M185 406l5 3q11 5 31 15q18 9 56 9q91 0 138 -67q35 -50 35 -152q0 -115 -45 -166q-50 -56 -140 -56q-100 0 -148 66q-37 49 -37 157q0 94 49 181l165 299h54zM267 393q-138 0 -138 -179q0 -181 136 -181t136 180t-134 180z" />
    <glyph glyph-name="sevenoldstyle" unicode="&#xf737;" horiz-adv-x="385" 
d="M64 -154l220 637h-292v42h343v-30l-220 -649h-51z" />
    <glyph glyph-name="eightoldstyle" unicode="&#xf738;" horiz-adv-x="542" 
d="M186 369q-47 20 -67.5 56.5t-20.5 99.5q0 178 173 178t173 -178q0 -122 -88 -156q112 -35 112 -175q0 -202 -197 -202t-197 202q0 140 112 175zM273 663q-128 0 -128 -139t126 -139t126 139t-124 139zM273 346q-151 0 -151 -152q0 -162 149 -162t149 161q0 153 -147 153z
" />
    <glyph glyph-name="nineoldstyle" unicode="&#xf739;" horiz-adv-x="526" 
d="M178 -154l163 272q-1 0 -5.5 -2t-13.5 -6.5t-18 -8.5q-18 -9 -56 -9q-90 0 -138 67q-35 50 -35 153q0 112 45 165q51 56 140 56q99 0 148 -66q37 -50 37 -157q0 -98 -48 -181l-165 -283h-54zM260 492q-136 0 -136 -180t134 -180q138 0 138 179q0 181 -136 181z" />
    <glyph glyph-name="Dbreve" horiz-adv-x="682" 
d="M116 0v714h217q123 2 189 -68t62 -200v-177q4 -130 -61.5 -200.5t-189.5 -68.5h-217zM164 42h163q104 -2 157.5 57.5t51.5 175.5v165q2 115 -51.5 174.5t-157.5 57.5h-163v-630zM197 918h37q5 -46 23.5 -65t59.5 -19q43 0 61.5 18.5t23.5 65.5h37q-5 -70 -31 -96.5
t-90 -26.5q-65 0 -91 26.5t-30 96.5z" />
    <glyph glyph-name="ahungarumlaut" horiz-adv-x="519" 
d="M377 280v48q0 64 -21 93q-30 41 -105 41q-82 0 -132 -51l-32 27q57 65 167 65q105 0 146 -64q24 -37 24 -115v-324h-39l-5 40q-23 -26 -56.5 -37t-92.5 -11q-98 0 -137.5 31.5t-39.5 110.5q0 81 42 113.5t148 32.5h133zM377 243h-132q-79 0 -112 -25t-33 -84
q0 -57 30.5 -79t107.5 -22q95 0 123 38q16 21 16 75v97zM181 583l57 134h58l-80 -134h-35zM295 583l57 134h58l-80 -134h-35z" />
    <glyph glyph-name="uni0204.sc" horiz-adv-x="468" 
d="M96 0v525h316v-41h-269v-198h230v-41h-230v-204h269v-41h-316zM342 607h-36l-79 134h58zM228 607h-35l-80 134h58z" />
    <glyph glyph-name="uni0206.sc" horiz-adv-x="468" 
d="M104 0v525h316v-41h-269v-198h230v-41h-230v-204h269v-41h-316zM383 614h-37q-4 46 -23 65t-61 19t-61 -19t-23 -65h-37q4 70 30 96.5t91 26.5q64 0 90 -26.5t31 -96.5z" />
    <glyph glyph-name="uni0208.sc" horiz-adv-x="254" 
d="M104 0v525h47v-525h-47zM206 607h-36l-79 134h58zM92 607h-35l-80 134h58z" />
    <glyph glyph-name="uni020A.sc" horiz-adv-x="254" 
d="M103 0v525h47v-525h-47zM248 614h-37q-5 46 -23.5 65t-60.5 19t-61 -19t-23 -65h-37q4 69 30.5 96t90.5 27t90 -26.5t31 -96.5z" />
    <glyph glyph-name="uni020C.sc" horiz-adv-x="553" 
d="M82 204v116q0 104 46 156q51 57 145 57q102 0 153 -67q38 -48 38 -146v-116q0 -105 -46 -155q-51 -57 -145 -57q-103 0 -153 66q-38 49 -38 146zM417 210v105q0 90 -35.5 133.5t-108.5 43.5t-108.5 -43.5t-35.5 -133.5v-105q0 -89 34 -131q39 -46 110 -46
q73 0 108.5 43.5t35.5 133.5zM351 607h-36l-79 134h58zM237 607h-35l-80 134h58z" />
    <glyph glyph-name="uni020E.sc" horiz-adv-x="553" 
d="M86 204v116q0 104 46 156q51 57 145 57q102 0 153 -67q38 -48 38 -146v-116q0 -105 -46 -155q-51 -57 -145 -57q-103 0 -153 66q-38 49 -38 146zM421 210v105q0 90 -35.5 133.5t-108.5 43.5t-108.5 -43.5t-35.5 -133.5v-105q0 -89 34 -131q39 -46 110 -46
q73 0 108.5 43.5t35.5 133.5zM398 614h-37q-4 46 -23 65t-61 19t-61 -19t-23 -65h-37q4 70 30 96.5t91 26.5q64 0 90 -26.5t31 -96.5z" />
    <glyph glyph-name="uni0210.sc" horiz-adv-x="531" 
d="M145 233v-233h-47v525h184q169 0 169 -144q0 -78 -48 -114q-23 -19 -72 -29l125 -238h-54l-117 233h-140zM145 272h142q116 0 116 107q0 106 -125 106h-133v-213zM325 607h-36l-79 134h58zM211 607h-35l-80 134h58z" />
    <glyph glyph-name="uni0212.sc" horiz-adv-x="531" 
d="M152 233v-233h-47v525h184q169 0 169 -144q0 -78 -48 -114q-23 -19 -72 -29l124 -238h-53l-117 233h-140zM152 272h142q116 0 116 107q0 106 -125 106h-133v-213zM365 614h-37q-4 46 -23 65t-61 19t-61 -19t-23 -65h-37q4 70 30 96.5t91 26.5q64 0 90 -26.5t31 -96.5z
" />
    <glyph glyph-name="uni0214.sc" horiz-adv-x="572" 
d="M96 525h47v-335q0 -76 23 -108q37 -49 115 -49q86 0 121 57q18 30 18 100v335h47v-335q0 -55 -7 -84.5t-26 -52.5q-49 -61 -152 -61q-112 0 -160 70q-26 40 -26 128v335zM360 607h-36l-79 134h58zM246 607h-35l-80 134h58z" />
    <glyph glyph-name="uni0216.sc" horiz-adv-x="572" 
d="M101 525h47v-335q0 -76 23 -108q37 -49 115 -49q86 0 121 57q18 30 18 100v335h47v-335q0 -55 -7 -84.5t-26 -52.5q-49 -61 -152 -61q-112 0 -160 70q-26 40 -26 128v335zM407 614h-37q-4 46 -23 65t-61 19t-61 -19t-23 -65h-37q4 70 30 96.5t91 26.5q64 0 90 -26.5
t31 -96.5z" />
    <glyph glyph-name="uni1E24.sc" horiz-adv-x="564" 
d="M104 0v525h47v-239h263v239h47v-525h-47v245h-263v-245h-47zM258 -184v89h46v-89h-46z" />
    <glyph glyph-name="uni1E5A.sc" horiz-adv-x="531" 
d="M152 233v-233h-47v525h184q169 0 169 -144q0 -78 -48 -114q-23 -19 -72 -29l124 -238h-53l-117 233h-140zM152 272h142q116 0 116 107q0 106 -125 106h-133v-213zM243 -184v89h46v-89h-46z" />
    <glyph glyph-name="uni1E62.sc" horiz-adv-x="461" 
d="M50 66l38 24q40 -57 143 -57q66 0 103 27.5t37 76.5q0 50 -38 74q-17 10 -30.5 14.5t-76.5 19.5q-86 20 -123 54t-37 92q0 66 44.5 104t121.5 38q111 0 156 -62l-38 -24q-41 45 -117 45q-56 0 -88 -26.5t-32 -72.5q0 -43 30.5 -67.5t106.5 -41.5q57 -13 76 -19t40 -20
q52 -34 52 -105t-49 -109.5t-139 -38.5q-130 0 -180 74zM207 -184v89h46v-89h-46z" />
    <glyph glyph-name="uni1E6C.sc" horiz-adv-x="429" 
d="M193 0v484h-165v41h375v-41h-163v-484h-47zM191 -184v89h46v-89h-46z" />
    <glyph glyph-name="uni1E92.sc" horiz-adv-x="415" 
d="M37 0v36l268 448h-253v41h306v-36l-268 -448h280v-41h-333zM185 -184v89h46v-89h-46z" />
    <glyph glyph-name="uni1E44.sc" horiz-adv-x="597" 
d="M104 0v525h44l299 -446v446h47v-525h-43l-300 447v-447h-47zM283 617v89h46v-89h-46z" />
    <glyph glyph-name="uni1E0C.sc" horiz-adv-x="559" 
d="M104 0v525h171q99 1 150 -52.5t48 -154.5v-111q2 -101 -48.5 -154.5t-149.5 -52.5h-171zM151 40h117q80 -2 120 41t38 131v101q2 88 -38 131t-120 41h-117v-445zM233 -184v89h46v-89h-46z" />
    <glyph glyph-name="uni1E02.sc" horiz-adv-x="521" 
d="M104 0v525h200q73 0 111 -32q42 -39 42 -102q0 -79 -71 -117q83 -36 83 -134q0 -73 -48 -112q-36 -28 -105 -28h-212zM151 291h150q108 0 108 97q0 96 -108 96h-150v-193zM151 41h162q108 0 108 103q0 52 -27.5 79t-80.5 27h-162v-209zM228 617v89h46v-89h-46z" />
    <glyph glyph-name="idotaccent" horiz-adv-x="241" 
d="M97 625v90h47v-90h-47zM97 0v494h47v-494h-47z" />
    <glyph glyph-name="one.fitted" horiz-adv-x="318" 
d="M145 0v662l-130 -59l-14 40l157 71h35v-714h-48z" />
    <glyph glyph-name="two.fitted" horiz-adv-x="485" 
d="M38 0v33l196 266q59 81 91 154q21 48 21 102q0 61 -32 93t-93 32q-105 0 -138 -113l-43 5q11 71 59.5 110.5t124.5 39.5q82 0 126.5 -44t44.5 -124q0 -63 -28 -127t-98 -158l-167 -227h301v-42h-365z" />
    <glyph glyph-name="three.fitted" horiz-adv-x="475" 
d="M130 356v41h64q64 0 105.5 40t41.5 102q0 66 -35.5 103.5t-98.5 37.5q-104 0 -130 -90l-44 5q10 61 56 94t119 33q87 0 134.5 -47.5t47.5 -134.5q0 -119 -114 -163q133 -42 133 -187q0 -83 -44 -135q-53 -63 -164 -63q-164 0 -190 130l47 6q25 -94 144 -94q74 0 116 41.5
t42 115.5q0 73 -45.5 119t-117.5 46h-67z" />
    <glyph glyph-name="four.fitted" horiz-adv-x="534" 
d="M349 0v137h-295v31l234 546h51l-230 -535h240v249h46v-249h76v-43h-76v-136h-46z" />
    <glyph glyph-name="five.fitted" horiz-adv-x="524" 
d="M88 354l35 360h298v-42h-258l-28 -274q55 37 123 37q184 0 184 -223q0 -107 -52 -163t-151 -56q-75 0 -123 34t-59 95l47 6q25 -93 137 -93q73 0 112.5 45.5t39.5 129.5q0 184 -142 184q-66 0 -129 -47z" />
    <glyph glyph-name="six.fitted" horiz-adv-x="527" 
d="M349 714l-163 -308q43 27 92 27q91 0 138 -67q35 -50 35 -153q0 -114 -45 -165q-48 -56 -140 -56q-100 0 -148 66q-37 49 -37 157q0 52 10 88.5t39 92.5l165 318h54zM268 392q-138 0 -138 -179t136 -179t136 179t-134 179z" />
    <glyph glyph-name="seven.fitted" horiz-adv-x="385" 
d="M64 0l220 672h-292v42h343v-30l-220 -684h-51z" />
    <glyph glyph-name="eight.fitted" horiz-adv-x="543" 
d="M182 377q-47 23 -68 60t-21 101q0 184 178 184t178 -183q0 -123 -88 -162q56 -19 82 -63t26 -119q0 -203 -198 -203q-197 0 -197 203q0 146 108 182zM273 681q-133 0 -133 -143t131 -143t131 143t-129 143zM273 354q-150 0 -150 -160t149 -160q148 0 148 160t-147 160z
" />
    <glyph glyph-name="nine.fitted" horiz-adv-x="527" 
d="M178 0l167 336q-46 -25 -98 -25q-172 0 -172 204q0 207 185 207t185 -205q0 -47 -7.5 -79t-28.5 -76l-177 -362h-54zM262 680q-138 0 -138 -164q0 -165 136 -165t136 165q0 164 -134 164z" />
    <glyph glyph-name="zero.fitted" horiz-adv-x="545" 
d="M85 243v228q0 124 43 183q50 68 144 68q103 0 152 -79q36 -58 36 -172v-228q0 -124 -43 -183q-50 -68 -145 -68q-102 0 -151 79q-36 56 -36 172zM412 249v216q0 110 -34 162.5t-105 52.5q-72 0 -106 -52.5t-34 -162.5v-216q0 -110 34 -162.5t106 -52.5q71 0 105 52.5
t34 162.5z" />
    <glyph glyph-name="sterling.fitted" horiz-adv-x="542" 
d="M69 0v36q49 22 82.5 77.5t33.5 114.5q0 40 -18 90h-101v42h82q-35 60 -47.5 95.5t-12.5 73.5q0 88 52 140.5t140 52.5q106 0 163 -72q31 -42 44 -117l-41 -10q-13 66 -36 98q-43 60 -127 60q-66 0 -106 -40.5t-40 -107.5q0 -35 13 -69.5t52 -103.5h172v-42h-157
q15 -49 15 -86q0 -111 -91 -190h354v-42h-426z" />
    <glyph glyph-name="dollar.fitted" horiz-adv-x="562" 
d="M46 105l38 25q50 -78 188 -78q89 0 139 37t50 104t-51 101q-23 15 -40.5 21t-98.5 25q-110 26 -158.5 70t-48.5 118q0 48 22 87.5t61 62.5q43 23 111 26v107h44v-108q55 -3 100 -23.5t64 -50.5l-38 -26q-44 60 -155 60q-76 0 -118.5 -34.5t-42.5 -96.5q0 -58 41 -92
t140 -57q73 -17 98.5 -26t51.5 -26q66 -46 66 -134q0 -83 -53 -130.5t-154 -54.5v-143h-44v142q-74 2 -131 27t-81 67z" />
    <glyph glyph-name="cent.fitted" horiz-adv-x="482" 
d="M252 44v111q-86 5 -130.5 62t-43.5 159v50q-3 224 174 237v107h44v-108q82 -7 122 -67l-37 -21q-39 50 -108 50q-76 0 -112.5 -48t-36.5 -149v-55q0 -88 38 -133t112 -45q77 0 119 48l36 -22q-44 -58 -133 -64v-112h-44z" />
    <glyph glyph-name="Euro.fitted" horiz-adv-x="546" 
d="M95 291v81h-93l15 38h78v18q0 151 48 215q57 79 166 79q86 0 139 -44t58 -121l-45 -4q-8 59 -48 93t-103 34q-87 0 -127 -60t-40 -191v-19h295l-15 -38h-280v-81h246l-15 -38h-230q3 -112 44 -166t123 -54q65 0 107 33t50 89l44 -5q-6 -74 -60 -116.5t-142 -42.5
q-141 0 -191 123q-19 45 -24 139h-92l15 38h77z" />
    <glyph glyph-name="yen.fitted" horiz-adv-x="548" 
d="M250 0v159h-160v38h160v73h-160v38h143l-202 406h51l192 -390l192 390h51l-202 -406h143v-38h-160v-73h160v-38h-160v-159h-48z" />
    <glyph glyph-name="one.numerator" horiz-adv-x="343" 
d="M162 286v385l-81 -34l-12 34l103 43h31v-428h-41z" />
    <glyph glyph-name="two.numerator" horiz-adv-x="343" 
d="M56 286v28l128 154q67 82 67 136q0 38 -20.5 59t-57.5 21q-64 0 -87 -67l-37 7q19 95 125 95q118 0 118 -116q0 -38 -17.5 -74t-59.5 -87l-99 -121h175v-35h-235z" />
    <glyph glyph-name="three.numerator" horiz-adv-x="343" 
d="M113 494v33h45q37 0 62.5 23t25.5 56q0 35 -22 56t-58 21q-62 0 -80 -53l-38 7q16 81 118 81q121 0 121 -112q0 -35 -14 -56.5t-47 -38.5q73 -29 73 -109q0 -58 -35 -89t-102 -31q-73 0 -106 36q-13 13 -21 43l39 11q16 -55 88 -55q44 0 70 23t26 63q0 39 -28 65t-70 26
h-47z" />
    <glyph glyph-name="four.numerator" horiz-adv-x="343" 
d="M222 286v88h-187v26l149 314h45l-145 -305h138v103h39v-103h47v-36h-47v-87h-39z" />
    <glyph glyph-name="five.numerator" horiz-adv-x="343" 
d="M62 494l23 220h199v-35h-164l-16 -146q33 17 71 17q122 0 122 -135q0 -133 -134 -133q-103 0 -120 80l39 10q15 -55 83 -55q42 0 66.5 26t24.5 71q0 102 -84 102q-43 0 -80 -28z" />
    <glyph glyph-name="six.numerator" horiz-adv-x="343" 
d="M235 714l-99 -173q21 8 45 8q114 0 114 -133q0 -68 -30 -101t-93 -33q-62 0 -92 33t-30 102q0 32 6 54t25 56l105 187h49zM174 515q-84 0 -84 -99q0 -100 82 -100q83 0 83 99q0 100 -81 100z" />
    <glyph glyph-name="seven.numerator" horiz-adv-x="343" 
d="M98 286l149 393h-191v35h237v-25l-150 -403h-45z" />
    <glyph glyph-name="eight.numerator" horiz-adv-x="343" 
d="M101 512q-26 15 -36.5 36.5t-10.5 58.5q0 112 117 112q118 0 118 -112q0 -37 -10 -57.5t-36 -37.5q32 -14 45.5 -39t13.5 -68q0 -124 -130 -124t-130 124q0 81 59 107zM172 686q-79 0 -79 -80t79 -80q78 0 78 80t-78 80zM173 494q-91 0 -91 -90q0 -89 90 -89t90 89
q0 90 -89 90z" />
    <glyph glyph-name="nine.numerator" horiz-adv-x="343" 
d="M109 286l102 190q-27 -8 -51 -8q-112 0 -112 124q0 65 30 95.5t93 30.5q122 0 122 -125q0 -49 -24 -94l-112 -213h-48zM172 684q-84 0 -84 -91q0 -92 83 -92q82 0 82 92q0 44 -21 67.5t-60 23.5z" />
    <glyph glyph-name="zero.numerator" horiz-adv-x="343" 
d="M48 433v134q0 151 123 151q124 0 124 -151v-134q0 -151 -124 -151q-123 0 -123 151zM255 437v126q0 121 -84 121q-83 0 -83 -121v-126q0 -121 83 -121q84 0 84 121z" />
    <glyph glyph-name="one.denominator" horiz-adv-x="343" 
d="M162 0v385l-81 -34l-12 34l103 43h31v-428h-41z" />
    <glyph glyph-name="two.denominator" horiz-adv-x="343" 
d="M56 0v28l128 154q67 82 67 136q0 38 -20.5 59t-57.5 21q-64 0 -87 -67l-37 7q19 95 125 95q118 0 118 -116q0 -38 -17 -73.5t-60 -87.5l-99 -121h175v-35h-235z" />
    <glyph glyph-name="three.denominator" horiz-adv-x="343" 
d="M113 209v33h45q37 0 62.5 23t25.5 55q0 35 -22 56t-58 21q-62 0 -80 -52l-38 7q16 80 118 80q59 0 90 -28.5t31 -82.5q0 -35 -14 -56.5t-47 -38.5q73 -29 73 -109q0 -59 -35 -90t-102 -31q-73 0 -106 36q-13 13 -21 44l39 10q16 -55 88 -55q44 0 70 23.5t26 63.5
q0 39 -28 65t-70 26h-47z" />
    <glyph glyph-name="four.denominator" horiz-adv-x="343" 
d="M222 0v88h-187v26l149 314h45l-145 -305h138v103h39v-103h47v-36h-47v-87h-39z" />
    <glyph glyph-name="five.denominator" horiz-adv-x="343" 
d="M62 208l23 220h199v-35h-164l-16 -146q33 17 71 17q122 0 122 -135q0 -133 -134 -133q-103 0 -120 80l39 10q15 -55 83 -55q42 0 66.5 26t24.5 71q0 102 -84 102q-43 0 -80 -28z" />
    <glyph glyph-name="six.denominator" horiz-adv-x="343" 
d="M235 428l-99 -173q21 8 45 8q114 0 114 -133q0 -68 -30 -101t-93 -33q-62 0 -92 33t-30 102q0 32 6 54t25 56l105 187h49zM174 229q-84 0 -84 -99q0 -100 82 -100q83 0 83 99q0 100 -81 100z" />
    <glyph glyph-name="seven.denominator" horiz-adv-x="343" 
d="M98 0l149 393h-191v35h237v-25l-150 -403h-45z" />
    <glyph glyph-name="eight.denominator" horiz-adv-x="343" 
d="M101 227q-47 25 -47 94q0 112 117 112q118 0 118 -112q0 -36 -10.5 -57.5t-35.5 -36.5q32 -15 45.5 -40t13.5 -68q0 -124 -130 -124t-130 124q0 81 59 108zM172 400q-79 0 -79 -80t79 -80q78 0 78 80t-78 80zM173 208q-91 0 -91 -90q0 -89 90 -89t90 89q0 90 -89 90z" />
    <glyph glyph-name="nine.denominator" horiz-adv-x="343" 
d="M109 0l102 190q-28 -8 -51 -8q-112 0 -112 124q0 65 30 95.5t93 30.5q122 0 122 -125q0 -50 -24 -93l-112 -214h-48zM172 398q-84 0 -84 -91q0 -92 83 -92q82 0 82 91q0 44 -21 68t-60 24z" />
    <glyph glyph-name="zero.denominator" horiz-adv-x="343" 
d="M48 147v134q0 151 123 151q124 0 124 -151v-134q0 -151 -124 -151q-123 0 -123 151zM255 151v126q0 121 -84 121q-83 0 -83 -121v-126q0 -121 83 -121q84 0 84 121z" />
    <glyph glyph-name="oneone" horiz-adv-x="834" 
d="M172 286v385l-81 -34l-12 34l103 43h31v-428h-41zM244 0l223 714h46l-223 -714h-46zM622 0v385l-81 -34l-12 34l103 43h31v-428h-41z" />
    <glyph glyph-name="Dotaccent" horiz-adv-x="500" 
d="M226 807v89h46v-89h-46z" />
    <glyph glyph-name="Ring" horiz-adv-x="500" 
d="M251 976q41 0 66 -25.5t25 -67.5q0 -43 -25 -68.5t-67 -25.5q-41 0 -66.5 25.5t-25.5 68.5t25 68t68 25zM251 946q-26 0 -40 -16.5t-14 -47.5q0 -29 14 -46t39 -17t39 17t14 46q0 30 -14 47t-38 17z" />
    <glyph glyph-name="Circumflex" horiz-adv-x="500" 
d="M250 886l-76 -83h-58l121 122h25l121 -122h-58z" />
    <glyph glyph-name="Breve" horiz-adv-x="500" 
d="M129 918h37q5 -46 23.5 -65t59.5 -19q43 0 61.5 18.5t23.5 65.5h37q-5 -70 -31 -96.5t-90 -26.5q-65 0 -91 26.5t-30 96.5z" />
    <glyph glyph-name="Tilde" horiz-adv-x="500" 
d="M140 817h-34q14 50 33 71.5t50 21.5q34 0 70 -32q36 -33 55 -33q29 0 46 57h34q-14 -51 -32.5 -72t-49.5 -21q-34 0 -71 33q-36 32 -56 32q-28 0 -45 -57z" />
    <glyph glyph-name="Cedilla" horiz-adv-x="500" 
d="M197 -211l54 137h56l-75 -137h-35z" />
    <glyph glyph-name="Ogonek" horiz-adv-x="500" 
d="M301 0h53q-57 -30 -79 -52.5t-22 -51.5q0 -44 54 -44q25 0 56 9l5 -34q-36 -10 -67 -10q-93 0 -93 71q0 35 24.5 64t68.5 48z" />
    <glyph glyph-name="Commaaccent" horiz-adv-x="500" 
d="M197 -211l54 137h56l-75 -137h-35z" />
    <glyph glyph-name="Comma.high" horiz-adv-x="93" 
d="M5 518l22 199h54l-43 -199h-33z" />
    <glyph glyph-name="Croatumlaut" horiz-adv-x="500" 
d="M329 796h-36l-79 134h58zM215 796h-35l-80 134h58z" />
    <glyph glyph-name="Croatbreve" horiz-adv-x="500" 
d="M371 803h-37q-4 47 -23 65.5t-61 18.5t-61 -19t-23 -65h-37q4 70 30 96.5t91 26.5q64 0 90 -26.5t31 -96.5z" />
    <glyph glyph-name="Cicumflexacute" horiz-adv-x="500" 
d="M250 886l-76 -83h-58l121 122h25l121 -122h-58zM350 850l70 134h63l-99 -134h-34z" />
    <glyph glyph-name="Ringacute" horiz-adv-x="500" 
d="M251 874q41 0 66 -25.5t25 -67.5q0 -43 -25 -68.5t-67 -25.5q-41 0 -66.5 25.5t-25.5 68.5t25 68t68 25zM251 844q-26 0 -40 -16.5t-14 -47.5q0 -29 14 -46t39 -17t39 17t14 46q0 30 -14 47t-38 17zM222 893l55 111h63l-85 -111h-33z" />
    <glyph glyph-name="croatumlaut" horiz-adv-x="500" 
d="M329 583h-36l-79 134h58zM215 583h-35l-80 134h58z" />
    <glyph glyph-name="croatbreve" horiz-adv-x="500" 
d="M371 590h-37q-4 46 -23 65t-61 19t-61 -19t-23 -65h-37q4 70 30 96.5t91 26.5q64 0 90 -26.5t31 -96.5z" />
    <glyph glyph-name="cicumflexacute" horiz-adv-x="500" 
d="M250 672l-76 -83h-58l121 122h25l121 -122h-58zM350 637l70 134h63l-99 -134h-34z" />
    <glyph glyph-name="ringacute" horiz-adv-x="500" 
d="M251 763q41 0 66 -25.5t25 -67.5q0 -43 -25 -68.5t-67 -25.5t-67 25.5t-25 68.5t25 68t68 25zM251 733q-26 0 -40 -16.5t-14 -47.5q0 -29 14 -46t39 -17t39 17t14 47q0 29 -14 46t-38 17zM222 782l55 112h63l-85 -112h-33z" />
    <glyph glyph-name="Ohorn.sc" horiz-adv-x="564" 
d="M527 533h45q5 -18 5 -34q0 -43 -25.5 -75t-85.5 -65q2 -16 2 -42v-113q0 -104 -45 -155q-53 -57 -146 -57q-103 0 -153 66q-38 49 -38 146v116q0 106 46 156q51 57 145 57q153 0 184 -136q44 26 59 46.5t15 52.5q0 18 -8 37zM421 210v105q0 89 -34 131q-38 47 -110 47
q-144 0 -144 -178v-105q0 -90 35.5 -133.5t108.5 -43.5q78 0 116 54q28 42 28 123z" />
    <glyph glyph-name="Uhorn.sc" horiz-adv-x="589" 
d="M101 525h47v-335q0 -76 23 -108q37 -49 115 -49q86 0 121 57q18 30 18 100v335h47v-146q60 30 82.5 55t22.5 62q0 20 -8 37h46q4 -17 4 -33q0 -66 -67 -114q-22 -16 -80 -46v-150q0 -55 -7 -84.5t-26 -52.5q-49 -61 -152 -61q-112 0 -160 70q-26 40 -26 128v335z" />
    <glyph glyph-name="uni1EA0.sc" horiz-adv-x="449" 
d="M355 119h-262l-44 -119h-52l206 525h43l205 -525h-52zM342 159l-118 309l-118 -309h236zM200 -184v89h46v-89h-46z" />
    <glyph glyph-name="uni1EA2.sc" horiz-adv-x="449" 
d="M355 119h-262l-44 -119h-52l206 525h43l205 -525h-52zM342 159l-118 309l-118 -309h236zM247 599h-39q1 23 3.5 31.5t13.5 25.5q19 29 19 44q0 27 -35 27q-17 0 -43 -9l-10 30q33 11 59 11q72 0 72 -57q0 -23 -23 -53q-12 -17 -14.5 -24.5t-2.5 -25.5z" />
    <glyph glyph-name="uni1EA4.sc" horiz-adv-x="449" 
d="M355 119h-262l-44 -119h-52l206 525h43l205 -525h-52zM342 159l-118 309l-118 -309h236zM192 697l55 112h57l-80 -112h-32zM224 632l-75 -59h-57l120 97h24l120 -97h-57z" />
    <glyph glyph-name="uni1EA6.sc" horiz-adv-x="449" 
d="M355 119h-262l-44 -119h-52l206 525h43l205 -525h-52zM342 159l-118 309l-118 -309h236zM256 697h-32l-80 112h57zM224 632l-75 -59h-57l120 97h24l120 -97h-57z" />
    <glyph glyph-name="uni1EA8.sc" horiz-adv-x="449" 
d="M355 119h-262l-44 -119h-52l206 525h43l205 -525h-52zM342 159l-118 309l-118 -309h236zM244 686h-37q1 25 17 45q18 23 18 33q0 18 -34 18q-18 0 -41 -8l-10 27q28 10 56 10q69 0 69 -45q0 -17 -22 -42q-11 -13 -13.5 -18.5t-2.5 -19.5zM220 631l-74 -58h-58l121 95h23
l121 -95h-58z" />
    <glyph glyph-name="uni1EAA.sc" horiz-adv-x="449" 
d="M355 119h-262l-44 -119h-52l206 525h43l205 -525h-52zM342 159l-118 309l-118 -309h236zM139 709h-32q14 47 32 67.5t46 20.5q29 0 56 -31t43 -31q21 0 36 54h31q-11 -47 -27 -67.5t-42 -20.5q-29 0 -56 31q-26 31 -43 31q-27 0 -44 -54zM230 632l-75 -59h-57l120 97h24
l120 -97h-57z" />
    <glyph glyph-name="uni1EAC.sc" horiz-adv-x="449" 
d="M355 119h-262l-44 -119h-52l206 525h43l205 -525h-52zM342 159l-118 309l-118 -309h236zM224 696l-75 -83h-59l122 122h24l122 -122h-59zM200 -184v89h46v-89h-46z" />
    <glyph glyph-name="uni1EAE.sc" horiz-adv-x="449" 
d="M355 119h-262l-44 -119h-52l206 525h43l205 -525h-52zM342 159l-118 309l-118 -309h236zM192 697l55 112h57l-80 -112h-32zM105 682h35q5 -40 24 -56.5t61 -16.5q41 0 60 16.5t23 56.5h35q-4 -63 -29.5 -87t-89.5 -24t-89.5 24t-29.5 87z" />
    <glyph glyph-name="uni1EB0.sc" horiz-adv-x="449" 
d="M355 119h-262l-44 -119h-52l206 525h43l205 -525h-52zM342 159l-118 309l-118 -309h236zM258 697h-32l-80 112h57zM105 682h35q5 -40 24 -56.5t61 -16.5q41 0 60 16.5t23 56.5h35q-4 -63 -29.5 -87t-89.5 -24t-89.5 24t-29.5 87z" />
    <glyph glyph-name="uni1EB2.sc" horiz-adv-x="449" 
d="M355 119h-262l-44 -119h-52l206 525h43l205 -525h-52zM342 159l-118 309l-118 -309h236zM242 674h-37q1 18 3.5 25.5t13.5 22.5q18 24 18 36q0 24 -35 24q-16 0 -40 -8l-10 27q28 10 55 10q70 0 70 -51q0 -15 -19 -39q-13 -15 -16 -22.5t-3 -24.5zM105 682h35
q5 -41 23.5 -57.5t60.5 -16.5t60.5 16.5t23.5 57.5h35q-4 -63 -29.5 -87t-89.5 -24t-89.5 24t-29.5 87z" />
    <glyph glyph-name="uni1EB4.sc" horiz-adv-x="449" 
d="M355 119h-262l-44 -119h-52l206 525h43l205 -525h-52zM342 159l-118 309l-118 -309h236zM133 717h-32q13 47 31.5 67.5t46.5 20.5q29 0 56 -30q27 -31 42 -31q24 0 36 54h32q-11 -48 -27 -68t-43 -20q-29 0 -55 31q-27 30 -44 30q-25 0 -43 -54zM105 680h35q4 -40 23 -56
t60 -16t60.5 16t23.5 56h35q-5 -62 -30.5 -85.5t-88.5 -23.5t-88.5 23.5t-29.5 85.5z" />
    <glyph glyph-name="uni1EB6.sc" horiz-adv-x="449" 
d="M355 119h-262l-44 -119h-52l206 525h43l205 -525h-52zM342 159l-118 309l-118 -309h236zM103 729h37q5 -46 23.5 -65t60.5 -19t61 19t23 65h37q-4 -70 -30 -96.5t-91 -26.5q-64 0 -90.5 27t-30.5 96zM200 -184v89h46v-89h-46z" />
    <glyph glyph-name="uni1EB8.sc" horiz-adv-x="468" 
d="M104 0v525h316v-41h-269v-198h230v-41h-230v-204h269v-41h-316zM242 -184v89h46v-89h-46z" />
    <glyph glyph-name="uni1EBA.sc" horiz-adv-x="468" 
d="M104 0v525h316v-41h-269v-198h230v-41h-230v-204h269v-41h-316zM287 599h-39q1 34 17 57q19 29 19 44q0 27 -35 27q-18 0 -42 -9l-11 30q33 11 60 11q71 0 71 -57q0 -22 -23 -53q-12 -17 -14.5 -24.5t-2.5 -25.5z" />
    <glyph glyph-name="uni1EBC.sc" horiz-adv-x="468" 
d="M104 0v525h316v-41h-269v-198h230v-41h-230v-204h269v-41h-316zM152 628h-34q14 50 33 71.5t50 21.5q34 0 70 -32q37 -33 55 -33q29 0 46 57h34q-14 -51 -32 -72t-49 -21q-35 0 -72 34q-35 32 -55 32q-28 0 -46 -58z" />
    <glyph glyph-name="uni1EBE.sc" horiz-adv-x="468" 
d="M104 0v525h316v-41h-269v-198h230v-41h-230v-204h269v-41h-316zM229 697l55 112h57l-79 -112h-33zM262 632l-75 -59h-57l120 97h24l120 -97h-57z" />
    <glyph glyph-name="uni1EC0.sc" horiz-adv-x="468" 
d="M104 0v525h316v-41h-269v-198h230v-41h-230v-204h269v-41h-316zM295 697h-32l-80 112h57zM263 632l-75 -59h-57l120 97h24l120 -97h-57z" />
    <glyph glyph-name="uni1EC2.sc" horiz-adv-x="468" 
d="M104 0v525h316v-41h-269v-198h230v-41h-230v-204h269v-41h-316zM283 686h-37q1 25 17 45q18 22 18 33q0 18 -34 18q-18 0 -41 -8l-9 27q26 10 56 10q68 0 68 -45q0 -18 -21 -42q-12 -13 -14.5 -18.5t-2.5 -19.5zM260 631l-75 -58h-58l121 95h24l120 -95h-57z" />
    <glyph glyph-name="uni1EC4.sc" horiz-adv-x="468" 
d="M104 0v525h316v-41h-269v-198h230v-41h-230v-204h269v-41h-316zM178 709h-31q13 47 31 67.5t47 20.5t55 -31q27 -31 43 -31q23 0 36 54h31q-10 -47 -26.5 -67.5t-42.5 -20.5q-29 0 -56 31q-26 31 -43 31q-26 0 -44 -54zM269 632l-75 -59h-57l120 97h24l120 -97h-57z" />
    <glyph glyph-name="uni1EC6.sc" horiz-adv-x="468" 
d="M103 0v525h316v-41h-269v-198h230v-41h-230v-204h269v-41h-316zM261 696l-76 -83h-58l121 122h25l121 -122h-58zM240 -184v89h46v-89h-46z" />
    <glyph glyph-name="uni1EC8.sc" horiz-adv-x="254" 
d="M103 0v525h47v-525h-47zM149 599h-39q1 23 3.5 31.5t13.5 25.5q19 30 19 44q0 27 -35 27q-17 0 -43 -9l-10 30q33 11 59 11q72 0 72 -57q0 -22 -23 -53q-12 -17 -14.5 -24.5t-2.5 -25.5z" />
    <glyph glyph-name="uni1ECA.sc" horiz-adv-x="254" 
d="M103 0v525h47v-525h-47zM103 -184v89h46v-89h-46z" />
    <glyph glyph-name="uni1ECC.sc" horiz-adv-x="553" 
d="M86 204v116q0 104 46 156q51 57 145 57q103 0 153 -67q38 -48 38 -146v-116q0 -104 -45 -155q-53 -57 -146 -57q-103 0 -153 66q-38 49 -38 146zM421 210v105q0 89 -34 131q-37 46 -110 46t-108.5 -43.5t-35.5 -133.5v-105q0 -90 35.5 -133.5t108.5 -43.5q78 0 116 54
q28 42 28 123zM253 -184v89h46v-89h-46z" />
    <glyph glyph-name="uni1ECE.sc" horiz-adv-x="553" 
d="M86 204v116q0 104 46 156q51 57 145 57q103 0 153 -67q38 -48 38 -146v-116q0 -104 -45 -155q-53 -57 -146 -57q-103 0 -153 66q-38 49 -38 146zM421 210v105q0 89 -34 131q-37 46 -110 46t-108.5 -43.5t-35.5 -133.5v-105q0 -90 35.5 -133.5t108.5 -43.5q78 0 116 54
q28 42 28 123zM300 599h-39q1 23 3.5 32t13.5 25q19 30 19 44q0 27 -35 27q-18 0 -43 -9l-10 30q33 11 59 11q72 0 72 -57q0 -23 -23 -53q-12 -16 -14.5 -24t-2.5 -26z" />
    <glyph glyph-name="uni1ED0.sc" horiz-adv-x="553" 
d="M86 204v116q0 104 46 156q51 57 145 57q103 0 153 -67q38 -48 38 -146v-116q0 -104 -45 -155q-53 -57 -146 -57q-103 0 -153 66q-38 49 -38 146zM421 210v105q0 89 -34 131q-37 46 -110 46t-108.5 -43.5t-35.5 -133.5v-105q0 -90 35.5 -133.5t108.5 -43.5q78 0 116 54
q28 42 28 123zM245 697l54 112h58l-80 -112h-32zM277 632l-75 -59h-57l120 97h24l120 -97h-57z" />
    <glyph glyph-name="uni1ED2.sc" horiz-adv-x="553" 
d="M86 204v116q0 104 46 156q51 57 145 57q103 0 153 -67q38 -48 38 -146v-116q0 -104 -45 -155q-53 -57 -146 -57q-103 0 -153 66q-38 49 -38 146zM421 210v105q0 89 -34 131q-37 46 -110 46t-108.5 -43.5t-35.5 -133.5v-105q0 -90 35.5 -133.5t108.5 -43.5q78 0 116 54
q28 42 28 123zM309 697h-33l-79 112h57zM277 632l-75 -59h-57l120 97h24l120 -97h-57z" />
    <glyph glyph-name="uni1ED4.sc" horiz-adv-x="553" 
d="M86 204v116q0 104 46 156q51 57 145 57q103 0 153 -67q38 -48 38 -146v-116q0 -104 -45 -155q-53 -57 -146 -57q-103 0 -153 66q-38 49 -38 146zM421 210v105q0 89 -34 131q-37 46 -110 46t-108.5 -43.5t-35.5 -133.5v-105q0 -90 35.5 -133.5t108.5 -43.5q78 0 116 54
q28 42 28 123zM297 686h-37q1 25 17 45q18 23 18 33q0 18 -34 18q-20 0 -41 -8l-10 27q28 10 56 10q69 0 69 -45q0 -19 -22 -42q-11 -13 -13.5 -18.5t-2.5 -19.5zM273 631l-75 -58h-57l120 95h24l120 -95h-57z" />
    <glyph glyph-name="uni1ED6.sc" horiz-adv-x="553" 
d="M86 204v116q0 104 46 156q51 57 145 57q103 0 153 -67q38 -48 38 -146v-116q0 -104 -45 -155q-53 -57 -146 -57q-103 0 -153 66q-38 49 -38 146zM421 210v105q0 89 -34 131q-37 46 -110 46t-108.5 -43.5t-35.5 -133.5v-105q0 -90 35.5 -133.5t108.5 -43.5q78 0 116 54
q28 42 28 123zM192 709h-32q13 47 31.5 67.5t46.5 20.5q29 0 56 -31t43 -31q23 0 36 54h31q-11 -47 -27 -67.5t-42 -20.5q-29 0 -56 31q-26 31 -43 31q-27 0 -44 -54zM283 632l-75 -59h-57l120 97h24l120 -97h-57z" />
    <glyph glyph-name="uni1ED8.sc" horiz-adv-x="553" 
d="M86 204v116q0 104 46 156q51 57 145 57q103 0 153 -67q38 -48 38 -146v-116q0 -104 -45 -155q-53 -57 -146 -57q-103 0 -153 66q-38 49 -38 146zM421 210v105q0 89 -34 131q-37 46 -110 46t-108.5 -43.5t-35.5 -133.5v-105q0 -90 35.5 -133.5t108.5 -43.5q78 0 116 54
q28 42 28 123zM277 696l-75 -83h-59l122 122h24l122 -122h-59zM253 -184v89h46v-89h-46z" />
    <glyph glyph-name="uni1EDA.sc" horiz-adv-x="564" 
d="M527 533h45q5 -18 5 -34q0 -43 -25.5 -75t-85.5 -65q2 -16 2 -42v-113q0 -104 -45 -155q-53 -57 -146 -57q-103 0 -153 66q-38 49 -38 146v116q0 106 46 156q51 57 145 57q153 0 184 -136q44 26 59 46.5t15 52.5q0 18 -8 37zM421 210v105q0 89 -34 131q-38 47 -110 47
q-144 0 -144 -178v-105q0 -90 35.5 -133.5t108.5 -43.5q78 0 116 54q28 42 28 123zM245 607l71 134h64l-99 -134h-36z" />
    <glyph glyph-name="uni1EDC.sc" horiz-adv-x="564" 
d="M527 533h45q5 -18 5 -34q0 -43 -25.5 -75t-85.5 -65q2 -16 2 -42v-113q0 -104 -45 -155q-53 -57 -146 -57q-103 0 -153 66q-38 49 -38 146v116q0 106 46 156q51 57 145 57q153 0 184 -136q44 26 59 46.5t15 52.5q0 18 -8 37zM421 210v105q0 89 -34 131q-38 47 -110 47
q-144 0 -144 -178v-105q0 -90 35.5 -133.5t108.5 -43.5q78 0 116 54q28 42 28 123zM320 607h-36l-99 134h65z" />
    <glyph glyph-name="uni1EDE.sc" horiz-adv-x="564" 
d="M527 533h45q5 -18 5 -34q0 -43 -25.5 -75t-85.5 -65q2 -16 2 -42v-113q0 -104 -45 -155q-53 -57 -146 -57q-103 0 -153 66q-38 49 -38 146v116q0 106 46 156q51 57 145 57q153 0 184 -136q44 26 59 46.5t15 52.5q0 18 -8 37zM421 210v105q0 89 -34 131q-38 47 -110 47
q-144 0 -144 -178v-105q0 -90 35.5 -133.5t108.5 -43.5q78 0 116 54q28 42 28 123zM301 599h-39q1 23 3.5 31.5t13.5 25.5q19 29 19 44q0 27 -35 27q-18 0 -42 -9l-11 30q33 11 59 11q72 0 72 -57q0 -22 -23 -53q-12 -17 -14.5 -24.5t-2.5 -25.5z" />
    <glyph glyph-name="uni1EE0.sc" horiz-adv-x="564" 
d="M527 533h45q5 -18 5 -34q0 -43 -25.5 -75t-85.5 -65q2 -16 2 -42v-113q0 -104 -45 -155q-53 -57 -146 -57q-103 0 -153 66q-38 49 -38 146v116q0 106 46 156q51 57 145 57q153 0 184 -136q44 26 59 46.5t15 52.5q0 18 -8 37zM421 210v105q0 89 -34 131q-38 47 -110 47
q-144 0 -144 -178v-105q0 -90 35.5 -133.5t108.5 -43.5q78 0 116 54q28 42 28 123zM169 628h-33q14 50 33 71.5t50 21.5q32 0 70 -32q36 -33 55 -33q28 0 46 57h33q-13 -51 -31.5 -72t-49.5 -21q-35 0 -72 34q-35 32 -55 32q-28 0 -46 -58z" />
    <glyph glyph-name="uni1EE2.sc" horiz-adv-x="564" 
d="M527 533h45q5 -18 5 -34q0 -43 -25.5 -75t-85.5 -65q2 -16 2 -42v-113q0 -104 -45 -155q-53 -57 -146 -57q-103 0 -153 66q-38 49 -38 146v116q0 106 46 156q51 57 145 57q153 0 184 -136q44 26 59 46.5t15 52.5q0 18 -8 37zM421 210v105q0 89 -34 131q-38 47 -110 47
q-144 0 -144 -178v-105q0 -90 35.5 -133.5t108.5 -43.5q78 0 116 54q28 42 28 123zM253 -184v89h46v-89h-46z" />
    <glyph glyph-name="uni1EE4.sc" horiz-adv-x="572" 
d="M101 525h47v-335q0 -76 23 -108q37 -49 115 -49q86 0 121 57q18 30 18 100v335h47v-335q0 -55 -7 -84.5t-26 -52.5q-49 -61 -152 -61q-112 0 -160 70q-26 40 -26 128v335zM262 -184v89h46v-89h-46z" />
    <glyph glyph-name="uni1EE6.sc" horiz-adv-x="572" 
d="M101 525h47v-335q0 -76 23 -108q37 -49 115 -49q86 0 121 57q18 30 18 100v335h47v-335q0 -55 -7 -84.5t-26 -52.5q-49 -61 -152 -61q-112 0 -160 70q-26 40 -26 128v335zM309 599h-39q1 22 3.5 31t13.5 26q19 30 19 44q0 27 -35 27q-18 0 -42 -9l-11 30q33 11 59 11
q72 0 72 -57q0 -23 -23 -53q-12 -16 -14.5 -24t-2.5 -26z" />
    <glyph glyph-name="uni1EE8.sc" horiz-adv-x="589" 
d="M101 525h47v-335q0 -76 23 -108q37 -49 115 -49q86 0 121 57q18 30 18 100v335h47v-146q60 30 82.5 55t22.5 62q0 20 -8 37h46q4 -17 4 -33q0 -66 -67 -114q-22 -16 -80 -46v-150q0 -55 -7 -84.5t-26 -52.5q-49 -61 -152 -61q-112 0 -160 70q-26 40 -26 128v335zM256 607
l71 134h64l-98 -134h-37z" />
    <glyph glyph-name="uni1EEA.sc" horiz-adv-x="589" 
d="M101 525h47v-335q0 -76 23 -108q37 -49 115 -49q86 0 121 57q18 30 18 100v335h47v-146q60 30 82.5 55t22.5 62q0 20 -8 37h46q4 -17 4 -33q0 -66 -67 -114q-22 -16 -80 -46v-150q0 -55 -7 -84.5t-26 -52.5q-49 -61 -152 -61q-112 0 -160 70q-26 40 -26 128v335zM331 607
h-36l-99 134h65z" />
    <glyph glyph-name="uni1EEC.sc" horiz-adv-x="589" 
d="M101 525h47v-335q0 -76 23 -108q37 -49 115 -49q86 0 121 57q18 30 18 100v335h47v-146q60 30 82.5 55t22.5 62q0 20 -8 37h46q4 -17 4 -33q0 -66 -67 -114q-22 -16 -80 -46v-150q0 -55 -7 -84.5t-26 -52.5q-49 -61 -152 -61q-112 0 -160 70q-26 40 -26 128v335zM313 599
h-39q1 22 3.5 31t13.5 26q19 29 19 44q0 27 -35 27q-17 0 -43 -9l-10 30q33 11 59 11q72 0 72 -57q0 -23 -23 -53q-12 -16 -14.5 -24t-2.5 -26z" />
    </font>
</defs>
</svg>
